<svg xmlns="http://www.w3.org/2000/svg" viewBox="0 0 230 50"><defs><style>.cls-1{fill:#fbb03b;}.cls-2{fill:#fff;}</style></defs><title>Recurso 2</title><g id="Capa_2" data-name="Capa 2"><g id="Capa_2-2" data-name="Capa 2"><path class="cls-1" d="M220,50H10A10,10,0,0,0,0,40V10A10,10,0,0,0,10,0H220a10,10,0,0,0,10,10V40A10,10,0,0,0,220,50Z"/><path class="cls-2" d="M215.08,4a12,12,0,0,0,11,11V35.08a12,12,0,0,0-11,11H14.92a12,12,0,0,0-11-11V14.92a12,12,0,0,0,11-11H215.08M216,3H14A11,11,0,0,1,3,14V36A11,11,0,0,1,14,47H216a11,11,0,0,1,11-11V14A11,11,0,0,1,216,3Z"/></g></g></svg>