<svg xmlns="http://www.w3.org/2000/svg" viewBox="0 0 200 50"><defs><style>.cls-1{fill:#39b54a;}.cls-2{fill:#fff;}</style></defs><title>Recurso 1</title><g id="Capa_2" data-name="Capa 2"><g id="Capa_2-2" data-name="Capa 2"><path class="cls-1" d="M190,50H10A10,10,0,0,0,0,40V10A10,10,0,0,0,10,0H190a10,10,0,0,0,10,10V40A10,10,0,0,0,190,50Z"/><path class="cls-2" d="M185.14,3.89a11.92,11.92,0,0,0,11,11V35.14a11.92,11.92,0,0,0-11,11H14.86a11.92,11.92,0,0,0-11-11V14.86a11.92,11.92,0,0,0,11-11H185.14M186,3H14A11,11,0,0,1,3,14V36A11,11,0,0,1,14,47H186a11,11,0,0,1,11-11V14A11,11,0,0,1,186,3Z"/></g></g></svg>