<svg xmlns="http://www.w3.org/2000/svg" viewBox="0 0 230 50"><defs><style>.cls-1{fill:#39b54a;}.cls-2{fill:#fff;}</style></defs><title>Recurso 4</title><g id="Capa_2" data-name="Capa 2"><g id="Capa_2-2" data-name="Capa 2"><path class="cls-1" d="M220,50H10A10,10,0,0,0,0,40V10A10,10,0,0,0,10,0H220a10,10,0,0,0,10,10V40A10,10,0,0,0,220,50Z"/><path class="cls-2" d="M217.09,4a10,10,0,0,0,8.95,9V37.09A10,10,0,0,0,217.09,46H12.91A10,10,0,0,0,4,37.09V12.91a10,10,0,0,0,9-8.95H217.09M218,3H12a9,9,0,0,1-9,9V38a9,9,0,0,1,9,9H218a9,9,0,0,1,9-9V12a9,9,0,0,1-9-9Z"/></g></g></svg>