<svg width="705" height="465" viewBox="0 0 705 465" fill="none" xmlns="http://www.w3.org/2000/svg">
<g clip-path="url(#clip0_102_142)">
<g clip-path="url(#clip1_102_142)">
<path fill-rule="evenodd" clip-rule="evenodd" d="M521.051 461.997C504.571 461.997 488.031 461.306 473.798 459.222C452.179 456.051 433.092 450.48 418.602 443.098C402.86 435.063 392.995 425.362 389.281 414.21L389.274 414.19C382.657 394.318 370.345 357.345 376.831 329.204C383.136 301.885 411.039 149.594 412.934 138.227C413.089 137.301 413.238 136.293 413.395 135.229C413.519 134.386 413.648 133.508 413.79 132.608L413.794 132.582C415.764 119.158 418.738 98.8928 429.27 90.2901C435.522 85.1745 446.211 80.7498 456.568 76.4698L456.696 76.4168L456.696 76.4168C465.695 72.6868 474.184 69.168 478.712 65.6332C488.347 58.1338 496.333 45.1224 497.28 40.8424L527.055 43.9695L552.315 42.9789L577.832 40.7567C582.456 58.4767 605.258 70.9899 629.404 84.237C640.645 90.3972 652.244 96.7663 663.051 104.11C675.725 112.724 684.322 133.744 690.103 170.255C695.09 201.77 697.318 241.103 699.472 279.148V279.149L699.48 279.296L699.483 279.347C700.922 304.754 702.41 331.02 704.699 354.322C705.727 364.773 702.333 380.57 695.6 396.559C688.641 413.117 679.253 427.457 669.822 435.904C646.27 456.972 613.212 459.243 600.082 459.243C594.813 459.243 586.484 459.669 576.825 460.163L576.821 460.163L576.365 460.186L576.238 460.193C560.75 460.984 540.951 461.997 521.051 461.997ZM429.5 183L432 170L436 150L438.5 132.5L441.5 119.5L445.5 110.5L452.5 105L462.5 104L465.5 121.5V143L462.5 172.5L458.5 192L452 217.5L448.5 229.5L436 228.5L427 221.5L425 210L429.5 183Z" fill="#F6F6F6"/>
<path d="M520.439 465C503.802 465 487.105 464.302 472.737 462.199C450.913 458.998 431.644 453.374 417.017 445.922C401.125 437.811 391.166 428.017 387.416 416.759C380.738 396.702 368.299 359.362 374.848 330.945C381.213 303.367 409.382 149.628 411.294 138.154C411.575 136.477 411.835 134.536 412.159 132.481C414.147 118.929 417.146 98.4509 427.786 89.7608C434.097 84.5966 444.888 80.1299 455.344 75.8092C464.475 72.0239 473.105 68.4549 477.698 64.8696C487.424 57.299 495.486 44.1639 496.442 39.8432L501.192 40.8977C500.074 45.9376 491.466 60.3218 480.686 68.709C475.574 72.6998 466.637 76.3932 457.202 80.3029C447.092 84.4884 436.669 88.8145 430.887 93.53C421.702 101.041 418.87 120.4 416.995 133.206C416.687 135.287 416.401 137.256 416.114 138.975C414.18 150.461 385.968 304.41 379.587 332.059C373.346 359.124 385.531 395.615 392.015 415.218C395.3 425.081 404.702 434.198 419.205 441.585C433.368 448.799 452.118 454.26 473.429 457.381C504.71 461.961 547.624 459.765 576.019 458.311C586.448 457.77 594.683 457.354 600.211 457.354C612.909 457.354 644.865 455.191 667.371 435.031C687.482 417.051 702.893 376.299 700.991 356.778C698.667 333.141 697.165 306.552 695.706 280.839C691.384 204.37 686.904 125.3 661.054 107.741C650.339 100.457 638.721 94.0815 627.482 87.9169C602.167 74.0247 578.251 60.8788 573.053 40.9842L577.759 39.7567C582.428 57.6451 605.447 70.2772 629.822 83.6503C641.169 89.869 652.878 96.2986 663.788 103.712C676.583 112.408 685.261 133.627 691.097 170.486C696.139 202.342 698.386 242.109 700.564 280.563C702.018 306.227 703.52 332.762 705.832 356.302C706.87 366.852 703.444 382.799 696.647 398.941C689.622 415.656 680.144 430.132 670.623 438.66C646.848 459.928 613.476 462.221 600.222 462.221C594.818 462.221 586.227 462.664 576.279 463.172C560.625 463.973 540.583 465 520.439 465Z" fill="#808080"/>
<path d="M493.5 29.5V9.5L494.942 6.13442C493.669 6.33284 495 6 495 6L494.942 6.13442C495.876 5.98891 498.212 5.55769 503.5 4.5C516 2 523.5 2 523.5 2H555.5L581 6L583 12V32.5L581 37L570 40L542.5 42H510.5L497 38.5L493.5 34.5V29.5Z" fill="white"/>
<path d="M493.303 33.1486H493.227C492.908 33.1395 492.594 33.0675 492.303 32.9367C492.012 32.8058 491.749 32.6187 491.53 32.3861C491.311 32.1535 491.14 31.88 491.027 31.5812C490.914 31.2824 490.861 30.9642 490.871 30.6449L491.536 8.28986C491.546 7.9703 491.618 7.65575 491.749 7.36419C491.88 7.07262 492.067 6.80974 492.3 6.59055C492.532 6.37137 492.806 6.20017 493.104 6.08674C493.403 5.9733 493.721 5.91985 494.041 5.92944C494.36 5.93903 494.674 6.01146 494.965 6.14261C495.257 6.27376 495.52 6.46105 495.739 6.69379C495.958 6.92654 496.129 7.20017 496.242 7.49908C496.355 7.79798 496.409 8.1163 496.399 8.43586L495.729 30.7909C495.711 31.4226 495.447 32.0223 494.994 32.4625C494.541 32.9028 493.934 33.1489 493.303 33.1486Z" fill="#808080"/>
<path d="M582.401 33.6191C581.756 33.6191 581.137 33.3627 580.681 32.9063C580.225 32.45 579.969 31.831 579.969 31.1856V8.14924C579.969 7.50386 580.225 6.88491 580.681 6.42855C581.137 5.9722 581.756 5.71582 582.401 5.71582C583.046 5.71582 583.664 5.9722 584.12 6.42855C584.576 6.88491 584.832 7.50386 584.832 8.14924V31.1856C584.833 31.5054 584.771 31.8222 584.649 32.1177C584.527 32.4133 584.348 32.6818 584.122 32.9079C583.896 33.134 583.628 33.3132 583.332 33.4353C583.037 33.5573 582.72 33.6198 582.401 33.6191Z" fill="#808080"/>
<path d="M536.217 44.7372C523.092 44.7372 510.859 43.8611 502.991 42.2767C495.124 40.6923 491.39 38.4914 490.839 35.2089C489.494 27.0975 494.4 25.8808 494.621 25.8322L495.281 25.6807L495.918 25.8916C499.657 27.1084 542.734 35.2468 579.132 25.8484L580.185 25.578L581.088 26.1782C585.411 29.0767 586.297 33.0946 583.536 37.4964C582.628 38.9348 580.412 40.7896 571.254 42.3632C564.076 43.4824 556.839 44.1758 549.58 44.4397C545.106 44.6398 540.61 44.7372 536.217 44.7372ZM495.659 34.3708C495.772 34.56 497.242 36.6257 508.087 38.2102C519.121 39.8325 535.758 40.3083 551.509 39.4701C569.881 38.4914 578.262 36.1931 579.451 34.8737C580.585 33.0567 580.575 31.9968 579.234 30.845C545.836 39.1078 505.482 33.3541 495.735 30.8883C495.502 31.4236 495.324 32.4997 495.659 34.3708Z" fill="#808080"/>
<path d="M538.184 15.2981C526.297 15.2981 515.074 14.7574 506.633 13.7515C494.005 12.2644 491.536 10.388 491.536 7.64635C491.536 4.9047 494.005 3.03367 506.633 1.54658C515.074 0.54076 526.28 0 538.184 0C550.088 0 561.295 0.54076 569.735 1.54658C582.363 3.03367 584.816 4.91011 584.816 7.64635C584.816 10.3826 582.347 12.2644 569.719 13.7515C561.295 14.7465 550.088 15.2981 538.184 15.2981ZM499.209 7.64635C505.309 9.03611 519.137 10.4313 538.184 10.4313C557.231 10.4313 571.059 9.03611 577.159 7.64635C571.059 6.2566 557.258 4.86684 538.184 4.86684C519.11 4.86684 505.309 6.2566 499.209 7.64635Z" fill="#808080"/>
<path d="M459.909 106.762H460.088C465.237 124.726 464.632 150.861 458.294 182.669C455.326 197.429 451.523 212.007 446.903 226.335C446.201 226.373 445.396 226.4 444.52 226.4C439.733 226.4 431.363 225.557 429.164 219.911C426.111 212.043 429.331 195.901 433.06 177.191C434.546 169.729 436.086 162.017 437.48 153.727C438.193 149.51 438.782 145.497 439.355 141.625C440.976 130.61 442.37 121.076 445.482 114.933C448.411 109.126 452.593 106.757 459.909 106.757M459.909 101.89C437.037 101.89 437.636 123.521 432.687 152.916C427.478 183.859 419.772 209.155 424.636 221.658C427.818 229.845 437.923 231.262 444.52 231.262C446.525 231.271 448.527 231.139 450.513 230.867C450.513 230.867 479.519 148.131 463.714 102.069C462.381 101.95 461.12 101.89 459.931 101.89H459.909Z" fill="#808080"/>
<path d="M580.429 122.309C579.933 122.312 579.448 122.164 579.039 121.884C578.63 121.604 578.317 121.205 578.14 120.742C577.964 120.278 577.933 119.772 578.053 119.29C578.172 118.809 578.435 118.375 578.808 118.048C599.984 99.4621 645.27 97.4505 668.678 108.179C668.974 108.309 669.241 108.496 669.464 108.73C669.687 108.964 669.861 109.24 669.976 109.542C670.091 109.844 670.145 110.165 670.134 110.488C670.124 110.811 670.049 111.129 669.914 111.423C669.78 111.717 669.588 111.981 669.35 112.199C669.113 112.418 668.834 112.587 668.53 112.697C668.227 112.807 667.904 112.855 667.582 112.839C667.259 112.823 666.943 112.742 666.652 112.603C644.698 102.534 601.329 104.756 582.012 121.709C581.573 122.092 581.011 122.305 580.429 122.309Z" fill="#808080"/>
<path d="M564.024 428.85C563.396 428.849 562.793 428.606 562.341 428.17C561.889 427.735 561.623 427.141 561.597 426.514C558.085 336.537 560.166 207.009 573.042 135.228C573.156 134.593 573.517 134.029 574.047 133.66C574.576 133.291 575.231 133.148 575.865 133.262C576.5 133.376 577.064 133.738 577.432 134.268C577.801 134.798 577.943 135.452 577.83 136.088C565.018 207.511 562.954 336.602 566.444 426.319C566.457 426.639 566.407 426.958 566.297 427.258C566.187 427.559 566.018 427.834 565.802 428.069C565.585 428.304 565.324 428.494 565.034 428.628C564.743 428.762 564.43 428.838 564.11 428.85H564.024Z" fill="#808080"/>
</g>
<ellipse cx="79" cy="247.503" rx="76" ry="14.5" fill="#E7E7E7"/>
<path d="M22.4277 428.574L3 250.003C19.2651 263.81 126.988 269.332 155 250.003L135.5 428.574C118.783 444.682 40.0482 445.603 22.4277 428.574Z" fill="#F7F7F7"/>
<path d="M79.1831 262.677C121.258 262.677 155.366 256.034 155.366 247.839C155.366 239.644 121.258 233 79.1831 233C37.1084 233 3 239.644 3 247.839C3 256.034 37.1084 262.677 79.1831 262.677Z" stroke="#808080" stroke-width="5" stroke-miterlimit="10"/>
<path d="M135.995 425.904C135.995 434.1 110.561 440.742 79.1832 440.742C47.8057 440.742 22.371 434.111 22.371 425.904" stroke="#808080" stroke-width="5" stroke-miterlimit="10"/>
<path d="M22.4809 425.915L3 247.839" stroke="#808080" stroke-width="5" stroke-linecap="round" stroke-linejoin="round"/>
<path d="M155.37 247.839L135.962 425.915" stroke="#808080" stroke-width="5" stroke-linecap="round" stroke-linejoin="round"/>
<path d="M46.3328 358.679C45.2996 358.679 44.783 358.174 44.783 357.165C44.783 356.157 45.2996 355.662 46.3328 355.682H50.5353V338.498L47.2964 340.564C47.1236 340.692 46.9238 340.779 46.7123 340.818C46.5008 340.857 46.2832 340.846 46.0763 340.788C45.7093 340.671 45.401 340.418 45.2153 340.081C45.0182 339.744 44.9566 339.344 45.0431 338.963C45.0932 338.749 45.1879 338.547 45.3211 338.372C45.4543 338.196 45.623 338.051 45.8162 337.945L50.5792 334.951C50.94 334.736 51.3145 334.545 51.7004 334.38C52.0207 334.239 52.3656 334.163 52.7153 334.156C53.0737 334.147 53.423 334.27 53.6972 334.501C53.8375 334.639 53.9457 334.807 54.0141 334.992C54.0825 335.176 54.1094 335.374 54.0929 335.571V355.682H57.951C59.0062 355.682 59.5338 356.176 59.5338 357.165C59.5338 358.155 59.0062 358.659 57.951 358.679H46.3328Z" fill="#808080"/>
<path d="M66.1691 358.679C65.0016 358.679 64.4166 358.139 64.4141 357.059C64.4141 356.488 64.7243 355.868 65.3448 355.202L72.6725 347.35C73.6368 346.373 74.4549 345.263 75.1017 344.052C75.5755 343.117 75.8263 342.085 75.8345 341.037C75.8345 338.421 74.2956 337.113 71.218 337.113C69.3372 337.099 67.5062 337.717 66.0189 338.868C65.8631 339.004 65.6775 339.102 65.4769 339.153C65.2764 339.204 65.0667 339.207 64.8648 339.161C64.6888 339.111 64.5248 339.025 64.3825 338.91C64.2403 338.795 64.1227 338.652 64.0368 338.491C63.8428 338.151 63.7704 337.756 63.8316 337.37C63.8698 337.155 63.9525 336.951 64.0743 336.771C64.1961 336.59 64.3543 336.437 64.5387 336.322C65.5251 335.584 66.6322 335.024 67.8106 334.666C69.0362 334.279 70.3138 334.083 71.599 334.083C74.0978 334.083 76.0201 334.657 77.366 335.805C78.7118 336.953 79.3835 338.594 79.3811 340.729C79.3735 342.205 79.013 343.657 78.3296 344.965C77.4474 346.581 76.3368 348.062 75.0321 349.361L69.005 355.663H79.0257C80.0809 355.663 80.6085 356.158 80.6085 357.147C80.6085 358.136 80.0809 358.641 79.0257 358.66L66.1691 358.679Z" fill="#808080"/>
<path d="M92.0691 358.99C90.5347 359.029 89.0174 358.66 87.6724 357.92C86.4403 357.219 85.4404 356.172 84.7963 354.909C84.1277 353.456 83.7815 351.875 83.7815 350.276C83.7815 348.676 84.1277 347.096 84.7963 345.643C85.4404 344.38 86.4403 343.333 87.6724 342.631C89.0181 341.893 90.5349 341.524 92.0691 341.561C93.5843 341.528 95.0812 341.897 96.4071 342.631C97.642 343.335 98.6472 344.381 99.3016 345.643C99.9821 347.092 100.335 348.674 100.335 350.276C100.335 351.877 99.9821 353.459 99.3016 354.909C98.6472 356.171 97.642 357.216 96.4071 357.92C95.0819 358.656 93.5845 359.025 92.0691 358.99ZM92.0691 356.305C92.7234 356.327 93.3741 356.198 93.9712 355.93C94.5682 355.661 95.0957 355.259 95.5131 354.755C96.3852 353.722 96.8212 352.229 96.8212 350.278C96.8212 348.326 96.3852 346.838 95.5131 345.815C95.0749 345.332 94.5407 344.947 93.9448 344.683C93.3488 344.42 92.7043 344.283 92.0526 344.283C91.4009 344.283 90.7564 344.42 90.1604 344.683C89.5645 344.947 89.0303 345.332 88.5921 345.815C87.7152 346.836 87.278 348.323 87.2804 350.278C87.2828 352.232 87.7201 353.724 88.5921 354.755C89.0162 355.259 89.55 355.659 90.1527 355.925C90.7553 356.191 91.4108 356.316 92.0691 356.29V356.305Z" fill="#808080"/>
<path d="M104.64 358.679C104.431 358.695 104.221 358.664 104.027 358.586C103.833 358.509 103.659 358.387 103.519 358.232C103.277 357.919 103.166 357.525 103.211 357.133C103.266 356.653 103.477 356.205 103.812 355.858L112.491 344.565H104.431C103.532 344.565 103.084 344.118 103.086 343.224C103.089 342.33 103.537 341.882 104.431 341.88H114.829C115.061 341.861 115.294 341.891 115.514 341.968C115.734 342.045 115.935 342.167 116.104 342.327C116.241 342.472 116.345 342.646 116.408 342.836C116.472 343.026 116.493 343.227 116.47 343.426C116.417 343.894 116.218 344.333 115.903 344.683L107.109 356.041H115.591C116.51 356.041 116.969 356.478 116.969 357.352C116.969 358.227 116.51 358.674 115.591 358.693L104.64 358.679Z" fill="#808080"/>
<path d="M201.87 427.5L180.37 233.5C198.37 248.5 315.37 254.5 346.37 233.5L323.87 427.5C305.37 445 221.37 446 201.87 427.5Z" fill="#F7F7F7"/>
<ellipse cx="263.37" cy="231" rx="83" ry="17" fill="#E7E7E7"/>
<path d="M263.303 247.307C309.106 247.307 346.236 240.075 346.236 231.153C346.236 222.232 309.106 215 263.303 215C217.5 215 180.37 222.232 180.37 231.153C180.37 240.075 217.5 247.307 263.303 247.307Z" stroke="#808080" stroke-width="5" stroke-miterlimit="10"/>
<path d="M325.149 424.995C325.149 433.917 297.46 441.148 263.303 441.148C229.145 441.148 201.457 433.929 201.457 424.995" stroke="#808080" stroke-width="5" stroke-miterlimit="10"/>
<path d="M201.577 425.007L180.37 231.153" stroke="#808080" stroke-width="5" stroke-linecap="round" stroke-linejoin="round"/>
<path d="M346.24 231.153L325.113 425.007" stroke="#808080" stroke-width="5" stroke-linecap="round" stroke-linejoin="round"/>
<path d="M227.554 344.754C226.429 344.754 225.867 344.208 225.867 343.107C225.867 342.006 226.429 341.511 227.554 341.511H232.129V322.785L228.603 325.035C228.415 325.175 228.198 325.27 227.967 325.313C227.737 325.355 227.5 325.343 227.275 325.278C226.874 325.153 226.538 324.877 226.337 324.508C226.224 324.314 226.151 324.099 226.122 323.876C226.094 323.652 226.11 323.426 226.171 323.209C226.232 322.992 226.337 322.79 226.477 322.615C226.618 322.439 226.793 322.294 226.992 322.187L232.177 318.925C232.569 318.692 232.977 318.485 233.397 318.306C233.745 318.152 234.121 318.069 234.502 318.063C234.893 318.05 235.274 318.183 235.571 318.438C235.724 318.588 235.842 318.769 235.916 318.97C235.991 319.171 236.02 319.385 236.002 319.599V341.496H240.202C241.35 341.496 241.925 342.03 241.925 343.091C241.925 344.152 241.35 344.738 240.202 344.738L227.554 344.754Z" fill="#808080"/>
<path d="M256.423 345.093C253.232 345.093 250.764 343.956 249.02 341.683C247.276 339.409 246.406 336.219 246.412 332.111C246.412 327.59 247.386 324.103 249.335 321.649C251.284 319.194 253.984 317.97 257.436 317.975C258.603 317.986 259.76 318.181 260.866 318.554C262.043 318.936 263.142 319.528 264.109 320.301C264.294 320.416 264.45 320.572 264.567 320.756C264.684 320.941 264.757 321.149 264.783 321.365C264.838 321.778 264.759 322.197 264.559 322.562C264.373 322.913 264.056 323.176 263.678 323.296C263.454 323.35 263.22 323.351 262.996 323.299C262.771 323.246 262.562 323.141 262.386 322.993C261.621 322.413 260.765 321.964 259.853 321.665C259.047 321.405 258.207 321.27 257.36 321.266C255.033 321.266 253.253 322.109 252.019 323.794C250.786 325.48 250.166 328 250.161 331.353V332.86C250.605 331.406 251.523 330.142 252.769 329.271C254.029 328.401 255.53 327.95 257.061 327.978C258.478 327.942 259.877 328.306 261.096 329.029C262.316 329.751 263.308 330.803 263.957 332.063C264.651 333.399 264.999 334.888 264.97 336.394C265 337.968 264.627 339.524 263.885 340.913C263.185 342.2 262.139 343.265 260.866 343.988C259.509 344.743 257.976 345.125 256.423 345.093ZM256.199 341.942C256.889 341.969 257.576 341.849 258.215 341.59C258.854 341.332 259.432 340.94 259.909 340.442C260.828 339.351 261.332 337.971 261.332 336.544C261.332 335.117 260.828 333.736 259.909 332.645C258.913 331.683 257.582 331.145 256.197 331.145C254.813 331.145 253.482 331.683 252.486 332.645C251.567 333.736 251.063 335.117 251.063 336.544C251.063 337.971 251.567 339.351 252.486 340.442C252.964 340.941 253.542 341.332 254.182 341.591C254.822 341.849 255.51 341.969 256.199 341.942Z" fill="#808080"/>
<path d="M277.342 345.093C275.673 345.135 274.021 344.734 272.556 343.932C271.217 343.164 270.129 342.024 269.425 340.65C268.697 339.068 268.321 337.348 268.321 335.606C268.321 333.865 268.697 332.145 269.425 330.563C270.125 329.189 271.209 328.047 272.544 327.276C274.01 326.474 275.661 326.074 277.33 326.116C278.985 326.076 280.62 326.477 282.069 327.276C283.41 328.045 284.503 329.183 285.216 330.555C285.956 332.133 286.341 333.855 286.341 335.598C286.341 337.342 285.956 339.064 285.216 340.642C284.503 342.015 283.41 343.154 282.069 343.924C280.624 344.725 278.993 345.128 277.342 345.093ZM277.342 342.169C278.055 342.194 278.763 342.054 279.413 341.761C280.063 341.469 280.637 341.031 281.092 340.482C282.041 339.358 282.516 337.733 282.516 335.608C282.516 333.484 282.037 331.865 281.08 330.75C280.603 330.225 280.021 329.806 279.372 329.518C278.724 329.231 278.022 329.083 277.313 329.083C276.603 329.083 275.901 329.231 275.253 329.518C274.604 329.806 274.022 330.225 273.545 330.75C272.596 331.865 272.121 333.484 272.121 335.608C272.121 337.733 272.596 339.358 273.545 340.482C274.007 341.036 274.589 341.476 275.247 341.768C275.906 342.061 276.623 342.198 277.342 342.169Z" fill="#808080"/>
<path d="M291.027 344.754C290.8 344.774 290.572 344.74 290.361 344.655C290.15 344.571 289.961 344.438 289.811 344.268C289.544 343.929 289.423 343.499 289.472 343.071C289.529 342.549 289.761 342.061 290.13 341.687L299.574 329.386H290.8C289.824 329.386 289.336 328.9 289.336 327.927C289.336 326.953 289.824 326.465 290.8 326.463H302.123C302.375 326.442 302.628 326.475 302.867 326.559C303.105 326.643 303.323 326.776 303.507 326.949C303.657 327.108 303.77 327.297 303.839 327.503C303.908 327.71 303.931 327.929 303.906 328.146C303.849 328.657 303.632 329.137 303.288 329.518L293.715 341.882H302.937C303.937 341.882 304.436 342.357 304.436 343.306C304.436 344.256 303.937 344.742 302.937 344.766L291.027 344.754Z" fill="#808080"/>
</g>
<defs>
<clipPath id="clip0_102_142">
<rect width="705" height="465" fill="white"/>
</clipPath>
<clipPath id="clip1_102_142">
<rect width="333" height="465" fill="white" transform="translate(373)"/>
</clipPath>
</defs>
</svg>
