<svg width="499" height="312" viewBox="0 0 499 312" fill="none" xmlns="http://www.w3.org/2000/svg">
<path d="M473.5 196.5C473.5 224.626 448.407 250.253 407.453 268.877C366.543 287.48 309.992 299 247.5 299C185.008 299 128.457 287.48 87.5473 268.877C46.5925 250.253 21.5 224.626 21.5 196.5C21.5 168.374 46.5925 142.747 87.5473 124.123C128.457 105.52 185.008 94 247.5 94C309.992 94 366.543 105.52 407.453 124.123C448.407 142.747 473.5 168.374 473.5 196.5Z" fill="#E9E9E9" stroke="black"/>
<path d="M498.5 173.5C498.5 187.545 491.607 200.973 479.044 213.234C466.479 225.498 448.272 236.565 425.732 245.87C380.656 264.479 318.349 276 249.5 276C180.651 276 118.344 264.479 73.2677 245.87C50.7282 236.565 32.5209 225.498 19.9562 213.234C7.39311 200.973 0.5 187.545 0.5 173.5C0.5 159.455 7.39311 146.028 19.9562 133.766C32.5209 121.502 50.7282 110.435 73.2677 101.13C118.344 82.5214 180.651 71 249.5 71C318.349 71 380.656 82.5214 425.732 101.13C448.272 110.435 466.479 121.502 479.044 133.766C491.607 146.028 498.5 159.455 498.5 173.5Z" fill="white" stroke="black"/>
<ellipse cx="249.5" cy="193.5" rx="196.5" ry="83.5" fill="black" fill-opacity="0.1"/>
<path d="M40 85C29.2 88.6 24 91.6667 22.5 93.5L135.5 199.5C163.833 189.333 218 169 239 160.5C260 152 308.5 140 308.5 100C308.5 81.3318 303 67 285 56C267 45 247 39 236.5 37.5C226 36 186.5 28 177 29.5C167.5 31 148.5 39 136 44.5C123.5 50 53.5 80.5 40 85Z" fill="#FFE818" stroke="black"/>
<path d="M20.008 97.447C22.5933 91.7669 29.2938 89.258 34.9739 91.8433L121.408 131.183C144.883 141.868 155.251 169.559 144.567 193.034C141.981 198.714 135.281 201.223 129.601 198.637L43.1667 159.297C19.6922 148.613 9.32366 120.922 20.008 97.447Z" fill="#FFE818" stroke="black"/>
<path fill-rule="evenodd" clip-rule="evenodd" d="M35.4655 92.8911L119.614 131.191C123.486 132.953 127.293 134.938 130.579 137.641C150.473 153.998 150.131 175.681 145.5 190.5C144.859 191.909 144.04 193.141 143.085 194.149C141.497 194.221 139.868 193.928 138.322 193.224L50.4534 153.231C29.5798 143.731 20.3601 119.108 29.8607 98.2341C31.0157 95.6964 33.0648 93.8476 35.4655 92.8911Z" fill="#FFB118"/>
<path d="M87.5 81C81 69.5 95 61.5 180.5 29C258.5 32.5 293.5 59 295.5 64.5C235.5 62.5 175.5 102.5 150 106C124.5 109.5 94 92.5 87.5 81Z" fill="#FFE818" stroke="black"/>
<path d="M140.48 56.8229C132.19 61.0385 115 68.5 86 77.5L86.5 75L112.5 67L140.48 56.8229Z" fill="black" fill-opacity="0.4"/>
<path d="M166.056 58.0345C158.094 62.8418 143.724 69.2356 139.807 70.5238C135.891 71.812 127.639 74.0477 127.639 74.0477L166.056 58.0345Z" fill="black" fill-opacity="0.4"/>
<path d="M192.417 112.794C184.456 117.601 170.085 123.995 166.169 125.283C162.252 126.571 154 128.807 154 128.807L192.417 112.794Z" fill="black" fill-opacity="0.4"/>
<path fill-rule="evenodd" clip-rule="evenodd" d="M193.053 29.7271C167.275 41.2316 152.944 48.7632 148 51.8461L198.67 30.4064L193.053 29.7271Z" fill="black" fill-opacity="0.4"/>
<path fill-rule="evenodd" clip-rule="evenodd" d="M231.242 35.5C193.209 51.7602 173.058 62.2166 167 65.9941L236.19 36.7185L231.242 35.5Z" fill="black" fill-opacity="0.4"/>
<path fill-rule="evenodd" clip-rule="evenodd" d="M263.192 44.2942C206.164 67.4796 177.443 82.2046 170 86.8461L267.163 45.7344L263.192 44.2942Z" fill="black" fill-opacity="0.4"/>
<path fill-rule="evenodd" clip-rule="evenodd" d="M307.127 91.5242C242.34 114.757 210.051 129.799 201.998 134.421L308.165 94.0043L307.518 91.655L307.127 91.5242Z" fill="black" fill-opacity="0.4"/>
<path d="M304.749 117.642C268.904 134.901 247.191 144.913 237.213 148.647C235.839 149.107 234.444 149.571 233.028 150.039C234.07 149.766 235.46 149.303 237.213 148.647C262.776 140.1 281.344 133.011 302.194 123.036L304.749 117.642Z" fill="black" fill-opacity="0.4"/>
<path fill-rule="evenodd" clip-rule="evenodd" d="M118.682 101.967C138.559 92.0469 149.919 85.5239 154.165 82.6722L115.312 100.686C116.473 101.088 117.598 101.516 118.682 101.967Z" fill="black" fill-opacity="0.4"/>
<path d="M148.311 180.085C169.684 174.023 208.299 152.515 213 150.5L148.311 176C149.378 176.61 147.33 179.44 148.311 180.085Z" fill="black" fill-opacity="0.4"/>
<path d="M299.951 69.177L301.5 71.5L301.767 71.8554L225 92.6685C231.893 89.5733 255.44 81.1978 299.951 69.177Z" fill="black" fill-opacity="0.4"/>
<path d="M47.5 98C47.5 98 70.2988 88.015 75 86L45.5 96.5L47.5 98Z" fill="black" fill-opacity="0.4"/>
<path d="M102.699 94.6404C102.699 94.6404 88.3579 102.047 86.5 102.5L104.069 95.8102L102.699 94.6404Z" fill="black" fill-opacity="0.4"/>
<path d="M296 65C282.489 72.9304 177.9 119.452 126.5 133.5C133.167 138 144.5 148.5 147.5 162C150.683 176.326 149 190.5 141 197.5C184.715 179.643 247.5 159.5 283 140.5C318.5 121.5 311 79 296 65Z" fill="black" fill-opacity="0.13"/>
<path d="M174 158C163.2 161.6 158 164.667 156.5 166.5L269.5 272.5C297.833 262.333 352 242 373 233.5C394 225 442.5 213 442.5 173C442.5 154.332 437 140 419 129C401 118 381 112 370.5 110.5C360 109 320.5 101 311 102.5C301.5 104 282.5 112 270 117.5C257.5 123 187.5 153.5 174 158Z" fill="#FFE818" stroke="black"/>
<path d="M154.008 170.447C156.593 164.767 163.294 162.258 168.974 164.843L255.408 204.183C278.883 214.868 289.251 242.559 278.567 266.034C275.981 271.714 269.281 274.223 263.601 271.637L177.167 232.297C153.692 221.613 143.324 193.922 154.008 170.447Z" fill="#FFE818" stroke="black"/>
<path fill-rule="evenodd" clip-rule="evenodd" d="M169.465 165.891L253.614 204.191C257.486 205.953 261.293 207.938 264.579 210.641C284.473 226.998 284.131 248.681 279.5 263.5C278.859 264.909 278.04 266.141 277.085 267.149C275.497 267.221 273.868 266.928 272.322 266.224L184.453 226.231C163.58 216.731 154.36 192.108 163.861 171.234C165.016 168.696 167.065 166.848 169.465 165.891Z" fill="#FFB118"/>
<path d="M221.5 154C215 142.5 229 134.5 314.5 102C392.5 105.5 427.5 132 429.5 137.5C369.5 135.5 309.5 175.5 284 179C258.5 182.5 228 165.5 221.5 154Z" fill="#FFE818" stroke="black"/>
<path d="M274.48 129.823C266.19 134.038 249 141.5 220 150.5L220.5 148L246.5 140L274.48 129.823Z" fill="black" fill-opacity="0.4"/>
<path d="M300.056 131.034C292.094 135.842 277.724 142.236 273.807 143.524C269.891 144.812 261.639 147.048 261.639 147.048L300.056 131.034Z" fill="black" fill-opacity="0.4"/>
<path d="M326.418 185.794C318.456 190.601 304.085 196.995 300.169 198.283C296.252 199.571 288 201.807 288 201.807L326.418 185.794Z" fill="black" fill-opacity="0.4"/>
<path fill-rule="evenodd" clip-rule="evenodd" d="M327.053 102.727C301.275 114.232 286.944 121.763 282 124.846L332.67 103.406L327.053 102.727Z" fill="black" fill-opacity="0.4"/>
<path fill-rule="evenodd" clip-rule="evenodd" d="M365.242 108.5C327.209 124.76 307.058 135.217 301 138.994L370.19 109.718L365.242 108.5Z" fill="black" fill-opacity="0.4"/>
<path fill-rule="evenodd" clip-rule="evenodd" d="M397.192 117.294C340.164 140.48 311.443 155.205 304 159.846L401.163 118.734L397.192 117.294Z" fill="black" fill-opacity="0.4"/>
<path fill-rule="evenodd" clip-rule="evenodd" d="M441.127 164.524C376.34 187.757 344.051 202.799 335.998 207.421L442.165 167.004L441.518 164.655L441.127 164.524Z" fill="black" fill-opacity="0.4"/>
<path d="M438.749 190.642C402.904 207.901 381.191 217.913 371.213 221.647C369.839 222.107 368.444 222.571 367.028 223.039C368.07 222.766 369.46 222.303 371.213 221.647C396.776 213.1 415.344 206.011 436.194 196.036L438.749 190.642Z" fill="black" fill-opacity="0.4"/>
<path fill-rule="evenodd" clip-rule="evenodd" d="M252.682 174.967C272.559 165.047 283.919 158.524 288.165 155.672L249.312 173.686C250.473 174.088 251.598 174.516 252.682 174.967Z" fill="black" fill-opacity="0.4"/>
<path d="M282.312 253.085C303.684 247.023 342.299 225.515 347 223.5L282.312 249C283.378 249.61 281.33 252.44 282.312 253.085Z" fill="black" fill-opacity="0.4"/>
<path d="M433.951 142.177L435.5 144.5L435.767 144.855L359 165.668C365.893 162.573 389.44 154.198 433.951 142.177Z" fill="black" fill-opacity="0.4"/>
<path d="M181.5 171C181.5 171 204.299 161.015 209 159L179.5 169.5L181.5 171Z" fill="black" fill-opacity="0.4"/>
<path d="M236.699 167.64C236.699 167.64 222.358 175.047 220.5 175.5L238.069 168.81L236.699 167.64Z" fill="black" fill-opacity="0.4"/>
<path d="M430 138C416.489 145.93 311.9 192.452 260.5 206.5C267.167 211 278.5 221.5 281.5 235C284.683 249.326 283 263.5 275 270.5C318.715 252.643 381.5 232.5 417 213.5C452.5 194.5 445 152 430 138Z" fill="black" fill-opacity="0.13"/>
<path d="M130 57C119.2 60.6 114 63.6667 112.5 65.5L225.5 171.5C253.833 161.333 308 141 329 132.5C350 124 398.5 112 398.5 72C398.5 53.3318 393 39 375 28C357 17 337 11 326.5 9.5C316 8 276.5 -1.87159e-05 267 1.49998C257.5 2.99998 238.5 11 226 16.5C213.5 22 143.5 52.5 130 57Z" fill="#FFE818" stroke="black"/>
<path d="M110.008 69.447C112.593 63.7669 119.294 61.258 124.974 63.8433L211.408 103.183C234.883 113.868 245.251 141.559 234.567 165.034C231.981 170.714 225.281 173.223 219.601 170.637L133.167 131.297C109.692 120.613 99.3237 92.9216 110.008 69.447Z" fill="#FFE818" stroke="black"/>
<path fill-rule="evenodd" clip-rule="evenodd" d="M125.465 64.8911L209.614 103.191C213.486 104.953 217.293 106.938 220.579 109.641C240.473 125.998 240.131 147.681 235.5 162.5C234.859 163.909 234.04 165.141 233.085 166.149C231.497 166.221 229.868 165.928 228.322 165.224L140.453 125.231C119.58 115.731 110.36 91.1077 119.861 70.2341C121.016 67.6964 123.065 65.8476 125.465 64.8911Z" fill="#FFB118"/>
<path d="M177.5 53C171 41.5 185 33.5 270.5 1C348.5 4.5 383.5 31 385.5 36.5C325.5 34.5 265.5 74.5 240 78C214.5 81.5 184 64.5 177.5 53Z" fill="#FFE818" stroke="black"/>
<path d="M230.48 28.8229C222.19 33.0385 205 40.5 176 49.5L176.5 47L202.5 39L230.48 28.8229Z" fill="black" fill-opacity="0.4"/>
<path d="M256.056 30.0345C248.094 34.8418 233.724 41.2356 229.807 42.5238C225.891 43.812 217.639 46.0477 217.639 46.0477L256.056 30.0345Z" fill="black" fill-opacity="0.4"/>
<path d="M282.418 84.7935C274.456 89.6009 260.085 95.9947 256.169 97.2829C252.252 98.5711 244 100.807 244 100.807L282.418 84.7935Z" fill="black" fill-opacity="0.4"/>
<path fill-rule="evenodd" clip-rule="evenodd" d="M283.053 1.72711C257.275 13.2316 242.944 20.7632 238 23.8461L288.67 2.40636L283.053 1.72711Z" fill="black" fill-opacity="0.4"/>
<path fill-rule="evenodd" clip-rule="evenodd" d="M321.242 7.5C283.209 23.7602 263.058 34.2166 257 37.9941L326.19 8.71846L321.242 7.5Z" fill="black" fill-opacity="0.4"/>
<path fill-rule="evenodd" clip-rule="evenodd" d="M353.192 16.2942C296.164 39.4796 267.443 54.2046 260 58.8461L357.163 17.7344L353.192 16.2942Z" fill="black" fill-opacity="0.4"/>
<path fill-rule="evenodd" clip-rule="evenodd" d="M397.127 63.5242C332.34 86.7571 300.051 101.799 291.998 106.421L398.165 66.0043L397.518 63.655L397.127 63.5242Z" fill="black" fill-opacity="0.4"/>
<path d="M394.749 89.6417C358.904 106.901 337.191 116.913 327.213 120.647C325.839 121.107 324.444 121.571 323.028 122.039C324.07 121.766 325.46 121.303 327.213 120.647C352.776 112.1 371.344 105.011 392.194 95.0355L394.749 89.6417Z" fill="black" fill-opacity="0.4"/>
<path fill-rule="evenodd" clip-rule="evenodd" d="M208.682 73.9668C228.559 64.0469 239.919 57.5239 244.165 54.6722L205.312 72.6861C206.473 73.0881 207.598 73.5156 208.682 73.9668Z" fill="black" fill-opacity="0.4"/>
<path d="M238.311 152.085C259.684 146.023 298.299 124.515 303 122.5L238.311 148C239.378 148.61 237.33 151.44 238.311 152.085Z" fill="black" fill-opacity="0.4"/>
<path d="M389.951 41.177L391.5 43.5L391.767 43.8554L315 64.6685C321.893 61.5733 345.44 53.1978 389.951 41.177Z" fill="black" fill-opacity="0.4"/>
<path d="M137.5 70C137.5 70 160.299 60.015 165 58L135.5 68.5L137.5 70Z" fill="black" fill-opacity="0.4"/>
<path d="M192.699 66.6404C192.699 66.6404 178.358 74.0471 176.5 74.5L194.069 67.8102L192.699 66.6404Z" fill="black" fill-opacity="0.4"/>
<path d="M386 37C372.489 44.9304 267.9 91.4521 216.5 105.5C223.167 110 234.5 120.5 237.5 134C240.683 148.326 239 162.5 231 169.5C274.715 151.643 337.5 131.5 373 112.5C408.5 93.5 401 51 386 37Z" fill="black" fill-opacity="0.13"/>
<ellipse cx="225.5" cy="132" rx="7.5" ry="7" fill="black" fill-opacity="0.2"/>
<ellipse cx="142.5" cy="81" rx="7.5" ry="7" fill="black" fill-opacity="0.2"/>
<circle cx="188.5" cy="100.5" r="6.5" fill="black" fill-opacity="0.2"/>
<circle cx="182.5" cy="132.5" r="6.5" fill="black" fill-opacity="0.2"/>
<circle cx="149.5" cy="116.5" r="6.5" fill="black" fill-opacity="0.2"/>
<ellipse cx="261.597" cy="233.015" rx="6.83265" ry="5.95758" transform="rotate(1.86133 261.597 233.015)" fill="black" fill-opacity="0.2"/>
<ellipse cx="187.432" cy="187.176" rx="6.83265" ry="5.95758" transform="rotate(1.86133 187.432 187.176)" fill="black" fill-opacity="0.2"/>
<ellipse cx="228.778" cy="205.125" rx="5.92163" ry="5.53204" transform="rotate(1.86133 228.778 205.125)" fill="black" fill-opacity="0.2"/>
<ellipse cx="222.43" cy="232.168" rx="5.92163" ry="5.53204" transform="rotate(1.86133 222.43 232.168)" fill="black" fill-opacity="0.2"/>
<ellipse cx="192.825" cy="217.581" rx="5.92163" ry="5.53204" transform="rotate(1.86133 192.825 217.581)" fill="black" fill-opacity="0.2"/>
<ellipse cx="132.376" cy="177.589" rx="6.83265" ry="5.95758" transform="rotate(5.53553 132.376 177.589)" fill="black" fill-opacity="0.2"/>
<ellipse cx="54.5625" cy="113.589" rx="6.83265" ry="5.95758" transform="rotate(5.53553 54.5625 113.589)" fill="black" fill-opacity="0.2"/>
<ellipse cx="113.428" cy="137.077" rx="5.92163" ry="5.53204" transform="rotate(5.53553 113.428 137.077)" fill="black" fill-opacity="0.2"/>
<ellipse cx="95.4278" cy="165.077" rx="5.92163" ry="5.53204" transform="rotate(5.53553 95.4278 165.077)" fill="black" fill-opacity="0.2"/>
<ellipse cx="68.4278" cy="137.077" rx="5.92163" ry="5.53204" transform="rotate(5.53553 68.4278 137.077)" fill="black" fill-opacity="0.2"/>
<path d="M494.5 230C494.5 266.175 465.175 295.5 429 295.5C392.825 295.5 363.5 266.175 363.5 230C363.5 193.825 392.825 164.5 429 164.5C465.175 164.5 494.5 193.825 494.5 230Z" fill="white" stroke="#663333" stroke-width="9"/>
<path d="M396.659 203.555L400.834 212.508L405.159 203.555H413.296L406.215 217.144L413.56 230.733H405.489L400.834 221.709L396.295 230.733H388.109L395.47 217.144L388.472 203.555H396.659Z" fill="#663333"/>
<path d="M432.545 194.495V230.733H424.391V202.67H424.193L416.634 207.624V200.051L424.969 194.495H432.545Z" fill="#663333"/>
<path d="M440.018 230.733V224.434L452.347 212.862C453.271 211.965 454.058 211.145 454.707 210.402C455.357 209.647 455.852 208.892 456.193 208.137C456.534 207.371 456.704 206.539 456.704 205.643C456.704 204.64 456.501 203.785 456.094 203.077C455.687 202.357 455.125 201.803 454.41 201.414C453.695 201.025 452.875 200.83 451.951 200.83C451.016 200.83 450.196 201.036 449.492 201.449C448.787 201.85 448.237 202.434 447.841 203.201C447.456 203.968 447.263 204.899 447.263 205.997H439.523C439.523 203.531 440.04 201.402 441.074 199.609C442.108 197.816 443.561 196.436 445.431 195.469C447.313 194.49 449.497 194 451.984 194C454.548 194 456.776 194.46 458.669 195.38C460.561 196.3 462.025 197.586 463.059 199.237C464.104 200.877 464.627 202.782 464.627 204.953C464.627 206.333 464.368 207.701 463.851 209.058C463.334 210.414 462.404 211.912 461.062 213.552C459.73 215.191 457.838 217.156 455.384 219.444L451.34 223.443V223.673H465.04V230.733H440.018Z" fill="#663333"/>
<path d="M389.073 245.463V248.659H380.471V245.463H389.073ZM382.273 242.196H386.614V254.811C386.614 255.077 386.655 255.293 386.738 255.459C386.827 255.619 386.954 255.734 387.12 255.805C387.286 255.87 387.484 255.903 387.715 255.903C387.881 255.903 388.055 255.888 388.239 255.859C388.428 255.823 388.57 255.793 388.665 255.77L389.322 258.904C389.115 258.963 388.822 259.037 388.443 259.126C388.07 259.214 387.623 259.271 387.102 259.294C386.084 259.342 385.211 259.223 384.483 258.939C383.761 258.649 383.208 258.199 382.823 257.59C382.444 256.98 382.261 256.214 382.273 255.29V242.196Z" fill="#663333"/>
<path d="M395.132 259.33C394.262 259.33 393.49 259.185 392.815 258.895C392.146 258.599 391.617 258.155 391.226 257.563C390.841 256.965 390.649 256.217 390.649 255.317C390.649 254.559 390.782 253.92 391.048 253.399C391.315 252.879 391.682 252.455 392.149 252.13C392.617 251.804 393.155 251.559 393.765 251.393C394.375 251.221 395.026 251.106 395.718 251.047C396.494 250.976 397.118 250.902 397.591 250.825C398.065 250.742 398.408 250.627 398.621 250.479C398.84 250.325 398.95 250.109 398.95 249.831V249.786C398.95 249.33 398.793 248.978 398.479 248.73C398.166 248.481 397.742 248.357 397.21 248.357C396.636 248.357 396.174 248.481 395.825 248.73C395.476 248.978 395.254 249.322 395.159 249.76L391.155 249.617C391.273 248.789 391.578 248.049 392.069 247.398C392.567 246.741 393.247 246.226 394.111 245.853C394.981 245.474 396.026 245.285 397.245 245.285C398.115 245.285 398.917 245.389 399.651 245.596C400.385 245.797 401.024 246.093 401.569 246.484C402.113 246.868 402.533 247.342 402.829 247.904C403.131 248.466 403.282 249.108 403.282 249.831V259.099H399.198V257.199H399.092C398.849 257.661 398.538 258.051 398.16 258.371C397.787 258.691 397.346 258.93 396.837 259.09C396.334 259.25 395.766 259.33 395.132 259.33ZM396.473 256.489C396.94 256.489 397.361 256.394 397.733 256.205C398.112 256.015 398.414 255.755 398.639 255.424C398.864 255.086 398.976 254.696 398.976 254.252V252.956C398.852 253.021 398.701 253.08 398.524 253.133C398.352 253.186 398.163 253.237 397.955 253.284C397.748 253.331 397.535 253.373 397.316 253.408C397.097 253.444 396.887 253.476 396.686 253.506C396.278 253.571 395.928 253.672 395.638 253.808C395.354 253.944 395.135 254.121 394.981 254.34C394.833 254.554 394.759 254.808 394.759 255.104C394.759 255.554 394.919 255.897 395.239 256.134C395.564 256.371 395.976 256.489 396.473 256.489Z" fill="#663333"/>
<path d="M405.937 259.099V245.463H410.065V247.966H410.216C410.5 247.138 410.979 246.484 411.654 246.004C412.329 245.525 413.134 245.285 414.069 245.285C415.016 245.285 415.827 245.528 416.501 246.013C417.176 246.498 417.605 247.149 417.789 247.966H417.931C418.185 247.155 418.682 246.507 419.422 246.022C420.162 245.531 421.035 245.285 422.041 245.285C423.331 245.285 424.379 245.699 425.184 246.528C425.989 247.351 426.391 248.481 426.391 249.919V259.099H422.05V250.914C422.05 250.233 421.875 249.715 421.526 249.36C421.177 248.999 420.724 248.818 420.168 248.818C419.57 248.818 419.099 249.014 418.756 249.404C418.419 249.789 418.25 250.307 418.25 250.958V259.099H414.078V250.869C414.078 250.236 413.906 249.736 413.563 249.369C413.219 249.002 412.767 248.818 412.204 248.818C411.826 248.818 411.491 248.91 411.201 249.094C410.911 249.271 410.683 249.526 410.518 249.857C410.358 250.189 410.278 250.579 410.278 251.029V259.099H405.937Z" fill="#663333"/>
<path d="M432.925 259.33C432.055 259.33 431.283 259.185 430.608 258.895C429.939 258.599 429.41 258.155 429.019 257.563C428.634 256.965 428.442 256.217 428.442 255.317C428.442 254.559 428.575 253.92 428.841 253.399C429.108 252.879 429.475 252.455 429.942 252.13C430.41 251.804 430.948 251.559 431.558 251.393C432.168 251.221 432.819 251.106 433.511 251.047C434.287 250.976 434.911 250.902 435.384 250.825C435.858 250.742 436.201 250.627 436.414 250.479C436.633 250.325 436.743 250.109 436.743 249.831V249.786C436.743 249.33 436.586 248.978 436.272 248.73C435.959 248.481 435.535 248.357 435.003 248.357C434.429 248.357 433.967 248.481 433.618 248.73C433.269 248.978 433.047 249.322 432.952 249.76L428.948 249.617C429.066 248.789 429.371 248.049 429.862 247.398C430.36 246.741 431.04 246.226 431.904 245.853C432.774 245.474 433.819 245.285 435.038 245.285C435.908 245.285 436.71 245.389 437.444 245.596C438.178 245.797 438.817 246.093 439.362 246.484C439.906 246.868 440.326 247.342 440.622 247.904C440.924 248.466 441.075 249.108 441.075 249.831V259.099H436.991V257.199H436.885C436.642 257.661 436.331 258.051 435.953 258.371C435.58 258.691 435.139 258.93 434.63 259.09C434.127 259.25 433.559 259.33 432.925 259.33ZM434.266 256.489C434.733 256.489 435.154 256.394 435.526 256.205C435.905 256.015 436.207 255.755 436.432 255.424C436.657 255.086 436.769 254.696 436.769 254.252V252.956C436.645 253.021 436.494 253.08 436.317 253.133C436.145 253.186 435.956 253.237 435.748 253.284C435.541 253.331 435.328 253.373 435.109 253.408C434.89 253.444 434.68 253.476 434.479 253.506C434.07 253.571 433.721 253.672 433.431 253.808C433.147 253.944 432.928 254.121 432.774 254.34C432.626 254.554 432.552 254.808 432.552 255.104C432.552 255.554 432.712 255.897 433.032 256.134C433.357 256.371 433.769 256.489 434.266 256.489Z" fill="#663333"/>
<path d="M448.071 240.917V259.099H443.73V240.917H448.071Z" fill="#663333"/>
<path d="M457.208 259.356C455.782 259.356 454.551 259.075 453.515 258.513C452.485 257.945 451.692 257.137 451.136 256.089C450.585 255.036 450.31 253.784 450.31 252.334C450.31 250.925 450.588 249.694 451.145 248.641C451.701 247.581 452.485 246.759 453.497 246.173C454.509 245.581 455.702 245.285 457.075 245.285C458.046 245.285 458.934 245.436 459.739 245.738C460.543 246.04 461.239 246.487 461.825 247.078C462.411 247.67 462.867 248.401 463.192 249.271C463.518 250.135 463.68 251.127 463.68 252.245V253.328H451.828V250.807H459.641C459.635 250.345 459.525 249.934 459.312 249.573C459.099 249.212 458.806 248.931 458.434 248.73C458.067 248.523 457.643 248.419 457.164 248.419C456.679 248.419 456.244 248.528 455.859 248.747C455.474 248.96 455.169 249.253 454.945 249.626C454.72 249.993 454.601 250.411 454.589 250.878V253.444C454.589 254 454.699 254.488 454.918 254.909C455.137 255.323 455.448 255.646 455.85 255.876C456.253 256.107 456.732 256.223 457.288 256.223C457.673 256.223 458.022 256.169 458.336 256.063C458.65 255.956 458.919 255.799 459.144 255.592C459.369 255.385 459.537 255.131 459.65 254.829L463.636 254.944C463.47 255.838 463.106 256.616 462.544 257.279C461.988 257.936 461.257 258.448 460.351 258.815C459.446 259.176 458.398 259.356 457.208 259.356Z" fill="#663333"/>
<path d="M477.803 249.626L473.817 249.733C473.775 249.449 473.663 249.197 473.479 248.978C473.296 248.753 473.056 248.579 472.76 248.454C472.47 248.324 472.133 248.259 471.748 248.259C471.245 248.259 470.816 248.36 470.461 248.561C470.112 248.762 469.94 249.034 469.946 249.378C469.94 249.644 470.046 249.875 470.265 250.07C470.49 250.266 470.89 250.422 471.464 250.541L474.092 251.038C475.453 251.298 476.465 251.73 477.128 252.334C477.797 252.938 478.134 253.737 478.14 254.731C478.134 255.666 477.856 256.48 477.306 257.173C476.761 257.865 476.015 258.404 475.068 258.788C474.121 259.167 473.038 259.356 471.819 259.356C469.872 259.356 468.336 258.957 467.211 258.158C466.093 257.353 465.454 256.276 465.294 254.926L469.582 254.82C469.677 255.317 469.922 255.696 470.319 255.956C470.715 256.217 471.221 256.347 471.837 256.347C472.393 256.347 472.846 256.243 473.195 256.036C473.544 255.829 473.722 255.554 473.728 255.21C473.722 254.903 473.586 254.657 473.319 254.474C473.053 254.284 472.636 254.136 472.068 254.03L469.688 253.577C468.321 253.328 467.303 252.87 466.634 252.201C465.966 251.526 465.634 250.668 465.64 249.626C465.634 248.715 465.877 247.937 466.368 247.291C466.859 246.64 467.558 246.143 468.463 245.8C469.369 245.457 470.437 245.285 471.668 245.285C473.515 245.285 474.971 245.673 476.036 246.448C477.101 247.217 477.69 248.277 477.803 249.626Z" fill="#663333"/>
</svg>
