<svg width="500" height="230" viewBox="0 0 500 230" fill="none" xmlns="http://www.w3.org/2000/svg">
<path d="M473.735 126.672C473.735 154.812 448.63 180.451 407.655 199.085C366.725 217.698 310.146 229.223 247.623 229.223C185.1 229.223 128.521 217.698 87.5907 199.085C46.6156 180.451 21.5105 154.812 21.5105 126.672C21.5105 98.5315 46.6156 72.892 87.5907 54.2587C128.521 35.6459 185.1 24.1206 247.623 24.1206C310.146 24.1206 366.725 35.6459 407.655 54.2587C448.63 72.892 473.735 98.5315 473.735 126.672Z" fill="#E9E9E9" stroke="black"/>
<path d="M498.748 103.66C498.748 117.713 491.851 131.147 479.282 143.415C466.711 155.684 448.494 166.757 425.944 176.066C380.845 194.684 318.507 206.212 249.624 206.212C180.741 206.212 118.403 194.684 73.3039 176.066C50.7533 166.757 32.5369 155.684 19.9659 143.415C7.39657 131.147 0.5 117.713 0.5 103.66C0.5 89.6079 7.39657 76.1741 19.9659 63.9061C32.5369 51.6364 50.7533 40.5639 73.3039 31.2544C118.403 12.6364 180.741 1.10925 249.624 1.10925C318.507 1.10925 380.845 12.6364 425.944 31.2544C448.494 40.5639 466.711 51.6364 479.282 63.9061C491.851 76.1741 498.748 89.6079 498.748 103.66Z" fill="white" stroke="black"/>
<ellipse cx="249.624" cy="123.67" rx="196.598" ry="83.5415" fill="black" fill-opacity="0.1"/>
<path d="M127.063 68.1428C116.258 71.7445 111.055 74.8128 109.554 76.647L222.611 182.7C250.958 172.528 305.152 152.184 326.162 143.68C347.172 135.176 395.696 123.17 395.696 83.1502C395.696 64.4728 390.194 50.1338 372.185 39.1284C354.176 28.1229 334.166 22.12 323.661 20.6192C313.155 19.1185 273.636 11.1145 264.131 12.6152C254.626 14.116 235.617 22.1199 223.111 27.6227C210.605 33.1254 140.57 63.6405 127.063 68.1428Z" fill="#FFE818" stroke="black"/>
<path d="M122.035 74.9893L208.512 114.349C231.998 125.039 242.372 152.744 231.682 176.23C229.095 181.913 222.391 184.423 216.708 181.837L130.231 142.477C106.745 131.787 96.3713 104.082 107.061 80.5959C109.648 74.9128 116.352 72.4026 122.035 74.9893Z" fill="#FFE818" stroke="black"/>
<path fill-rule="evenodd" clip-rule="evenodd" d="M122.526 76.0378L206.719 114.358C210.591 116.12 214.398 118.105 217.685 120.807C237.591 137.173 237.249 158.868 232.615 173.695C231.974 175.105 231.155 176.337 230.199 177.346C228.61 177.418 226.981 177.125 225.434 176.421L137.522 136.408C116.638 126.903 107.413 102.268 116.919 81.3835C118.074 78.8445 120.125 76.9948 122.526 76.0378Z" fill="#FFB118"/>
<path d="M174.587 64.1408C168.083 52.6351 182.09 44.6311 267.633 12.115C345.671 15.6167 380.689 42.1299 382.69 47.6326C322.66 45.6316 262.63 85.6515 237.118 89.1532C211.605 92.655 181.09 75.6465 174.587 64.1408Z" fill="#FFE818" stroke="black"/>
<path d="M227.593 39.9516C219.299 44.1693 202.1 51.6346 173.086 60.639L173.586 58.1377L199.599 50.1338L227.593 39.9516Z" fill="black" fill-opacity="0.4"/>
<path d="M253.182 41.1639C245.216 45.9736 230.839 52.3706 226.92 53.6594C223.001 54.9483 214.745 57.1851 214.745 57.1851L253.182 41.1639Z" fill="black" fill-opacity="0.4"/>
<path d="M279.556 95.9501C271.591 100.76 257.213 107.157 253.294 108.446C249.376 109.735 241.12 111.971 241.12 111.971L279.556 95.9501Z" fill="black" fill-opacity="0.4"/>
<path fill-rule="evenodd" clip-rule="evenodd" d="M280.192 12.8423C254.401 24.3526 240.063 31.8879 235.117 34.9723L285.812 13.5219L280.192 12.8423Z" fill="black" fill-opacity="0.4"/>
<path fill-rule="evenodd" clip-rule="evenodd" d="M318.4 18.6182C280.348 34.8865 260.187 45.348 254.126 49.1273L323.35 19.8372L318.4 18.6182Z" fill="black" fill-opacity="0.4"/>
<path fill-rule="evenodd" clip-rule="evenodd" d="M350.366 27.4167C293.31 50.6136 264.575 65.346 257.128 69.9898L354.339 28.8577L350.366 27.4167Z" fill="black" fill-opacity="0.4"/>
<path fill-rule="evenodd" clip-rule="evenodd" d="M394.323 74.6701C329.504 97.9146 297.198 112.964 289.141 117.588L395.361 77.1516L394.714 74.801L394.323 74.6701Z" fill="black" fill-opacity="0.4"/>
<path d="M391.943 100.801C356.081 118.068 334.356 128.086 324.374 131.822C322.999 132.281 321.604 132.745 320.187 133.214C321.229 132.94 322.62 132.478 324.374 131.822C349.95 123.27 368.527 116.177 389.387 106.197L391.943 100.801Z" fill="black" fill-opacity="0.4"/>
<path fill-rule="evenodd" clip-rule="evenodd" d="M205.784 85.1178C225.671 75.193 237.037 68.6668 241.285 65.8136L202.412 83.8365C203.574 84.2387 204.699 84.6664 205.784 85.1178Z" fill="black" fill-opacity="0.4"/>
<path d="M235.428 163.275C256.811 157.21 295.445 135.691 300.149 133.675L235.428 159.188C236.496 159.799 234.446 162.63 235.428 163.275Z" fill="black" fill-opacity="0.4"/>
<path d="M387.144 52.3119L388.693 54.636L388.96 54.9916L312.155 75.815C319.051 72.7183 342.61 64.3387 387.144 52.3119Z" fill="black" fill-opacity="0.4"/>
<path d="M134.567 81.1493C134.567 81.1493 157.377 71.1593 162.081 69.1433L132.566 79.6485L134.567 81.1493Z" fill="black" fill-opacity="0.4"/>
<path d="M189.793 77.788C189.793 77.788 175.445 85.1983 173.586 85.6514L191.163 78.9584L189.793 77.788Z" fill="black" fill-opacity="0.4"/>
<path d="M383.19 48.1328C369.672 56.0672 265.032 102.612 213.606 116.667C220.276 121.169 231.615 131.674 234.617 145.181C237.802 159.514 236.117 173.695 228.113 180.698C271.85 162.833 334.666 142.68 370.184 123.67C405.701 104.661 398.198 62.1398 383.19 48.1328Z" fill="black" fill-opacity="0.13"/>
<ellipse cx="222.61" cy="142.18" rx="7.50372" ry="7.00348" fill="black" fill-opacity="0.2"/>
<ellipse cx="139.569" cy="91.1541" rx="7.50372" ry="7.00348" fill="black" fill-opacity="0.2"/>
<circle cx="185.592" cy="110.664" r="6.50323" fill="black" fill-opacity="0.2"/>
<circle cx="179.589" cy="142.68" r="6.50323" fill="black" fill-opacity="0.2"/>
<circle cx="146.573" cy="126.672" r="6.50323" fill="black" fill-opacity="0.2"/>
</svg>
