<svg width="413" height="152" viewBox="0 0 413 152" fill="none" xmlns="http://www.w3.org/2000/svg">
<mask id="path-1-outside-1_242_2" maskUnits="userSpaceOnUse" x="-5" y="-5" width="423" height="162" fill="black">
<rect fill="white" x="-5" y="-5" width="423" height="162"/>
<path d="M0.238637 125.273V94.5909L58.7614 2.54545H86.6023V43.4545H70.6932L39.1591 93.4545V94.5909H125.523V125.273H0.238637ZM70.9773 148V115.898L71.8295 102.545V2.54545H108.761V148H70.9773ZM205.441 151.977C192.231 151.93 180.82 148.876 171.208 142.815C161.596 136.755 154.186 128.019 148.978 116.608C143.77 105.197 141.189 91.5133 141.237 75.5568C141.284 59.553 143.888 45.964 149.049 34.7898C154.257 23.6155 161.644 15.1165 171.208 9.29261C180.82 3.46875 192.231 0.556813 205.441 0.556813C218.651 0.556813 230.062 3.49242 239.674 9.36364C249.286 15.1875 256.696 23.6865 261.904 34.8608C267.112 46.035 269.693 59.6004 269.646 75.5568C269.646 91.608 267.041 105.339 261.833 116.75C256.625 128.161 249.215 136.897 239.603 142.957C230.039 148.971 218.651 151.977 205.441 151.977ZM205.441 119.875C212.259 119.875 217.846 116.324 222.202 109.222C226.606 102.072 228.784 90.8504 228.737 75.5568C228.737 65.5663 227.742 57.3987 225.754 51.054C223.765 44.7093 221.019 40.0218 217.515 36.9915C214.011 33.9138 209.987 32.375 205.441 32.375C198.623 32.375 193.059 35.8314 188.751 42.7443C184.442 49.6572 182.24 60.5947 182.146 75.5568C182.098 85.7367 183.069 94.1174 185.058 100.699C187.046 107.233 189.792 112.062 193.296 115.188C196.847 118.312 200.896 119.875 205.441 119.875ZM286.762 125.273V94.5909L345.285 2.54545H373.126V43.4545H357.217L325.683 93.4545V94.5909H412.046V125.273H286.762ZM357.501 148V115.898L358.353 102.545V2.54545H395.285V148H357.501Z"/>
</mask>
<path d="M0.238637 125.273V94.5909L58.7614 2.54545H86.6023V43.4545H70.6932L39.1591 93.4545V94.5909H125.523V125.273H0.238637ZM70.9773 148V115.898L71.8295 102.545V2.54545H108.761V148H70.9773ZM205.441 151.977C192.231 151.93 180.82 148.876 171.208 142.815C161.596 136.755 154.186 128.019 148.978 116.608C143.77 105.197 141.189 91.5133 141.237 75.5568C141.284 59.553 143.888 45.964 149.049 34.7898C154.257 23.6155 161.644 15.1165 171.208 9.29261C180.82 3.46875 192.231 0.556813 205.441 0.556813C218.651 0.556813 230.062 3.49242 239.674 9.36364C249.286 15.1875 256.696 23.6865 261.904 34.8608C267.112 46.035 269.693 59.6004 269.646 75.5568C269.646 91.608 267.041 105.339 261.833 116.75C256.625 128.161 249.215 136.897 239.603 142.957C230.039 148.971 218.651 151.977 205.441 151.977ZM205.441 119.875C212.259 119.875 217.846 116.324 222.202 109.222C226.606 102.072 228.784 90.8504 228.737 75.5568C228.737 65.5663 227.742 57.3987 225.754 51.054C223.765 44.7093 221.019 40.0218 217.515 36.9915C214.011 33.9138 209.987 32.375 205.441 32.375C198.623 32.375 193.059 35.8314 188.751 42.7443C184.442 49.6572 182.24 60.5947 182.146 75.5568C182.098 85.7367 183.069 94.1174 185.058 100.699C187.046 107.233 189.792 112.062 193.296 115.188C196.847 118.312 200.896 119.875 205.441 119.875ZM286.762 125.273V94.5909L345.285 2.54545H373.126V43.4545H357.217L325.683 93.4545V94.5909H412.046V125.273H286.762ZM357.501 148V115.898L358.353 102.545V2.54545H395.285V148H357.501Z" fill="#EAB308"/>
<path d="M0.238637 125.273H-4.76136V130.273H0.238637V125.273ZM0.238637 94.5909L-3.98074 91.9082L-4.76136 93.136V94.5909H0.238637ZM58.7614 2.54545V-2.45455H56.0153L54.542 -0.137242L58.7614 2.54545ZM86.6023 2.54545H91.6023V-2.45455H86.6023V2.54545ZM86.6023 43.4545V48.4545H91.6023V43.4545H86.6023ZM70.6932 43.4545V38.4545H67.9352L66.464 40.7873L70.6932 43.4545ZM39.1591 93.4545L34.9299 90.7873L34.1591 92.0095V93.4545H39.1591ZM39.1591 94.5909H34.1591V99.5909H39.1591V94.5909ZM125.523 94.5909H130.523V89.5909H125.523V94.5909ZM125.523 125.273V130.273H130.523V125.273H125.523ZM70.9773 148H65.9773V153H70.9773V148ZM70.9773 115.898L65.9874 115.579L65.9773 115.738V115.898H70.9773ZM71.8295 102.545L76.8194 102.864L76.8295 102.705V102.545H71.8295ZM71.8295 2.54545V-2.45455H66.8295V2.54545H71.8295ZM108.761 2.54545H113.761V-2.45455H108.761V2.54545ZM108.761 148V153H113.761V148H108.761ZM5.23864 125.273V94.5909H-4.76136V125.273H5.23864ZM4.45802 97.2736L62.9807 5.22814L54.542 -0.137242L-3.98074 91.9082L4.45802 97.2736ZM58.7614 7.54545H86.6023V-2.45455H58.7614V7.54545ZM81.6023 2.54545V43.4545H91.6023V2.54545H81.6023ZM86.6023 38.4545H70.6932V48.4545H86.6023V38.4545ZM66.464 40.7873L34.9299 90.7873L43.3883 96.1218L74.9223 46.1218L66.464 40.7873ZM34.1591 93.4545V94.5909H44.1591V93.4545H34.1591ZM39.1591 99.5909H125.523V89.5909H39.1591V99.5909ZM120.523 94.5909V125.273H130.523V94.5909H120.523ZM125.523 120.273H0.238637V130.273H125.523V120.273ZM75.9773 148V115.898H65.9773V148H75.9773ZM75.9671 116.216L76.8194 102.864L66.8397 102.227L65.9874 115.579L75.9671 116.216ZM76.8295 102.545V2.54545H66.8295V102.545H76.8295ZM71.8295 7.54545H108.761V-2.45455H71.8295V7.54545ZM103.761 2.54545V148H113.761V2.54545H103.761ZM108.761 143H70.9773V153H108.761V143ZM205.441 151.977L205.423 156.977L205.432 156.977H205.441V151.977ZM171.208 142.815L168.541 147.045L168.541 147.045L171.208 142.815ZM148.978 116.608L144.429 118.684L144.429 118.684L148.978 116.608ZM141.237 75.5568L146.236 75.5717L146.236 75.5716L141.237 75.5568ZM149.049 34.7898L144.517 32.6775L144.513 32.6854L144.51 32.6933L149.049 34.7898ZM171.208 9.29261L168.617 5.01633L168.608 5.02203L171.208 9.29261ZM239.674 9.36364L237.068 13.6306L237.075 13.6353L237.083 13.6399L239.674 9.36364ZM261.904 34.8608L266.436 32.7485L266.436 32.7485L261.904 34.8608ZM269.646 75.5568L264.646 75.542L264.646 75.5494V75.5568H269.646ZM261.833 116.75L266.382 118.826L266.382 118.826L261.833 116.75ZM239.603 142.957L242.264 147.19L242.27 147.187L239.603 142.957ZM222.202 109.222L217.945 106.6L217.94 106.607L222.202 109.222ZM228.737 75.5568H223.737V75.5646L223.737 75.5723L228.737 75.5568ZM225.754 51.054L230.525 49.5585L230.525 49.5585L225.754 51.054ZM217.515 36.9915L214.215 40.7481L214.23 40.7607L214.244 40.7733L217.515 36.9915ZM188.751 42.7443L184.507 40.0995L184.507 40.0995L188.751 42.7443ZM182.146 75.5568L177.146 75.5252L177.146 75.5336L182.146 75.5568ZM185.058 100.699L180.271 102.145L180.274 102.155L185.058 100.699ZM193.296 115.188L189.968 118.919L189.981 118.93L189.993 118.941L193.296 115.188ZM205.459 146.977C193.031 146.933 182.572 144.07 173.875 138.586L168.541 147.045C179.068 153.682 191.43 156.927 205.423 156.977L205.459 146.977ZM173.875 138.586C165.171 133.098 158.374 125.153 153.527 114.532L144.429 118.684C149.998 130.885 158.021 140.412 168.541 147.045L173.875 138.586ZM153.527 114.532C148.688 103.93 146.191 90.9963 146.236 75.5717L136.237 75.542C136.188 92.0302 138.852 106.464 144.429 118.684L153.527 114.532ZM146.236 75.5716C146.282 60.0798 148.805 47.2429 153.588 36.8863L144.51 32.6933C138.971 44.6851 136.285 59.0262 136.237 75.542L146.236 75.5716ZM153.581 36.9021C158.416 26.5281 165.171 18.8225 173.809 13.5632L168.608 5.02203C158.116 11.4104 150.098 20.703 144.517 32.6775L153.581 36.9021ZM173.799 13.5689C182.502 8.29597 192.982 5.55681 205.441 5.55681V-4.44319C191.479 -4.44319 179.138 -1.35848 168.617 5.01634L173.799 13.5689ZM205.441 5.55681C217.893 5.55681 228.368 8.31631 237.068 13.6306L242.28 5.09671C231.757 -1.33147 219.41 -4.44319 205.441 -4.44319V5.55681ZM237.083 13.6399C245.766 18.901 252.54 26.6057 257.372 36.9731L266.436 32.7485C260.852 20.7674 252.806 11.474 242.265 5.08736L237.083 13.6399ZM257.372 36.9731C262.193 47.3155 264.691 60.1124 264.646 75.542L274.646 75.5717C274.694 59.0884 272.032 44.7545 266.436 32.7485L257.372 36.9731ZM264.646 75.5568C264.646 91.0846 262.124 104.07 257.285 114.674L266.382 118.826C271.958 106.608 274.646 92.1313 274.646 75.5568H264.646ZM257.285 114.674C252.437 125.295 245.64 133.24 236.936 138.728L242.27 147.187C252.79 140.554 260.813 131.027 266.382 118.826L257.285 114.674ZM236.942 138.724C228.301 144.157 217.872 146.977 205.441 146.977V156.977C219.431 156.977 231.776 153.785 242.264 147.19L236.942 138.724ZM205.441 124.875C214.403 124.875 221.434 120.039 226.465 111.836L217.94 106.607C214.259 112.609 210.115 114.875 205.441 114.875V124.875ZM226.46 111.844C231.608 103.484 233.785 91.1098 233.736 75.5413L223.737 75.5723C223.783 90.5909 221.603 100.66 217.945 106.6L226.46 111.844ZM233.737 75.5568C233.737 65.2871 232.721 56.5651 230.525 49.5585L220.982 52.5494C222.764 58.2323 223.737 65.8455 223.737 75.5568H233.737ZM230.525 49.5585C228.373 42.6928 225.235 37.0574 220.786 33.2097L214.244 40.7733C216.803 42.9861 219.157 46.7258 220.982 52.5494L230.525 49.5585ZM220.815 33.2349C216.424 29.3787 211.235 27.375 205.441 27.375V37.375C208.738 37.375 211.598 38.449 214.215 40.7481L220.815 33.2349ZM205.441 27.375C196.538 27.375 189.522 32.0541 184.507 40.0995L192.994 45.3891C196.597 39.6087 200.707 37.375 205.441 37.375V27.375ZM184.507 40.0995C179.45 48.2135 177.242 60.2993 177.146 75.5252L187.145 75.5885C187.239 60.89 189.434 51.1009 192.994 45.3891L184.507 40.0995ZM177.146 75.5336C177.097 85.9962 178.087 94.9177 180.271 102.145L189.844 99.2526C188.05 93.3172 187.1 85.4773 187.146 75.5801L177.146 75.5336ZM180.274 102.155C182.416 109.191 185.536 114.966 189.968 118.919L196.624 111.456C194.049 109.159 191.677 105.275 189.841 99.2431L180.274 102.155ZM189.993 118.941C194.416 122.834 199.627 124.875 205.441 124.875V114.875C202.165 114.875 199.278 113.791 196.599 111.434L189.993 118.941ZM286.762 125.273H281.762V130.273H286.762V125.273ZM286.762 94.5909L282.543 91.9082L281.762 93.136V94.5909H286.762ZM345.285 2.54545V-2.45455H342.539L341.065 -0.137242L345.285 2.54545ZM373.126 2.54545H378.126V-2.45455H373.126V2.54545ZM373.126 43.4545V48.4545H378.126V43.4545H373.126ZM357.217 43.4545V38.4545H354.459L352.987 40.7873L357.217 43.4545ZM325.683 93.4545L321.453 90.7873L320.683 92.0095V93.4545H325.683ZM325.683 94.5909H320.683V99.5909H325.683V94.5909ZM412.046 94.5909H417.046V89.5909H412.046V94.5909ZM412.046 125.273V130.273H417.046V125.273H412.046ZM357.501 148H352.501V153H357.501V148ZM357.501 115.898L352.511 115.579L352.501 115.738V115.898H357.501ZM358.353 102.545L363.343 102.864L363.353 102.705V102.545H358.353ZM358.353 2.54545V-2.45455H353.353V2.54545H358.353ZM395.285 2.54545H400.285V-2.45455H395.285V2.54545ZM395.285 148V153H400.285V148H395.285ZM291.762 125.273V94.5909H281.762V125.273H291.762ZM290.981 97.2736L349.504 5.22814L341.065 -0.137242L282.543 91.9082L290.981 97.2736ZM345.285 7.54545H373.126V-2.45455H345.285V7.54545ZM368.126 2.54545V43.4545H378.126V2.54545H368.126ZM373.126 38.4545H357.217V48.4545H373.126V38.4545ZM352.987 40.7873L321.453 90.7873L329.912 96.1218L361.446 46.1218L352.987 40.7873ZM320.683 93.4545V94.5909H330.683V93.4545H320.683ZM325.683 99.5909H412.046V89.5909H325.683V99.5909ZM407.046 94.5909V125.273H417.046V94.5909H407.046ZM412.046 120.273H286.762V130.273H412.046V120.273ZM362.501 148V115.898H352.501V148H362.501ZM362.491 116.216L363.343 102.864L353.363 102.227L352.511 115.579L362.491 116.216ZM363.353 102.545V2.54545H353.353V102.545H363.353ZM358.353 7.54545H395.285V-2.45455H358.353V7.54545ZM390.285 2.54545V148H400.285V2.54545H390.285ZM395.285 143H357.501V153H395.285V143Z" fill="#7C2D12" mask="url(#path-1-outside-1_242_2)"/>
</svg>
