<?xml version="1.0" encoding="utf-8"?>
<!-- Generator: Adobe Illustrator 24.0.0, SVG Export Plug-In . SVG Version: 6.00 Build 0)  -->
<svg version="1.1" id="Capa_1" xmlns="http://www.w3.org/2000/svg" xmlns:xlink="http://www.w3.org/1999/xlink" x="0px" y="0px"
	 viewBox="0 0 499.4 324.3" style="enable-background:new 0 0 499.4 324.3;" xml:space="preserve">
<style type="text/css">
	.st0{fill:#FFFFFF;}
	.st1{fill:#808080;}
	.st2{fill:none;}
</style>
<title>Recurso 1</title>
<g id="Capa_2_1_">
	<g id="Capa_8">
		<ellipse class="st0" cx="251.2" cy="213" rx="219.5" ry="89.8"/>
		<path class="st1" d="M251.2,305.8c-59,0-114.6-9.4-156.4-26.5c-42.7-17.5-66.2-41-66.2-66.3s23.5-48.9,66.2-66.3
			c41.8-17.1,97.4-26.5,156.4-26.5s114.6,9.4,156.4,26.5c42.7,17.5,66.2,41,66.2,66.3s-23.5,48.9-66.2,66.3
			C365.8,296.4,310.3,305.8,251.2,305.8z M251.2,126.3c-58.3,0-113,9.3-154.1,26.1c-19.8,8.1-35.3,17.5-46.1,27.9
			S34.8,201.7,34.8,213s5.5,22.3,16.3,32.8c10.8,10.5,26.3,19.8,46.1,27.9c41.1,16.8,95.8,26.1,154.1,26.1s113-9.3,154.1-26.1
			c19.8-8.1,35.3-17.5,46.1-27.9s16.3-21.5,16.3-32.8s-5.5-22.3-16.3-32.8s-26.3-19.8-46.1-27.9
			C364.2,135.5,309.5,126.3,251.2,126.3z"/>
		<ellipse class="st0" cx="249.7" cy="184.8" rx="246.7" ry="100.9"/>
		<path class="st1" d="M249.7,288.8c-66.3,0-128.6-10.6-175.6-29.8C26.3,239.4,0,213.1,0,184.8s26.3-54.6,74.1-74.2
			c47-19.2,109.3-29.8,175.6-29.8s128.6,10.6,175.6,29.8c47.8,19.6,74.1,45.9,74.1,74.2s-26.3,54.6-74.1,74.2
			C378.3,278.2,316,288.8,249.7,288.8z M249.7,86.9c-65.5,0-127,10.4-173.3,29.3c-22.3,9.1-39.8,19.8-51.9,31.5S6.1,172,6.1,184.8
			s6.2,25.3,18.5,37.1s29.6,22.3,51.9,31.4c46.2,18.9,107.8,29.3,173.3,29.3s127-10.4,173.3-29.3c22.3-9.1,39.8-19.7,51.9-31.4
			s18.5-24.3,18.5-37.1s-6.2-25.2-18.5-37.1s-29.6-22.3-51.9-31.4C376.8,97.3,315.2,86.9,249.7,86.9L249.7,86.9z"/>
		<path class="st2" d="M78.5,226c-18.8-10.6-29.7-23-29.7-36.3"/>
		<path class="st1" d="M78.5,228.7c-0.5,0-0.9-0.1-1.3-0.4C56.8,216.9,46,203.6,46,189.7c0.1-1.5,1.4-2.7,2.9-2.6
			c1.4,0.1,2.5,1.2,2.6,2.6c0,11.8,9.8,23.5,28.3,33.9c1.3,0.7,1.8,2.4,1.1,3.7C80.3,228.2,79.4,228.7,78.5,228.7L78.5,228.7z"/>
		<path class="st2" d="M419.7,229.8c-36.9,18-97.9,29.7-167,29.7c-40.7,0-78.7-4.1-110.6-11.1"/>
		<path class="st1" d="M252.8,262.2c-39.6,0-78-3.9-111.2-11.2c-1.5-0.4-2.3-1.9-1.9-3.4c0.4-1.3,1.7-2.2,3.1-2
			c32.7,7.2,70.8,11.1,110,11.1c65.9,0,127.9-11,165.8-29.4c1.4-0.7,3-0.1,3.7,1.3c0.7,1.4,0.1,3-1.3,3.7l0,0
			C382.4,251,319.5,262.2,252.8,262.2z"/>
		<path class="st2" d="M446.3,167.5c6.8,7,10.5,14.4,10.5,22.1c0,6.8-2.8,13.4-8.1,19.6"/>
		<path class="st1" d="M448.6,212c-0.9,0-1.7-0.4-2.3-1.2c-0.7-1.1-0.6-2.5,0.3-3.5c4.9-5.8,7.4-11.7,7.4-17.7
			c0-6.8-3.2-13.5-9.5-20.1c-1.1-1.1-1.2-2.8-0.2-3.9c1-1.1,2.8-1.2,3.9-0.1l0.1,0.1c7.5,7.6,11.2,15.7,11.2,24
			c0,7.3-3,14.5-8.8,21.4C450.2,211.7,449.4,212,448.6,212z"/>
		<path class="st0" d="M39.7,105.4c0,0,48.2-18.9,65.3-26.2s75.6-32.9,87.8-33.5s40.9,10.3,52.4,12.8s31.7,2.5,43.9,7.3
			c8.1,3.2,16,8.2,22.3,17.4s12.2,20.7,10.4,41.5c-1.9,22-22,30.5-47,42.7s-119.2,58.2-119.2,58.2l-5.2-2.1l0.6-10.4
			c1.8-26.8-0.8-45-4.3-50.6c-1.8-7.3-22-19.5-40.2-27.4c-25.7-11.2-42.1-16.5-61.6-22.6C41.9,111.5,39.7,105.4,39.7,105.4
			L39.7,105.4z"/>
		<path class="st1" d="M193.8,51.1c7.5,0,22,4.4,33.6,8c6.7,2.1,12.5,3.8,16.7,4.7c4.6,1,10.1,1.6,16.1,2.2c9.4,1,20,2.1,27,4.9
			c8.7,3.4,15,8.3,19.7,15.3c5.5,8.1,11.2,18.3,9.5,37.9c-0.7,8.1-4.3,14.3-11.5,20.2s-17,10.6-28.5,16.1l-3.9,1.9
			c-22.2,10.8-100,48.9-116.2,56.8l0.3-5.8c1.6-24.2-0.2-44.8-4.7-53.1c-1-3.2-4.2-8.1-16-15.9c-8.7-5.5-17.7-10.3-27.2-14.4
			c-19.6-8.6-39.6-15.9-60.1-22.1c14-5.5,45.5-18,58.6-23.6l4.8-2.1c10.7-4.6,28.5-12.3,45.1-18.9c25.8-10.3,33.6-12,36-12.1
			L193.8,51.1 M193.8,45.7h-1c-12.2,0.6-70.7,26.2-87.8,33.5s-65.3,26.2-65.3,26.2s2.3,6.1,5.2,7c19.5,6.1,35.9,11.4,61.6,22.6
			c18.3,7.9,38.4,20.1,40.2,27.4c3.5,5.6,6.1,23.8,4.3,50.6l-0.6,10.4l5.2,2.1c0,0,94.2-46,119.2-58.2s45-20.7,47-42.7
			c1.8-20.7-4.2-32.4-10.4-41.5S297.2,69,289.1,65.8c-12.2-4.8-32.3-4.9-43.9-7.3C233.9,56.1,206.5,45.7,193.8,45.7L193.8,45.7z"/>
		<path class="st0" d="M39.7,105.4c0,0,98.2,27.4,111.6,53.7c9.3,18.2,4.3,66.5,4.3,66.5S64.7,190.8,47,164
			C37,148.8,39.7,105.4,39.7,105.4z"/>
		<path class="st1" d="M44.9,112.7c9,2.7,26,8.1,43.7,14.9c43.9,17,55.1,28.6,57.9,34c6,11.7,5.4,40,4.3,56.1
			c-8.5-3.4-24-10-40.4-17.9c-40.1-19.3-54-31.9-58.7-38.9C45.4,151.6,44.6,127.1,44.9,112.7 M39.7,105.5c0,0-2.7,43.3,7.3,58.5
			c17.7,26.8,108.5,61.6,108.5,61.6s5.1-48.3-4.3-66.5C137.9,132.9,39.7,105.5,39.7,105.5L39.7,105.5z"/>
		<path class="st0" d="M77.2,123.4c-9.9-0.3-16.6,8.1-12.8,16.5c3.9,8.5,18.9,8.5,18.9,8.5s-1.2,14.6,4.3,22
			c11.6,12.8,29.5,12,42.1,14.6c11.6,9.8,21.9,14.6,21.9,14c0-13.2-1.2-29.9-5.5-37.8S121.7,138.7,77.2,123.4z"/>
		<path class="st1" d="M76.6,123.4h0.6c44.5,15.3,64.6,29.9,68.9,37.8s5.5,24.6,5.5,37.8c0,0,0,0.1-0.1,0.1
			c-1.1,0-10.9-4.9-21.9-14.1c-12.5-2.6-30.5-1.8-42.1-14.6c-5.5-7.3-4.3-22-4.3-22s-15,0-18.9-8.5
			C60.6,131.7,67.1,123.4,76.6,123.4 M76.6,117.9c-6.5-0.1-12.6,3-16.2,8.4c-3.1,4.8-3.4,10.8-1,15.9c3.5,7.7,12.4,10.4,18.3,11.3
			c0.1,5.7,1.1,14.4,5.5,20.2l0.2,0.2l0.2,0.2c10.4,11.5,24.8,13.4,36.5,15c2.6,0.4,5,0.7,7.3,1.1c4.5,3.7,9.3,7.1,14.3,10.1
			c7.3,4.4,9.1,4.4,10,4.4c3.1,0,5.6-2.5,5.6-5.5c0-10.8-0.8-30.5-6.1-40.4c-3.7-6.9-13.7-13.7-21.4-18.3
			c-12.9-7.6-29.9-15-50.6-22.1l-0.8-0.3h-0.8L76.6,117.9L76.6,117.9z"/>
		<path class="st0" d="M93.3,105.4c-0.3-1.9,21.2-13.6,45.1-26.8c23-12.8,45.1-27.4,57.9-27.4c14,0,35.9,9.8,46.6,12.5
			c14.6,3.7,44.8,2.8,57,14.3c3.2,3.2,5.9,7,8,11c0,0-9.9-4.4-26.8-1.2c-22.6,4.3-51.2,12.8-78.7,23.2s-50,18.3-56.1,19.5
			C138.5,128.6,104.9,114,93.3,105.4z"/>
		<path class="st1" d="M196.4,51.2c14,0,35.9,9.8,46.7,12.5c14.6,3.7,44.8,2.8,57,14.3c3.2,3.2,5.9,7,8,11c0,0-5.3-2.4-14.9-2.4
			c-4,0-8,0.4-12,1.2c-22.6,4.3-51.2,12.8-78.7,23.2s-50,18.3-56.1,19.5c-7.9-1.8-41.5-16.5-53.1-25c-0.3-1.9,21.2-13.6,45.1-26.8
			C161.4,65.9,183.6,51.2,196.4,51.2 M196.4,45.7c-11.6,0-27.8,9.3-46.4,20.1c-4.6,2.7-9.4,5.4-14.1,8l-6.1,3.4
			C119.1,83,109.1,88.6,102,92.8c-3.9,2.3-6.8,4.1-8.8,5.4c-2.5,1.7-6,4.1-5.3,8.2l0.4,2.2l1.8,1.3c12.2,9,46.7,24,55.1,25.9
			l1.2,0.3l1.1-0.2c9.2-1.8,45.9-15.6,57-19.8c27.6-10.4,56-18.8,77.7-22.9c3.6-0.7,7.3-1.1,11-1.1c7.8,0,12.3,1.8,12.6,1.9
			l14.2,6.7l-7.1-14.1c-2.4-4.6-5.4-8.8-9.1-12.5c-9.8-9.3-27.7-11.4-43.4-13.3c-5.4-0.5-10.7-1.3-16.1-2.4c-3.2-0.8-7.7-2.4-12.5-4
			C220.7,50.5,206.9,45.7,196.4,45.7L196.4,45.7z"/>
		<path class="st1" d="M302.8,92.9c4.9,1.8,7.9,2.4,11.6,8.5c1,1.7-2.1-8.8-2.1-8.8l-2.7-0.9l-6.4-1.5L302.8,92.9z"/>
		<path class="st1" d="M303.1,90.2l-0.3,2.7c4.9,1.8,7.9,2.4,11.6,8.5c0.1,0.1,0.1,0.2,0.1,0.2c0.4,0-2.3-9-2.3-9l-2.7-0.9
			L303.1,90.2L303.1,90.2z"/>
		<path class="st1" d="M151.3,82.3c19.8-13.7,49.7-31.4,61.3-30.8"/>
		<path class="st1" d="M151.3,85c-1.5,0-2.7-1.2-2.8-2.7c0-0.9,0.4-1.8,1.2-2.3c4.8-3.3,46.9-32.1,63-31.3c1.5,0.1,2.7,1.4,2.6,2.9
			c-0.1,1.5-1.4,2.7-2.9,2.6c-10.1-0.6-38,15.3-59.6,30.3C152.4,84.8,151.8,85,151.3,85z"/>
		<path class="st1" d="M158.9,92.9c-11.4,5.4-45.6,15.8-56.7,18.3"/>
		<path class="st1" d="M102.2,114c-1.5,0-2.7-1.2-2.8-2.7c0-1.3,0.9-2.4,2.2-2.7c10.7-2.4,44.8-12.7,56.1-18.1
			c1.4-0.7,3-0.1,3.7,1.3s0.1,3-1.3,3.7c-11.9,5.6-46.1,16-57.3,18.5C102.6,114,102.4,114,102.2,114z"/>
		<path class="st1" d="M224.8,54.5c-18.3,16.5-38.4,23.8-46.4,28.1"/>
		<path class="st1" d="M178.4,85.3c-1.5,0-2.7-1.3-2.7-2.8c0-1,0.6-1.9,1.4-2.4c1.7-0.9,4-2,6.6-3.2c10-4.7,25-11.7,39.2-24.5
			c1.1-1,2.9-0.9,3.9,0.2c1,1.1,0.9,2.9-0.2,3.9l0,0c-14.7,13.3-30.9,20.8-40.6,25.4c-2.5,1.2-4.7,2.2-6.3,3.1
			C179.3,85.2,178.8,85.3,178.4,85.3z"/>
		<path class="st1" d="M194.3,101.5c-13.4,4.9-18.9,6.7-27.4,11.6"/>
		<path class="st1" d="M166.8,115.8c-1.5,0-2.7-1.2-2.7-2.8c0-1,0.5-1.9,1.4-2.4c8-4.6,13.6-6.6,24.7-10.6l3.2-1.2
			c1.4-0.6,3,0.1,3.6,1.4c0.6,1.4-0.1,3-1.4,3.6c-0.1,0-0.2,0.1-0.3,0.1l-3.2,1.1c-11.1,4-16.2,5.9-23.9,10.2
			C167.7,115.7,167.3,115.8,166.8,115.8z"/>
		<path class="st1" d="M284.5,68.5c-32.3,3.7-47.5,21-67.7,25.6"/>
		<path class="st1" d="M216.8,96.9c-1.5,0-2.8-1.2-2.8-2.7c0-1.3,0.9-2.4,2.2-2.7c7.8-1.8,15.1-5.7,22.8-9.8
			c11.9-6.4,25.4-13.6,45.2-15.9c1.5-0.1,2.8,1,2.9,2.5c0.1,1.4-0.9,2.7-2.3,2.9c-18.8,2.1-31.8,9.1-43.3,15.3
			c-8,4.3-15.6,8.4-24.1,10.3C217.2,96.9,217,96.9,216.8,96.9z"/>
		<path class="st1" d="M200.4,134.4c-13.4,4.9-27.1,8.9-35.7,13.7"/>
		<path class="st1" d="M164.7,150.9c-1.5,0-2.7-1.2-2.7-2.8c0-1,0.5-1.9,1.4-2.4c6.4-3.7,15.6-6.8,25.3-10.1
			c3.6-1.2,7.2-2.5,10.9-3.8c1.4-0.5,3,0.2,3.5,1.6s-0.2,3-1.6,3.5l0,0c-3.7,1.3-7.4,2.6-10.9,3.8c-9.4,3.2-18.3,6.3-24.3,9.7
			C165.6,150.8,165.1,150.9,164.7,150.9z"/>
		<path class="st1" d="M317.4,102.1c-27.4,1.2-82.3,20.7-92.8,24.4"/>
		<path class="st1" d="M224.6,129.3c-1.5,0-2.8-1.2-2.8-2.7c0-1.2,0.7-2.2,1.8-2.6l0.6-0.2c43-15.2,75.1-23.6,93.1-24.4
			c1.5-0.1,2.8,1.1,2.9,2.6s-1.1,2.8-2.6,2.9c-17.1,0.8-49.6,9.3-91.5,24.1l-0.6,0.2C225.2,129.2,224.9,129.3,224.6,129.3z"/>
		<path class="st1" d="M317.4,112.4c-16.4,12.2-99.3,36.6-109.8,40.2"/>
		<path class="st1" d="M207.7,155.4c-1.5,0-2.7-1.2-2.7-2.8c0-1.2,0.7-2.2,1.8-2.6c2.1-0.7,6.8-2.2,13.3-4.3
			c24.8-7.8,82.8-26,95.8-35.6c1.2-1,2.9-0.8,3.9,0.3s0.8,2.9-0.3,3.9c-0.1,0.1-0.2,0.1-0.3,0.2c-13.6,10.1-70.2,27.9-97.4,36.4
			c-6.5,2-11.1,3.5-13.1,4.2C208.3,155.4,208,155.4,207.7,155.4z"/>
		<path class="st1" d="M244.9,163.7c-40.4,21.6-71.4,28.1-79.9,32.9"/>
		<path class="st1" d="M165,199.3c-1.5,0-2.7-1.2-2.7-2.7c0-1,0.5-1.9,1.4-2.4c3.1-1.8,8.5-3.6,16.1-6.1c14.8-5,37.2-12.6,63.9-26.8
			c1.3-0.7,3-0.2,3.7,1.1s0.2,3-1.1,3.7l0,0c-27.1,14.5-49.8,22.1-64.7,27.2c-7,2.4-12.5,4.2-15.1,5.7
			C165.9,199.2,165.5,199.3,165,199.3z"/>
		<path class="st1" d="M317.4,126.5C304,142.3,272.2,152.6,262,157"/>
		<path class="st1" d="M262,159.7c-1.5,0-2.7-1.2-2.7-2.8c0-1.1,0.7-2.1,1.6-2.5c1.7-0.7,4.1-1.6,6.7-2.7c12.9-5,37-14.4,47.7-27.1
			c1-1.2,2.7-1.3,3.9-0.3s1.3,2.7,0.3,3.9c-11.6,13.8-35.6,23.1-49.9,28.6c-2.6,1-4.9,1.9-6.6,2.6
			C262.7,159.6,262.4,159.7,262,159.7z"/>
		<path class="st0" d="M157.4,161.5c0,0,48.2-18.9,65.3-26.2s75.6-32.9,87.8-33.5s40.9,10.4,52.5,12.8s31.7,2.5,43.9,7.3
			c8.1,3.2,16,8.2,22.3,17.4s12.2,20.7,10.4,41.5c-1.9,21.9-22,30.5-47,42.7s-119.2,58.2-119.2,58.2l-5.2-2.1l0.6-10.4
			c1.8-26.8-0.8-45-4.3-50.6c-1.8-7.3-21.9-19.5-40.2-27.4c-25.7-11.1-42.1-16.5-61.6-22.6C159.6,167.7,157.4,161.6,157.4,161.5
			L157.4,161.5z"/>
		<path class="st1" d="M311.5,107.2c7.5,0,22,4.4,33.6,8c6.7,2,12.5,3.8,16.6,4.7c4.5,1,10.1,1.6,16,2.2c9.4,1,20,2.1,27,4.9
			c8.7,3.4,15,8.3,19.7,15.4c5.5,8.1,11.2,18.4,9.4,37.9c-0.7,8.1-4.3,14.3-11.5,20.2s-17,10.6-28.5,16.1l-4,1.9
			c-22.2,10.8-100,48.9-116.3,56.8l0.3-5.8c1.6-24.2-0.2-44.8-4.7-53.1c-1-3.2-4.2-8.1-16-15.9c-8.6-5.5-17.7-10.3-27.1-14.4
			c-19.6-8.5-39.6-15.9-60.1-22.1c14-5.5,45.5-18,58.6-23.6l4.9-2.1c10.7-4.6,28.5-12.3,45.1-18.9c25.8-10.3,33.6-12,36-12.1
			C310.9,107.3,311.2,107.3,311.5,107.2L311.5,107.2 M311.5,101.8h-1c-12.2,0.6-70.7,26.2-87.8,33.5s-65.3,26.2-65.3,26.2
			s2.3,6.1,5.2,7c19.5,6.1,35.9,11.4,61.6,22.6c18.3,7.9,38.4,20.1,40.2,27.4c3.5,5.6,6.1,23.8,4.3,50.6l-0.7,10.3l5.2,2.1
			c0,0,94.2-46,119.2-58.2s45-20.7,47-42.7c1.8-20.7-4.2-32.4-10.4-41.5s-14.1-14.2-22.3-17.4c-12.2-4.8-32.3-4.9-43.9-7.3
			C351.6,112.2,324.1,101.8,311.5,101.8L311.5,101.8z"/>
		<path class="st0" d="M157.4,161.5c0,0,98.2,27.5,111.6,53.7c9.3,18.2,4.3,66.5,4.3,66.5s-90.9-34.8-108.6-61.6
			C154.7,204.9,157.4,161.5,157.4,161.5z"/>
		<path class="st1" d="M162.6,168.8c9,2.7,26.1,8.1,43.7,14.9c43.9,17,55.1,28.6,57.8,34c6,11.7,5.4,40,4.3,56.1
			c-8.5-3.5-24-9.9-40.4-17.9c-40.1-19.4-54-31.9-58.7-38.9C163.1,207.6,162.3,183.2,162.6,168.8 M157.4,161.5
			c0,0-2.7,43.3,7.3,58.5c17.7,26.8,108.6,61.6,108.6,61.6s5-48.3-4.3-66.5C255.5,189,157.4,161.5,157.4,161.5L157.4,161.5z"/>
		<path class="st0" d="M194.9,179.5c-9.9-0.3-16.6,8.1-12.8,16.5c3.9,8.5,18.9,8.5,18.9,8.5s-1.2,14.6,4.3,21.9
			c11.6,12.8,29.5,12,42.1,14.6c11.6,9.8,22,14.6,22,14c0-13.2-1.2-29.9-5.5-37.8S239.4,194.8,194.9,179.5z"/>
		<path class="st1" d="M194.3,179.5h0.6c44.5,15.3,64.6,29.9,68.9,37.8s5.5,24.6,5.5,37.8c0,0,0,0.1-0.1,0.1
			c-1.1,0-10.9-4.9-21.9-14.1c-12.5-2.6-30.5-1.8-42.1-14.6c-5.5-7.3-4.3-21.9-4.3-21.9s-15-0.1-18.9-8.5
			C178.3,187.8,184.7,179.5,194.3,179.5 M194.3,174c-6.5-0.1-12.6,3-16.2,8.4c-3.1,4.8-3.4,10.8-1,15.9c3.5,7.7,12.4,10.4,18.3,11.3
			c0.1,5.7,1.1,14.4,5.5,20.2l0.1,0.2l0.2,0.2c10.4,11.5,24.8,13.4,36.4,15c2.6,0.4,5,0.7,7.3,1.1c4.5,3.7,9.3,7.1,14.3,10.1
			c7.3,4.4,9.1,4.4,10,4.4c3.1,0,5.6-2.5,5.6-5.5c0-10.8-0.8-30.5-6.1-40.4c-3.7-6.9-13.7-13.7-21.4-18.3
			c-12.9-7.6-29.9-15-50.6-22.1l-0.8-0.3H195L194.3,174z"/>
		<path class="st0" d="M211,161.5c-0.3-1.9,21.2-13.6,45.1-26.8c23-12.8,45.1-27.4,57.9-27.4c14,0,35.9,9.8,46.6,12.5
			c14.6,3.7,44.8,2.8,57,14.3c3.2,3.2,5.9,7,7.9,11c0,0-9.9-4.4-26.8-1.2c-22.6,4.3-51.2,12.8-78.7,23.2s-50,18.3-56.1,19.5
			C256.1,184.7,222.6,170.1,211,161.5z"/>
		<path class="st1" d="M314.1,107.3c14,0,35.9,9.8,46.6,12.5c14.6,3.7,44.8,2.8,57,14.3c3.2,3.2,5.9,7,7.9,11c0,0-5.3-2.4-14.9-2.4
			c-4,0-8,0.4-12,1.2c-22.6,4.3-51.2,12.8-78.7,23.2s-50,18.3-56.1,19.5c-7.9-1.8-41.5-16.5-53-25c-0.3-1.9,21.2-13.6,45.1-26.8
			C279.1,122,301.3,107.3,314.1,107.3 M314.1,101.8c-11.6,0-27.7,9.3-46.4,20.1c-4.6,2.7-9.4,5.4-14.1,8l-6.1,3.4
			c-10.6,5.9-20.6,11.4-27.8,15.6c-3.9,2.3-6.8,4.1-8.8,5.4c-2.5,1.7-6,4.1-5.3,8.1l0.4,2.2l1.8,1.3c12.2,9,46.7,24,55.1,25.9
			l1.1,0.3l1.2-0.2c9.2-1.8,45.9-15.6,57-19.8c27.6-10.4,56-18.8,77.8-22.9c3.6-0.7,7.3-1.1,10.9-1.1c7.8,0,12.3,1.8,12.6,1.9
			l14.2,6.7l-7.1-14.1c-2.4-4.6-5.4-8.8-9.1-12.5c-9.8-9.3-27.7-11.4-43.4-13.3c-5.4-0.5-10.8-1.3-16.1-2.4c-3.2-0.8-7.7-2.4-12.5-4
			C338.5,106.6,324.6,101.8,314.1,101.8L314.1,101.8z"/>
		<path class="st1" d="M420.5,149c4.9,1.8,7.9,2.4,11.6,8.5c1,1.6-2.1-8.8-2.1-8.8l-2.8-0.9l-6.4-1.5L420.5,149z"/>
		<path class="st1" d="M420.8,146.3l-0.3,2.7c4.9,1.8,7.9,2.4,11.6,8.5c0.1,0.1,0.1,0.2,0.1,0.2c0.4,0-2.3-9-2.3-9l-2.8-0.9
			L420.8,146.3L420.8,146.3z"/>
		<path class="st1" d="M269,138.4c19.8-13.7,49.7-31.4,61.3-30.8"/>
		<path class="st1" d="M269,141.1c-1.5,0-2.7-1.2-2.8-2.7c0-0.9,0.4-1.8,1.2-2.3c4.8-3.3,46.9-32.1,63-31.3c1.5,0.1,2.7,1.4,2.6,2.9
			s-1.4,2.7-2.9,2.6c-10.1-0.6-38,15.3-59.6,30.3C270.1,140.9,269.6,141.1,269,141.1z"/>
		<path class="st1" d="M276.6,149c-11.4,5.4-45.6,15.8-56.7,18.3"/>
		<path class="st1" d="M219.9,170.1c-1.5,0-2.8-1.2-2.8-2.7c0-1.3,0.9-2.4,2.2-2.7c10.7-2.4,44.8-12.7,56.1-18.1
			c1.4-0.7,3-0.1,3.7,1.3c0.7,1.4,0.1,3-1.3,3.7c-11.9,5.6-46.1,16-57.3,18.5C220.3,170,220.1,170.1,219.9,170.1z"/>
		<path class="st1" d="M342.4,110.6c-18.3,16.5-38.4,23.8-46.4,28"/>
		<path class="st1" d="M296.1,141.4c-1.5,0-2.7-1.2-2.7-2.8c0-1,0.6-1.9,1.4-2.4c1.7-0.9,4-2,6.6-3.2c10-4.7,25-11.7,39.2-24.4
			c1.1-1,2.9-0.9,3.9,0.2s0.9,2.9-0.2,3.9l0,0c-14.8,13.3-30.9,20.8-40.5,25.3c-2.5,1.2-4.8,2.2-6.3,3.1
			C297,141.3,296.6,141.4,296.1,141.4z"/>
		<path class="st1" d="M402.2,124.6c-32.3,3.7-51.8,17.1-72,21.7"/>
		<path class="st1" d="M330.2,149.1c-1.5,0-2.8-1.2-2.8-2.7c0-1.3,0.9-2.4,2.2-2.7c7.5-1.7,15-4.7,23.1-7.9
			c13.5-5.4,28.8-11.5,49.2-13.8c1.5-0.2,2.9,0.9,3,2.4s-0.9,2.9-2.4,3c-19.7,2.2-34.6,8.2-47.8,13.5c-8.2,3.3-16,6.4-23.9,8.2
			C330.6,149.1,330.4,149.1,330.2,149.1z"/>
		<path class="st1" d="M308.9,194.8c-13.4,4.9-27.1,8.9-35.7,13.7"/>
		<path class="st1" d="M273.2,211.3c-1.5,0-2.7-1.2-2.8-2.7c0-1,0.5-1.9,1.4-2.4c6.4-3.7,15.6-6.8,25.2-10.1
			c3.6-1.2,7.2-2.5,10.9-3.8c1.4-0.6,3,0.1,3.6,1.4s-0.1,3-1.4,3.6c-0.1,0-0.2,0.1-0.3,0.1c-3.7,1.3-7.4,2.6-10.9,3.8
			c-9.4,3.2-18.3,6.3-24.3,9.7C274.2,211.1,273.7,211.3,273.2,211.3z"/>
		<path class="st1" d="M435.1,158.2c-27.4,1.2-82.3,20.7-92.8,24.4"/>
		<path class="st1" d="M342.3,185.4c-1.5,0-2.7-1.2-2.8-2.7c0-1.2,0.7-2.2,1.8-2.6l0.5-0.2c43-15.2,75.1-23.6,93.1-24.4
			c1.5-0.1,2.8,1.1,2.9,2.6s-1.1,2.8-2.6,2.9l0,0c-17.1,0.8-49.6,9.3-91.5,24.1l-0.5,0.2C342.9,185.3,342.6,185.4,342.3,185.4z"/>
		<path class="st1" d="M435.1,168.6c-16.5,12.2-99.3,36.5-109.8,40.2"/>
		<path class="st1" d="M325.4,211.5c-1.5,0-2.7-1.2-2.8-2.7c0-1.2,0.7-2.2,1.8-2.6c2.1-0.7,6.8-2.2,13.3-4.3
			c24.8-7.8,82.9-26,95.8-35.6c1.2-0.9,2.9-0.6,3.8,0.6c0.9,1.2,0.6,2.9-0.6,3.8l0,0c-13.6,10.1-70.2,27.9-97.4,36.4
			c-6.5,2-11.1,3.5-13.1,4.2C326,211.5,325.7,211.5,325.4,211.5z"/>
		<path class="st1" d="M342.4,227.5c-29.9,14-51.2,20.3-59.7,25.2"/>
		<path class="st1" d="M282.7,255.4c-1.5,0-2.7-1.2-2.7-2.8c0-1,0.5-1.9,1.4-2.4c4-2.3,10.3-4.7,19-8.1c10.3-4,24.4-9.5,40.9-17.2
			c1.4-0.6,3,0,3.7,1.3c0.6,1.4,0,3-1.3,3.7c-16.7,7.8-30.9,13.4-41.3,17.4c-8.2,3.2-14.6,5.7-18.3,7.7
			C283.6,255.3,283.2,255.5,282.7,255.4z"/>
		<path class="st1" d="M435.1,182.6c-13.4,15.9-45.3,26.1-55.5,30.5"/>
		<path class="st1" d="M379.6,215.8c-1.5,0-2.8-1.2-2.8-2.7c0-1.1,0.7-2.1,1.7-2.6c1.7-0.7,4-1.6,6.7-2.7c12.9-5,37-14.4,47.7-27.1
			c0.9-1.2,2.6-1.4,3.9-0.5s1.4,2.6,0.5,3.9c-0.1,0.1-0.1,0.2-0.2,0.2c-11.6,13.8-35.6,23.1-49.9,28.6c-2.6,1-4.9,1.9-6.6,2.6
			C380.4,215.7,380,215.8,379.6,215.8z"/>
		<path class="st0" d="M109.5,59.8c0,0,48.2-18.9,65.2-26.2s75.6-33,87.8-33.6c12.2-0.6,40.9,10.4,52.5,12.8s31.7,2.5,43.9,7.3
			c8.1,3.2,16,8.2,22.3,17.4s12.1,20.7,10.3,41.5c-1.9,22-22,30.5-47,42.7s-119.2,58.2-119.2,58.2l-5.2-2.1l0.6-10.4
			c1.8-26.8-0.8-45-4.3-50.6c-1.8-7.3-21.9-19.5-40.3-27.4c-25.7-11.2-42.1-16.5-61.6-22.6C111.8,65.9,109.5,59.8,109.5,59.8
			L109.5,59.8z"/>
		<path class="st1" d="M263.5,5.5c7.5,0,22,4.4,33.6,8c6.7,2.1,12.5,3.8,16.6,4.7c4.6,1,10.1,1.5,16.1,2.2c9.4,1,20,2.1,27,4.9
			c8.7,3.5,15,8.3,19.7,15.3c5.4,8.1,11.1,18.4,9.4,37.9c-0.7,8.1-4.3,14.3-11.5,20.2s-17,10.6-28.5,16.1l-3.9,1.9
			c-22.2,10.8-100,48.8-116.2,56.8l0.3-5.8c1.6-24.2-0.2-44.8-4.7-53.1c-1-3.2-4.2-8.1-16-15.9c-8.6-5.5-17.7-10.3-27.1-14.4
			c-19.6-8.5-39.6-15.9-60.1-22.1c14-5.5,45.5-18,58.5-23.6l4.9-2.1c10.7-4.6,28.5-12.3,45.1-18.9c25.8-10.3,33.6-12,36-12.1
			C263.1,5.5,263.3,5.5,263.5,5.5L263.5,5.5 M263.6,0h-1c-12.2,0.6-70.7,26.2-87.8,33.5s-65.3,26.2-65.3,26.2s2.3,6.1,5.2,7
			c19.5,6.1,35.9,11.4,61.6,22.6c18.3,7.9,38.4,20.1,40.3,27.4c3.5,5.6,6.1,23.8,4.3,50.6l-0.6,10.4l5.2,2.1c0,0,94.2-46,119.2-58.2
			s45-20.7,47-42.7c1.8-20.7-4.2-32.4-10.4-41.5s-14.3-14-22.4-17.3c-12.2-4.8-32.3-4.9-43.9-7.3C303.7,10.5,276.3,0,263.6,0
			L263.6,0z"/>
		<path class="st0" d="M109.5,59.8c0,0,98.2,27.4,111.6,53.7c9.3,18.2,4.3,66.5,4.3,66.5s-90.9-34.8-108.5-61.6
			C106.8,103.1,109.5,59.8,109.5,59.8z"/>
		<path class="st1" d="M114.7,67c9,2.7,26.1,8.1,43.7,14.9c43.9,17,55.1,28.6,57.9,34c6,11.7,5.4,40,4.3,56.1
			c-8.5-3.4-24-9.9-40.4-17.9c-40.1-19.4-54-31.9-58.7-38.9C115.2,105.8,114.4,81.4,114.7,67 M109.5,59.7c0,0-2.7,43.3,7.3,58.5
			c17.7,26.8,108.5,61.6,108.5,61.6s5.1-48.3-4.3-66.5C207.6,87.2,109.5,59.8,109.5,59.7L109.5,59.7z"/>
		<path class="st0" d="M147,77.8c-9.9-0.3-16.6,8.2-12.8,16.5c3.9,8.5,18.9,8.5,18.9,8.5s-1.2,14.6,4.3,22
			c11.6,12.8,29.5,12,42.1,14.6c11.6,9.8,22,14.6,22,14c0-13.2-1.2-29.9-5.5-37.8S191.5,93,147,77.8z"/>
		<path class="st1" d="M146.4,77.8h0.6c44.5,15.3,64.6,29.9,68.9,37.8s5.5,24.6,5.5,37.8c0,0,0,0.1-0.1,0.1
			c-1.1,0-10.9-4.9-21.9-14.1c-12.5-2.6-30.5-1.8-42.1-14.6c-5.5-7.3-4.3-22-4.3-22s-15-0.1-18.9-8.5
			C130.5,86,136.9,77.7,146.4,77.8 M146.4,72.2c-6.5-0.1-12.6,3-16.2,8.4c-3.1,4.8-3.4,10.8-1,15.8c3.5,7.7,12.4,10.3,18.3,11.3
			c0.1,5.7,1.1,14.4,5.5,20.2l0.1,0.2l0.2,0.2c10.4,11.5,24.8,13.4,36.4,15c2.6,0.4,5,0.7,7.3,1.1c4.5,3.7,9.2,7.1,14.2,10.1
			c7.3,4.4,9.1,4.4,10,4.4c3.1,0,5.6-2.5,5.6-5.5c0-10.8-0.8-30.5-6.1-40.4c-3.7-6.8-13.7-13.7-21.4-18.3
			c-12.9-7.6-29.9-15-50.6-22.1l-0.8-0.3h-0.8L146.4,72.2z"/>
		<path class="st0" d="M163.1,59.8c-0.3-1.9,21.2-13.6,45.1-26.8c23-12.8,45.1-27.4,57.9-27.4c14,0,35.9,9.8,46.6,12.5
			c14.6,3.7,44.8,2.8,57,14.3c3.2,3.2,5.9,7,7.9,11c0,0-9.9-4.4-26.8-1.2c-22.6,4.3-51.2,12.8-78.7,23.2s-50,18.3-56.1,19.5
			C208.3,83,174.7,68.3,163.1,59.8z"/>
		<path class="st1" d="M266.2,5.5c14,0,35.9,9.8,46.6,12.5c14.6,3.7,44.8,2.8,57,14.3c3.2,3.2,5.9,7,7.9,11c0,0-5.3-2.4-14.9-2.4
			c-4,0-8,0.4-12,1.2c-22.6,4.3-51.2,12.8-78.7,23.2s-50,18.3-56.1,19.5c-7.9-1.8-41.5-16.5-53.1-25c-0.3-1.9,21.2-13.6,45.1-26.8
			C231.2,20.2,253.3,5.5,266.2,5.5 M266.1,0c-11.6,0-27.8,9.3-46.4,20.1c-4.6,2.6-9.4,5.4-14.1,8l-6.1,3.4
			c-10.6,5.8-20.6,11.4-27.8,15.6c-3.9,2.3-6.8,4.1-8.8,5.4c-2.5,1.7-6,4.1-5.3,8.2l0.4,2.2l1.8,1.3c12.2,9,46.7,24,55.1,25.9
			l1.1,0.3l1.2-0.2c9.2-1.8,45.9-15.6,57-19.8c27.7-10.4,56-18.8,77.8-22.9c3.6-0.7,7.3-1.1,11-1.1c7.8,0,12.3,1.8,12.6,1.9
			l14.1,6.7l-7.1-14.1c-2.4-4.6-5.4-8.8-9.1-12.5C363.8,19,346,17,330.2,15.1c-5.4-0.5-10.7-1.3-16-2.4c-3.2-0.8-7.7-2.4-12.5-4
			C290.5,4.8,276.7,0,266.1,0L266.1,0z"/>
		<path class="st1" d="M372.6,47.3c4.9,1.8,7.9,2.4,11.6,8.5c1,1.7-2.2-8.8-2.2-8.8l-2.7-0.9l-6.4-1.5L372.6,47.3z"/>
		<path class="st1" d="M372.9,44.5l-0.3,2.7c4.9,1.8,7.9,2.4,11.6,8.5c0.1,0.1,0.1,0.2,0.1,0.2c0.4,0-2.3-9-2.3-9l-2.7-0.9
			L372.9,44.5L372.9,44.5z"/>
		<path class="st1" d="M221.1,36.6c19.8-13.7,49.7-31.4,61.3-30.8"/>
		<path class="st1" d="M221.1,39.4c-1.5,0-2.7-1.2-2.7-2.8c0-0.9,0.4-1.7,1.2-2.2c4.8-3.3,46.9-32.1,63-31.3
			c1.5,0.1,2.7,1.4,2.6,2.9s-1.4,2.7-2.9,2.6c-10.1-0.6-38,15.3-59.6,30.3C222.2,39.2,221.6,39.4,221.1,39.4z"/>
		<path class="st1" d="M228.7,47.3c-11.4,5.4-45.6,15.8-56.7,18.3"/>
		<path class="st1" d="M172,68.3c-1.5,0-2.8-1.2-2.8-2.7c0-1.3,0.9-2.4,2.2-2.7c10.7-2.4,44.8-12.7,56.1-18.1c1.4-0.7,3-0.1,3.7,1.3
			c0.7,1.4,0.1,3-1.3,3.7c0,0,0,0-0.1,0c-11.9,5.6-46.1,16-57.3,18.5C172.4,68.3,172.2,68.3,172,68.3z"/>
		<path class="st1" d="M294.5,8.9c-18.3,16.5-38.4,23.8-46.3,28"/>
		<path class="st1" d="M248.2,39.7c-1.5,0-2.7-1.2-2.8-2.7c0-1,0.6-2,1.5-2.4c1.7-0.9,4-2,6.6-3.2c10-4.7,25-11.7,39.2-24.5
			c1.1-1,2.9-0.9,3.9,0.2s0.9,2.9-0.2,3.9c-14.8,13.3-30.9,20.8-40.5,25.3c-2.5,1.2-4.7,2.2-6.3,3.1
			C249.1,39.5,248.6,39.7,248.2,39.7z"/>
		<path class="st1" d="M264,55.8c-13.4,4.9-18.9,6.7-27.4,11.6"/>
		<path class="st1" d="M236.6,70.2c-1.5,0-2.8-1.2-2.8-2.7c0-1,0.5-1.9,1.4-2.4c8-4.6,13.6-6.6,24.7-10.6l3.2-1.2
			c1.4-0.5,3,0.2,3.5,1.6c0.5,1.4-0.2,3-1.6,3.5l-3.2,1.2c-11.1,4-16.2,5.9-23.9,10.2C237.6,70,237.1,70.2,236.6,70.2z"/>
		<path class="st1" d="M354.3,22.9c-32.3,3.7-47.5,21-67.7,25.6"/>
		<path class="st1" d="M286.6,51.3c-1.5,0-2.8-1.2-2.8-2.7c0-1.3,0.9-2.4,2.2-2.7c7.8-1.8,15.1-5.7,22.8-9.8
			c11.9-6.4,25.4-13.6,45.2-15.9c1.5-0.2,2.9,0.9,3,2.4c0.2,1.5-0.9,2.9-2.4,3c-18.8,2.1-31.8,9.1-43.3,15.3
			c-8,4.3-15.6,8.4-24.1,10.3C287,51.2,286.8,51.3,286.6,51.3z"/>
		<path class="st1" d="M270.1,88.8c-13.4,4.9-27.1,8.9-35.7,13.7"/>
		<path class="st1" d="M234.5,105.2c-1.5,0-2.7-1.2-2.7-2.8c0-1,0.5-1.9,1.4-2.4c6.4-3.7,15.6-6.8,25.2-10.1
			c3.5-1.2,7.2-2.5,10.9-3.8c1.4-0.5,3,0.2,3.5,1.6s-0.2,3-1.6,3.5c-3.7,1.3-7.4,2.6-10.9,3.8c-9.4,3.2-18.3,6.3-24.3,9.7
			C235.4,105.1,234.9,105.2,234.5,105.2z"/>
		<path class="st1" d="M387.2,56.4c-27.4,1.2-82.3,20.7-92.8,24.4"/>
		<path class="st1" d="M294.4,83.6c-1.5,0-2.7-1.2-2.8-2.7c0-1.2,0.7-2.2,1.8-2.6l0.5-0.2c43-15.2,75.1-23.6,93.1-24.4
			c1.5-0.1,2.8,1.1,2.9,2.6s-1.1,2.8-2.6,2.9c-17.1,0.8-49.6,9.3-91.5,24.1l-0.5,0.2C295,83.6,294.7,83.6,294.4,83.6z"/>
		<path class="st1" d="M387.2,66.8C370.8,79,288,103.3,277.5,107"/>
		<path class="st1" d="M277.5,109.8c-1.5,0-2.7-1.2-2.8-2.7c0-1.2,0.7-2.2,1.8-2.6c2.1-0.7,6.8-2.2,13.3-4.3
			c24.8-7.8,82.9-26,95.8-35.6c1.3-0.8,3-0.5,3.8,0.8c0.8,1.2,0.5,2.7-0.5,3.6c-13.6,10.1-70.2,27.9-97.4,36.4
			c-6.5,2-11.1,3.5-13.1,4.2C278.1,109.7,277.8,109.8,277.5,109.8z"/>
		<path class="st1" d="M314.7,118c-40.5,21.6-71.4,28.1-79.9,32.9"/>
		<path class="st1" d="M234.8,153.7c-1.5,0-2.7-1.2-2.7-2.8c0-1,0.5-1.9,1.4-2.4c3.1-1.8,8.5-3.6,16.1-6.1
			c14.8-5,37.2-12.6,63.9-26.8c1.3-0.7,3-0.2,3.7,1.1c0.7,1.3,0.2,3-1.1,3.7c-27.1,14.5-49.8,22.1-64.7,27.2
			c-7,2.4-12.5,4.2-15.1,5.7C235.7,153.6,235.3,153.7,234.8,153.7z"/>
		<path class="st1" d="M387.2,80.8c-13.4,15.9-45.3,26.1-55.5,30.5"/>
		<path class="st1" d="M331.7,114.1c-1.5,0-2.7-1.3-2.7-2.8c0-1.1,0.7-2.1,1.6-2.5c1.7-0.7,4-1.6,6.7-2.7c12.9-5,37-14.3,47.8-27.1
			c0.9-1.2,2.6-1.4,3.9-0.5s1.4,2.6,0.5,3.9c-0.1,0.1-0.1,0.2-0.2,0.2c-11.6,13.8-35.6,23.1-50,28.6c-2.6,1-4.9,1.9-6.6,2.6
			C332.5,114,332.1,114.1,331.7,114.1z"/>
		<g>
			<circle class="st0" cx="394.9" cy="236.8" r="83"/>
			<path class="st1" d="M394.9,324.3c-48.2,0-87.5-39.3-87.5-87.5s39.3-87.5,87.5-87.5s87.5,39.3,87.5,87.5S443.2,324.3,394.9,324.3
				z M394.9,158.3c-43.3,0-78.5,35.2-78.5,78.5s35.2,78.5,78.5,78.5s78.5-35.2,78.5-78.5S438.2,158.3,394.9,158.3z"/>
		</g>
		<g>
			<path class="st1" d="M337,265.6c-1.6,0-2.8-0.7-3.4-2c-0.7-1.3-0.4-2.8,0.9-4.5l13.4-16.6l-12.4-15.4c-1.4-1.6-1.7-3.1-1-4.4
				c0.7-1.3,1.8-2,3.4-2c1.1,0,2.1,0.2,2.8,0.6c0.7,0.4,1.4,1,2.1,1.9l10.3,13l10.4-13c0.7-0.9,1.3-1.5,2.1-1.9
				c0.7-0.4,1.6-0.6,2.8-0.6c1.5,0,2.7,0.7,3.4,2c0.7,1.3,0.4,2.8-1,4.5l-12.4,15.4l13.4,16.5c1.3,1.6,1.6,3.1,0.9,4.4s-1.8,2-3.4,2
				c-2,0-3.6-0.8-4.9-2.5L353,249l-11.2,14.1c-0.7,0.8-1.3,1.5-2.1,1.9C339.1,265.4,338.1,265.6,337,265.6z"/>
			<path class="st1" d="M381.7,265.1c-2.7,0-4-1.3-4-3.9s1.3-3.8,4-3.8h10.9v-44.5l-8.4,5.4c-1.1,0.7-2.2,0.9-3.2,0.6
				c-1-0.3-1.7-0.9-2.2-1.8c-0.5-0.9-0.7-1.9-0.4-2.9c0.2-1,0.9-1.9,2-2.6l12.3-7.8c1-0.6,2-1.1,2.9-1.5s1.8-0.6,2.6-0.6
				c1,0,1.9,0.3,2.5,0.9c0.7,0.6,1,1.5,1,2.8v52.1h10c2.7,0,4.1,1.3,4.1,3.8c0,2.6-1.4,3.9-4.1,3.9L381.7,265.1L381.7,265.1z"/>
			<path class="st1" d="M424.2,265.1c-3,0-4.6-1.4-4.6-4.2c0-1.5,0.8-3.1,2.4-4.8l19-20.4c2.9-3.1,5-5.9,6.3-8.5s1.9-5.2,1.9-7.8
				c0-6.8-4-10.2-12-10.2c-2.4,0-4.7,0.4-6.9,1.1c-2.2,0.7-4.4,1.9-6.6,3.5c-1.1,0.8-2.1,1-3,0.8c-0.9-0.3-1.6-0.8-2.1-1.7
				s-0.7-1.9-0.5-2.9c0.1-1,0.8-1.9,1.8-2.7c2.4-1.8,5.3-3.3,8.5-4.3s6.5-1.5,9.8-1.5c6.5,0,11.5,1.5,15,4.5s5.2,7.2,5.2,12.8
				c0,3.7-0.9,7.4-2.7,11c-1.8,3.6-4.7,7.4-8.5,11.4l-15.6,16.3h26c2.7,0,4.1,1.3,4.1,3.8c0,2.6-1.4,3.9-4.1,3.9h-33.4V265.1z"/>
		</g>
	</g>
</g>
</svg>
