<svg  version="1.1" id="Capa_1" xmlns="http://www.w3.org/2000/svg" xmlns:xlink="http://www.w3.org/1999/xlink" x="0px" y="0px"
                    viewBox="0 0 485.2 485.2"  xml:space="preserve">
                <g>
                   <circle style="fill:#c5c5c5" cx="242.6" cy="242.6" r="240.6"/>
                   <path style="fill: #6e6e6e;" d="M288.1,0h-91C88.3,0,0,108.6,0,242.6c0,134,88.3,242.6,197.1,242.6h91c108.9,0,197.1-108.6,197.1-242.6
                       C485.2,108.6,397,0,288.1,0z M463.3,182h-75.8c-2.2-10.4-4.9-20.5-8.2-30.3h75.5C458.2,161.4,461,171.5,463.3,182z M423.4,91
                       c6.8,9.4,12.9,19.5,18.4,30.3h-74.6c-5.1-10.7-10.7-20.8-17-30.3H423.4z M352.9,30.3c15.8,7.6,30.6,17.8,43.9,30.3h-69.5v0.8
                       c-10.9-11.8-22.7-22.4-35.5-31.2C291.8,30.3,352.9,30.3,352.9,30.3z M197.1,470c-100.3,0-182-102-182-227.4
                       c0-125.4,81.6-227.4,182-227.4c100.3,0,182,102,182,227.4C379.1,368,297.5,470,197.1,470z M423.4,394.2h-73.2
                       c6.3-9.6,11.9-19.7,17-30.3h74.6C436.3,374.7,430.1,384.8,423.4,394.2z M272.5,251.9c5.8,9.8,8.7,21.2,8.7,34.2
                       c0,20-6,36.8-17.9,50.1c-11.9,13.4-29.2,21.3-51.7,23.6v34.3h-28.7v-34.1c-37.6-3.8-60.8-25.7-69.8-65.5l44.4-11.6
                       c4.1,25,17.7,37.5,40.9,37.5c10.8,0,18.8-2.7,23.9-8c5.1-5.4,7.6-11.8,7.6-19.4c0-7.8-2.5-13.8-7.6-17.8c-5.1-4.1-16.4-9.2-34-15.4
                       c-15.8-5.5-28.1-10.9-37-16.3c-8.9-5.3-16.1-12.8-21.6-22.4c-5.5-9.7-8.3-20.9-8.3-33.7c0-16.8,5-31.9,14.9-45.4
                       c9.9-13.4,25.5-21.6,46.7-24.6V91h28.7v26.5c32.1,3.9,52.9,22,62.4,54.5l-39.6,16.2c-7.7-22.3-19.6-33.4-35.8-33.4
                       c-8.1,0-14.6,2.5-19.5,7.5c-4.9,5-7.4,11-7.4,18.1c0,7.2,2.4,12.8,7.1,16.6c4.7,3.9,14.9,8.6,30.4,14.3
                       c17.1,6.2,30.4,12.1,40.1,17.7C259,234.5,266.7,242.2,272.5,251.9z"/>
               </g>
               </svg>