<svg xmlns="http://www.w3.org/2000/svg" viewBox="0 0 653.18 400"><defs><style>.cls-1{fill:#fff;}.cls-2{fill:none;}.cls-3{fill:#633;}.cls-4{fill:#f8da32;}.cls-5{fill:#fbb03b;}</style></defs><title>Recurso 1</title><g id="Capa_2" data-name="Capa 2"><g id="LEOS_TAMALES_ICONO" data-name="LEOS TAMALES ICONO"><path id="PLATO" class="cls-1" d="M649.31,244.82c0-71.52-143.94-129.5-321.5-129.5s-321.5,58-321.5,129.5c0,24.79,17.31,48,47.32,67.65C89.19,360.8,198.83,396,328.59,396,460.14,396,571,359.82,605,310.45,633.14,291.2,649.31,268.77,649.31,244.82Z"/><g id="TRAZADO_PLATO" data-name="TRAZADO PLATO"><path class="cls-2" d="M620.85,191.83c-16-15.29-38.85-29-68.06-40.82C492.21,126.55,411.67,113.29,326,113.68s-166.08,14.38-226.43,39.4c-29.1,12.06-51.88,26-67.69,41.43S7.9,226.44,8,243.14s8.27,33,24.35,48.4,38.85,29,68.06,40.82c60.58,24.46,141.12,37.72,226.78,37.33S493.25,355.31,553.6,330.3c29.11-12.07,51.88-26,67.69-41.44s24-31.93,23.92-48.63S636.94,207.25,620.85,191.83ZM105.76,297.3a3.58,3.58,0,0,1-4.88,1.37c-26.61-14.94-40.67-32.44-40.67-50.6a3.59,3.59,0,0,1,7.18,0c0,15.42,12.8,30.75,37,44.34A3.58,3.58,0,0,1,105.76,297.3Zm444.75,6.47C500.06,328.32,417.85,343,330.58,343c-51.78,0-102-5.07-145.37-14.65a3.59,3.59,0,1,1,1.55-7c42.82,9.47,92.56,14.48,143.82,14.48,86.23,0,167.27-14.39,216.78-38.48a3.59,3.59,0,1,1,3.15,6.45Zm39-27.79a3.59,3.59,0,1,1-5.46-4.65c6.47-7.61,9.76-15.44,9.76-23.26,0-8.93-4.26-17.83-12.66-26.44a3.59,3.59,0,0,1,5.14-5c9.75,10,14.7,20.58,14.7,31.45C601,257.65,597.09,267,589.47,276Z"/><path class="cls-2" d="M327.21,377.67c-86.68.39-168.29-13.07-229.8-37.92-6.54-2.63-12.75-5.38-18.66-8.2,12.83,9.63,29,18.47,48.32,26.37,53.76,22,125.33,34.1,201.52,34.1s147.75-12.11,201.51-34.1c25.89-10.59,46.17-22.87,60.27-36.5l.27-.27a300,300,0,0,1-34,16.51C495.37,363.06,413.89,377.27,327.21,377.67Z"/><path class="cls-3" d="M653.18,240.2c-.17-37-34.76-71.28-97.41-96.58-61.51-24.85-143.12-38.31-229.8-37.91s-168.16,14.6-229.45,40C34.11,171.58-.17,206.19,0,243.17c.12,26.71,18.2,52,51.82,73.54C66,335,90.49,351.58,124.05,365.31,178.75,387.68,251.39,400,328.59,400s149.83-12.32,204.53-34.69c39.06-16,65.81-35.86,78.37-57.7C638.81,287.31,653.29,264.26,653.18,240.2Zm-62.81,81.22c-14.1,13.63-34.38,25.91-60.27,36.5-53.76,22-125.33,34.1-201.51,34.1s-147.76-12.11-201.52-34.1c-19.31-7.9-35.49-16.74-48.32-26.37,5.91,2.82,12.12,5.57,18.66,8.2,61.51,24.85,143.12,38.31,229.8,37.92s168.16-14.61,229.45-40a300,300,0,0,0,34-16.51ZM553.6,330.3c-60.35,25-140.76,39-226.43,39.39S161,356.82,100.39,332.36c-29.21-11.8-52.1-25.53-68.06-40.82S8.05,259.83,8,243.14s8-33.06,23.91-48.63,38.59-29.37,67.69-41.43c60.35-25,140.76-39,226.43-39.4S492.21,126.55,552.79,151c29.21,11.8,52.11,25.53,68.06,40.82s24.28,31.71,24.36,48.4-8,33.06-23.92,48.63S582.71,318.23,553.6,330.3Z"/><path class="cls-3" d="M104.39,292.41c-24.2-13.59-37-28.92-37-44.34a3.59,3.59,0,0,0-7.18,0c0,18.16,14.06,35.66,40.67,50.6a3.59,3.59,0,0,0,3.51-6.26Z"/><path class="cls-3" d="M547.36,297.32c-49.51,24.09-130.55,38.48-216.78,38.48-51.26,0-101-5-143.82-14.48a3.59,3.59,0,1,0-1.55,7C228.53,337.91,278.8,343,330.58,343c87.27,0,169.48-14.66,219.93-39.21a3.59,3.59,0,1,0-3.15-6.45Z"/><path class="cls-3" d="M581.17,216.56a3.59,3.59,0,0,0-.06,5.07c8.4,8.61,12.66,17.51,12.66,26.44,0,7.82-3.29,15.65-9.76,23.26a3.59,3.59,0,1,0,5.46,4.65C597.09,267,601,257.65,601,248.07c0-10.87-5-21.45-14.7-31.45A3.59,3.59,0,0,0,581.17,216.56Z"/></g><g id="RELLENO_AMARILLO" data-name="RELLENO AMARILLO"><path class="cls-4" d="M557.49,182.19c-8-11.83-18.21-18.25-28.68-22.4-15.74-6.24-41.66-6.29-56.59-9.43-1-.22-2.18-.49-3.41-.81,22.26-11.46,38.36-23,40.3-45.05,2.36-26.72-5.44-41.75-13.36-53.44s-18.21-18.25-28.68-22.4c-15.74-6.24-41.65-6.29-56.58-9.43S358.62,1.94,342.9,2.72,251.74,36.52,229.73,46s-84.09,33.79-84.09,33.79-.61,9.83-.36,22.68l-5.49,2.36c-22,9.43-84.09,33.79-84.09,33.79S52.23,194.44,65.13,214C87.93,248.59,205,293.39,205,293.39l12.47-6.1c24.32,34.44,139.21,78.4,139.21,78.4s121.42-59.33,153.64-75.05,58-26.73,60.51-55C573.21,208.91,565.41,193.88,557.49,182.19Z"/></g><g id="RELLENO_ANARANJADO" data-name="RELLENO ANARANJADO"><path class="cls-5" d="M100.93,161.42C88,161,79.2,172.07,84.18,183c5.08,11.1,24.73,11.17,24.73,11.17s-1.6,19.14,5.58,28.71c15.15,16.75,38.64,15.75,55,19.14,15.15,12.76,28.71,19.14,28.71,18.35,0-17.22-1.59-39.08-7.18-49.45S159.15,181.36,100.93,161.42Z"/><path class="cls-5" d="M345,284.24c-5.58-10.37-31.9-29.51-90.12-49.45-12.91-.45-21.73,10.65-16.75,21.54,5.08,11.09,24.72,11.16,24.72,11.16s-1.59,19.14,5.59,28.71c15.15,16.75,38.63,15.75,55,19.15,15.15,12.76,28.71,19.14,28.71,18.34C352.16,316.47,350.56,294.61,345,284.24Z"/><path class="cls-5" d="M289.51,200.61c0-17.21-1.6-39.08-7.18-49.44s-31.9-29.51-90.12-49.45c-12.91-.45-21.74,10.65-16.75,21.53,5.08,11.09,24.72,11.17,24.72,11.17s-1.59,19.14,5.58,28.71c15.16,16.75,38.64,15.75,55,19.14C276,195,289.51,201.41,289.51,200.61Z"/></g><g id="CONTORNO_TAMALES" data-name="CONTORNO TAMALES"><path class="cls-3" d="M405.23,258.11a3.59,3.59,0,0,0-2.46-6.75c-4.74,1.72-9.54,3.37-14.19,5-12.64,4.34-24.59,8.45-33,13.26a3.59,3.59,0,1,0,3.56,6.23c7.84-4.48,19.48-8.47,31.8-12.7C395.59,261.51,400.43,259.85,405.23,258.11Z"/><path class="cls-3" d="M446.29,294.27c-21.57,10.12-40,17.29-53.52,22.52-11.4,4.42-19.64,7.62-24.85,10.59a3.59,3.59,0,0,0,3.57,6.24c4.73-2.71,13.18-6,23.87-10.14,13.59-5.27,32.19-12.49,54-22.72a3.59,3.59,0,1,0-3-6.49Z"/><path class="cls-3" d="M309.45,91.75a3.56,3.56,0,0,0,1.77-.47c10-5.7,16.63-8.12,31.2-13.4l4.14-1.5a3.59,3.59,0,0,0-2.45-6.75L340,71.14C325.46,76.4,318.17,79,307.66,85a3.59,3.59,0,0,0,1.79,6.71Z"/><path class="cls-3" d="M306.66,137.64a3.57,3.57,0,0,0,1.77-.48c7.84-4.47,19.48-8.47,31.8-12.7,4.67-1.61,9.51-3.27,14.31-5a3.59,3.59,0,0,0-2.46-6.75c-4.74,1.72-9.54,3.37-14.18,5-12.65,4.34-24.6,8.45-33,13.26a3.59,3.59,0,0,0,1.79,6.71Z"/><path class="cls-3" d="M572.65,206.53a3.8,3.8,0,0,0-.33-1.22c0-.12-.07-.25-.11-.37l.1.38-.32-1.14a78.41,78.41,0,0,0-10.88-22c-1.18-1.75-2.42-3.37-3.69-4.9a51.81,51.81,0,0,0-6.12-7.09c-4.54-4.31-10.4-7.43-17-9.78q-1.14-.51-2.31-1c-16-6.33-42.27-6.38-57.42-9.57-.85-.18-1.78-.4-2.76-.65l-.67-.19c22.57-11.63,38.9-23.35,40.87-45.71,1.06-12,.09-21.74-2-29.85a3.74,3.74,0,0,0-.33-1.21,77.54,77.54,0,0,0-11.21-23.17,59.2,59.2,0,0,0-3.7-4.9,52.35,52.35,0,0,0-6.11-7.08c-4.54-4.32-10.4-7.44-17-9.79l-2.31-1c-16-6.33-42.27-6.38-57.42-9.57-.86-.18-1.79-.4-2.78-.64-4-1.12-9.17-2.92-14.61-4.8C380,6.3,361.88,0,348.13,0c-.47,0-.95,0-1.43,0-.7,0-1.38-.07-2-.07-.46,0-.91,0-1.34,0-15.95.8-92.52,34.3-114.85,43.87s-85.33,34.29-85.33,34.29-.62,10-.38,23l-5.56,2.39c-22.33,9.57-85.34,34.29-85.34,34.29s-3.52,56.7,9.57,76.57c23.13,35.09,142,80.55,142,80.55l12.65-6.19c24.68,34.95,141.27,79.56,141.27,79.56s123.22-60.21,155.92-76.16,58.88-27.13,61.41-55.83C575.74,224.34,574.76,214.64,572.65,206.53ZM471.79,156.64c9.4,2.34,23.7,3.26,37.71,5.36-18.94,3.84-34.34,10-48.26,15.56-10.48,4.2-20.39,8.16-30.17,10.38a3.59,3.59,0,1,0,1.59,7c10.33-2.35,20.49-6.41,31.25-10.72,17.25-6.9,36.8-14.73,62.52-17.64a3.46,3.46,0,0,0,1.67-.66c1.32.39,2.59.82,3.84,1.27a53,53,0,0,1,19.81,14.48,63.66,63.66,0,0,1,5,8.06s-7-3.12-19.44-3.12a83.76,83.76,0,0,0-15.65,1.53c-29.51,5.58-67,16.75-102.89,30.3s-65.4,23.93-73.37,25.53c-5.73-1.33-21.7-7.77-37.4-15.16l142.63-69.67,10.94-5.32c3.18.94,6.09,1.75,8.64,2.39ZM346.76,7.26c1.62.11,3.43.34,5.36.66-25,9.57-60.17,33.63-65.06,37a3.59,3.59,0,0,0,4.09,5.91c26.86-18.6,61.07-38.25,75.74-39.58,3.25.87,6.58,1.82,9.89,2.8-16.66,13.46-33.6,21.41-45.23,26.85-3.43,1.61-6.39,3-8.65,4.21a3.59,3.59,0,1,0,3.4,6.32c2.09-1.12,5-2.47,8.29-4,12.05-5.64,31.85-14.93,50.42-30.89l3.66,1.12c7.18,2.2,13.53,4.14,18.57,5.4.65.18,1.29.36,1.9.51,9.57,2.39,24.22,3.29,38.47,5.49C429.7,33.27,416.1,40.54,403.8,47.13c-10,5.36-19.45,10.43-29.56,12.76a3.73,3.73,0,0,0-3,3.83A3.6,3.6,0,0,0,374.84,67a3.7,3.7,0,0,0,.8-.09c11.13-2.53,21.05-7.85,31.55-13.48,15-8.05,32-17.18,56.58-20,.61-.07,1.65-.17,2.78-.32.9.29,1.8.58,2.68.89A53.11,53.11,0,0,1,489.1,48.59a64.75,64.75,0,0,1,5,8.07s-7-3.12-19.44-3.12A84.7,84.7,0,0,0,459,55.06c-29.51,5.59-67,16.75-102.88,30.31s-65.4,23.93-73.37,25.52c-7.65-1.76-33.49-12.63-52.61-22.69,17.69-4.5,56.33-16.39,70.5-23.12a3.59,3.59,0,1,0-3.08-6.48c-14.83,7-59.45,20.53-73.42,23.67-.74.16-2,.43-3.24.8-2.93-1.73-5.5-3.38-7.54-4.88-.41-2.44,27.7-17.74,59-35.09C301.69,26.85,329.84,8.23,346.76,7.26ZM231.32,50.49l6.34-2.72C249,42.89,266.55,35.33,284.39,28c-5.09,2.93-10.3,5.91-15.51,8.8l-7.95,4.4c-13.84,7.66-26.92,14.89-36.31,20.4-5.12,3-8.86,5.32-11.45,7.09-3.29,2.26-7.8,5.35-6.91,10.66l.48,2.87L209.08,84c15.93,11.74,61,31.38,72,33.91l1.51.35,1.51-.3c12-2.4,60.07-20.39,74.51-25.85,36.16-13.66,73.22-24.58,101.68-30a77.2,77.2,0,0,1,14.32-1.4,51.81,51.81,0,0,1,14.93,2c.78.28,1.52.56,2.24.85L494.93,65a18.49,18.49,0,0,1,5.94,5.59c-24.23,2.3-64.2,13.12-116.3,31.52l-.56.19a3.7,3.7,0,0,0-2.42,4.43,3.59,3.59,0,0,0,3.45,2.6,3.5,3.5,0,0,0,1.19-.2l.73-.26c24.27-8.57,46.13-15.53,64.91-20.72q7.11-2,13.63-3.59c15.55-3.87,28.44-6.26,38.13-7,.46,2.08.82,4.3,1.1,6.64a3.78,3.78,0,0,0-.43.26C487.41,97,411.48,120.86,379.06,131.05c-8.51,2.68-14.66,4.61-17.37,5.57a3.59,3.59,0,0,0,1.19,7,3.51,3.51,0,0,0,1.19-.21c2.6-.91,8.7-2.83,17.14-5.48,33.66-10.58,101.77-32,124.06-45.47,0,3.15-.08,6.51-.39,10.11a3.82,3.82,0,0,0-1.29,1c-14.12,16.55-45.47,28.71-62.33,35.25-3.44,1.34-6.42,2.5-8.67,3.45a3.7,3.7,0,0,0-2.14,4.49,3.59,3.59,0,0,0,3.41,2.46,3.53,3.53,0,0,0,1.41-.29c2.15-.92,5.13-2.08,8.58-3.41,15.85-6.15,40.74-15.81,57.26-29.55A42.52,42.52,0,0,1,489.8,129.1c-9.35,7.58-22.26,13.85-37.22,21.1l-5.12,2.49c-29,14.17-130.8,63.89-152,74.27l.17-2.89c.11-1.63.21-3.4.31-5.28.4-5.95.63-11.72.71-17.25a7.14,7.14,0,0,0,.06-.93c0-1.42,0-3,0-4.6-.09-20.3-2.34-36.72-6.38-45.1-.24-.57-.48-1.13-.74-1.66-1.12-3-3.69-7-10.32-12.54A100.78,100.78,0,0,0,268.83,129c-2.8-1.87-5.59-3.6-8.18-5.13-14.62-8.61-33.26-17.06-55.5-25.17-18.15-7-33.32-12-50.41-17.33C173,74.14,214.22,57.82,231.32,50.49Zm-55.86,72.76c-4.89-10.67,3.5-21.54,16-21.54h.77c2.28.78,4.5,1.56,6.69,2.34q4,1.51,8.16,3.1c.62.23,1.23.47,1.83.71,6.68,2.66,13.81,5.63,21.6,9,2.21,1,4.45,2,6.69,3l.28.13c12.74,6,25.42,13.19,34.21,19.88,5.54,4.38,9,8.21,10.66,11.27,3.08,5.72,4.94,14.94,6,24.94.74,7.85,1,16.36.95,24.56-1.79-.24-14.45-6.58-28.49-18.4-16.39-3.39-39.87-2.39-55-19.14-7.17-9.57-5.58-28.71-5.58-28.71S180.54,134.35,175.46,123.25ZM150,87.67c6.95,2.09,17.5,5.38,29.7,9.55a23.26,23.26,0,0,0-9.4,8.29,21.31,21.31,0,0,0-1.33,20.73c4.61,10.06,16.17,13.53,23.92,14.73.17,7.42,1.45,18.84,7.17,26.47l.2.26.22.25c13.57,15,32.47,17.54,47.66,19.59,3.37.46,6.59.89,9.52,1.42a154.44,154.44,0,0,0,18.63,13.2c9,5.38,11.67,5.68,12.92,5.7-.08,3.18-.2,6.27-.34,9.19l-.12,1.91-.36,6.11c-11.17-4.52-31.46-13-52.85-23.34-52.41-25.33-70.68-41.67-76.78-50.92C150.61,138.49,149.54,106.51,150,87.67Zm2.77,67.09.06.09c-4.83-2.29-9.59-4.66-14-7,2.89-.77,6.13-1.68,9.59-2.67A40,40,0,0,0,152.73,154.76Zm-6.23-16.5c-6.94,2-12.93,3.61-16.88,4.53-2.94-1.74-5.51-3.39-7.55-4.9-.23-1.37,8.64-6.86,22-14.49A136.06,136.06,0,0,0,146.5,138.26Zm51.06,138.5-.12,1.9-.36,6.11c-11.19-4.53-31.53-13-52.94-23.38-52.35-25.31-70.6-41.64-76.69-50.88-8.12-12.32-9.18-44.3-8.76-63.14,6.94,2.09,17.5,5.38,29.7,9.55a23.33,23.33,0,0,0-9.4,8.29,21.28,21.28,0,0,0-1.33,20.73c4.6,10.06,16.17,13.53,23.92,14.73.17,7.42,1.45,18.84,7.17,26.47l.2.26.22.25c13.57,15,32.47,17.54,47.66,19.59,3.37.46,6.58.89,9.51,1.43A154.08,154.08,0,0,0,185,261.86c9,5.38,11.67,5.68,12.92,5.7C197.82,270.74,197.7,273.83,197.56,276.76Zm.45-16.39c-1.79-.24-14.45-6.58-28.49-18.4-16.39-3.39-39.88-2.39-55-19.14-7.18-9.57-5.58-28.71-5.58-28.71S89.26,194.05,84.18,183c-4.88-10.66,3.5-21.54,16-21.54h.76c2.29.78,4.51,1.56,6.7,2.34,2.69,1,5.42,2,8.16,3.1l1.84.71c6.68,2.67,13.8,5.63,21.58,9,2.22,1,4.45,2,6.68,3l.33.16c12.73,6,25.4,13.18,34.18,19.86,5.54,4.38,9,8.21,10.65,11.27,3.09,5.72,4.95,14.94,6,24.95C197.8,243.66,198.05,252.18,198,260.37Zm6.14,26.29.18-2.9c.1-1.62.21-3.38.31-5.26.39-5.95.62-11.73.7-17.26a7.12,7.12,0,0,0,.07-.92c0-1.43,0-3,0-4.6C205.29,235.41,203,219,199,210.61c-.24-.57-.49-1.13-.74-1.66-1.13-3-3.7-7-10.33-12.54a100.58,100.58,0,0,0-10.37-7.72c-2.8-1.88-5.59-3.61-8.18-5.14-14.62-8.61-33.26-17.06-55.51-25.17-18.15-7-33.31-12-50.4-17.33,18.26-7.2,59.48-23.52,76.58-30.85l3-1.28c.1,2.17.22,4.39.38,6.62-3.67,2.08-7.06,4-10.07,5.78-5.11,3-8.85,5.32-11.44,7.09-3.29,2.26-7.8,5.35-6.91,10.66l.48,2.87,2.34,1.73c9.84,7.25,30.81,17.51,48,24.9,14.53,12.15,36.51,24.66,58.22,35.51-10.73,4.25-18.22,7.19-18.22,7.19s-3,48.16,6.79,71.26Zm147.33,63.47-.12,1.9-.36,6.12c-11.17-4.52-31.45-13-52.84-23.35-52.42-25.32-70.69-41.67-76.79-50.92-8.11-12.31-9.18-44.3-8.76-63.14,6.95,2.1,17.5,5.39,29.7,9.55a23.26,23.26,0,0,0-9.39,8.3,21.31,21.31,0,0,0-1.34,20.73c4.61,10.05,16.18,13.53,23.93,14.72.16,7.43,1.45,18.85,7.16,26.47l.2.27.22.24c13.57,15,32.48,17.55,47.67,19.6,3.37.45,6.58.88,9.51,1.42a154.92,154.92,0,0,0,18.63,13.19c9,5.38,11.67,5.69,12.92,5.7C351.74,344.12,351.62,347.21,351.48,350.13Zm.45-16.38c-1.79-.24-14.45-6.58-28.48-18.4-16.4-3.4-39.88-2.4-55-19.14-7.18-9.58-5.59-28.72-5.59-28.72s-19.64-.07-24.72-11.16c-4.88-10.67,3.5-21.55,16-21.55h.76q3.42,1.19,6.69,2.35c2.7,1,5.43,2,8.16,3.09l2.46,1c6.5,2.6,13.42,5.49,21,8.76q2.13.92,4.26,1.89l2.66,1.23.72.35c.57.26,1.13.53,1.68.8,11.75,5.65,23.25,12.26,31.47,18.45,5.77,4.51,9.37,8.44,11.05,11.57,3.12,5.79,5,15.17,6,25.32C351.74,317.3,352,325.68,351.93,333.75Zm200.53-71.58c-9.35,7.58-22.27,13.85-37.23,21.11l-5.11,2.49c-29.05,14.17-130.81,63.89-152,74.26l.17-2.94c.11-1.6.21-3.33.31-5.17.4-6,.63-11.76.71-17.31a7,7,0,0,0,.07-.92c0-1.26,0-2.63,0-4.05,0-20.58-2.31-37.22-6.39-45.67q-.35-.84-.72-1.62c-1.12-3-3.71-7.05-10.44-12.66A103.14,103.14,0,0,0,331,261.75c-2.64-1.76-5.27-3.38-7.72-4.83-14.55-8.57-33.08-17-55.19-25.05-18.29-7.09-33.52-12.06-50.72-17.45l15.34-6.06c32.46,15.66,62,26.95,62,26.95l5.09-2.49c17.77,8.63,37.26,16.59,44,18.14l1.5.35,1.52-.31c12-2.4,60.06-20.38,74.5-25.84,36.16-13.66,73.23-24.59,101.68-30a77.28,77.28,0,0,1,14.32-1.4c10.15,0,16.07,2.32,16.54,2.51l9.38,4.41c.38.93.74,1.9,1.09,2.9-24.15,2.15-64.43,13-117.08,31.59l-.72.25a3.59,3.59,0,1,0,2.39,6.77l.72-.25c52.41-18.5,93.58-29.54,116.67-31.32a66.09,66.09,0,0,1,1.11,6.64,3.91,3.91,0,0,0-.44.26c-16.88,12.51-92.82,36.38-125.24,46.58-8.51,2.67-14.66,4.61-17.37,5.56a3.59,3.59,0,1,0,2.39,6.77c2.59-.91,8.69-2.83,17.13-5.48,33.66-10.59,101.77-32,124.06-45.47,0,3.13-.07,6.46-.38,10a3.57,3.57,0,0,0-1.19.91c-14.06,16.62-45.53,28.83-62.44,35.39-3.51,1.36-6.55,2.54-8.81,3.51a3.59,3.59,0,0,0,1.42,6.89,3.53,3.53,0,0,0,1.41-.29c2.15-.92,5.13-2.08,8.58-3.42,15.85-6.15,40.73-15.8,57.25-29.54A42.47,42.47,0,0,1,552.46,262.17Z"/><path class="cls-3" d="M305.27,194.31a3.59,3.59,0,0,0,3.56,6.23c3.43-2,10.63-4.39,19.75-7.48,19.58-6.61,49.16-16.62,84.64-35.54a3.59,3.59,0,1,0-3.38-6.33c-35,18.64-64.21,28.53-83.56,35.07C316.43,189.59,309.31,192,305.27,194.31Z"/></g></g></g></svg>