<svg xmlns="http://www.w3.org/2000/svg" viewBox="0 0 616.27 859.9" style="fill: grey;"><title>Recurso 2</title><g id="Capa_2" data-name="Capa 2"><g id="Capa_2_copia" data-name="Capa 2 copia"><path d="M272.86,859.9c-30.79,0-61.69-1.29-88.28-5.18-40.39-5.92-76.05-16.32-103.12-30.1-29.41-15-47.84-33.11-54.78-53.93C14.32,733.6-8.7,664.55,3.42,612c11.78-51,63.91-335.3,67.45-356.52.52-3.1,1-6.69,1.6-10.49,3.68-25.06,9.23-62.93,28.92-79,11.68-9.55,31.65-17.81,51-25.8,16.9-7,32.87-13.6,41.37-20.23,18-14,32.92-38.29,34.69-46.28l8.79,1.95c-2.07,9.32-18,35.92-37.95,51.43-9.46,7.38-26,14.21-43.46,21.44-18.71,7.74-38,15.74-48.7,24.46-17,13.89-22.24,49.69-25.71,73.37-.57,3.85-1.1,7.49-1.63,10.67C76.21,278.24,24,562.93,12.19,614.06c-11.55,50.05,11,117.53,23,153.78,6.08,18.24,23.48,35.1,50.32,48.76,26.21,13.34,60.91,23.44,100.35,29.21,57.89,8.47,137.31,4.41,189.86,1.72,19.3-1,34.54-1.77,44.77-1.77,23.5,0,82.64-4,124.29-41.28C582,771.23,610.52,695.87,607,659.77c-4.3-43.71-7.08-92.88-9.78-140.43-8-141.41-16.29-287.63-64.13-320.1-19.83-13.47-41.33-25.26-62.13-36.66-46.85-25.69-91.11-50-100.73-86.79l8.71-2.27c8.64,33.08,51.24,56.44,96.35,81.17,21,11.5,42.67,23.39,62.86,37.1,23.68,16.08,39.74,55.32,50.54,123.48,9.33,58.91,13.49,132.45,17.52,203.56,2.69,47.46,5.47,96.53,9.75,140.06,1.92,19.51-4.42,49-17,78.85-13,30.91-30.54,57.68-48.16,73.45-44,39.33-105.76,43.57-130.29,43.57-10,0-25.9.82-44.31,1.76C347.23,858,310.14,859.9,272.86,859.9Z"/><path d="M222.64,61.3h-.14a4.49,4.49,0,0,1-4.36-4.63l1.23-41.34a4.5,4.5,0,1,1,9,.27l-1.24,41.34A4.49,4.49,0,0,1,222.64,61.3Z"/><path d="M387.53,62.17a4.5,4.5,0,0,1-4.5-4.5V15.07a4.5,4.5,0,1,1,9,0v42.6A4.49,4.49,0,0,1,387.53,62.17Z"/><path d="M302.06,82.73c-24.29,0-46.93-1.62-61.49-4.55s-21.47-7-22.49-13.07c-2.49-15,6.59-17.25,7-17.34l1.22-.28,1.18.39c6.92,2.25,86.64,17.3,154-.08l1.95-.5,1.67,1.11c8,5.36,9.64,12.79,4.53,20.93-1.68,2.66-5.78,6.09-22.73,9a340.94,340.94,0,0,1-40.11,3.84C318.51,82.55,310.19,82.73,302.06,82.73ZM227,63.56c.21.35,2.93,4.17,23,7.1,20.42,3,51.21,3.88,80.36,2.33,34-1.81,49.51-6.06,51.71-8.5,2.1-3.36,2.08-5.32-.4-7.45-61.81,15.28-136.49,4.64-154.53.08C226.71,58.11,226.38,60.1,227,63.56Z"/><path d="M305.7,28.29c-22,0-42.77-1-58.39-2.86-23.37-2.75-27.94-6.22-27.94-11.29s4.57-8.53,27.94-11.28C262.93,1,283.67,0,305.7,0s42.77,1,58.39,2.86C387.46,5.61,392,9.08,392,14.14s-4.57,8.54-27.94,11.29C348.47,27.27,327.73,28.29,305.7,28.29ZM233.57,14.14c11.29,2.57,36.88,5.15,72.13,5.15s60.84-2.58,72.13-5.15C366.54,11.57,341,9,305.7,9S244.86,11.57,233.57,14.14Z"/><path d="M160.84,197.43h.33c9.53,33.22,8.41,81.55-3.32,140.37a735.15,735.15,0,0,1-21.08,80.75c-1.3.07-2.79.12-4.41.12-8.86,0-24.35-1.56-28.42-12-5.65-14.55.31-44.4,7.21-79,2.75-13.8,5.6-28.06,8.18-43.39,1.32-7.8,2.41-15.22,3.47-22.38,3-20.37,5.58-38,11.34-49.36,5.42-10.74,13.16-15.12,26.7-15.12m0-9c-42.33,0-41.22,40-50.38,94.36-9.64,57.22-23.9,104-14.9,127.12,5.89,15.14,24.59,17.76,36.8,17.76a79,79,0,0,0,11.09-.73s53.68-153,24.43-238.18q-3.7-.33-7-.33Z"/><path d="M383.88,226.18a4.5,4.5,0,0,1-3-7.88c39.19-34.37,123-38.09,166.32-18.25a4.5,4.5,0,1,1-3.75,8.18c-40.63-18.62-120.89-14.51-156.64,16.84A4.51,4.51,0,0,1,383.88,226.18Z"/><path d="M353.52,793.05a4.5,4.5,0,0,1-4.49-4.32c-6.5-166.39-2.65-405.92,21.18-538.66a4.5,4.5,0,0,1,8.86,1.59C355.36,383.74,351.54,622.46,358,788.37a4.5,4.5,0,0,1-4.32,4.68Z"/></g></g></svg>