<?xml version="1.0" encoding="utf-8"?>
<!-- Generator: Adobe Illustrator 24.0.0, SVG Export Plug-In . SVG Version: 6.00 Build 0)  -->
<svg version="1.1" id="Capa_1" xmlns="http://www.w3.org/2000/svg" xmlns:xlink="http://www.w3.org/1999/xlink" x="0px" y="0px"
	 viewBox="0 0 1634.2 306.4" style="enable-background:new 0 0 1634.2 306.4;" xml:space="preserve">
<style type="text/css">
	.st0{fill:#663333;}
	.st1{fill:#FFFFFF;}
	.st2{fill:#F8DA32;}
	.st3{fill:#FBB03B;}
	.st4{fill:#39B54A;}
	.st5{fill:#FF0000;}
</style>
<g id="Capa_2_1_">
	<g id="Capa_1-2">
		<path class="st0" d="M557.4,305h1019.6c31,0,56.2-25.2,56.2-56.2V100.3c0-3.4-2.7-6-6-6H579.1c-14.5,0-20.4,17.5-32.2,24.6
			c-22.5,13.6-45.4,24.9-45.4,53v77.3C501.5,280,526.5,305,557.4,305z"/>
		<g>
			<g id="PLATO">
				<path id="PLATO-2" class="st1" d="M497.2,185.2c0-55.8-110.6-101.1-247.1-101.1S3,129.4,3,185.2c0,19.7,13.7,38.1,37.6,53.6
					c26.7,37.3,111.1,64.6,211,64.6c103.3,0,190-29.1,213.5-68.4C485.6,220.3,497.2,203.3,497.2,185.2z"/>
				<path id="PLATO-3" class="st0" d="M500.2,185.2c0-28.3-26.4-54.7-74.3-74.3c-47-19.2-109.5-29.8-175.8-29.8
					S121.3,91.6,74.3,110.9C26.4,130.5,0,156.9,0,185.2c0,20.2,13.4,39.4,38.5,55.9c10.7,14.6,29.9,27.8,56.5,38.8
					c41.9,17.2,97.5,26.6,156.7,26.6s114.8-9.4,156.7-26.6c29-11.9,49.2-26.6,59.1-42.7C488.9,221.5,500.2,203.8,500.2,185.2z
					 M406,274.2c-41.2,16.9-96,26.1-154.4,26.1S138.5,291,97.3,274.2c-16.1-6.6-29.3-14-39.5-22.1c5.1,2.6,10.6,5,16.4,7.4
					c47,19.2,109.4,29.8,175.8,29.8s128.8-10.6,175.8-29.8c8.3-3.3,16.5-7.2,24.3-11.5C439.6,257.7,424.7,266.5,406,274.2L406,274.2
					z M475.7,222.3c-12.2,11.8-29.6,22.4-52,31.5c-46.3,18.9-107.9,29.4-173.5,29.4S123,272.8,76.7,253.8
					c-22.3-9.2-39.8-19.7-52-31.5S6.2,198,6.2,185.2s6.2-25.3,18.5-37.1s29.6-22.3,52-31.5c46.3-19,107.9-29.4,173.5-29.4
					s127.2,10.4,173.5,29.4c22.4,9.2,39.8,19.7,52,31.5s18.5,24.4,18.5,37.1S487.9,210.5,475.7,222.3L475.7,222.3z"/>
				<path id="_123" class="st0" d="M253.2,262.8c-39.6,0-78.1-3.9-111.3-11.2c-1.5-0.3-2.4-1.8-2.1-3.3c0.3-1.5,1.8-2.4,3.3-2.1l0,0
					c32.8,7.3,70.9,11.1,110.1,11.1c66,0,128.1-11,166-29.4c1.4-0.7,3-0.1,3.7,1.3s0.1,3-1.3,3.7l0,0
					C383,251.5,320,262.8,253.2,262.8z"/>
				<path class="st0" d="M449.4,212.4c-0.6,0-1.3-0.2-1.8-0.7c-1.1-1-1.3-2.7-0.3-3.8l0,0c4.9-5.8,7.5-11.9,7.5-17.8
					c0-6.8-3.2-13.7-9.7-20.2c-1.1-1.1-1-2.8,0.1-3.9c1.1-1.1,2.8-1,3.9,0c0,0,0,0,0.1,0.1c7.5,7.6,11.2,15.8,11.2,24.1
					c0,7.3-2.9,14.5-8.8,21.4C450.9,212.1,450.2,212.4,449.4,212.4z"/>
				<path id="_132" class="st0" d="M78.6,229.2c-0.5,0-0.9-0.1-1.3-0.4c-20.4-11.4-31.2-24.9-31.2-38.7c0-1.5,1.2-2.8,2.8-2.8
					c1.5,0,2.7,1.2,2.7,2.8c0,11.8,9.8,23.6,28.3,34c1.3,0.7,1.8,2.4,1,3.7l0,0C80.5,228.6,79.6,229.2,78.6,229.2z"/>
			</g>
			<path class="st2" d="M429.8,139.6c-6.2-9.2-14.2-14.2-22.3-17.4c-12.2-4.8-32.4-4.9-44-7.3c-0.8-0.2-1.7-0.4-2.6-0.6
				c17.3-8.9,29.8-17.9,31.3-35c1.9-20.8-4.1-32.4-10.4-41.5s-14.2-14.2-22.3-17.4c-12.2-4.8-32.4-4.9-44-7.3S275.2-0.5,263,0.1
				s-70.9,26.3-87.9,33.6S109.7,60,109.7,60s-0.5,7.6-0.3,17.7c-1.6,0.7-3,1.3-4.3,1.8c-17.1,7.3-65.4,26.3-65.4,26.3
				S37,149.2,47,164.4c17.7,26.9,108.7,61.7,108.7,61.7s3.7-1.8,9.7-4.8c18.9,26.8,108.2,61,108.2,61S368,236.2,393,224
				s45.1-20.8,47-42.8C442,160.3,435.9,148.7,429.8,139.6z"/>
		</g>
		<path class="st3" d="M77.3,123.7c-9.9-0.4-16.6,8.2-12.8,16.5c3.9,8.5,18.9,8.6,18.9,8.6s-1.2,14.6,4.3,22
			c11.6,12.8,29.6,12,42.1,14.7c11.6,9.8,22,14.7,22,14c0-13.2-1.2-29.9-5.5-37.9S121.9,139,77.3,123.7z"/>
		<path class="st3" d="M147.2,78c-9.9-0.4-16.6,8.2-12.8,16.5c3.9,8.5,18.9,8.6,18.9,8.6s-1.2,14.7,4.3,22
			c11.6,12.8,29.6,12,42.2,14.7c11.6,9.8,22,14.6,22,14c0-13.2-1.2-29.9-5.5-37.9S191.8,93.3,147.2,78z"/>
		<path class="st3" d="M195.2,179.9c-9.9-0.4-16.6,8.2-12.8,16.5c3.9,8.5,18.9,8.6,18.9,8.6s-1.2,14.7,4.3,22
			c11.6,12.8,29.6,12,42.1,14.6c11.6,9.8,22,14.7,22,14.1c0-13.2-1.2-29.9-5.5-37.9S239.8,195.1,195.2,179.9z"/>
		<path class="st0" d="M310.3,197.7c1.4-0.5,2.2-2.1,1.6-3.5s-2.1-2.2-3.5-1.6l0,0c-3.6,1.3-7.3,2.6-10.9,3.8
			c-9.7,3.3-18.8,6.5-25.3,10.1c-1.3,0.8-1.8,2.4-1,3.7l0,0c0.7,1.3,2.3,1.8,3.6,1h0.1c6-3.4,14.9-6.5,24.4-9.7
			C303,200.3,306.7,199.1,310.3,197.7z"/>
		<path class="st0" d="M438.5,158.3c0-0.3-0.1-0.6-0.2-0.9c0-0.1-0.1-0.2-0.1-0.3l0.2,0.1l-0.3-0.7c-1.9-6-4.7-11.7-8.3-16.9
			c-0.9-1.3-1.8-2.5-2.8-3.7c-1.4-1.9-3-3.8-4.7-5.4c-3.8-3.4-8.2-5.9-13-7.5c-0.6-0.2-1.2-0.5-1.8-0.7c-12.2-4.8-32.4-4.9-44-7.3
			c-0.6-0.1-1.4-0.3-2.1-0.5l-0.5-0.2c17.3-8.9,29.8-17.9,31.3-35c0.8-7.6,0.3-15.4-1.5-22.8c-0.1-0.3-0.1-0.6-0.3-0.9
			c0-0.1-0.1-0.2-0.1-0.3l0.2,0.1l-0.3-0.7c-1.9-6-4.7-11.7-8.3-16.9c-0.9-1.3-1.8-2.5-2.8-3.7c-1.4-1.9-3-3.8-4.7-5.4
			c-3.8-3.4-8.2-5.9-13-7.5c-0.6-0.2-1.2-0.5-1.8-0.7c-12.2-4.8-32.4-4.9-44-7.3c-0.7-0.1-1.3-0.3-2.1-0.5c-3-0.9-7-2.2-11.2-3.7
			c-1.7-0.6-3.5-1.2-5.3-1.8c-0.6-0.5-1.3-0.8-2.1-0.7C285.4,3,275,0.1,266.7,0.1h-1.1c-0.5,0-1-0.1-1.5-0.1h-1
			c-12.2,0.6-70.9,26.3-87.9,33.6s-65.3,26.3-65.3,26.3s-0.5,7.6-0.3,17.7c-1.6,0.7-3,1.3-4.3,1.8c-17.2,7.3-65.4,26.3-65.4,26.3
			s-2.7,43.4,7.3,58.6C64.9,191.2,155.9,226,155.9,226s3.7-1.8,9.7-4.8c18.9,26.8,108.2,61,108.2,61l0,0c0,0,94.4-46.2,119.4-58.4
			s45.1-20.8,47-42.8C440.9,173.4,440.4,165.7,438.5,158.3z M353.5,117.9c2.4,0.7,4.6,1.3,6.5,1.8c0.5,0.1,0.9,0.3,1.4,0.4
			c7.2,1.8,18.1,2.5,28.9,4.1c-14.5,2.9-26.3,7.6-37,11.9c-8.1,3.2-15.6,6.2-23.1,7.9c-1.5,0.4-2.4,1.8-2.1,3.3
			c0.3,1.3,1.4,2.1,2.7,2.1c0.2,0,0.4,0,0.6-0.1c7.9-1.8,15.7-4.9,23.9-8.2c13.2-5.3,28.2-11.3,47.9-13.5c0.5-0.1,0.9-0.2,1.3-0.5
			c1,0.3,2,0.6,2.9,1c5.9,2.5,11.1,6.3,15.3,11.1c1.4,2,2.7,4,3.8,6.2c0,0-5.3-2.4-14.9-2.4c-4,0-8,0.4-12,1.2
			c-22.6,4.3-51.3,12.8-78.8,23.2s-50.1,18.3-56.2,19.6c-4.4-1-16.6-5.9-28.6-11.6c25-12.3,89.2-43.6,109.2-53.4
			C348,120.6,350.8,119.2,353.5,117.9L353.5,117.9z M231.6,46.2c-0.7-1.3-2.3-1.9-3.7-1.2c-11.4,5.4-45.5,15.7-56.3,18.1
			c-0.7,0.2-1.2,0.6-1.6,1.1c-2.6-1.5-4.9-2.9-6.6-4.2c-0.3-1.9,21.2-13.6,45.2-26.9c22.5-12.5,44-26.7,57-27.4
			c1.4,0.1,2.7,0.2,4.1,0.5c-19.2,7.3-46.1,25.8-49.8,28.3c-1.2,0.9-1.6,2.6-0.7,3.8l0,0c0.5,0.7,1.4,1.2,2.3,1.2
			c0.6,0,1.1-0.2,1.6-0.6c20.6-14.2,46.7-29.3,58-30.3c2.5,0.7,5.1,1.4,7.6,2.1C275.9,21,262.9,27.1,254,31.2
			c-2.6,1.2-4.9,2.3-6.6,3.2c-1.3,0.7-1.8,2.4-1.1,3.7c0,0,0,0,0,0.1c0.5,0.9,1.4,1.5,2.4,1.5c0.4,0,0.9-0.1,1.3-0.3
			c1.6-0.9,3.8-1.9,6.4-3.1c9.2-4.3,24.4-11.4,38.6-23.6c0.9,0.3,1.9,0.6,2.8,0.9c5.5,1.7,10.4,3.2,14.4,4.1l1.3,0.4
			c7.3,1.8,18.6,2.5,29.4,4.2c-13.7,3.2-24.1,8.8-33.5,13.9c-7.7,4.2-15,8.1-22.8,9.8c-1.5,0.4-2.4,1.8-2.1,3.3
			c0.3,1.3,1.4,2.1,2.7,2.1c0.2,0,0.4,0,0.6-0.1c8.5-2,16.1-6,24.2-10.3c11.5-6.1,24.6-13.1,43.3-15.2c0.5-0.1,0.9-0.2,1.3-0.5
			c1,0.3,2,0.6,2.9,1c5.9,2.4,11.1,6.2,15.3,11.1c1.4,2,2.7,4,3.8,6.2c0,0-5.3-2.4-14.9-2.4c-4,0-8,0.4-12,1.2
			c-22.6,4.3-51.3,12.8-78.8,23.2S222.7,84,216.6,85.2c-5.9-1.3-25.6-9.7-40.3-17.4c13.6-3.4,43.1-12.5,54-17.7
			C231.6,49.3,232.2,47.7,231.6,46.2z M177.2,38.7c1.3-0.6,3-1.3,4.8-2.1c8.7-3.7,22.1-9.5,35.8-15.1c-3.9,2.3-7.9,4.5-11.8,6.7
			c-2.1,1.2-4.1,2.3-6.1,3.4c-10.6,5.9-20.6,11.5-27.8,15.7c-3.9,2.3-6.8,4.1-8.8,5.4c-2.5,1.7-6,4.1-5.3,8.2l0.4,2.2l1.8,1.3
			c12.2,9,46.7,24,55.1,26l1.2,0.2l1.2-0.2c9.2-1.8,46-15.6,57-19.8c27.7-10.5,56.1-18.8,77.9-23c3.6-0.7,7.3-1.1,11-1.1
			c3.9-0.1,7.7,0.4,11.4,1.5c0.6,0.2,1.2,0.4,1.8,0.7l2.1,1c1.9,1.1,3.5,2.6,4.7,4.4C365,56,334.4,64.2,294.5,78.3l-0.5,0.2
			c-1.4,0.5-2.2,2-1.7,3.4V82c0.4,1.1,1.4,1.8,2.6,1.8c0.3,0,0.6-0.1,0.9-0.2l0.5-0.2c40.1-14.2,71.6-22.6,89.4-24
			c0.4,1.6,0.6,3.3,0.9,5.1l-0.4,0.2c-13,9.6-71.1,27.8-95.9,35.7c-6.5,2.1-11.2,3.5-13.3,4.3c-1.4,0.5-2.2,2-1.7,3.4c0,0,0,0,0,0.1
			c0.4,1.1,1.4,1.8,2.6,1.8c0.3,0,0.6-0.1,0.9-0.2c2-0.7,6.7-2.2,13.1-4.2c25.8-8.1,77.9-24.5,95-34.8c0,2.6-0.1,5.1-0.3,7.7
			c-0.4,0.2-0.7,0.4-0.9,0.7c-10.8,12.7-34.9,22-47.8,27.1c-2.7,1-5,2-6.7,2.7c-1.4,0.6-2,2.2-1.5,3.6c0.4,1,1.4,1.6,2.5,1.7
			c0.4,0,0.8-0.1,1.1-0.3c1.6-0.7,3.9-1.6,6.6-2.6c12.2-4.7,31.2-12.1,43.9-22.6c-2.2,3.9-5.1,7.4-8.7,10.1
			c-7.1,5.8-17,10.6-28.5,16.2l-3.9,1.9c-22.2,10.9-100.2,48.9-116.4,56.9l0.1-2.2c0.1-1.2,0.2-2.6,0.2-4c0.3-4.6,0.5-9,0.6-13.3
			c0-0.2,0.1-0.5,0.1-0.7v-3.4c-0.1-15.6-1.8-28.3-4.9-34.7l-0.5-1.3c-0.9-2.3-2.8-5.3-7.8-9.5c-2.8-2.4-5.7-4.6-8.9-6.5
			c-1.9-1.3-3.8-2.4-5.6-3.5c-11.2-6.6-25.4-13-42.4-19.2c-14-5.4-25.6-9.2-38.7-13.3C132.5,56.9,164.1,44.3,177.2,38.7z
			 M180.4,154.5c-40.1-19.4-54.1-31.9-58.8-39c-6.2-9.4-7-33.9-6.7-48.4c5.3,1.6,13.4,4.1,22.7,7.3c-2.9,1.4-5.4,3.6-7.2,6.3
			c-3,4.8-3.4,10.8-1,15.9c3.6,7.7,12.4,10.4,18.3,11.3c0.1,5.7,1.1,14.4,5.5,20.3l0.1,0.2l0.2,0.2c10.4,11.5,24.9,13.4,36.5,15
			c2.6,0.4,5.1,0.7,7.3,1.1c4.5,3.7,9.3,7.1,14.3,10.1c6.9,4.1,8.9,4.3,9.9,4.3c-0.1,2.4-0.1,4.8-0.3,7c0,0.5-0.1,1-0.1,1.5
			l-0.3,4.7C212.3,168.9,196.7,162.5,180.4,154.5z M134.4,94.5c-3.7-8.2,2.7-16.5,12.2-16.5h0.6c1.7,0.6,3.4,1.2,5,1.7
			c2.1,0.8,4.3,1.6,6.4,2.4c0.5,0.2,0.9,0.4,1.4,0.6c5.1,2,10.6,4.3,16.6,6.9c1.7,0.7,3.4,1.5,5.1,2.3c0.1,0.1,0.1,0.1,0.2,0.1
			c9.7,4.6,19.4,10.1,26.1,15.2c4.3,3.4,6.9,6.3,8.2,8.7c2.4,4.5,3.9,11.6,4.6,19.4c0.5,6.2,0.8,12.3,0.7,18.5
			c-1.3-0.2-11.1-5-21.8-14.1c-12.6-2.6-30.5-1.8-42.1-14.7c-5.5-7.3-4.3-22-4.3-22S138.3,103,134.4,94.5L134.4,94.5z M112.3,106
			c-4.3,1.2-8,2.2-10.5,2.8c-0.7,0.2-1.3,0.5-1.7,1.1c-2.6-1.5-4.9-2.9-6.6-4.2c-0.2-1,6.6-5.3,16.9-11.1
			C110.8,98.4,111.4,102.2,112.3,106z M113.7,111.3c0.8,2.5,1.9,5,3.3,7.2l0.1,0.1c-3.7-1.8-7.3-3.5-10.7-5.3
			C108.5,112.8,110.9,112.1,113.7,111.3L113.7,111.3z M64.5,140.2c-3.7-8.2,2.7-16.5,12.2-16.5h0.6c1.7,0.6,3.3,1.2,4.9,1.7
			c2.1,0.8,4.3,1.6,6.4,2.4l1.4,0.6c5.1,2,10.6,4.3,16.5,6.9c1.7,0.7,3.4,1.5,5.1,2.3c0.1,0.1,0.1,0.1,0.3,0.1
			c9.7,4.6,19.4,10.1,26.1,15.2c4.3,3.4,6.9,6.3,8.2,8.7c2.4,4.5,3.9,11.6,4.6,19.4c0.5,6.2,0.8,12.3,0.7,18.5
			c-1.4-0.2-11.1-5-21.8-14.1c-12.6-2.6-30.5-1.8-42.1-14.7c-5.5-7.3-4.3-22-4.3-22S68.3,148.7,64.5,140.2z M51.7,161.3
			c-6.2-9.4-7-33.9-6.7-48.4c5.3,1.6,13.4,4.1,22.7,7.3c-2.9,1.4-5.4,3.6-7.2,6.4c-3,4.8-3.4,10.8-1,15.9
			c3.5,7.7,12.4,10.4,18.3,11.3c0.1,5.7,1.1,14.4,5.5,20.3l0.1,0.2l0.2,0.2c10.4,11.5,24.8,13.4,36.5,15c2.6,0.4,5.1,0.7,7.3,1.1
			c4.5,3.7,9.3,7.1,14.3,10.1c6.9,4.1,8.9,4.3,9.9,4.3c-0.1,2.4-0.1,4.8-0.3,7c0,0.5-0.1,1-0.1,1.5l-0.3,4.7
			c-8.6-3.5-24.1-9.9-40.5-17.9C70.4,180.9,56.3,168.4,51.7,161.3z M156.5,217.4c0.1-1.2,0.2-2.6,0.3-4c0.3-4.6,0.5-9,0.6-13.3
			c0-0.2,0.1-0.5,0.1-0.7V196c-0.1-15.6-1.8-28.3-4.9-34.7L152,160c-0.9-2.3-2.8-5.3-7.8-9.5c-2.8-2.4-5.7-4.6-8.9-6.5
			c-1.9-1.3-3.8-2.4-5.6-3.5c-11.2-6.6-25.4-13-42.4-19.2c-14-5.4-25.6-9.2-38.7-13.3c14-5.5,45.6-18,58.6-23.6
			c0.7-0.3,1.5-0.6,2.3-1c0.1,1.7,0.2,3.4,0.3,5.1c-2.8,1.6-5.4,3.1-7.7,4.4c-3.9,2.3-6.8,4.1-8.8,5.4c-2.5,1.7-6,4.1-5.3,8.2
			l0.4,2.2l1.8,1.3c7.5,5.6,23.6,13.4,36.8,19.1c11.1,9.3,28,18.9,44.6,27.2c-8.3,3.2-13.9,5.5-13.9,5.5s-2.3,36.9,5.2,54.6
			c-2.7,1.3-4.9,2.4-6.5,3.2L156.5,217.4z M182.4,196.4c-3.7-8.2,2.7-16.5,12.2-16.5h0.6c1.7,0.6,3.4,1.2,4.9,1.7
			c2.1,0.8,4.3,1.6,6.4,2.4c0.5,0.2,0.9,0.4,1.4,0.6c5.1,2,10.6,4.3,16.6,6.9c1.7,0.7,3.4,1.5,5.1,2.3c0.1,0,0.2,0.1,0.3,0.1
			c9.7,4.6,19.4,10.1,26.1,15.2c4.3,3.4,6.9,6.3,8.2,8.7c2.4,4.4,3.9,11.6,4.6,19.4c0.5,6.2,0.8,12.3,0.7,18.5
			c-1.4-0.2-11.1-5-21.8-14.1c-12.6-2.6-30.5-1.8-42.1-14.7c-5.5-7.3-4.3-22-4.3-22S186.2,204.9,182.4,196.4L182.4,196.4z
			 M169.6,217.5c-6.2-9.4-7-33.9-6.7-48.4c5.3,1.6,13.4,4.1,22.7,7.3c-2.9,1.4-5.4,3.6-7.2,6.4c-3,4.8-3.4,10.8-1,15.9
			c3.5,7.7,12.4,10.4,18.3,11.3c0.1,5.7,1.1,14.4,5.5,20.3l0.1,0.2l0.2,0.2c10.4,11.5,24.9,13.4,36.5,15c2.6,0.4,5.1,0.7,7.3,1.1
			c4.5,3.7,9.3,7.1,14.3,10.1c6.9,4.1,8.9,4.3,9.9,4.3c-0.1,2.4-0.1,4.8-0.3,7c0,0.5-0.1,1-0.1,1.5l-0.3,4.7
			c-8.5-3.5-24.1-10-40.5-17.9C188.2,237,174.2,224.6,169.6,217.5z M423.1,200.8c-7.1,5.8-17,10.6-28.5,16.2
			c-1.3,0.6-2.6,1.3-3.9,1.9c-22.2,10.9-100.2,48.9-116.4,56.9l0.1-2.2c0.1-1.2,0.2-2.6,0.3-4c0.3-4.6,0.5-9,0.5-13.3
			c0-0.2,0.1-0.5,0.1-0.7v-3.4c-0.1-15.6-1.8-28.3-4.9-34.7l-0.5-1.3c-0.8-2.3-2.8-5.3-7.8-9.5c-2.8-2.4-5.7-4.6-8.9-6.5
			c-1.9-1.3-3.8-2.4-5.6-3.5c-11.2-6.6-25.4-13-42.4-19.2c-14-5.4-25.6-9.2-38.7-13.3c3.2-1.2,7.2-2.9,11.7-4.6
			c24.9,12,47.4,20.6,47.4,20.6s1.4-0.7,3.9-1.9c13.6,6.6,28.5,12.7,33.7,13.9l1.2,0.3l1.2-0.3c9.2-1.8,46-15.6,57-19.8
			c27.7-10.4,56.1-18.8,77.9-23c3.6-0.7,7.3-1.1,11-1.1c3.9-0.1,7.8,0.5,11.5,1.6c0.6,0.2,1.2,0.4,1.8,0.7l2.1,1
			c1.9,1.1,3.5,2.6,4.7,4.4c-18.6,1.8-49.2,10.1-89.1,24.1l-0.5,0.2c-1.4,0.5-2.2,2-1.7,3.4c0,0,0,0,0,0.1c0.4,1.1,1.4,1.8,2.6,1.8
			c0.3,0,0.6-0.1,0.9-0.2l0.5-0.2c40.1-14.2,71.6-22.6,89.4-24c0.4,1.6,0.6,3.3,0.9,5.1l-0.4,0.2c-13,9.6-71.1,27.9-95.9,35.7
			c-6.5,2.1-11.2,3.5-13.3,4.3c-1.4,0.5-2.2,2-1.7,3.4c0,0,0,0,0,0.1c0.4,1.1,1.4,1.8,2.6,1.8c0.3,0,0.6-0.1,0.9-0.2
			c2-0.7,6.7-2.2,13.1-4.2c25.8-8.1,77.9-24.5,95-34.8c0,2.6-0.1,5.1-0.3,7.7c-0.3,0.2-0.7,0.4-0.9,0.7c-10.7,12.6-34.9,22-47.8,27
			c-2.7,1-5,2-6.7,2.7c-1.4,0.6-2,2.2-1.5,3.6c0.4,1,1.4,1.7,2.5,1.6c0.4,0,0.8-0.1,1.1-0.2c1.6-0.7,3.9-1.6,6.6-2.6
			c12.1-4.7,31.2-12.1,43.9-22.6C429.7,194.5,426.7,198.1,423.1,200.8z"/>
		<path class="st0" d="M341.8,225.4c-16.5,7.8-30.7,13.3-41,17.2c-8.7,3.4-15,5.9-19,8.1c-1.3,0.7-1.8,2.4-1,3.7l0,0
			c0.5,0.9,1.4,1.4,2.4,1.4c0.5,0,0.9-0.1,1.3-0.4c3.6-2.1,10.1-4.6,18.3-7.8c10.4-4,24.7-9.6,41.4-17.4c1.4-0.7,1.9-2.3,1.3-3.7
			C344.8,225.4,343.2,224.8,341.8,225.4L341.8,225.4z"/>
		<path class="st0" d="M237,70.4c0.5,0,0.9-0.1,1.4-0.4c7.6-4.3,12.7-6.2,23.9-10.3l3.2-1.2c1.4-0.5,2.2-2.1,1.6-3.5
			c-0.5-1.4-2.1-2.2-3.5-1.6l0,0l-3.2,1.2c-11.1,4-16.7,6-24.7,10.6c-1.3,0.8-1.8,2.4-1,3.7l0,0C235.1,69.8,236,70.3,237,70.4z"/>
		<path class="st0" d="M234.9,105.5c0.5,0,0.9-0.1,1.3-0.4c6-3.4,14.9-6.5,24.4-9.7c3.6-1.2,7.3-2.5,10.9-3.8
			c1.4-0.6,2.1-2.2,1.5-3.6c-0.6-1.3-2-2-3.4-1.6c-3.6,1.3-7.3,2.6-10.9,3.8c-9.7,3.3-18.8,6.5-25.3,10.1c-1.3,0.8-1.8,2.4-1,3.7
			l0,0C232.9,104.9,233.8,105.5,234.9,105.5z"/>
		<path class="st0" d="M233.8,148.9c-1.3,0.7-1.8,2.4-1,3.7l0,0c0.5,0.9,1.4,1.4,2.4,1.4c0.5,0,0.9-0.1,1.4-0.4
			c2.6-1.5,8.1-3.4,15.1-5.7c15-5.1,37.6-12.7,64.8-27.2c1.4-0.7,1.9-2.4,1.2-3.7s-2.4-1.9-3.7-1.2l0,0
			c-26.8,14.3-49.2,21.9-64,26.9C242.4,145.2,236.9,147.1,233.8,148.9z"/>
		<g id="LEOS_TAMALES_TEXTO_HORIZONTAL">
			<path id="CAFE" class="st0" d="M1618,70c-8.1-7.5-17.9-12.9-28.7-15.5c-7.8-2-15.8-2.9-23.8-2.9c-7.5,0-15,0.7-22.4,2.2
				c-4.2,0.8-8.4,2-12.4,3.4c-2.5-1.1-5-2-7.7-2.7c-7.5-2-15.2-2.9-22.9-2.9c-1.3,0-2.5,0-3.8,0.1c-3.2-10.1-9.6-18.7-18.5-24.7
				c-9.5-6.6-20.8-9.9-32.4-9.8c-6.3,0-12.4,0.8-18.6,2.4c-5.9,1.4-11.5,3.5-16.9,6.2l-5.6,2.8c-9.6,4.9-16.1,14.3-17.2,24.9
				c-5.7-1.3-11.5-1.8-17.3-1.8c-12.2,0-24.2,2.7-35.2,7.5c-0.3,0.1-0.6,0.3-0.8,0.3c-10.1-5.5-21.4-8.1-32.9-7.8
				c-8.1,0-16.2,1.3-24,3.6c-7.3-2.4-15-3.6-22.6-3.6c-1,0-2.1,0-3.2,0.1c-3.2-1-6.4-1.5-9.8-1.5c-1.3,0-2.5,0.1-3.8,0.3l-13,1.5
				l-7,0.8c-3.9-1.7-8.2-2.7-12.6-2.7c-1.3,0-2.5,0.1-3.8,0.3l-13.4,1.7l-16.5,2c-1.8-0.4-3.6-0.8-5.3-1.1
				c-0.3-4.3-1.1-8.7-2.4-12.9c-3.4-11.6-10.6-21.7-20.7-28.4l-5.3-3.6c-11.7-8-27.4-7.1-38.3,2.1l-4.2,3.6
				c-0.7,0.1-1.4,0.1-2.1,0.1c-3.2,0-6.4-0.3-9.6-1c-5.9-1.1-12.2-2.2-18.9-3.4c-8.9-1.4-17.9-2.1-27-2.1
				c-16.8,0-31.7,3.5-44.5,10.2c-12.2,6.3-22.5,15.5-30.2,26.7c-4.2,6.2-7.7,13-10.2,20.1c-6.7-4.8-14.1-8.1-22.1-10.1
				c-4.1-1-8.2-1.8-12.4-2.2c-0.4-2.1-1-4.3-1.7-6.4c-4.1-12.7-13.3-23.1-25.4-28.5l-3.9-1.8c-4.1-1.8-8.4-2.8-12.9-2.8
				c-5.5,0-10.9,1.4-15.7,4.1l-3.8,2.1l-39.4,22.6l-5.9,3.4c-3.5,2-6.4,4.5-8.9,7.5c-4.2-0.6-8.2-0.8-12.4-0.8
				c-12.4-0.1-24.7,2.2-36.3,7c-0.7,0.3-1.4,0.6-2.1,0.8c-3.9-2.1-8-3.6-12.3-4.9c-7.4-2-15.2-2.9-22.9-2.9c-1.5,0-3.1,0-4.6,0.1
				c-1.4-3.5-3.1-6.7-5.2-9.8c-7.1-10.8-17.2-19.3-29.2-24.2c-10.2-4.3-21.3-6.4-32.4-6.3c-16.8-0.3-33.3,3.5-48.2,10.9
				c-14.4,7.4-27,18.6-36.3,32.4c-8.8,12.9-14.8,28.2-18.2,45.7v0.1c-1.1,6.4-2.5,12.4-4.1,17.5c-0.1,0.6-0.3,1.3-0.6,1.8
				c-0.6,0.3-1.3,0.6-1.8,0.8c-17.1,7.3-29.1,23.1-31.7,41.5c-1.1,7.7-0.3,15.5,2.2,22.9c3.2,9.8,9.8,18.2,18.3,23.9l4.5,2.9
				c5.2,3.4,11.2,5.2,17.3,5.2c2.8,0,5.6-0.4,8.4-1.1c3.6,3.6,7.5,7.3,11.3,10.9c6.7,6.3,14.3,11.6,22.4,15.7
				c10.9,5.5,23.1,8.2,35.2,8.1c11,0.1,21.8-2.4,31.7-7.1c8.9-4.3,16.8-10.6,23.1-18.3c2.2-2.8,4.2-5.7,5.9-8.8c1,0,2,0.1,2.9,0.1
				c9.9,0,19.7-1.5,29.2-4.6c3.4-1.1,6.6-2.4,9.8-3.9c3.4,1.8,6.7,3.2,10.3,4.5c8.4,2.8,17.3,4.2,26.3,4.1
				c21.9,0.3,43.2-7.3,60.1-21.4c5.7,6.4,12.9,11.5,20.8,14.8c6.6,2.8,13.6,4.6,20.7,5.6c5.9,0.8,11.7,1.3,17.8,1.3h0.6
				c11.9,0,23.8-2,35-5.7c11.6-3.9,22.1-10.8,30.5-19.7c8.9-9.4,14.8-21.4,16.8-34.1v-0.1c0-0.1,0.1-0.4,0.1-0.6v-0.1
				c0.7-5,0.8-10.2,0.3-15.4c1.8-2.2,3.4-4.8,4.8-7.4c1.7,1.5,3.5,2.9,5.3,4.3c0.7,0.6,1.7,1.1,2.4,1.7c-6,5.9-9.4,13.7-9.5,22.1
				l-0.1,5.6c-0.1,9.2,2.4,18.2,7.4,25.9c5,7.5,11.9,13.7,20.1,17.6c9.2,4.5,19.3,6.7,29.5,6.6c12.3,0.3,24.3-2.7,35.2-8.5
				c5.2-2.9,9.9-6.6,14.1-10.8c2.4,2.5,4.9,4.8,7.7,6.9c10.5,7.7,23.1,11.6,37.6,11.6c7,0,13.8-0.8,20.6-2.7
				c5.3,1.7,10.9,2.5,16.5,2.7c2.9,0.8,5.9,1.3,8.8,1.3c1,0,2.1-0.1,3.1-0.1l13.1-1.3l16.2-1.7c4.2,2,8.9,3.1,13.6,3.1
				c1,0,2.1-0.1,3.1-0.1l13.3-1.3l31.2-3.1l5.6-0.6c1.3-0.1,2.4-0.3,3.6-0.6c7.4,2.9,15.2,4.5,23.2,4.3c7.8,0,15.7-1.3,22.9-3.9
				c7.4,2.7,15.2,3.9,23.2,3.9c7,0,13.8-0.8,20.6-2.7c5.7,1.8,11.7,2.7,17.9,2.7c6.6,0,13-1,19.3-2.8c0.4-0.1,0.8-0.3,1.1-0.3
				c6.4,2.1,13.1,3.2,19.9,3.2c9.2,0,18.3-1.8,26.8-5.3c9.4,3.6,19.3,5.5,29.2,5.3c9.9,0,19.7-1.5,29.2-4.6c1-0.4,1.8-0.6,2.8-1
				c5.9,2.2,12,3.8,18.2,4.6c5.9,0.8,11.9,1.3,17.8,1.3h0.6c11.9,0,23.6-2,34.8-5.7c11.6-3.9,22.1-10.8,30.5-19.7
				c8.9-9.4,14.8-21.4,16.8-34.1v-0.1c0-0.3,0.1-0.4,0.1-0.7v-0.1c0.7-5,0.8-10.2,0.3-15.4c5.7-7.4,9.5-16.1,10.9-25.3v-0.1
				c0-0.1,0.1-0.4,0.1-0.7v-0.1C1635.5,98.4,1630,81.6,1618,70z"/>
			<g id="VERDE">
				<path class="st4" d="M1605.4,82.8c-5.9-5.5-13-9.2-20.7-10.9c-6.3-1.5-12.9-2.4-19.4-2.4c-6.3,0-12.7,0.6-18.9,1.8
					c-5.9,1.1-11.6,2.9-17.1,5.3c-3.5-2.2-7.3-3.9-11.3-4.9c-6-1.5-12.2-2.4-18.3-2.4c-6.6,0-13.1,0.7-19.6,2.1
					c1.8-17.9-8.2-26.8-12.7-29.9c-6.6-4.3-14.4-6.7-22.2-6.6c-9.5,0.1-18.9,2.4-27.3,6.6l-5.6,2.8c-5.3,2.7-8.2,8.5-7.4,14.4l1,5.7
					c0,0.3-0.1,0.8-0.1,1.8c-0.1,0.8-0.3,2-0.7,3.6l-17.2,2.1c-5.9-1.7-12-2.5-18.2-2.5c-9.6,0-19.2,2.1-28,6
					c-3.2,1.4-6.4,3.1-9.4,5c-0.8-0.8-1.7-1.5-2.7-2.2c-7.5-5.7-17.2-8.7-28.9-8.7c-8,0-15.9,1.4-23.3,4.3c-0.4,0.1-0.7,0.3-1.1,0.4
					c-6.9-3.4-14.5-5-22.2-4.9c-2.1,0-4.1,0.1-6.2,0.3c-2.1-1.3-4.3-1.8-6.7-1.8c-0.6,0-1.1,0-1.7,0.1l-13,1.5l-13,1.5
					c-2.5-2.1-5.6-3.2-8.8-3.2c-0.6,0-1.1,0-1.7,0.1l-13.3,1.7l-19.9,2.4c-5.9-1.7-12-2.5-18.2-2.5c-1.8,0-3.8,0.1-5.6,0.3
					c0.6-2,1-4.1,1.3-6c1-6.3,0.6-12.6-1.3-18.7c-2.2-7.5-7-14.1-13.6-18.6l-5.3-3.6c-5-3.5-11.9-3.1-16.5,0.8l-4.9,4.2
					c-1.4,1.3-2.9,2.2-4.6,2.8c-2.7,0.7-5.5,1.1-8.2,1.1c-4.3,0-8.7-0.4-13-1.1c-5.7-1.1-11.9-2.1-18.3-3.2c-8-1.3-15.9-2-24-2
					c-13.7,0-25.9,2.8-35.9,8.2c-9.5,4.9-17.6,12.2-23.8,21c-5.3,7.7-8.9,16.5-10.5,25.7V81c-1.1,7.5-0.4,15.1,1.8,22.4
					c2.7,8.2,7.8,15.4,15,20.3c5,3.5,10.8,5.9,16.8,7l-3.8,11v0.1c0,0.1-0.1,0.1-0.1,0.3v0.1c-1,3.2-1.8,5.5-2.4,6.9l-1.8,0.8
					c-5,2.1-8.4,7-8.4,12.4l-0.1,5.6c-0.1,11.6,6.3,21.5,17.5,27.1c6.7,3.2,14.1,4.9,21.7,4.8c9.2,0.3,18.3-2,26.4-6.3
					c7.4-4.2,13.7-10.3,18-17.8c2.8-4.6,5-9.4,7-14.4c0.3,2.2,0.7,4.5,1.1,6.7c2.2,9.1,7.5,17.2,15.1,22.8
					c7.3,5.5,16.4,8.1,26.8,8.1c7.1,0.1,14.4-1.1,21.1-3.6c5.5,2.5,11.3,3.8,17.3,3.6h1.7c1.8,0.8,3.8,1.3,5.9,1.3
					c0.4,0,1,0,1.4-0.1l13.1-1.3l22.4-2.2c2.5,2.4,5.7,3.6,9.2,3.6c0.4,0,1,0,1.4-0.1l13.3-1.3l31.2-3.1l5.6-0.6
					c2.2-0.3,4.5-1,6.3-2.2c6.7,4.1,14.4,6.2,22.2,6c7.4,0,14.8-1.5,21.5-4.8c0.6-0.3,1.1-0.6,1.7-0.8c7,3.8,14.8,5.6,22.8,5.5
					c7.1,0.1,14.4-1.1,21.1-3.6c5.5,2.5,11.3,3.8,17.3,3.6c4.9,0,9.6-0.7,14.3-2.1c2.2-0.7,4.5-1.4,6.6-2.4c6,3.1,12.7,4.6,19.4,4.5
					c5,0,9.9-0.7,14.7-2.1c4.2-1.1,8.2-2.9,11.9-5.3c1,0.6,2.1,1.3,3.2,1.7c8.2,3.9,17.2,5.7,26.3,5.6c8,0,16.1-1.3,23.6-3.8
					c2.9-1,5.7-2.1,8.5-3.5c1.4,0.8,2.8,1.4,4.3,2.1c5.2,2.2,10.6,3.6,16.2,4.3c5,0.7,10.1,1,15.2,1h0.4c9.9,0,19.7-1.5,29.1-4.8
					c8.9-3.1,16.9-8.1,23.3-15c6.4-6.9,10.8-15.5,12.3-24.7V154c1-6.2,0.4-12.4-1.4-18.5c6.9-5.7,11.3-13.8,12.7-22.6v-0.1
					c0-0.1,0-0.1,0.1-0.3v-0.3C1616.8,100.7,1613.4,90.4,1605.4,82.8z"/>
				<path class="st4" d="M926.5,71.9c-6.3-1.5-12.9-2.4-19.4-2.4c-2.2,0-4.3,0.1-6.6,0.3c0.1-0.8,0.3-1.8,0.4-2.7
					c0.8-5.3,0.3-10.8-1.3-15.9c-2.5-7.8-8.2-14.3-15.7-17.6l-3.9-1.8c-1.8-0.8-3.6-1.1-5.6-1.1c-2.4,0-4.6,0.7-6.7,1.8l-3.8,2.1
					L824.6,57l-5.9,3.4c-4.8,2.7-7.4,8-6.9,13.3c-1-0.3-1.8-0.7-2.8-1c-6.7-2.2-13.7-3.2-20.7-3.2c-10.1,0-20.1,1.8-29.5,5.6
					c-3.5,1.4-6.9,3.1-10.2,5c-4.5-3.9-9.9-6.7-15.7-8.2c-5.9-1.5-12-2.4-18.2-2.4c-6.2,0-12.3,0.6-18.3,1.8
					c-0.4-7-2.7-13.8-6.4-19.9c-5.2-7.8-12.4-13.8-21.1-17.5c-8-3.4-16.6-5-25.3-4.9c-14-0.3-27.7,2.8-40.3,8.9
					c-12.2,6.2-22.5,15.2-30.1,26.6c-7.7,11.7-13,25-15.4,38.9l0,0c-1.3,7.1-2.8,13.6-4.5,19.3c-1.1,4.1-2.7,7.8-4.6,11.5
					c-2.7,0.6-5.3,1.4-7.8,2.5c-11.3,4.9-19.4,15.2-21.1,27.5c-0.7,4.9-0.1,9.9,1.4,14.5c2,6,6,11.2,11.3,14.7l4.5,2.9
					c2.2,1.4,4.9,2.2,7.5,2.2c2.5,0,4.9-0.7,7.1-2l2.8-1.7c0.8,0,1.7,0.1,2.4,0.6c2.8,1.7,5.3,3.8,7.5,6c3.9,3.9,8,7.8,12,11.6
					c5.5,5,11.6,9.4,18.3,12.9c8.4,4.2,17.6,6.3,27.1,6.2c8.2,0.1,16.4-1.7,23.8-5.2c6.6-3.1,12.3-7.7,16.9-13.4
					c4.1-5,6.9-10.9,8.2-17.2c4.9,1.1,9.8,1.7,14.7,1.7c8.1,0,16.1-1.3,23.8-3.8c5.7-1.8,11.2-4.5,16.1-8c4.6,3.8,9.8,6.7,15.4,8.5
					c6.7,2.1,13.6,3.2,20.6,3.2c20,0.1,39.1-7.5,53.4-21.5c4.5-4.5,8.4-9.4,11.7-14.8c0.1,6.7,2.2,13.3,6.3,18.7
					c4.2,5.6,9.8,9.8,16.4,12.4c5.2,2.2,10.6,3.6,16.2,4.3c5,0.7,10.1,1,15.2,1h0.3c9.9,0,19.7-1.5,29.1-4.8
					c8.9-3.1,16.9-8.1,23.3-15c6.4-6.9,10.8-15.5,12.3-24.7v-0.4c1-6.2,0.4-12.4-1.4-18.5c6.9-5.7,11.3-13.8,12.7-22.8v-0.1
					c0-0.1,0-0.3,0.1-0.3l0,0c1.7-11.5-1.8-21.8-9.6-29.4C941.5,77.5,934.2,73.8,926.5,71.9z"/>
			</g>
			<g id="ROJO">
				<path class="st5" d="M817.6,93.9c-3.6-3.8-8.1-6.6-13-8.2c-5.3-1.7-10.8-2.5-16.4-2.5c-8.4-0.1-16.6,1.4-24.3,4.5
					c-6.7,2.8-12.9,6.6-18.3,11.6c-0.7-2-1.5-3.8-2.8-5.3c-3.4-4.5-8.1-7.5-13.6-8.8c-4.8-1.3-9.8-1.8-14.8-1.8
					c-9.1-0.1-18.2,1.5-26.6,5.2c-3.8,1.7-7.5,3.6-10.9,6c0.1-0.1,0.1-0.3,0.3-0.3c2.5-4.3,4.2-9.1,4.9-14c1.1-8.1-0.1-15.2-3.9-21
					c-3.6-5.6-8.9-9.8-15.1-12.3c-6.3-2.7-13.1-3.9-20-3.8c-11.7-0.1-23.5,2.4-34.1,7.5c-10.1,5-18.7,12.6-24.9,22.1
					c-6.3,9.4-10.8,20.7-13.3,33.8c-1.3,7-2.8,13.8-4.8,20.6c-1.4,5.2-3.4,10.1-6,14.8c-1.1,2-2.5,3.9-4.1,5.6
					c-3.4,0.3-6.7,1-9.9,2.4c-3.8,1.5-7.1,4.2-9.5,7.5c-2,2.8-3.2,6-3.8,9.5c-0.4,2.8-0.1,5.6,0.8,8.2c1,3.1,3.1,5.9,5.9,7.7
					l4.5,2.9l4.6-2.8c0.4-0.3,1-0.4,1.5-0.6c1.1-0.3,2.1-0.3,3.2-0.3c3.5-0.1,6.9,0.8,9.9,2.5c3.8,2.2,7.1,5,10.2,8.1
					c3.8,3.8,7.8,7.5,11.7,11.3c4.6,4.2,9.6,7.8,15.2,10.6c6.4,3.2,13.6,4.8,20.8,4.8c6.2,0.1,12.2-1.3,17.8-3.9
					c4.8-2.2,8.9-5.6,12.3-9.8c3.1-3.8,5.2-8.2,5.9-13c0.6-4.1,0.1-8.1-1.4-12c-1.7-4.2-4.9-7.8-8.9-9.9l-3.9-2.1l-4.1,1.8
					c-1.7,0.8-3.6,1.4-5.5,1.7c-2,0.3-3.9,0.6-5.9,0.6c-3.5-0.1-7-0.8-10.2-2.1c-4.6-1.7-8.9-3.6-13.3-5.9c-3.5-2-7-3.6-10.3-5.5
					c0.1-0.1,0.4-0.3,0.6-0.4c7-5.6,12.7-12.4,17.1-20.3c4.3-7.8,7.5-16.4,9.5-25.2c1.4-6.4,2.9-12.6,4.1-18.6
					c1-4.9,2.4-9.6,4.1-14.4c0.8-2.8,2.4-5.5,4.3-7.5c0.7-0.7,1.5-1.1,2.5-1.3c0.4,2.1,0.4,4.1,0,6.2c-0.4,3.2-1.3,6.4-2.4,9.5
					c-0.6,2-1.4,3.8-2.7,5.3l-4.8,5.2l4.3,5.7c2.1,2.7,5,4.6,8.2,5.6c3.1,1.1,6.4,1.5,9.6,1.5c5,0.1,10.1-1.1,14.5-3.4
					c-3.4,4.2-6,8.8-8.2,13.7c-3.1,6.9-5.3,14.3-6.3,21.7c-1.3,9.1-0.6,16.8,2.4,23.1c2.9,6.4,7.8,11.6,14.1,14.5
					c6.3,2.9,13.1,4.3,20.1,4.2c6.6,0,13.1-1,19.4-3.1c6.2-2,11.7-5,16.5-9.4c2-1.7,3.8-3.8,5.2-6c1.4,2.8,3.1,5.5,5.2,7.7
					c3.6,3.8,8.2,6.6,13.3,8.2c5.2,1.7,10.8,2.5,16.2,2.5c8.4,0.1,16.6-1.5,24.2-4.8c7.3-3.1,14-7.4,19.6-13
					c5.6-5.6,10.2-12,13.7-19.3c3.5-7.4,5.9-15.4,7-23.5c1-5.7,0.7-11.6-0.7-17.2C823.8,102.3,821.3,97.7,817.6,93.9z"/>
				<path class="st5" d="M858.7,88.7L858.7,88.7c3.9-0.7,7.7-1.8,11.3-3.2c4.2-1.5,8-3.9,11-7c3.5-3.6,5.7-8.2,6.3-13.3
					c0.6-3.2,0.3-6.6-0.7-9.8c-1.3-4.2-4.3-7.5-8.2-9.4l-3.9-1.8l-3.8,2.2l-39.4,22.4l-5.9,3.4l2,6.6l2.2,7.4l2.2,7.4l7.5-1.4
					L858.7,88.7z"/>
				<path class="st5" d="M937.7,92.8c-4.1-3.8-9.1-6.3-14.5-7.5c-5.3-1.3-10.6-2-16.1-2c-5.5,0-10.8,0.6-16.1,1.7
					c-5.3,1.1-10.6,2.8-15.5,5.2c-4.9,2.4-9.4,5.6-13,9.5c-3.9,4.2-6.4,9.5-7.3,15.1v0.1c-0.7,4.6-0.3,9.2,1.3,13.6
					c1.3,3.4,3.1,6.6,5.3,9.4c-2.1,0.3-4.2,0.8-6.3,1.7c-3.9,1.4-7.4,3.9-10.1,7.1c-2.7,3.2-4.5,7.3-5.2,11.5v0.4
					c-0.8,5,0.4,10.3,3.5,14.5c2.8,3.6,6.4,6.4,10.6,8.1c4.1,1.7,8.4,2.8,12.9,3.4s8.8,1,13.3,1h0.1c8.4,0,16.6-1.3,24.6-3.9
					c6.9-2.2,13-6.2,18-11.3c4.6-4.9,7.7-11,8.8-17.6v-0.1c0.8-5,0.3-10.2-1.8-14.8c-1.3-2.7-2.8-5.2-4.8-7.4
					c2.9-0.7,5.9-2.1,8.4-3.8c5.2-3.6,8.7-9.2,9.5-15.5v-0.1C944.6,101.4,940.9,95.8,937.7,92.8z"/>
				<path class="st5" d="M1117.8,86.9c4.6-2.8,8.5-6.9,11.5-11.5c2.5-4.2,4.3-8.9,5-13.7c0.7-4.3,0.3-8.7-0.8-12.9
					c-1.3-4.6-4.2-8.5-8.1-11.3l-5.3-3.6l-4.9,4.2c-2.8,2.5-6.2,4.3-9.8,5.5c-3.9,1.1-8,1.7-12.2,1.7c-5.2,0-10.3-0.4-15.5-1.4
					c-5.6-1-11.7-2.1-18.2-3.2c-7.1-1.1-14.4-1.7-21.7-1.7c-11.5,0-21.4,2.2-29.5,6.6c-7.5,3.9-14.1,9.6-19,16.5
					c-4.2,6-7.1,13-8.4,20.3v0.1c-0.8,5.5-0.4,10.9,1.3,16.2c1.8,5.5,5.2,10.2,9.9,13.6c5.3,3.6,11.7,5.5,18.2,5.2
					c3.2,0,6.3-0.6,9.4-1.7c0.1-0.1,0.4-0.1,0.6-0.1l-10.1,30.1v0.1c-1.3,3.9-2.4,7.1-3.2,9.4c-0.6,1.4-1.1,2.7-2.1,3.8
					c-0.4,0.4-1,0.7-1.5,1l-5.2,2.1l-0.1,5.6c-0.1,3.6,1.1,10.3,9.8,14.5c4.9,2.2,10.2,3.4,15.7,3.4c6.9,0.1,13.6-1.4,19.6-4.5
					c5.5-3.1,9.9-7.5,13-12.9c3.4-5.6,6-11.6,7.8-17.9l19.9-60.4c5.2,1.4,10.6,2,15.9,2C1106,91.9,1112.2,90.3,1117.8,86.9z"/>
				<path class="st5" d="M1595.9,92.8c-4.1-3.8-9.1-6.3-14.4-7.5c-5.3-1.3-10.6-2-16.1-2s-10.8,0.6-16.2,1.7
					c-5.3,1.1-10.6,2.8-15.5,5.2c-2.1,1-4.1,2.1-6,3.4c-3.4-4.2-7.8-7.1-13-8.4c-4.8-1.3-9.8-1.8-14.7-1.8
					c-9.1-0.1-18.2,1.5-26.6,5.2c-4.9,2.1-9.5,4.8-13.7,8.1c0.3-0.7,0.6-1.4,0.7-2.1c1.1-3.4,2.1-6.6,2.9-9.5
					c0.8-2.9,1.5-5.3,2.1-7.4c0.6-2.4,1-4.3,1.3-5.9c1.5-11-3.5-16.2-6.7-18.3c-4.3-2.8-9.4-4.3-14.5-4.2c-3.8,0-7.4,0.6-11,1.4
					c-3.5,0.8-6.9,2.1-10.2,3.6l-5.6,2.8l1,6.2c0.1,0.7,0.1,1.3,0.1,2c0,1.1-0.1,2.4-0.4,3.5c-0.4,3.1-1.1,6-2,8.9
					c-0.4,1.5-1,3.4-1.5,5.3l-6.4,0.8l-22.6,2.8c-5.5-1.8-11.2-2.8-17.1-2.8c-7.7,0-15.4,1.7-22.5,4.8c-7,3.1-13.3,7.4-18.7,12.9
					c-0.8-4.6-3.5-8.8-7.1-11.7c-5.2-3.9-12-5.9-20.6-5.9c-6.3,0-12.4,1.1-18.3,3.4c-2.5,1-4.8,2.2-7,3.6c-1.4-1.4-2.9-2.5-4.8-3.4
					c-5.2-2.5-10.9-3.8-16.6-3.6c-4.8,0-9.4,0.7-14,2l1-3.5l-13,1.5l-24.9,2.9l1.5-4.6l-13.3,1.5l-22.6,2.8
					c-5.5-1.8-11.2-2.8-17.1-2.8c-7.7,0-15.4,1.7-22.5,4.8c-7.1,3.2-13.7,7.7-19.2,13.1c-11.7,11.7-19.3,27.1-21.5,43.6
					c-1.1,6.4-0.8,13,0.7,19.3c1.4,6.2,5,11.5,9.9,15.2c4.9,3.6,11.2,5.5,18.7,5.5c5.7,0,11.5-1,16.8-2.9c1.8-0.7,3.6-1.5,5.3-2.5
					c1,0.8,2.1,1.7,3.4,2.2c4.1,2.1,8.5,3.2,13.1,3.2c2.8,0,5.6-0.4,8.2-1l-0.7,2.2l13.1-1.3l31.2-3.1l3.4-0.4l-1.7,4.8l13.3-1.3
					l31.2-3.1l5.6-0.6l1.8-5.2l3.9-11.5c0,5.5,2.4,10.6,6.4,14.4c4.5,4.1,10.5,6,17.8,6c5.5,0,10.9-1.3,15.9-3.5
					c2.8-1.3,5.5-3.1,7.8-5.2c1.1,1.1,2.4,2.2,3.6,3.2c4.9,3.6,11.2,5.5,18.7,5.5c5.7,0,11.5-1,16.8-2.9c1.8-0.7,3.6-1.5,5.3-2.5
					c1,0.8,2.1,1.7,3.4,2.2c3.9,2.1,8.4,3.2,12.9,3.2c3.5,0,7.1-0.6,10.5-1.5c3.8-1.1,7.3-2.8,10.3-5c0.3-0.1,0.4-0.3,0.7-0.6
					c0.4,0.4,0.7,0.7,1.1,1.1c4.5,4.1,10.5,6,17.6,6c3.6,0,7.4-0.6,10.9-1.5c3.8-1.1,7.3-2.8,10.3-5c2-1.4,3.6-2.9,5-4.9
					c2.7,3.1,5.7,5.5,9.4,7.1c6.3,2.9,13.1,4.5,20.1,4.3c6.6,0,13.1-1,19.4-3.1c4.9-1.5,9.5-3.9,13.6-6.9c2.5,2.5,5.6,4.5,8.8,5.9
					c4.1,1.7,8.4,2.8,12.9,3.4c4.5,0.6,8.8,1,13.3,1h0.1c8.4,0,16.6-1.3,24.6-3.9c6.9-2.2,13-6.2,18-11.3c4.6-4.9,7.7-11,8.8-17.6
					v-0.1c0.8-5,0.3-10.2-1.8-14.8c-1.3-2.7-2.8-5.2-4.8-7.4c2.9-0.7,5.9-2.1,8.4-3.8c5.2-3.6,8.7-9.2,9.5-15.5v-0.1
					C1602.8,101.4,1599.3,95.8,1595.9,92.8z"/>
			</g>
			<g id="BLANCO">
				<path class="st1" d="M1113.3,79.6c3.5-2.1,6.4-5,8.7-8.5c2-3.2,3.4-6.7,3.9-10.5c0.4-3.1,0.3-6.3-0.6-9.4
					c-0.7-2.7-2.4-5-4.8-6.6c-3.8,3.2-8.1,5.7-12.9,7.1c-4.8,1.3-9.5,2-14.4,2c-5.7,0-11.5-0.6-17.1-1.7c-5.7-1.1-11.6-2.1-17.9-3.2
					c-6.7-1.1-13.6-1.5-20.4-1.5c-10.1,0-18.6,1.8-25.4,5.6c-6.4,3.2-11.9,8-15.9,13.8c-3.5,5-5.9,10.8-7,16.8
					c-0.6,4.1-0.3,8.4,1,12.3c1.3,3.8,3.6,7,6.9,9.4c3.4,2.4,7.7,3.6,13.1,3.6c2.2-0.1,4.6-0.6,6.7-1.3c2.7-0.8,5-2.2,7-4.2
					c-1.3-3.5-2-7-2.4-10.6c-0.3-3.2-0.1-6.6,0.4-9.8c1-7.4,3.6-12.9,7.8-16.5c4.1-3.6,9.4-5.7,15-5.6c2.1,0,3.9,0.1,5.7,0.3
					c2.1,0.3,4.2,0.8,6.3,1.7l0.1,1.8c0,0,0.1,0,0.1,0.1c-1,0.6-2,1.3-2.8,2c-7.8,5.9-13.7,14.7-17.3,26l-18.6,55.9
					c-1.3,4.2-2.5,7.5-3.4,9.9c-0.8,2.1-2,4.2-3.4,6c-1.3,1.5-2.9,2.8-4.9,3.5c0,2.8,1.7,5.2,5,6.7c3.8,1.7,7.8,2.5,11.9,2.5
					c6.3,0,11.5-1.1,15.4-3.4c4.2-2.4,7.5-5.7,10.1-9.9c2.9-5,5.3-10.5,7.1-16.1l22-69.3c1,0.4,2,0.8,2.9,1.3
					c5.9,2.2,12,3.4,18.3,3.2C1104.6,83.4,1109.3,82.1,1113.3,79.6z"/>
				<path class="st1" d="M1431.2,162.1c-0.8-1.7-1.3-3.5-1-5.5c0.1-0.6,0.3-1.4,0.4-2.1c0.1-0.7,0.6-2.2,1.3-4.2
					c0.7-2,1.7-4.9,2.9-8.7c1.3-3.8,3.1-8.9,5.3-15.2c2.2-6.3,5-14.5,8.4-24.5c1.4-3.6,2.5-7.1,3.6-10.3c1.1-3.2,2.1-6.3,2.8-9.1
					c0.7-2.8,1.4-5.2,2.1-7.3c0.4-1.7,0.8-3.2,1.1-4.9c0.7-4.9-0.3-8.2-3.1-10.2c-2.9-2-6.3-2.9-9.8-2.8c-6,0-11.9,1.5-17.3,4.1
					c0.1,1.1,0.3,2.4,0.1,3.5c0,1.5-0.1,2.9-0.4,4.5c-0.6,3.4-1.3,6.7-2.1,10.1c-1,3.9-2.5,8.8-4.5,14.5c-0.4,1.7-1.3,4.2-2.4,7.4
					c-1.1,3.2-2.5,7-4.1,11.2s-3.2,8.7-4.8,13.1s-3.2,9.1-4.6,13.6c-1.4,4.5-2.8,8.4-3.8,12.2c-0.8,2.9-1.5,6-2.1,9.1
					c-0.8,5.3,0.4,9.4,3.4,12c2.9,2.7,6.9,3.9,12,3.9c2.9,0,5.7-0.4,8.5-1.3c2.8-0.8,5.5-2.1,7.8-3.8c2.2-1.7,4.1-3.9,5.3-6.4
					C1433.9,164.8,1432.1,163.8,1431.2,162.1z"/>
				<path class="st1" d="M1579.4,93.5c-4.6-1.1-9.2-1.7-14-1.7c-4.9,0-9.8,0.4-14.5,1.4c-4.8,1-9.2,2.4-13.6,4.5
					c-3.9,1.8-7.5,4.3-10.3,7.5c-1.4,1.5-2.7,3.4-3.5,5.3c0.6-4.9-0.1-8.8-2.1-11.6c-2.2-2.9-5.3-4.9-8.8-5.9
					c-4.1-1.1-8.2-1.5-12.4-1.5c-8-0.1-15.8,1.4-23.2,4.3c-6.6,2.8-12.4,6.7-17.2,11.9c-4.8,4.9-8.7,10.6-11.5,16.8
					c-2.8,6.2-4.6,12.7-5.6,19.4c-1,7.5-0.6,13.6,1.7,18.3c2,4.6,5.6,8.2,10.2,10.3c5.2,2.4,10.8,3.5,16.4,3.4
					c5.7,0,11.3-0.8,16.8-2.7c4.9-1.5,9.5-4.1,13.4-7.5c3.5-2.9,5.7-7,6.4-11.6c0.3-1.4,0.1-2.9-0.3-4.3c-0.6-1.3-1.4-2.4-2.5-3.1
					c-2.7,3.2-6,5.7-10.1,7.1c-3.9,1.7-8.1,2.5-12.3,2.5c-4.6,0-7.7-1.1-9.4-3.4s-2.1-5.6-1.4-9.9c0.1-0.8,0.4-1.8,0.6-2.9
					c0.1-1.1,0.6-2.4,0.8-3.5h4.1c1.4,0,2.7-0.1,3.9-0.1c7.7-0.3,15.2-1.7,22.5-4.1c5.3-1.7,10.1-4.8,14-8.7c1.7-2,3.2-4.2,4.2-6.7
					c-0.3,2.7,0,5.5,1,8.1c1,2.8,2.7,5.5,4.8,7.7c2.1,2.4,4.6,4.6,7.1,6.6c3.2,2.4,6.4,4.6,9.5,6.7c2.8,1.8,5.5,4.1,7.7,6.6
					c1.8,2,2.8,4.6,2.4,7.4c-0.4,2.2-1.7,4.3-3.5,5.6c-2.2,1.5-5,2.2-7.7,2.1c-2.4,0.1-4.8-0.7-6.4-2.5c-1.5-1.7-2.1-4.1-1.8-6.3
					c0.3-1.8,0.6-3.6,1-5.5c0.4-1.8,1-3.6,1.7-5.3c-1.5-1.1-3.2-1.8-5.2-2.1c-2.1-0.4-4.2-0.7-6.3-0.7c-3.1,0-6.2,0.6-8.9,1.5
					c-2.5,1-4.8,2.5-6.6,4.5c-1.7,2.1-2.8,4.8-3.2,7.4c-0.6,2.8,0.1,5.9,1.8,8.2c1.8,2.4,4.3,4.2,7.1,5.3c3.4,1.4,7,2.4,10.6,2.8
					c4.1,0.6,8.1,0.8,12.2,0.8c7.4,0,14.8-1.1,21.8-3.5c5.6-1.8,10.6-4.9,14.7-9.1c3.5-3.6,5.7-8.2,6.6-13.3
					c0.6-3.4,0.1-6.9-1.1-10.1c-1.4-2.9-3.4-5.6-5.9-7.7c-2.8-2.4-5.6-4.6-8.7-6.7c-2.9-2-5.9-3.9-8.4-5.9c-2.4-1.7-4.5-3.9-6.3-6.3
					c-1.4-2-2-4.3-1.7-6.7c0.3-2.4,1.7-4.5,3.6-5.9c1.8-1.3,4.1-2,6.3-2c2.5-0.1,4.9,1.1,6.3,3.2c1.4,2.4,1.7,5.3,1,8
					c-0.3,1.5-0.7,2.9-1.3,4.5c-0.4,1.4-1,2.7-1.7,4.1c1.7,1,3.5,1.7,5.3,2.1c2,0.6,4.1,0.7,6,0.8c4.2,0.1,8.2-1,11.7-3.2
					c3.2-2.2,5.3-5.9,5.9-9.8c0.7-3.6-0.4-7.5-2.9-10.2C1587,96.1,1583.3,94.3,1579.4,93.5z M1500.2,107.9c-0.4,3.2-1.4,6.2-2.8,9.1
					c-1.3,2.7-3.1,5-5.3,7.1c-2.2,2-4.9,3.6-7.7,4.8c-3.1,1.3-6.4,1.8-9.8,1.8c1.4-4.8,3.1-9.5,5-14.1c1.4-3.4,3.2-6.6,5.3-9.6
					c1.4-2.1,3.2-3.9,5.3-5.5c1.5-1.1,3.4-1.7,5.3-1.8c2.1,0,3.5,0.8,4.1,2.4C1500.3,103.8,1500.4,105.8,1500.2,107.9L1500.2,107.9z
					"/>
				<path class="st1" d="M1306.2,162.1c-1-1.8-1.1-3.9-0.8-6c0.4-2.5,1-5,1.8-7.4c1-2.9,2.1-6,3.4-9.5c1.3-3.5,2.5-7,3.9-10.3
					c1.4-3.4,2.5-6.9,3.6-10.2c1-2.8,1.7-5.7,2.1-8.8c1-6.6-0.4-11.2-4.1-14c-3.6-2.8-8.7-4.2-15.4-4.2c-5.2,0-10.3,1-15.2,2.8
					c-4.9,2-9.2,5.2-12.4,9.5c-0.4-4.1-2.8-7.7-6.3-9.6c-3.9-2-8.2-2.9-12.7-2.8c-5.7,0-11.3,1.1-16.5,3.5c-5.3,2.5-9.9,6.6-13,11.6
					l4.5-15.1l-25.4,3.1l-27.4,81.5l31.2-3.1l15.7-46.7c0.7-2,1.5-4.3,2.5-6.9c1-2.7,2.2-5.2,3.6-7.5c1.3-2.2,2.9-4.3,4.9-6
					c1.5-1.5,3.8-2.4,6-2.4s3.6,0.8,4.1,2.4c0.4,1.7,0.6,3.4,0.3,4.9c-0.3,2-0.7,3.8-1.3,5.6c-0.7,2.4-1.4,4.8-2.1,7.3
					c-0.7,2.5-1.5,4.9-2.4,7c-0.8,2.1-1.4,3.9-1.8,5l-14.3,40.5l31.2-3.1l15.7-46.6c0.7-1.7,1.4-3.9,2.5-6.4c1-2.7,2.1-5.2,3.5-7.5
					c1.3-2.4,2.9-4.5,4.8-6.3c1.5-1.5,3.8-2.5,6-2.5c2.1,0,3.4,0.8,3.9,2.4c0.4,1.7,0.6,3.5,0.3,5.3c-0.4,2.9-1.1,5.9-2.1,8.7
					c-1.1,3.2-2.4,6.9-3.6,10.5c-1.3,3.6-2.8,7.5-4.2,11.2s-2.7,7.3-3.6,10.5c-1,2.7-1.7,5.5-2.1,8.2c-0.8,5.3,0.4,9.2,3.4,12
					s7,3.9,12.2,3.9c4.3,0,8.7-1,12.6-2.8c3.9-1.7,7.1-4.8,8.9-8.7C1308.9,164.6,1307.1,163.7,1306.2,162.1z"/>
				<path class="st1" d="M1390.5,162.1c-1-1.7-1.3-3.5-1-5.5c0.1-1.1,0.4-2.2,0.8-3.4c0.3-1.3,0.7-2.2,0.8-3.1l19.3-58.6l-24.5,2.9
					c-11.5-4.2-24-3.8-35.1,1.1c-6.2,2.8-11.9,6.7-16.6,11.5c-5,5-9.2,10.9-12.4,17.2c-3.4,6.7-5.6,14-6.7,21.5
					c-0.8,5.3-0.7,10.8,0.4,15.9c1,4.2,3.4,8,6.9,10.5c3.4,2.5,8,3.8,13.7,3.8c4.6,0.1,9.4-0.7,13.7-2.4c3.9-1.5,7.5-3.6,10.6-6.4
					c0.6,2.8,2.4,5.3,5,6.6c2.8,1.4,5.9,2.2,9.1,2.1c2.8,0,5.5-0.4,8.1-1.3c2.8-0.8,5.5-2.1,7.8-3.8c2.2-1.7,4.1-3.9,5.3-6.4
					C1393.6,164.9,1391.7,163.9,1390.5,162.1z M1362.9,147.3c-0.8,2.9-2,5.7-3.2,8.4c-1.3,2.8-3.1,5.5-5.2,7.5
					c-1.8,2-4.3,3.2-7.1,3.2c-2.7,0-4.2-1.3-4.5-3.6c-0.4-2.5-0.4-5,0-7.5c0.6-3.6,1.3-7.8,2.4-12.4c1.1-4.6,2.2-9.5,3.8-14.4
					c1.4-4.6,3.2-9.2,5.5-13.6c1.7-3.6,4.1-7.1,6.9-10.1c2.1-2.2,4.9-3.6,8-3.8c1.3,0,2.5,0.3,3.6,0.7c1.4,0.4,2.7,1.1,3.8,2.1
					L1362.9,147.3z"/>
				<path class="st1" d="M1172.3,161.7c-0.7-1.5-1-3.2-0.7-4.9c0.1-1.1,0.4-2.2,0.7-3.4c0.3-1.3,0.7-2.2,0.8-3.1l19.3-58.6
					l-24.5,2.9c-11.5-4.2-24-3.8-35.1,1.1c-6.2,2.8-11.9,6.7-16.6,11.5c-5,5-9.2,10.9-12.4,17.2c-3.4,6.7-5.6,14-6.7,21.5
					c-0.8,5.3-0.7,10.8,0.4,15.9c1,4.2,3.4,8,6.9,10.5c3.4,2.5,8,3.8,13.7,3.8c4.6,0.1,9.4-0.7,13.7-2.4c3.9-1.5,7.5-3.6,10.6-6.4
					c0.6,2.8,2.4,5.3,5,6.6c2.8,1.5,5.9,2.2,9.1,2.1c2.8,0,5.5-0.4,8.1-1.3c1.3-0.4,2.4-0.8,3.6-1.4c0.7-0.1,7.8-5,10.3-9.9
					C1174.4,164.8,1173.4,163.1,1172.3,161.7z M1144.9,147.2c-0.8,2.9-2,5.7-3.2,8.4c-1.3,2.8-3.1,5.5-5.2,7.5
					c-1.8,2-4.3,3.2-7.1,3.2c-2.7,0-4.2-1.3-4.5-3.6c-0.3-2.5-0.3-5,0-7.5c0.6-3.6,1.3-7.8,2.4-12.4s2.4-9.5,3.9-14.4
					c1.4-4.6,3.2-9.2,5.5-13.6c1.7-3.6,4.1-7.1,6.9-10.1c2.1-2.2,4.9-3.6,8-3.6c1.3,0,2.5,0.3,3.6,0.7c1.4,0.4,2.7,1.1,3.8,2.1
					L1144.9,147.2z"/>
				<path class="st1" d="M875.1,72.5c2.2-2.2,3.6-5.2,3.9-8.4c0.3-2.1,0.1-4.1-0.4-6c-0.6-1.8-2-3.4-3.6-4.1l-39.4,22.4l2.2,7.4
					l19.4-3.5c3.5-0.7,6.9-1.5,10.1-2.7C870,76.4,872.8,74.7,875.1,72.5z"/>
				<path class="st1" d="M670.1,89.7c2-3.4,3.2-7,3.9-10.9c0.8-6,0-11-2.7-15.1c-2.7-4.1-6.6-7.3-11.2-9.1
					c-5.3-2.1-10.9-3.2-16.5-3.2c-10.5-0.1-20.8,2.1-30.3,6.6c-8.8,4.5-16.2,11-21.7,19.3c-5.7,8.4-9.6,18.6-11.9,30.6
					c-1.3,7.1-2.9,14.3-4.9,21.4c-1.5,5.7-3.9,11.3-6.7,16.6c-2.1,3.6-4.6,7-7.7,9.8c-3.5-0.1-7,0.4-10.2,1.8
					c-2.4,1-4.3,2.5-5.9,4.5c-1.3,1.7-2,3.8-2.4,5.9c-0.1,1.4,0,2.9,0.4,4.3c0.4,1.4,1.3,2.5,2.4,3.4c1.3-0.7,2.7-1.3,4.1-1.7
					c1.7-0.4,3.5-0.6,5.2-0.6c5-0.1,9.9,1.3,14.3,3.8c4.3,2.7,8.4,5.7,11.9,9.4c3.8,3.8,7.5,7.4,11.6,11.2c3.9,3.6,8.4,6.9,13.3,9.2
					c5.3,2.7,11,3.9,17.1,3.8c4.8,0.1,9.6-0.8,14-2.9c3.6-1.7,6.9-4.2,9.4-7.4c2.1-2.5,3.5-5.6,4.1-8.8c0.4-2.5,0.1-5.2-0.8-7.5
					c-1-2.4-2.9-4.3-5.2-5.6c-2.4,1.1-5,2-7.7,2.4c-2.4,0.4-4.9,0.6-7.3,0.6c-4.5-0.1-8.9-1-13.1-2.5c-4.9-1.8-9.8-4.1-14.4-6.6
					c-4.9-2.7-9.8-5.2-14.7-7.8c-3.4-1.8-6.6-3.4-9.8-4.8c4.8-2,9.2-4.5,13.3-7.7c6.2-4.9,11.2-10.9,15-17.8
					c4.1-7.1,6.9-15,8.7-22.9c1.4-6.4,2.8-12.6,4.1-18.3c1.1-5.3,2.5-10.5,4.3-15.5c1.3-3.9,3.4-7.5,6.2-10.6
					c2.4-2.5,5.9-3.9,9.4-3.9c2.7,0,5.2,1.4,6.4,3.8c1.7,2.5,2.1,6.6,1.4,12.2c-0.6,3.8-1.5,7.5-2.8,11.2c-0.8,3.1-2.5,5.9-4.5,8.4
					c1.1,1.3,2.7,2.2,4.3,2.7c2.2,0.7,4.5,1.1,6.9,1.1c4.5,0.1,8.9-1.1,12.7-3.6C665,96.4,668,93.3,670.1,89.7z"/>
				<path class="st1" d="M732.1,124.1c3.2-3.6,5.3-8.1,6-13c0.7-5.2,0-9.2-2.1-12c-2.2-2.9-5.3-4.9-8.9-5.9
					c-4.1-1.1-8.2-1.5-12.4-1.5c-8-0.1-15.8,1.4-23.2,4.3c-6.6,2.8-12.4,6.9-17.2,11.9c-4.8,4.9-8.5,10.6-11.3,16.8
					c-2.8,6.2-4.6,12.7-5.6,19.4c-1,7.5-0.6,13.6,1.7,18.3c2,4.6,5.6,8.2,10.2,10.3c5.2,2.4,10.8,3.5,16.4,3.4
					c5.7,0,11.3-0.8,16.8-2.7c4.9-1.5,9.5-4.1,13.4-7.5c3.5-2.9,5.7-7,6.4-11.6c0.3-1.4,0.1-2.9-0.3-4.3c-0.6-1.3-1.4-2.4-2.5-3.1
					c-2.7,3.2-6,5.7-9.9,7.1c-3.9,1.7-8.1,2.5-12.3,2.5c-4.6,0-7.7-1.1-9.4-3.4c-1.7-2.2-2.1-5.6-1.4-9.9c0.1-0.8,0.3-1.8,0.6-2.9
					c0.3-1.1,0.6-2.4,0.7-3.5h4.1c1.4,0,2.7-0.1,3.9-0.1c7.7-0.3,15.2-1.7,22.5-4.1C723.4,131.2,728.3,128.1,732.1,124.1z
					 M714.9,107.9c-0.4,3.2-1.4,6.2-2.8,9.1c-1.3,2.7-3.1,5-5.3,7.1c-2.2,2-4.9,3.6-7.7,4.8c-3.1,1.3-6.4,1.8-9.8,1.8
					c1.4-4.8,3.1-9.5,5-14.1c1.4-3.4,3.2-6.6,5.3-9.6c1.4-2.1,3.2-3.9,5.3-5.5c1.5-1.1,3.4-1.7,5.3-1.8c2.1,0,3.5,0.8,4.1,2.4
					C715,103.8,715.1,105.8,714.9,107.9L714.9,107.9z"/>
				<path class="st1" d="M811.5,99.6c-2.7-2.8-5.9-4.8-9.5-5.9c-4.3-1.4-8.9-2.1-13.6-2c-7.3-0.1-14.4,1.3-21.1,3.9
					c-6.3,2.5-11.9,6.3-16.8,11s-8.9,10.5-11.9,16.6c-3.2,6.6-5.3,13.7-6.3,21c-0.7,4.6-0.7,9.4,0.3,14c0.8,3.8,2.7,7.3,5.3,9.9
					c2.7,2.8,6,4.8,9.8,6c4.3,1.4,8.9,2.1,13.6,2c7.1,0,14.3-1.3,21-4.1c6.3-2.7,12-6.4,16.8-11.2c4.9-4.9,8.9-10.5,11.9-16.8
					c3.2-6.6,5.3-13.7,6.3-21c0.8-4.6,0.7-9.4-0.4-13.8C815.8,105.8,814,102.4,811.5,99.6z M790.1,111.1c-0.6,4.1-1.4,8.4-2.5,13.6
					c-1.1,5.2-2.5,9.9-4.1,15c-1.5,4.6-3.2,9.2-5.3,13.7c-1.5,3.6-3.8,7-6.3,10.1c-2.4,2.5-4.8,3.9-7.1,3.9s-4.3-1-5-2.8
					c-0.7-2.4-0.8-4.9-0.4-7.3c0.6-4.2,1.4-8.8,2.5-13.7c1.1-4.9,2.4-9.9,3.9-15c1.4-4.6,3.2-9.2,5.3-13.6c1.7-3.6,3.8-6.9,6.4-9.9
					c1.7-2.2,4.3-3.6,7.1-3.8c2.7,0,4.3,1,5,2.8C790.4,106.2,790.5,108.7,790.1,111.1L790.1,111.1z"/>
				<path class="st1" d="M921.1,93.5c-4.6-1.1-9.2-1.7-14-1.7c-4.9,0-9.8,0.4-14.5,1.4c-4.8,1-9.2,2.4-13.6,4.5
					c-3.9,1.8-7.5,4.5-10.5,7.7c-2.8,2.9-4.6,6.7-5.2,10.8c-0.6,3.2-0.3,6.4,0.8,9.5c1,2.8,2.7,5.5,4.8,7.7c2.1,2.4,4.6,4.6,7.1,6.6
					c3.2,2.4,6.6,4.6,9.5,6.7c2.8,1.8,5.5,4.1,7.7,6.6c1.8,2,2.8,4.6,2.4,7.4c-0.4,2.2-1.7,4.3-3.5,5.6c-2.2,1.5-5,2.2-7.7,2.1
					c-2.4,0.1-4.8-0.7-6.4-2.5c-1.5-1.7-2.1-4.1-1.8-6.3c0.3-1.8,0.6-3.6,1-5.5c0.4-1.8,1-3.6,1.7-5.3c-1.5-1.1-3.4-1.8-5.2-2.1
					c-2.1-0.4-4.2-0.7-6.3-0.7c-3.1,0-6.2,0.6-8.9,1.5c-5.3,1.8-9.1,6.4-9.8,12c-0.6,2.8,0.1,5.9,1.8,8.2c1.8,2.4,4.3,4.2,7.1,5.3
					c3.4,1.4,7,2.4,10.6,2.8c4.1,0.6,8.1,0.8,12.2,0.8c7.4,0,14.8-1.1,21.8-3.5c5.6-1.8,10.6-4.9,14.7-9.1c3.5-3.6,5.7-8.2,6.6-13.3
					c0.6-3.4,0.1-6.9-1.1-10.1c-1.4-2.9-3.4-5.6-5.9-7.7c-2.8-2.4-5.6-4.6-8.7-6.7c-2.9-2-5.9-3.9-8.4-5.9c-2.4-1.7-4.5-3.9-6.3-6.3
					c-1.4-2-2-4.3-1.7-6.7c0.3-2.4,1.7-4.5,3.6-5.9c1.8-1.3,4.1-2,6.3-2c2.5-0.1,4.9,1.1,6.3,3.2c1.4,2.4,1.7,5.3,1,8
					c-0.3,1.5-0.7,2.9-1.3,4.5c-0.4,1.4-1,2.7-1.7,4.1c1.7,1,3.5,1.7,5.3,2.1c2,0.6,4.1,0.7,6,0.8c4.2,0.1,8.2-1,11.7-3.2
					c3.2-2.2,5.3-5.9,5.9-9.8c0.7-3.6-0.4-7.5-2.9-10.2C928.6,96.1,925,94.3,921.1,93.5z"/>
			</g>
		</g>
		<path class="st1" d="M655.7,259.1c-1.1,0-2.2-0.3-3.2-0.8c-1-0.6-1.7-1.5-2.1-2.5c-0.4-1.3-0.7-2.7-0.7-3.9c0-1.5,0.3-3.1,1-4.5
			c0.7-1.5,1.5-2.9,2.8-4.1c1.3-1.3,2.9-2.2,4.6-2.9c2.1-0.7,4.3-1.1,6.4-1.1c1.8,0,3.5,0.1,5.3,0.4c1.7,0.4,3.2,0.6,4.9,1
			c1.7,0.3,3.2,0.6,4.9,0.6l-3.6,3.6l-5.6-1.3l-0.3-0.6c-1.4-0.3-2.8-0.6-4.3-0.6c-2.2-0.1-4.5,0.7-6.2,2.4c-1.5,2-2.4,4.3-2.4,6.9
			c0,1.1,0.1,2.2,0.4,3.2c0.3,1.1,0.7,2.1,1.1,3.2c-0.4,0.3-0.8,0.6-1.4,0.6C656.8,259,656.3,259.1,655.7,259.1z M656.3,286.1
			c-1.1,0.1-2.4-0.3-3.2-1.1c-0.8-0.6-1.3-1.5-1.1-2.5c0-0.4,0-0.7,0.1-1.1c1.4,0,2.7-0.4,3.9-1c1.3-0.7,2.4-1.7,3.2-2.8
			c1.1-1.5,2.1-3.2,2.8-5c1.1-2.4,2-4.9,2.8-7.5c1-2.9,1.8-6.4,2.8-10.3c1-3.9,2.1-8.4,3.4-13.3l4.1,4.8c-1.5,7.3-2.9,13.3-4.3,18.2
			c-1.1,4.1-2.4,8-4.1,11.7c-1,2.4-2.1,4.5-3.6,6.6c-0.8,1.3-2,2.2-3.4,2.9C658.5,285.8,657.4,286.1,656.3,286.1L656.3,286.1z
			 M678.1,284.7l-4.1-34.5l-0.6-0.1l-2.9-8.7h9.1l3.5,31.2h0.1l15.4-31h8.8l-7.8,9.1l-17.5,34.1H678.1z M701.7,295.1
			c-0.8,0-1.7-0.1-2.4-0.6c-0.7-0.4-1.4-1.1-1.7-2c-0.6-1.1-0.8-2.4-1-3.6c-0.3-1.8-0.4-3.6-0.3-5.5c0-2.2,0.1-4.9,0.4-8.2
			c0.3-3.4,0.6-7.1,1.1-11.5c0.6-4.3,1.4-9.1,2.4-14.1l-0.4-0.4l-1-7.8h9.2c-0.4,2.5-1,5.2-1.4,8.2c-0.4,3.1-1,6.3-1.5,9.5
			c-0.6,3.2-0.8,6.4-1.1,9.8c-0.3,2.9-0.4,6-0.4,8.9c-0.1,3.1,0.1,6,0.7,8.9c0.3,2,1.1,3.8,2.4,5.3c-0.3,0.6-0.6,1-1,1.4
			c-0.4,0.4-1,0.8-1.7,1C703.1,294.9,702.4,294.9,701.7,295.1L701.7,295.1z"/>
		<path class="st1" d="M722.7,285.8c-2.2,0-4.5-0.4-6.4-1.4c-1.8-1-3.2-2.4-4.2-4.3c-1-2.2-1.5-4.8-1.4-7.3c0-2.8,0.4-5.6,1.1-8.2
			s1.8-5.2,3.5-7.4c1.5-2.2,3.5-4.1,5.9-5.5c2.5-1.4,5.5-2.1,8.4-2.1c1.5,0,3.1,0.3,4.6,0.7c1.3,0.4,2.4,1.3,3.2,2.4
			c0.8,1.3,1.3,2.9,1.1,4.5c0.1,2.4-0.7,4.6-2.4,6.4c-1.7,1.8-3.6,3.2-6,3.9c-2.7,1-5.5,1.4-8.2,1.4H720c-0.7,0-1.3-0.1-1.7-0.1
			c-0.1,0.7-0.1,1.4-0.1,2.1c-0.1,0.6-0.1,1.3-0.1,1.8c-0.1,2,0.3,3.9,1.3,5.6c0.8,1.4,2.5,2,4.8,2c1.8,0,3.5-0.4,5-1.4
			s2.7-2.2,3.5-3.9c0.6,0.1,1,0.6,1.3,1c0.3,0.6,0.4,1.1,0.4,1.7c0,1.4-0.6,2.8-1.4,3.9c-1.1,1.3-2.4,2.4-4.1,2.9
			C726.9,285.6,724.8,286,722.7,285.8z M718.9,265.7c1.5,0,2.9-0.1,4.5-0.4c1.4-0.3,2.8-0.7,4.1-1.4c1.1-0.6,2.2-1.5,2.9-2.7
			c0.7-1.1,1.1-2.4,1.1-3.8c0.1-1-0.3-2-0.8-2.8c-0.7-0.7-1.7-1-2.5-1c-1.3,0-2.4,0.4-3.4,1.1c-1.1,0.8-2,1.8-2.7,2.9
			c-0.7,1.3-1.4,2.5-1.8,3.9C719.6,262.9,719.2,264.3,718.9,265.7L718.9,265.7z"/>
		<path class="st1" d="M742,285.8c-1.1,0.1-2.2-0.4-2.9-1.3c-0.7-1-1-2.1-0.8-3.2c0-1.7,0.6-3.5,1.5-4.9c1.1-1.5,2.4-3.1,3.9-4.2
			c1.7-1.3,3.2-2.5,4.9-3.6l1.7-1l-3.6-10.5c-0.3-1.1-1-2-1.7-2.8c-0.8-0.8-1.8-1.3-2.9-1.3c0.1-1.1,0.7-2,1.5-2.7
			c1-0.7,2.1-1,3.4-1c1.8-0.1,3.5,0.7,4.5,2.1c1.1,1.7,2.1,3.5,2.8,5.3l2.7,7c1.4-1.3,2.8-2.8,3.9-4.3c1.1-1.4,1.7-3.1,1.7-4.8
			c0-0.7-0.1-1.4-0.1-2.1c-0.1-0.7-0.4-1.3-0.6-1.8c0.6-0.4,1.1-0.8,1.8-1c0.7-0.3,1.5-0.4,2.4-0.4c1.1-0.1,2.2,0.4,2.9,1.3
			c0.7,0.8,1.1,2,1,3.2c0,1.5-0.4,3.2-1.3,4.5c-1,1.4-2.1,2.8-3.4,3.9c-1.4,1.3-2.9,2.4-4.6,3.5l-2.4,1.5l3.9,10.6
			c0.4,1,1,2,1.7,2.7c0.8,0.8,1.8,1.3,2.9,1.4c-0.1,1.1-0.7,2-1.5,2.7c-1,0.7-2.1,1-3.2,1c-1.3,0-2.4-0.3-3.4-1
			c-1-0.8-1.7-1.7-2.4-2.8c-0.6-1.1-1.1-2.4-1.5-3.6l-2.7-7.1c-1.5,1.3-2.8,2.7-4.1,4.3c-1.1,1.4-1.7,3.1-1.7,4.9
			c0,0.7,0.1,1.3,0.3,2s0.3,1.4,0.6,2C745.3,285.4,743.7,285.8,742,285.8z"/>
		<path class="st1" d="M774.4,285.8c-1.3,0-2.4-0.4-3.2-1.3s-1.3-2.1-1.1-3.4c0-0.7,0.1-1.3,0.1-2c0-0.8,0.1-1.5,0.4-2.2
			c0.1-0.8,0.3-1.5,0.4-2.2s0.3-1.4,0.4-2l4.5-21.9l7.5-0.8l-5.6,27.5c-0.1,0.4-0.1,0.8-0.1,1.4c-0.1,0.4-0.1,1-0.1,1.4
			c0,0.6,0.1,1.1,0.6,1.5c0.4,0.4,0.8,0.6,1.4,0.7c-0.3,1-0.8,2-1.8,2.4C776.4,285.7,775.4,285.8,774.4,285.8z M781.1,245.3
			c-1.3,0-2.5-0.3-3.5-1c-1-0.7-1.5-1.8-1.4-3.1c-0.1-1.3,0.4-2.4,1.4-3.2c1.1-0.7,2.4-1.1,3.6-1c1.3,0,2.5,0.3,3.6,1
			c1,0.7,1.5,1.8,1.4,3.1c0.1,1.3-0.4,2.4-1.4,3.2C783.6,244.9,782.4,245.3,781.1,245.3z"/>
		<path class="st1" d="M798.2,285.8c-3.9,0-6.7-1.1-8.5-3.2c-1.8-2.1-2.8-5.5-2.8-9.8c0-2.8,0.4-5.6,1.3-8.4c0.7-2.7,2-5.2,3.5-7.4
			c1.5-2.2,3.5-4.1,5.9-5.3c2.5-1.4,5.3-2.1,8.1-2c1.7,0,3.2,0.3,4.8,0.8c1.3,0.4,2.4,1.3,3.2,2.2c0.8,1.1,1.3,2.5,1.1,3.9
			c0.1,1.7-0.6,3.2-1.7,4.3c-1.1,1-2.4,1.4-3.9,1.4c-0.4,0-1-0.1-1.4-0.1c-0.6-0.1-1-0.4-1.3-0.8c0.3-0.7,0.4-1.5,0.6-2.2
			c0.1-0.7,0.3-1.5,0.3-2.2c0.1-0.8-0.1-1.8-0.7-2.5c-0.6-0.6-1.4-1-2.4-0.8c-1.3,0-2.5,0.4-3.6,1.3c-1.1,1-2.1,2.1-2.8,3.4
			c-0.8,1.5-1.4,3.1-2,4.8s-1,3.4-1.3,5c-0.3,1.5-0.4,2.9-0.4,4.5c0,2,0.4,3.8,1.3,5.5c1,1.7,2.8,2.5,4.8,2.2c1.8,0,3.6-0.6,5-1.8
			c1.4-1.3,2.4-2.8,2.9-4.5c0.7,0.1,1.4,0.6,1.8,1.3c0.4,0.7,0.6,1.4,0.6,2.1c0,1.5-0.6,3.1-1.7,4.2c-1.3,1.4-2.8,2.4-4.5,3.1
			C802.4,285.6,800.3,286,798.2,285.8z"/>
		<path class="st1" d="M825.6,285.8c-2,0.1-3.9-0.4-5.5-1.7c-1.4-1.1-2.5-2.7-2.9-4.5c-0.7-2.1-1-4.2-1-6.4c0-3.1,0.4-6.2,1.3-9.1
			c0.8-2.8,2.1-5.3,3.8-7.5c1.5-2.1,3.5-3.9,5.7-5.2c2.2-1.3,4.8-1.8,7.3-1.8c2.4,0,4.6,0.6,6.7,1.4l6.7-0.8l-5.3,27.5
			c-0.1,0.4-0.1,0.8-0.1,1.4c-0.1,0.4-0.1,1-0.1,1.4c0,0.6,0.1,1.1,0.6,1.5c0.4,0.4,1,0.6,1.5,0.7c-0.1,0.7-0.6,1.3-1.1,1.8
			c-0.6,0.4-1.1,0.7-1.7,1c-0.7,0.3-1.4,0.4-2.1,0.3c-1.1,0-2.1-0.3-2.9-1s-1.4-1.7-1.4-2.8c-1.1,1.1-2.5,2.1-4.1,2.7
			C829.1,285.7,827.3,286,825.6,285.8z M828.5,281.9c1.5,0.1,2.9-0.6,4.1-1.7c1.1-1.3,2-2.7,2.5-4.1c0.6-1.5,1.1-3.2,1.4-4.8
			l2.9-15.7c-0.8-0.7-1.8-1.1-2.8-1.5c-0.8-0.3-1.7-0.6-2.5-0.6c-1.3,0-2.7,0.4-3.6,1.3c-1.1,0.8-2.1,2-2.8,3.2
			c-0.8,1.5-1.5,3.1-2.1,4.8c-0.6,1.8-1,3.8-1.3,5.7c-0.3,2.1-0.4,4.1-0.4,6.2c0,1.8,0.3,3.5,1,5.2
			C825.5,281.2,826.8,282.1,828.5,281.9z"/>
		<path class="st1" d="M875.1,285.8c-1.1,0-2.4-0.4-3.2-1.1c-1-1-1.4-2.4-1.3-3.8c0-1.3,0.1-2.5,0.4-3.8c0.3-1.5,0.6-3.2,1-4.9
			c0.4-1.7,0.7-3.4,1.1-5.2c0.4-1.8,0.7-3.2,1-4.6c0.3-1.1,0.4-2.1,0.4-3.2c0.1-1.3-0.3-2.4-1.1-3.4c-0.8-0.8-1.8-1.1-2.9-1.1
			c-1.7,0-3.2,0.6-4.3,1.8c-1.3,1.3-2.2,2.8-2.9,4.5s-1.3,3.5-1.7,5.3l-3.6,18.3l-7.5,0.8l6.7-34.3l6.3-0.8l-0.7,5.9
			c1.1-2,2.7-3.6,4.8-4.8c2-1.1,4.1-1.7,6.3-1.7c2.2-0.1,4.5,0.6,6.2,2.1c1.5,1.5,2.2,3.6,2.1,5.7c0,1.4-0.1,2.8-0.4,4.3
			c-0.3,1.7-0.6,3.4-1,5.2c-0.4,1.8-0.8,3.6-1.3,5.3c-0.4,1.7-0.8,3.2-1.1,4.6c-0.3,1.1-0.4,2.2-0.4,3.4c0,0.6,0.1,1.1,0.4,1.7
			c0.4,0.4,1,0.7,1.5,0.8c-0.1,1-0.8,2-1.8,2.4C877.2,285.7,876.2,285.8,875.1,285.8z"/>
		<path class="st1" d="M905.3,259c-1.1,0-2.4-0.3-3.2-1c-1-0.7-1.7-1.7-2.1-2.8c-0.4-1.4-0.7-2.8-0.6-4.3c0-2.1,0.6-4.1,1.5-5.9
			c1.1-2,2.7-3.6,4.8-4.8c2.4-1.4,5.2-2,7.8-2c2.2,0,4.5,0.1,6.7,0.6c2.1,0.3,4.2,0.7,6.2,1.1c2,0.4,3.9,0.6,5.9,0.6
			c1.5,0,2.9-0.1,4.5-0.4c1.4-0.3,2.7-1,3.6-2.1c0.4,0.4,0.7,0.8,0.8,1.4c0.3,0.6,0.4,1.3,0.4,1.8c0,1-0.3,2-0.7,2.8
			c-0.4,1-1.1,1.7-2.1,2.2c-1.1,0.7-2.4,1-3.8,0.8c-1.4,0-2.7-0.1-4.1-0.6c-1.4-0.4-2.8-0.8-4.1-1.4c-1.4-0.6-2.9-1.3-4.6-2
			l-0.1-0.3c-1.1-0.4-2.2-0.8-3.4-1c-1.1-0.1-2.4-0.3-3.5-0.3c-2.4-0.1-4.6,0.8-6.2,2.5c-1.5,2-2.4,4.5-2.4,7c0,1.3,0,2.5,0.3,3.6
			c0.3,1.3,0.7,2.4,1.3,3.4c-0.6,0.3-1.1,0.4-1.7,0.6C906.4,259,905.8,259,905.3,259z M913,286c-0.8,0-1.7-0.1-2.5-0.6
			c-0.6-0.3-1.1-0.7-1.4-1.3c0.6-0.3,1-0.7,1.4-1.3c0.4-0.6,0.7-1.3,1-2c0.3-1,0.6-2,0.7-2.9l5.2-26.4c0.4-2.5,1.4-5,3.1-7
			c1.8-1.7,4.2-2.5,6.6-2.5l-7.3,37.3c-0.3,1.3-0.7,2.5-1.3,3.8c-0.4,1-1.3,1.7-2.1,2.1C915.3,285.7,914.2,286,913,286L913,286z"/>
		<path class="st1" d="M945,285.8c-2,0.1-3.9-0.4-5.5-1.7c-1.4-1.1-2.5-2.7-2.9-4.5c-0.7-2.1-1-4.2-1-6.4c0-3.1,0.4-6.2,1.3-9.1
			c0.8-2.8,2.1-5.3,3.8-7.5c1.5-2.1,3.5-3.9,5.7-5.2c2.2-1.3,4.8-1.8,7.3-1.8c2.4,0,4.6,0.6,6.7,1.4l6.7-0.8l-5.3,27.5
			c-0.1,0.4-0.1,0.8-0.1,1.4c-0.1,0.4-0.1,1-0.1,1.4c0,0.6,0.1,1.1,0.6,1.5c0.4,0.4,1,0.6,1.5,0.7c-0.1,0.7-0.6,1.3-1.1,1.8
			c-0.6,0.4-1.1,0.7-1.7,1c-0.7,0.3-1.4,0.4-2.1,0.3c-1.1,0-2.1-0.3-2.9-1s-1.4-1.7-1.4-2.8c-1.1,1.1-2.5,2.1-4.1,2.7
			C948.5,285.7,946.8,286,945,285.8z M947.9,281.9c1.5,0.1,2.9-0.6,4.1-1.7c1.1-1.3,2-2.7,2.5-4.1c0.6-1.5,1.1-3.2,1.4-4.8l2.9-15.7
			c-0.8-0.7-1.7-1.1-2.8-1.5c-0.8-0.3-1.7-0.6-2.5-0.6c-1.3,0-2.7,0.4-3.6,1.3c-1.1,0.8-2.1,2-2.8,3.2c-0.8,1.5-1.5,3.1-2.1,4.8
			c-0.6,1.8-1,3.8-1.3,5.7c-0.3,2.1-0.4,4.1-0.4,6.2c0,1.8,0.3,3.5,1,5.2C945,281.2,946.4,282.1,947.9,281.9L947.9,281.9z"/>
		<path class="st1" d="M1013.4,285.8c-2.2,0.3-4.2-1.4-4.5-3.6c0-0.4,0-0.8,0-1.3c0-1.3,0.1-2.5,0.4-3.8c0.3-1.5,0.6-3.2,1-4.9
			c0.4-1.7,0.7-3.5,1.1-5.2c0.4-1.7,0.7-3.4,1-4.8c0.3-1,0.4-2.1,0.4-3.2c0-1.3-0.3-2.4-1.1-3.4c-0.8-0.8-2-1.3-3.2-1.1
			c-1.3,0-2.5,0.3-3.5,1c-1,0.7-1.8,1.7-2.5,2.7c-0.7,1.1-1.3,2.4-1.7,3.8c-0.4,1.3-0.7,2.7-1,4.1l-3.6,18.3l-7.5,0.8l3.4-16.6
			c0.1-0.6,0.3-1.4,0.4-2.1s0.4-1.7,0.6-2.5c0.1-0.8,0.3-1.7,0.4-2.5s0.1-1.5,0.1-2.1c0.1-1.3-0.3-2.4-1.1-3.4
			c-0.8-0.8-2-1.3-3.2-1.3c-1.3,0-2.4,0.3-3.4,1c-1,0.7-1.8,1.7-2.4,2.7c-0.7,1.1-1.1,2.4-1.5,3.6c-0.4,1.4-0.7,2.8-1,4.1l-3.6,18.3
			l-7.5,0.8l6.7-34.4l6.3-0.8l-0.7,5.9c1-2.1,2.5-3.8,4.5-4.9c2-1,4.1-1.5,6.3-1.5c1.8-0.1,3.8,0.4,5.3,1.4c1.3,1.1,2.2,2.8,2.4,4.5
			c1-2,2.7-3.6,4.8-4.6c2-1,4.1-1.4,6.3-1.4c2.2-0.1,4.6,0.6,6.3,2.1c1.5,1.5,2.2,3.6,2.1,5.7c0,1.4-0.1,2.8-0.4,4.2
			c-0.3,1.7-0.6,3.4-1,5.2c-0.4,1.8-0.7,3.6-1.3,5.3s-0.7,3.2-1,4.8c-0.3,1.1-0.4,2.2-0.4,3.4c0,0.6,0.1,1.1,0.4,1.7
			c0.4,0.6,1,0.8,1.5,0.8c-0.1,1-0.8,2-1.8,2.4C1015.2,285.7,1014.3,285.8,1013.4,285.8z"/>
		<path class="st1" d="M1034.6,285.8c-2,0.1-3.9-0.4-5.5-1.7c-1.4-1.1-2.5-2.7-2.9-4.5c-0.7-2.1-1-4.2-1-6.4c0-3.1,0.4-6.2,1.3-9.1
			c0.8-2.8,2.1-5.3,3.8-7.5c1.5-2.1,3.5-3.9,5.7-5.2c2.2-1.3,4.8-1.8,7.3-1.8c2.4,0,4.6,0.6,6.7,1.4l6.7-0.8l-5.3,27.5
			c-0.1,0.4-0.1,0.8-0.1,1.4c-0.1,0.4-0.1,1-0.1,1.4c0,0.6,0.1,1.1,0.6,1.5c0.4,0.4,1,0.6,1.5,0.7c-0.1,0.7-0.6,1.3-1.1,1.8
			c-0.6,0.4-1.1,0.7-1.7,1c-0.7,0.3-1.4,0.4-2.1,0.3c-1.1,0-2.1-0.3-2.9-1c-0.8-0.7-1.4-1.7-1.4-2.8c-1.1,1.1-2.5,2.1-4.1,2.7
			C1038.1,285.7,1036.3,286,1034.6,285.8z M1037.5,281.9c1.5,0.1,2.9-0.6,4.1-1.7c1.1-1.3,2-2.7,2.5-4.1c0.6-1.5,1.1-3.2,1.4-4.8
			l2.9-15.7c-0.8-0.7-1.8-1.1-2.8-1.5c-0.8-0.3-1.7-0.6-2.5-0.6c-1.3,0-2.7,0.4-3.6,1.3c-1.1,0.8-2.1,2-2.8,3.2
			c-0.8,1.5-1.5,3.1-2.1,4.8c-0.6,1.8-1,3.8-1.3,5.7c-0.3,2.1-0.4,4.1-0.4,6.2c0,1.8,0.3,3.5,1,5.2
			C1034.5,281.2,1036,282.1,1037.5,281.9z"/>
		<path class="st1" d="M1064.2,285.8c-1.3,0-2.4-0.4-3.4-1.3c-0.8-0.8-1.3-2.1-1.1-3.4c0-0.6,0-1.1,0.1-1.7c0.1-0.7,0.1-1.4,0.3-2.4
			c0.1-1,0.4-2.1,0.7-3.6s0.7-3.2,1-5.2c0.3-2,0.8-4.5,1.4-7.1c0.6-2.7,1.3-5.9,2-9.5c0.4-2.5,0.7-4.9,1.1-7.4c0.3-2,0.4-3.9,0.4-6
			c0-0.4,0-1-0.1-1.4c-0.1-0.4-0.1-0.8-0.1-1.1c0.4-0.3,1-0.6,1.5-0.7c0.6-0.1,1.3-0.3,1.8-0.3c1.1,0,2.2,0.4,3.2,1
			c1.1,0.8,1.5,2.2,1.4,3.6c0,0.7-0.1,1.4-0.3,2.1c-0.1,1-0.4,2.2-0.7,3.6c-0.3,1.4-0.6,2.8-0.8,4.3c-0.3,1.5-0.6,2.8-0.7,4.1
			c-1,5.2-1.8,9.2-2.5,12.4c-0.7,3.2-1.1,5.7-1.5,7.5c-0.4,1.8-0.6,3.2-0.7,4.1c-0.1,0.6-0.3,1.3-0.3,2c0,0.3-0.1,0.6-0.1,1
			c0,0.6,0.1,1.1,0.6,1.5c0.4,0.4,0.8,0.6,1.4,0.7c-0.1,0.7-0.4,1.3-1,1.8c-0.6,0.4-1.1,0.8-1.7,1
			C1065.5,285.8,1064.8,285.8,1064.2,285.8z"/>
		<path class="st1" d="M1088,285.8c-2.2,0-4.5-0.4-6.6-1.4c-1.8-1-3.2-2.4-4.2-4.3c-1-2.2-1.5-4.8-1.4-7.3c0-2.8,0.4-5.6,1.1-8.2
			c0.7-2.7,1.8-5.2,3.4-7.4s3.5-4.1,5.9-5.5c2.7-1.4,5.5-2.1,8.4-2.1c1.5,0,3.1,0.3,4.6,0.7c1.3,0.4,2.4,1.3,3.2,2.4
			c0.8,1.3,1.3,2.8,1.3,4.5c0.1,2.4-0.7,4.6-2.4,6.4c-1.7,1.8-3.6,3.2-6,3.9c-2.7,1-5.5,1.4-8.2,1.4h-2c-0.7,0-1.3-0.1-1.7-0.1
			c-0.1,0.7-0.1,1.4-0.1,2.1c0,0.6-0.1,1.3-0.1,1.8c-0.1,2,0.3,3.9,1.3,5.6c0.8,1.4,2.5,2,4.8,2c1.8,0,3.5-0.4,5-1.4
			s2.7-2.2,3.5-3.9c0.6,0.1,1,0.6,1.3,1c0.3,0.6,0.3,1.1,0.3,1.7c0,1.4-0.6,2.8-1.4,3.9c-1.1,1.3-2.5,2.4-4.1,2.9
			C1092.2,285.6,1090.1,286,1088,285.8z M1084.2,265.7c1.5,0,2.9-0.1,4.5-0.4c1.4-0.3,2.8-0.7,4.1-1.4c1.1-0.6,2.2-1.5,2.9-2.7
			c0.7-1.1,1.1-2.4,1.1-3.8c0.1-1-0.3-2-0.8-2.8c-0.7-0.7-1.7-1-2.5-1c-1.3,0-2.4,0.4-3.4,1.1c-1.1,0.8-2,1.8-2.7,2.9
			c-0.7,1.3-1.4,2.5-1.8,3.9C1084.8,263.1,1084.5,264.3,1084.2,265.7L1084.2,265.7z"/>
		<path class="st1" d="M1115.3,286.1c-1.4,0-2.8-0.1-4.1-0.4s-2.5-0.7-3.6-1.3c-1-0.6-1.8-1.3-2.5-2.1c-0.6-0.8-1-2-1-2.9
			c0-1.1,0.3-2.1,1-2.9c0.7-0.7,1.4-1.1,2.4-1.5c0.8-0.3,1.7-0.4,2.5-0.6c0.4,0,1,0.1,1.4,0.1c0.4,0.1,0.8,0.3,1.3,0.7
			c-0.3,0.6-0.4,1.1-0.6,1.7c-0.1,0.6-0.3,1.3-0.3,1.8c0,1,0.6,2,1.3,2.7c1,0.7,2.2,1.1,3.4,1c1.4,0,2.8-0.4,4.1-1.3
			c1.1-0.8,1.7-2,1.7-3.4c0-1.1-0.3-2.1-1-3.1c-0.7-1-1.4-1.8-2.4-2.5c-1-0.8-2-1.5-3.1-2.2c-1.1-0.7-2.2-1.7-3.5-2.7
			c-1.1-1-2-2.1-2.8-3.2c-0.7-1.3-1.1-2.8-1.1-4.3s0.4-2.9,1.3-4.2s2-2.4,3.2-3.2c1.4-0.8,2.9-1.5,4.6-1.8c1.7-0.4,3.4-0.6,5-0.6
			c1.5,0,3.1,0.1,4.6,0.6c1.4,0.3,2.7,1,3.8,2c1,1,1.5,2.4,1.4,3.9c0.1,1.5-0.6,2.9-1.7,3.9c-1,0.8-2.2,1.4-3.5,1.4
			c-0.6,0-1-0.1-1.5-0.1c-0.6-0.1-1.1-0.3-1.5-0.7c0.3-0.6,0.6-1.1,0.7-1.8c0.1-0.6,0.3-1.3,0.3-1.8c0-1-0.4-2-1.1-2.7
			c-1-0.7-2.1-1-3.2-1c-1.3,0-2.5,0.4-3.6,1.1c-1,0.7-1.5,2-1.4,3.2c0,1,0.3,1.8,0.7,2.7c0.6,0.8,1.1,1.5,1.8,2.2
			c0.7,0.7,1.7,1.4,2.5,2.1c1.4,1,2.8,1.8,4.1,2.8c1.3,1,2.4,2.1,3.4,3.4c1,1.4,1.4,3.1,1.3,4.8c0,2.1-0.7,4.1-2,5.6
			c-1.4,1.5-3.2,2.8-5.2,3.6C1120,285.7,1117.6,286.1,1115.3,286.1z"/>
		<path class="st1" d="M1161.5,285.7c-2.5,0-5.2-0.4-7.5-1.5c-2.1-1-3.9-2.4-5.2-4.2c-1.3-2-2-4.2-1.8-6.4c-0.1-2.7,0.7-5.2,2.4-7.1
			c1.8-2.2,4.3-3.8,7.1-4.8c-0.4-1.3-0.7-2.7-1-3.9c-0.3-1.1-0.4-2.4-0.4-3.6c0-2.1,0.3-4.1,1-6c0.7-1.7,1.7-3.1,2.9-4.3
			c1.4-1.3,3.1-2.1,4.8-2.7c2-0.6,4.1-0.8,6.3-0.8c1.4,0,2.9,0.1,4.3,0.4c1.1,0.3,2.2,0.6,3.2,1.3c0.8,0.6,1.5,1.3,2,2.1
			c0.4,1,0.7,2,0.7,2.9c0.1,1.5-0.4,3.1-1.4,4.2c-0.8,1-2.1,1.5-3.5,1.5c-0.3,0-0.7,0-1-0.1l-1-0.3c0.3-1,0.4-2,0.4-2.9
			c0-0.8-0.1-1.8-0.4-2.7c-0.3-0.7-0.8-1.3-1.5-1.7c-0.8-0.4-1.8-0.7-2.8-0.6c-2-0.1-3.9,0.7-5.2,2.1c-1.3,1.8-1.8,4.1-1.7,6.3
			c0,2.8,0.6,5.5,1.4,8c1,2.8,2.2,5.6,3.9,8c1.7,2.5,3.6,4.9,5.9,7c1-1.3,1.7-2.8,2-4.3c0.4-1.3,0.6-2.7,0.6-3.9
			c0.1-2.4-0.7-4.6-2.4-6.3c0.6-0.3,1.3-0.6,1.8-0.8c0.7-0.1,1.5-0.3,2.4-0.3c1.4-0.1,2.8,0.4,3.8,1.4c0.8,1.3,1.3,2.8,1.1,4.3
			c0,1.5-0.3,2.9-0.7,4.3c-0.6,1.5-1.3,2.9-2.1,4.2c-0.8,1.3-1.8,2.5-2.8,3.6c1,0.6,2.1,1,3.2,1.3c0.8,0.3,1.8,0.4,2.8,0.6
			c0.6,0,1.3,0,1.8-0.1c0.6-0.1,1-0.3,1.4-0.3c0.1,0.3,0.3,0.6,0.3,1c0.3,1.5-0.3,3.1-1.4,4.1c-1.1,0.8-2.5,1.3-3.9,1.1
			c-3.1-0.1-6.2-1.3-8.7-2.9c-1.7,1-3.4,1.7-5.2,2.2C1165.2,285.4,1163.4,285.7,1161.5,285.7z M1163.2,281.4c1.1,0,2.2-0.1,3.2-0.4
			c0.8-0.1,1.7-0.6,2.4-1c-2.4-2.1-4.5-4.3-6.3-6.7c-2-2.5-3.6-5.2-4.9-8.1c-1.1,0.7-2.1,1.7-2.8,2.9c-0.7,1.3-1,2.7-1,4.1
			c0,1.7,0.3,3.4,1.1,4.9c0.8,1.4,2,2.5,3.2,3.4C1159.7,281,1161.5,281.4,1163.2,281.4L1163.2,281.4z"/>
		<path class="st1" d="M1215.8,286c-4.5,0-7.8-1.4-10.2-4.1s-3.6-6.7-3.6-12c0-2.8,0.3-5.5,0.8-8.2c0.6-2.8,1.5-5.5,2.8-8
			s2.7-4.9,4.5-7c1.7-2,3.9-3.6,6.3-4.9c2.5-1.3,5.3-1.8,8-1.8c2,0,3.8,0.4,5.5,1.3c1.4,0.8,2.7,2,3.4,3.4c1.5,3.1,1.5,6.7,0.1,9.8
			c-0.7,1.4-1.7,2.5-2.9,3.4c-1.1,0.8-2.5,1.3-3.9,1.3c-1.3,0-2.5-0.3-3.5-1c-0.8-0.6-1.3-1.5-1.3-2.5c0-0.4,0-0.7,0.1-1.1h0.3
			c1.3,0,2.4-0.4,3.4-1.1c0.7-0.6,1.3-1.4,1.7-2.2c0.3-0.7,0.4-1.3,0.4-2c0-1.1-0.4-2.4-1.3-3.2c-1-0.8-2.2-1.3-3.5-1.3
			c-1.7,0-3.4,0.6-4.8,1.7c-1.5,1.3-2.7,2.8-3.6,4.5c-1,2-1.8,3.9-2.5,6c-0.6,2.2-1.1,4.5-1.4,6.7c-0.3,2.1-0.4,4.1-0.6,6.2
			c0,1.8,0.1,3.6,0.6,5.5c0.3,1.4,1.1,2.8,2.2,3.8c1.3,1,2.8,1.5,4.5,1.4c1.4,0,2.7-0.3,3.9-1c1.1-0.7,2.1-1.4,2.9-2.4
			c0.7-1,1.4-2.1,2-3.2c0.4-1,0.8-2.1,1-3.2c1,0.1,1.8,0.7,2.4,1.7c0.6,1,1,2.1,1,3.2c0,1.3-0.4,2.5-1,3.6c-0.7,1.4-1.7,2.7-2.9,3.6
			c-1.4,1.3-2.9,2.1-4.6,2.8C1220,285.7,1217.9,286,1215.8,286z"/>
		<path class="st1" d="M1259.8,285.8c-2.2,0.3-4.2-1.4-4.5-3.6c0-0.4,0-0.8,0-1.3c0-1.3,0.1-2.5,0.4-3.8c0.3-1.5,0.6-3.2,1-4.9
			s0.8-3.4,1.1-5.2c0.3-1.8,0.8-3.2,1-4.6c0.3-1.1,0.4-2.1,0.4-3.2c0.1-1.3-0.3-2.4-1.1-3.4c-0.8-0.8-1.8-1.1-2.9-1.1
			c-1.7,0-3.2,0.6-4.3,1.8c-1.3,1.3-2.2,2.8-2.9,4.5c-0.7,1.7-1.3,3.5-1.7,5.3l-3.6,18.3l-7.5,0.8l5.9-30.1l6,1
			c1.1-2,2.8-3.6,4.9-4.9c2-1.1,4.2-1.8,6.4-1.7c2.2-0.1,4.5,0.6,6.2,2.1c1.4,1.5,2.2,3.6,2.1,5.7c0,1.4-0.1,2.8-0.4,4.3
			c-0.3,1.7-0.6,3.4-1,5.2c-0.4,1.8-0.8,3.6-1.3,5.3c-0.4,1.7-0.8,3.2-1,4.8c-0.3,1.1-0.4,2.2-0.4,3.4c0,0.6,0.1,1.1,0.4,1.7
			c0.4,0.4,1,0.7,1.5,0.8c-0.3,1-0.8,2-1.8,2.4C1261.9,285.7,1260.8,285.8,1259.8,285.8z M1247.2,257.5l-6.3-1.3
			c0.3-1.8,0.7-3.8,1.1-6c0.4-2.2,0.7-4.2,1-6.4s0.4-3.9,0.4-5.5v-1.4c0-0.4,0-0.7-0.1-1.1c0.4-0.3,1-0.6,1.5-0.7
			c0.6-0.1,1.3-0.3,1.8-0.3c1.1,0,2.2,0.4,3.2,1c1,1,1.5,2.2,1.4,3.6c0,0.8-0.1,1.7-0.3,2.5c-0.1,1.1-0.4,2.4-0.7,3.8
			c-0.3,1.4-0.7,2.8-1,4.2c-0.3,1.4-0.8,2.8-1.1,4.1C1247.9,255.2,1247.5,256.8,1247.2,257.5L1247.2,257.5z"/>
		<path class="st1" d="M1280.9,285.8c-2,0.1-3.9-0.4-5.5-1.7c-1.4-1.1-2.5-2.7-2.9-4.5c-0.7-2.1-1-4.2-1-6.4c0-3.1,0.4-6.2,1.3-9.1
			c0.8-2.8,2.1-5.3,3.8-7.5c1.5-2.1,3.5-3.9,5.7-5.2c2.2-1.3,4.8-1.8,7.3-1.8c2.4,0,4.6,0.6,6.7,1.4l6.7-0.8l-5.3,27.5
			c-0.1,0.4-0.1,0.8-0.1,1.4c-0.1,0.4-0.1,1-0.1,1.4c0,0.6,0.1,1.1,0.6,1.5c0.4,0.4,1,0.6,1.5,0.7c-0.1,0.7-0.6,1.3-1.1,1.8
			c-0.6,0.4-1.1,0.7-1.7,1c-0.7,0.3-1.4,0.4-2.1,0.3c-1.1,0-2.1-0.3-2.9-1c-0.8-0.7-1.4-1.7-1.4-2.8c-1.1,1.1-2.5,2.1-4.1,2.7
			C1284.4,285.7,1282.8,286,1280.9,285.8z M1283.9,281.9c1.5,0.1,2.9-0.6,4.1-1.7c1.1-1.3,2-2.7,2.5-4.1c0.6-1.5,1.1-3.2,1.4-4.8
			l2.9-15.7c-0.8-0.7-1.8-1.1-2.8-1.5c-0.8-0.3-1.7-0.6-2.5-0.6c-1.3,0-2.7,0.4-3.6,1.3c-1.1,0.8-2.1,2-2.8,3.2
			c-0.8,1.5-1.5,3.1-2.1,4.8c-0.6,1.8-1,3.8-1.1,5.7c-0.3,2.1-0.4,4.1-0.4,6.2c0,1.8,0.3,3.5,1,5.2
			C1280.8,281.2,1282.3,282.1,1283.9,281.9L1283.9,281.9z"/>
		<path class="st1" d="M1349.3,285.8c-2.2,0.3-4.2-1.4-4.5-3.6c0-0.4,0-0.8,0-1.3c0-1.3,0.1-2.5,0.4-3.8c0.3-1.5,0.6-3.2,1-4.9
			s0.8-3.5,1.1-5.2c0.3-1.7,0.8-3.4,1-4.8c0.3-1,0.4-2.1,0.4-3.2c0-1.3-0.3-2.4-1.1-3.4c-0.8-0.8-2-1.3-3.2-1.1
			c-1.3,0-2.5,0.3-3.5,1c-1,0.7-1.8,1.7-2.5,2.7c-0.7,1.1-1.3,2.4-1.7,3.8c-0.4,1.3-0.7,2.7-1,4.1l-3.6,18.3l-7.5,0.8l3.4-16.6
			c0.1-0.6,0.3-1.4,0.4-2.1c0.1-0.7,0.4-1.7,0.6-2.5c0.1-0.8,0.3-1.7,0.4-2.5c0.1-0.8,0.1-1.5,0.1-2.1c0.1-1.3-0.3-2.4-1.1-3.4
			c-0.8-0.8-2-1.3-3.2-1.3c-1.3,0-2.4,0.3-3.4,1c-1,0.7-1.8,1.7-2.4,2.7c-0.6,1.1-1.1,2.4-1.5,3.6c-0.4,1.4-0.7,2.8-1,4.1l-3.6,18.3
			l-7.5,0.8l6.7-34.4l6.3-0.8l-0.8,5.9c1-2.1,2.5-3.8,4.5-4.9c2-1,4.1-1.5,6.3-1.5c1.8-0.1,3.8,0.4,5.3,1.4c1.3,1.1,2.1,2.8,2.4,4.5
			c1-2,2.7-3.6,4.6-4.6c2-1,4.1-1.4,6.3-1.4c2.2-0.1,4.6,0.6,6.3,2.1c1.5,1.5,2.2,3.6,2.1,5.7c0,1.4-0.1,2.8-0.4,4.2
			c-0.3,1.7-0.6,3.4-1,5.2c-0.4,1.8-0.8,3.6-1.1,5.3s-0.8,3.2-1,4.8c-0.3,1.1-0.4,2.2-0.4,3.4c0,0.6,0.1,1.1,0.4,1.7
			c0.4,0.6,1,0.8,1.5,0.8c-0.1,1-0.8,2-1.8,2.4C1351.3,285.6,1350.3,285.8,1349.3,285.8z"/>
		<path class="st1" d="M1364.3,297.7c-1.1,0-2.2-0.4-3.2-1c-1-1-1.5-2.4-1.4-3.8c0-0.3,0.1-1,0.1-1.8c0.1-1,0.3-2,0.6-2.9
			c0.1-1.1,0.4-2.2,0.7-3.5c0.3-1.3,0.6-2.2,0.7-3.4l7.3,0.1c-0.4,2.1-0.8,4.3-1,6.7c-0.3,2-0.4,4.1-0.4,6c0,0.4,0,0.8,0.1,1.3
			c0,0.4,0,0.8,0.1,1.3c-0.4,0.3-1,0.6-1.5,0.7C1365.5,297.6,1364.8,297.7,1364.3,297.7z M1373.8,285.8c-1,0-2-0.1-2.9-0.4
			c-0.8-0.3-1.8-0.6-3.2-1l-6.4-0.6l6.3-33l6.3-0.8l-0.8,5.9c1.1-1.8,2.7-3.5,4.5-4.8c1.8-1.3,3.9-1.8,6.2-1.8
			c1.8-0.1,3.6,0.4,5.2,1.7c1.4,1.1,2.4,2.7,2.9,4.5c0.7,2.1,1,4.2,1,6.4c0,2.9-0.4,5.7-1.1,8.5c-0.7,2.7-1.8,5.3-3.4,7.5
			s-3.5,4.2-5.9,5.5C1379.6,285.3,1376.7,286,1373.8,285.8L1373.8,285.8z M1374.9,281.9c1.3,0,2.5-0.4,3.6-1.3
			c1.1-0.8,2.1-2,2.8-3.2c0.8-1.5,1.5-3.1,2-4.8c0.6-1.8,1-3.8,1.3-5.7c0.3-2.1,0.4-4.1,0.4-6.2c0-1.5-0.3-3.1-1-4.5
			c-0.7-1.1-2-1.8-3.2-1.7c-1.4,0-2.9,0.4-4.1,1.4s-2.1,2.2-2.8,3.6c-0.7,1.4-1.3,2.9-1.5,4.5l-2.8,15.7c0.7,0.7,1.7,1.3,2.5,1.5
			C1372.9,281.8,1373.9,281.9,1374.9,281.9L1374.9,281.9z"/>
		<path class="st1" d="M1406.1,285.8c-1.8,0.1-3.5-0.3-5.2-1.3c-1.3-0.8-2.2-2-2.8-3.4c-0.6-1.5-0.8-3.2-0.8-4.9s0.3-3.4,0.6-5
			c0.3-2.1,0.8-4.8,1.5-8c0.7-3.2,1.5-7.4,2.7-12.4l7.1-0.8c-1,4.5-1.7,8.2-2.4,11c-0.7,2.8-1.1,5.3-1.4,7.1
			c-0.3,1.8-0.6,3.4-0.7,4.5c-0.1,1-0.1,2.1-0.1,3.2c0,1,0.1,1.8,0.4,2.8c0.3,0.8,0.7,1.7,1.4,2.2c0.7,0.6,1.7,1,2.7,0.8
			c1.5,0,2.9-0.6,3.9-1.7c1.1-1.1,2-2.5,2.5-4.1c0.6-1.5,1.1-3.2,1.4-4.9l3.9-20.4l7.4-0.8l-5.3,27.5c-0.1,0.4-0.1,0.8-0.1,1.4
			c-0.1,0.4-0.1,1-0.1,1.4c0,0.6,0.1,1.1,0.6,1.5c0.4,0.4,0.8,0.6,1.4,0.7c-0.1,0.7-0.4,1.3-1,1.8c-0.6,0.4-1.1,0.7-1.7,1
			c-0.7,0.3-1.4,0.4-2.1,0.4c-1.1,0-2.1-0.3-2.9-1c-0.8-0.7-1.4-1.7-1.5-2.8c-1,1.4-2.2,2.4-3.9,2.8
			C1409.7,285.6,1407.9,285.8,1406.1,285.8z"/>
		<path class="st1" d="M1431.8,285.4l6.6-34.4l6.3-0.8l-0.8,5.9c0.8-1.8,2.1-3.5,3.8-4.6c1.7-1.1,3.6-1.8,5.6-1.8
			c1.8-0.1,3.5,0.6,4.8,1.8c1,1.4,1.5,3.1,1.4,4.8c0,2-0.6,4.1-1.8,5.6c-1.1,1.5-2.8,2.4-4.8,2.4c-0.6,0-1.1-0.1-1.7-0.3
			c-0.6-0.1-1-0.6-1.3-1c0.7-0.8,1.1-1.8,1.4-2.8s0.6-2,0.6-2.9c0-0.7-0.1-1.4-0.6-2s-1.1-0.8-1.8-0.7c-1,0-2.1,0.4-2.8,1.1
			c-0.8,0.8-1.5,2-2,3.1c-0.6,1.3-1,2.5-1.3,3.8c-0.3,1.4-0.6,2.5-0.8,3.6l-3.2,18.3L1431.8,285.4z"/>
		<path class="st1" d="M1459.1,285.4l6.6-34.4l6.3-0.8l-0.7,5.9c0.8-1.8,2.1-3.5,3.8-4.6c1.7-1.1,3.6-1.8,5.6-1.8
			c1.8-0.1,3.5,0.6,4.8,1.8c1,1.4,1.5,3.1,1.4,4.8c0,2-0.6,3.9-1.8,5.6c-1.1,1.5-2.8,2.4-4.8,2.4c-0.6,0-1.1-0.1-1.7-0.3
			c-0.6-0.1-1-0.6-1.3-1c0.7-0.8,1.1-1.8,1.4-2.8s0.4-2,0.6-2.9c0-0.7-0.1-1.4-0.6-2c-0.4-0.6-1.1-0.8-1.8-0.7c-1,0-2.1,0.4-2.8,1.1
			c-0.8,0.8-1.5,1.8-2,2.9c-0.6,1.3-1,2.5-1.3,3.8c-0.4,1.4-0.6,2.5-0.8,3.6l-3.2,18.3L1459.1,285.4z"/>
		<path class="st1" d="M1496,285.8c-2,0.1-3.9-0.4-5.5-1.7c-1.4-1.1-2.5-2.7-2.9-4.5c-0.7-2.1-1-4.2-1-6.4c0-3.1,0.4-6.2,1.3-9.1
			c0.8-2.8,2.1-5.3,3.8-7.5c1.5-2.1,3.5-3.9,5.7-5.2c2.2-1.3,4.8-1.8,7.3-1.8c2.4,0,4.6,0.6,6.7,1.4l6.7-0.8l-5.2,27.5
			c-0.1,0.4-0.1,0.8-0.1,1.4c-0.1,0.4-0.1,1-0.1,1.4c0,0.6,0.1,1.1,0.6,1.5c0.4,0.4,1,0.6,1.5,0.7c-0.1,0.7-0.6,1.3-1.1,1.8
			c-0.6,0.4-1.1,0.7-1.7,1c-0.7,0.3-1.4,0.4-2.1,0.3c-1.1,0-2.1-0.3-2.9-1c-0.8-0.7-1.4-1.7-1.4-2.8c-1.1,1.1-2.5,2.1-4.1,2.7
			C1499.5,285.6,1497.8,286,1496,285.8z M1498.9,281.9c1.5,0.1,2.9-0.6,4.1-1.7c1.1-1.3,2-2.7,2.5-4.1c0.6-1.5,1.1-3.2,1.4-4.8
			l2.9-15.7c-0.8-0.7-1.8-1.1-2.8-1.5c-0.8-0.3-1.7-0.6-2.5-0.6c-1.3,0-2.7,0.4-3.6,1.3c-1.1,0.8-2.1,2-2.8,3.2
			c-0.8,1.5-1.5,3.1-2.1,4.8c-0.6,1.8-1,3.8-1.3,5.7c-0.3,2.1-0.4,4.1-0.4,6.2c0,1.8,0.3,3.5,1,5.2
			C1495.8,281.2,1497.4,282.1,1498.9,281.9L1498.9,281.9z"/>
		<path class="st1" d="M1530.6,285.8c-2,0.1-3.9-0.4-5.5-1.7c-1.4-1.1-2.5-2.7-2.9-4.5c-0.7-2.1-1-4.2-1-6.4c0-3.1,0.4-6.2,1.4-9.1
			c0.8-2.7,2.1-5.3,3.8-7.5c1.5-2.1,3.5-3.9,5.7-5.2c2.2-1.3,4.8-1.8,7.3-1.8c1.3,0,2.4,0.1,3.6,0.3c1.1,0.3,2.4,0.7,3.4,1.1l6.2,1
			c-0.8,4.2-1.7,8.4-2.4,12.7c-0.7,4.3-1.7,8.5-2.5,12.9c-0.1,0.4-0.1,0.8-0.1,1.4c-0.1,0.4-0.1,1-0.1,1.4c0,0.6,0.1,1.1,0.6,1.5
			c0.4,0.4,1,0.6,1.5,0.7c-0.1,0.7-0.6,1.3-1.1,1.8c-0.6,0.4-1.1,0.7-1.7,1c-0.7,0.3-1.4,0.4-2.1,0.3c-1.1,0-2.1-0.3-2.9-1
			c-0.8-0.7-1.4-1.7-1.4-2.8c-1.1,1.1-2.5,2.1-4.1,2.7C1534.3,285.6,1532.5,286,1530.6,285.8z M1533.6,281.9
			c1.5,0.1,2.9-0.6,4.1-1.7c1.1-1.3,2-2.7,2.5-4.1c0.6-1.5,1.1-3.2,1.4-4.8l2.9-15.7c-0.8-0.7-1.8-1.1-2.8-1.5
			c-0.8-0.3-1.7-0.6-2.5-0.6c-1.3,0-2.7,0.4-3.6,1.3c-1.1,0.8-2.1,2-2.8,3.2c-0.8,1.5-1.5,3.1-2.1,4.8c-0.6,1.8-1,3.8-1.1,5.7
			c-0.3,2.1-0.4,4.1-0.4,6.2c0,1.8,0.3,3.5,1,5.2C1530.5,281.2,1532,282.2,1533.6,281.9z M1552.3,252.7l-7.3-0.6
			c0.4-2.4,0.8-4.9,1.1-7.3c0.3-2.4,0.6-4.5,0.6-6.3v-1.4c0-0.4-0.1-0.8-0.1-1.3c0.4-0.3,1-0.6,1.5-0.7c0.7-0.1,1.3-0.3,2-0.3
			c1.1,0,2.2,0.4,3.2,1c1,1,1.5,2.2,1.4,3.6c0,1-0.1,1.8-0.3,2.8c-0.3,1.4-0.6,2.9-0.8,4.9C1553.3,249.2,1552.7,251,1552.3,252.7z"
			/>
		<path class="st1" d="M1568.5,285.8c-2,0-3.8-0.3-5.6-1c-1.4-0.6-2.5-1.5-3.4-2.8c-0.8-1.1-1.4-2.5-1.7-3.9
			c-0.3-1.3-0.6-2.7-0.6-4.1c0-2.9,0.4-5.9,1.1-8.8c0.7-2.8,1.8-5.5,3.4-7.8c1.4-2.4,3.5-4.2,5.9-5.6c2.5-1.5,5.5-2.2,8.5-2.1
			c2,0,3.8,0.3,5.6,1c1.4,0.6,2.5,1.5,3.4,2.8c0.8,1.1,1.4,2.5,1.7,3.9c0.3,1.3,0.4,2.7,0.4,4.1c0,2.9-0.4,6-1.1,8.9
			c-0.7,2.8-1.8,5.5-3.4,8c-1.4,2.4-3.5,4.2-5.9,5.6C1574.3,285.3,1571.3,286,1568.5,285.8z M1569.6,281.9c1.3,0,2.5-0.4,3.6-1.3
			c1.1-1,2.1-2.2,2.8-3.6c0.8-1.5,1.5-3.4,2-5c0.6-1.8,0.8-3.8,1.1-5.7c0.3-2,0.4-3.8,0.4-5.7c0.1-1.7-0.3-3.4-1-5
			c-0.8-1.3-2.4-2.1-3.9-1.8c-1.3,0-2.5,0.4-3.6,1.3c-1.3,1-2.1,2.2-2.8,3.6c-0.8,1.5-1.5,3.4-2,5c-0.6,2-1,3.9-1.1,5.9
			c-0.3,2-0.3,3.8-0.3,5.7c-0.1,1.7,0.3,3.4,1.1,4.9C1566.7,281.4,1568.2,282.1,1569.6,281.9z"/>
	</g>
</g>
</svg>
