<?xml version="1.0" encoding="utf-8"?>
<!-- Generator: Adobe Illustrator 24.0.0, SVG Export Plug-In . SVG Version: 6.00 Build 0)  -->
<svg version="1.1" id="Capa_1" xmlns="http://www.w3.org/2000/svg" xmlns:xlink="http://www.w3.org/1999/xlink" x="0px" y="0px"
	 viewBox="0 0 956.9 792.7" style="enable-background:new 0 0 956.9 792.7;" xml:space="preserve">
<style type="text/css">
	.st0{fill:#FFFFFF;}
	.st1{fill:#663333;}
	.st2{fill:#F8DA32;}
	.st3{fill:#FBB03B;}
	.st4{fill:#39B54A;}
	.st5{fill:#FF0000;}
</style>
<title>Recurso 3</title>
<g id="Capa_2_1_">
	<g id="Capa_1-2">
		<g id="PLATO">
			<path id="PLATO-2" class="st0" d="M951,354.2c0-106.8-211.6-193.4-472.6-193.4S5.8,247.4,5.8,354.2c0,37.6,26.3,72.8,71.9,102.6
				c51.2,71.4,212.5,123.5,403.7,123.5c197.6,0,363.4-55.7,408.5-130.9C928.8,421.3,951,388.8,951,354.2z"/>
			<path id="PLATO-3" class="st1" d="M956.9,354.2c0-54.2-50.5-104.7-142.1-142.2c-90-36.8-209.4-57-336.4-57S232,175.3,142.1,212
				C50.5,249.6,0,300,0,354.2c0,38.7,25.7,75.4,73.6,106.9c20.4,27.9,57.1,53.3,108.1,74.2c80.1,32.8,186.6,50.8,299.7,50.8
				s219.5-18,299.7-50.8c55.5-22.7,94-50.8,113.1-81.7C935.1,423.8,956.9,389.8,956.9,354.2z M776.6,524.5
				c-78.8,32.2-183.5,50-295.2,50s-216.5-17.8-295.2-50c-30.7-12.6-56.1-26.8-75.6-42.3c9.8,4.9,20.3,9.6,31.4,14.1
				c90,36.8,209.4,57,336.4,57s246.4-20.2,336.4-57c15.9-6.4,31.5-13.8,46.5-22.1C841,492.9,812.5,509.8,776.6,524.5z M909.9,425.3
				c-23.3,22.5-56.7,42.8-99.4,60.3c-88.6,36.2-206.5,56.2-331.9,56.2s-243.4-20-331.9-56.2c-42.8-17.6-76.2-37.7-99.4-60.3
				c-23.5-22.7-35.4-46.6-35.4-71s11.9-48.4,35.4-71c23.2-22.5,56.7-42.8,99.4-60.3c88.6-36.2,206.4-56.2,331.9-56.2
				s243.4,20,331.9,56.2c42.8,17.5,76.2,37.7,99.4,60.3c23.5,22.7,35.4,46.6,35.4,71S933.3,402.6,909.9,425.3L909.9,425.3z"/>
			<path id="_123" class="st1" d="M484.3,502.6c-75.8,0-149.4-7.5-213-21.5c-2.8-0.6-4.6-3.5-4-6.3s3.5-4.6,6.3-4
				c62.7,13.9,135.6,21.3,210.6,21.3c126.3,0,245-21,317.5-56.3c2.6-1.3,5.8-0.2,7,2.5c1.3,2.6,0.2,5.8-2.5,7
				C732.5,481.1,612.1,502.6,484.3,502.6z"/>
			<path class="st1" d="M859.5,406.2c-1.2,0-2.4-0.5-3.4-1.3c-2.2-1.9-2.5-5.1-0.6-7.3c0,0,0,0,0,0c9.5-11.1,14.3-22.7,14.3-34.1
				c0-13.1-6.2-26.2-18.6-38.7c-2-2.1-2-5.4,0.1-7.5c2-2,5.3-2,7.4,0c0,0,0.1,0.1,0.1,0.1c14.3,14.6,21.5,30.1,21.5,46
				c0,14-5.6,27.8-16.8,40.9C862.6,405.5,861.1,406.2,859.5,406.2z"/>
			<path id="_132" class="st1" d="M150.4,438.4c-0.9,0-1.8-0.3-2.6-0.7c-39-21.9-59.6-47.5-59.6-74.1c-0.1-2.9,2.1-5.4,5-5.5
				c2.9-0.1,5.4,2.1,5.5,5c0,0.2,0,0.3,0,0.5c0,22.5,18.7,45.1,54.2,65c2.5,1.4,3.4,4.6,2,7.1c0,0,0,0,0,0.1
				C154,437.3,152.3,438.4,150.4,438.4z"/>
		</g>
		<path class="st2" d="M819.6,267c-11.8-17.5-26.9-26.9-42.4-33.1c-23.2-9.2-61.5-9.3-83.6-13.9c-1.5-0.3-3.2-0.7-5-1.2
			c32.8-16.9,56.6-34,59.5-66.5c3.5-39.5-8-61.6-19.7-78.9c-11.8-17.5-26.9-26.9-42.4-33.1c-23.2-9.2-61.5-9.3-83.6-13.9
			S526,0.9,502.8,2S368.2,51.9,335.7,65.9s-124.2,49.9-124.2,49.9s-0.9,14.5-0.6,33.5c-3,1.3-5.8,2.4-8.1,3.5
			c-32.5,13.9-124.2,49.9-124.2,49.9s-5.1,82.5,13.9,111.4c33.7,51.1,206.6,117.2,206.6,117.2s7-3.4,18.5-9
			c35.9,50.8,205.5,115.8,205.5,115.8S702.4,450.5,750,427.3s85.6-39.5,89.3-81.3C842.8,306.5,831.3,284.3,819.6,267z"/>
		<path class="st3" d="M147.9,236.6c-18.9-0.7-31.8,15.6-24.5,31.5c7.5,16.2,36.2,16.4,36.2,16.4s-2.3,28,8.2,42.1
			c22.2,24.5,56.6,23,80.6,28c22.2,18.7,42.1,28,42.1,26.9c0-25.2-2.3-57.3-10.5-72.4S233.2,265.8,147.9,236.6z"/>
		<path class="st3" d="M281.6,149.2c-18.9-0.7-31.8,15.6-24.5,31.5c7.5,16.2,36.2,16.4,36.2,16.4s-2.3,28,8.2,42.1
			c22.2,24.5,56.5,23,80.6,28c22.2,18.7,42.1,28,42.1,26.9c0-25.2-2.3-57.3-10.5-72.4S366.9,178.4,281.6,149.2z"/>
		<path class="st3" d="M373.4,344.1c-18.9-0.7-31.8,15.6-24.5,31.5c7.5,16.2,36.2,16.4,36.2,16.4s-2.3,28,8.2,42.1
			c22.2,24.5,56.5,23,80.6,28c22.2,18.7,42.1,28,42.1,26.9c0-25.2-2.3-57.3-10.5-72.4S458.7,373.3,373.4,344.1z"/>
		<path class="st1" d="M593.6,378.2c2.7-1,4.2-4,3.2-6.8s-4-4.2-6.8-3.2c-6.9,2.6-14,4.9-20.8,7.2c-18.6,6.3-36,12.4-48.4,19.4
			c-2.5,1.4-3.4,4.6-2,7.1c0,0,0,0,0,0c0.9,1.7,2.7,2.7,4.6,2.7c0.9,0,1.8-0.2,2.6-0.7c11.5-6.5,28.5-12.4,46.6-18.6
			C579.5,383.2,586.6,380.8,593.6,378.2z"/>
		<path class="st1" d="M838.9,302.7c-0.1-0.6-0.2-1.2-0.5-1.8c0-0.2-0.1-0.4-0.1-0.6l0.3,0.1l-0.6-1.3c-4-13.2-9.9-23.4-15.9-32.2
			c-1.7-2.5-3.5-4.8-5.4-7.1c-2.7-3.7-5.7-7.2-9-10.4c-6.7-6.3-15.2-10.9-24.9-14.4c-1.2-0.5-2.2-0.9-3.4-1.4
			c-23.4-9.2-61.9-9.4-84.1-14c-1.2-0.2-2.6-0.6-4-0.9l-1-0.4c33.1-17.1,57-34.2,59.8-66.9c1.5-17.6,0.1-31.9-2.9-43.7
			c-0.1-0.6-0.3-1.2-0.5-1.8c0-0.2-0.1-0.3-0.1-0.6l0.3,0.1l-0.6-1.3c-4-13.2-9.9-23.4-15.9-32.3c-1.7-2.5-3.5-4.8-5.4-7.1
			c-2.7-3.7-5.7-7.2-9-10.4c-6.7-6.3-15.2-10.9-24.9-14.4c-1.2-0.5-2.2-0.9-3.4-1.4c-23.4-9.2-61.9-9.3-84.1-14
			c-1.3-0.2-2.6-0.6-4.1-0.9c-5.8-1.6-13.4-4.2-21.4-7c-3.3-1.2-6.7-2.4-10.2-3.6c-1.1-1-2.6-1.5-4.1-1.4
			c-18.1-6.1-38-11.7-53.9-11.7h-2.1c-1,0-2-0.1-2.9-0.1h-2C479.8,1.2,367.7,50.2,335,64.3s-125,50.2-125,50.2s-0.9,14.6-0.6,33.8
			c-3,1.3-5.9,2.5-8.2,3.5c-32.7,14-125,50.2-125,50.2s-5.2,83.1,14,112.2c33.9,51.4,208,118,208,118s7-3.4,18.6-9.1
			c36.1,51.2,206.9,116.6,206.9,116.6l0,0c0,0,180.5-88.2,228.4-111.6s86.2-39.7,90-81.8C843.4,328.8,842,314.5,838.9,302.7z
			 M676.1,225.5c4.5,1.4,8.8,2.6,12.4,3.4c0.9,0.2,1.8,0.5,2.6,0.7c13.8,3.4,34.7,4.8,55.3,7.8c-27.7,5.6-50.3,14.6-70.7,22.8
			c-15.4,6.2-29.9,11.9-44.2,15.2c-2.8,0.7-4.6,3.5-4,6.3c0.5,2.4,2.7,4.1,5.1,4.1c0.4,0,0.8,0,1.2-0.1c15.1-3.4,30-9.4,45.8-15.7
			c25.2-10.2,53.9-21.6,91.6-25.8c0.9-0.1,1.7-0.4,2.5-0.9c1.9,0.6,3.7,1.2,5.5,1.9c12,5.3,21.5,12.1,29.2,21.3
			c2.7,3.8,5.1,7.7,7.3,11.8c0,0-10.2-4.5-28.5-4.5c-7.7,0-15.4,0.8-22.9,2.2c-43.2,8.1-98.1,24.5-150.7,44.4s-95.8,35.1-107.5,37.4
			c-8.4-2-31.8-11.3-54.8-22.2C499.1,312,621.9,252,660.1,233.3C665.6,230.6,671,228.1,676.1,225.5z M442.9,88.5
			c-1.3-2.6-4.4-3.7-7-2.4c-21.7,10.3-87,30-107.6,34.7c-1.3,0.3-2.4,1-3.1,2.1c-4.9-2.9-9.4-5.6-12.6-8.1
			c-0.5-3.7,40.5-26,86.5-51.5c43-23.8,84.2-51,109-52.5c2.6,0.2,5.2,0.5,7.8,0.9c-36.7,14-88.2,49.3-95.3,54.2
			c-2.4,1.7-3,4.9-1.3,7.3c0,0,0,0,0,0.1c1,1.4,2.6,2.2,4.3,2.2c1.1,0,2.1-0.4,3-0.9c39.4-27.2,89.4-56,111-58
			c4.8,1.3,9.7,2.7,14.5,4.1c-24.4,19.6-49.3,31.3-66.4,39.3c-5,2.3-9.4,4.3-12.6,6.2c-2.5,1.4-3.5,4.5-2.1,7.1c0,0,0,0,0,0
			c0.9,1.7,2.7,2.8,4.7,2.8c0.8,0,1.7-0.2,2.5-0.6c3-1.6,7.3-3.6,12.2-5.8c17.6-8.3,46.6-21.8,73.8-45.2c1.8,0.6,3.6,1,5.4,1.6
			c10.6,3.3,20,6.1,27.5,7.9c0.9,0.2,1.8,0.5,2.6,0.7c14,3.5,35.5,4.8,56.3,8.1c-26.3,6.2-46.1,16.8-64.1,26.5
			c-14.7,7.9-28.7,15.4-43.6,18.8c-2.8,0.7-4.6,3.5-4,6.3c0.5,2.4,2.7,4.1,5.1,4.1c0.4,0,0.8,0,1.2-0.1
			c16.3-3.7,30.8-11.4,46.3-19.7c22-11.8,47-25.1,82.8-29.2c0.9-0.1,1.8-0.4,2.5-0.9c1.9,0.6,3.7,1.2,5.5,1.9
			c12,5.3,21.5,12.1,29.2,21.3c2.7,3.8,5.1,7.7,7.2,11.8c0,0-10.2-4.5-28.5-4.5c-7.7,0-15.4,0.8-22.9,2.2
			c-43.2,8.2-98.1,24.5-150.7,44.4s-95.8,35-107.5,37.4c-11.2-2.6-49.1-18.5-77.1-33.3c25.9-6.6,82.5-24,103.3-33.9
			C443.1,94.4,444.1,91.2,442.9,88.5L442.9,88.5z M338.9,74.1c2.6-1.2,5.7-2.4,9.2-4c16.6-7.1,42.3-18.2,68.5-29
			c-7.5,4.3-15,8.6-22.6,12.9c-4,2.2-7.8,4.3-11.7,6.4c-20.3,11.3-39.5,22-53.2,30c-7.5,4.4-13,7.8-16.8,10.4
			c-4.8,3.3-11.5,7.8-10.2,15.7l0.7,4.2l3.4,2.6c23.4,17.2,89.4,45.9,105.5,49.6l2.2,0.5l2.2-0.5c17.6-3.5,88-29.9,109.1-37.9
			c52.9-20,107.3-36,149-43.9c6.9-1.4,13.9-2.1,21-2.1c10.7,0,18.3,1.8,21.8,3c1.2,0.5,2.3,0.8,3.4,1.3l4.1,2c3.6,2,6.7,4.9,9,8.4
			c-35.5,3.4-94,19.3-170.3,46.1l-1,0.4c-2.7,0.9-4.1,3.9-3.2,6.6c0,0,0,0.1,0,0.1c0.8,2,2.7,3.4,4.9,3.4c0.6,0,1.2-0.1,1.8-0.4
			l1-0.4c76.8-27.1,137-43.2,170.9-45.9c0.7,3,1.2,6.3,1.6,9.7l-0.7,0.3c-24.8,18.3-136,53.3-183.4,68.3c-12.5,4-21.5,6.8-25.5,8.2
			c-2.7,0.9-4.1,3.9-3.2,6.6c0,0,0,0.1,0,0.1c0.8,2.1,2.7,3.4,4.9,3.5c0.6,0,1.2-0.1,1.8-0.4c3.9-1.3,12.7-4.2,25.1-8.1
			c49.3-15.5,149.1-46.9,181.8-66.6c0.1,4.9-0.1,9.8-0.6,14.7c-0.7,0.3-1.3,0.7-1.8,1.3c-20.6,24.3-66.7,42.2-91.5,51.9
			c-5.1,2-9.6,3.7-12.9,5.1c-2.6,1.2-3.9,4.2-2.8,6.9c0.8,1.9,2.7,3.2,4.8,3.1c0.7,0,1.4-0.1,2.1-0.5c3.2-1.4,7.5-3,12.6-5
			c23.3-9,59.7-23.1,83.9-43.2c-3.6,6.9-9,13.2-16.6,19.3c-13.7,11.1-32.6,20.3-54.6,31c-2.5,1.2-5,2.5-7.5,3.6
			c-42.5,20.8-191.6,93.6-222.7,108.8l0.2-4.2c0.1-2.3,0.4-5,0.5-7.7c0.6-8.8,0.9-17.2,1.1-25.4c0-0.5,0.1-0.9,0.1-1.3v-6.4
			c-0.1-29.9-3.4-54.1-9.3-66.4l-1.1-2.4c-1.6-4.3-5.4-10.2-14.8-18.1c-5.3-4.6-11-8.8-16.9-12.5c-3.6-2.4-7.3-4.7-10.6-6.7
			c-21.4-12.6-48.6-24.9-81.1-36.8c-26.8-10.4-49-17.7-74.1-25.5C253.4,108.8,313.8,84.8,338.9,74.1L338.9,74.1z M345,295.6
			c-76.8-37.1-103.5-61-112.5-74.5c-11.9-18-13.4-64.8-12.9-92.5c10.2,3,25.6,7.8,43.5,14c-5.6,2.7-10.4,6.9-13.8,12.1
			c-5.8,9.1-6.6,20.6-2,30.4c6.8,14.7,23.7,19.9,35,21.6c0.2,10.9,2.1,27.6,10.5,38.8l0.2,0.4l0.4,0.4c19.9,22,47.5,25.7,69.9,28.7
			c4.9,0.7,9.7,1.3,13.9,2.1c8.6,7.1,17.7,13.6,27.3,19.3c13.2,7.8,17,8.3,18.9,8.3c-0.1,4.7-0.2,9.2-0.5,13.4
			c0,0.9-0.1,1.9-0.2,2.8l-0.6,9C406.1,323.2,376.3,310.8,345,295.6z M257,180.7c-7.1-15.6,5.1-31.5,23.4-31.5h1.2
			c3.3,1.1,6.4,2.2,9.5,3.3c4.1,1.5,8.2,3,12.3,4.7c0.9,0.4,1.8,0.7,2.7,1.1c9.8,3.9,20.2,8.3,31.7,13.2c3.3,1.4,6.5,2.9,9.8,4.4
			c0.1,0.1,0.2,0.1,0.5,0.2c18.6,8.8,37.1,19.3,50,29.1c8.2,6.4,13.2,12,15.6,16.6c4.6,8.5,7.4,22.2,8.9,37.2
			c1,11.3,1.4,23.6,1.3,35.4c-2.6-0.4-21.1-9.6-41.7-27c-24.1-5-58.4-3.5-80.6-28c-10.5-14-8.2-42.1-8.2-42.1S264.5,197,257,180.7z
			 M214.7,202.8c-8.3,2.3-15.3,4.2-20.1,5.3c-1.3,0.3-2.4,1-3.2,2.1c-4.9-2.9-9.4-5.6-12.6-8.1c-0.4-2,12.6-10,32.3-21.3
			C211.9,188.2,213.1,195.6,214.7,202.8L214.7,202.8z M217.4,213c1.5,4.9,3.6,9.5,6.3,13.8l0.1,0.1c-7-3.4-14-6.8-20.4-10.2
			C207.5,215.8,212.2,214.5,217.4,213z M123.4,268.1c-7.1-15.6,5.1-31.5,23.4-31.5h1.2c3.3,1,6.4,2.2,9.5,3.3
			c4.1,1.5,8.2,3,12.3,4.7c0.9,0.4,1.8,0.7,2.7,1.1c9.8,3.9,20.2,8.3,31.7,13.2c3.3,1.4,6.5,2.9,9.8,4.4c0.1,0.1,0.2,0.1,0.5,0.2
			c18.6,8.8,37.2,19.3,50,29.1c8.2,6.4,13.2,12,15.6,16.6c4.6,8.5,7.4,22.2,8.9,37c1,11.8,1.5,23.6,1.3,35.4
			c-2.6-0.4-21.1-9.6-41.7-27c-24.1-5-58.4-3.5-80.6-28c-10.5-14-8.2-42.1-8.2-42.1S130.7,284.4,123.4,268.1L123.4,268.1z
			 M98.8,308.6c-11.9-18-13.4-64.8-12.8-92.6c10.2,3,25.6,7.8,43.5,14c-5.6,2.7-10.4,6.9-13.8,12.1c-5.8,9.1-6.6,20.6-2,30.4
			c6.8,14.7,23.7,19.9,35,21.6c0.2,10.9,2.1,27.6,10.5,38.8l0.2,0.4l0.4,0.4c19.9,22,47.6,25.7,69.9,28.7c4.9,0.7,9.7,1.3,13.9,2.1
			c8.6,7.1,17.7,13.6,27.3,19.3c13.2,7.8,17.1,8.3,18.9,8.3c-0.1,4.7-0.2,9.2-0.5,13.4c0,0.9-0.1,1.9-0.2,2.8l-0.6,9
			c-16.4-6.7-46-19-77.5-34.2C134.6,346,107.7,322.1,98.8,308.6z M299.3,415.8c0.1-2.3,0.4-4.9,0.5-7.7c0.6-8.8,0.9-17.2,1-25.4
			c0-0.5,0.1-0.9,0.1-1.3V375c-0.1-29.9-3.4-54.1-9.3-66.4l-1-2.5c-1.6-4.3-5.4-10.2-14.8-18.1c-5.3-4.6-11-8.8-16.9-12.5
			c-3.6-2.5-7.3-4.7-10.6-6.7c-21.4-12.6-48.6-24.9-81.1-36.8c-26.8-10.4-48.9-17.6-74.1-25.5c26.8-10.5,87.2-34.5,112.2-45.2
			c1.3-0.6,2.8-1.2,4.3-1.9c0.1,3.1,0.4,6.4,0.6,9.7c-5.4,3-10.4,5.8-14.7,8.4c-7.5,4.4-13,7.8-16.8,10.4
			c-4.8,3.3-11.4,7.8-10.2,15.7l0.7,4.2l3.4,2.6c14.4,10.6,45.1,25.7,70.3,36.5c21.3,17.8,53.5,36.1,85.3,52
			c-15.8,6.2-26.6,10.5-26.6,10.5s-4.4,70.6,9.9,104.5c-5.1,2.5-9.4,4.6-12.4,6.1L299.3,415.8z M348.9,375.6
			c-7.1-15.6,5.1-31.5,23.4-31.5h1.2c3.3,1,6.4,2.2,9.5,3.3c4.1,1.5,8.2,3,12.3,4.7c0.9,0.4,1.8,0.7,2.7,1
			c9.8,3.9,20.2,8.3,31.7,13.2c3.3,1.4,6.5,2.9,9.8,4.4c0.1,0.1,0.2,0.1,0.5,0.2c18.6,8.8,37.2,19.3,50,29.1
			c8.2,6.4,13.2,12,15.6,16.6c4.6,8.5,7.4,22.2,8.9,37.1c1,11.8,1.5,23.6,1.3,35.4c-2.6-0.4-21.1-9.6-41.7-27
			c-24.1-5-58.4-3.5-80.6-28c-10.5-14-8.2-42.1-8.2-42.1S356.2,391.9,348.9,375.6z M324.3,416c-11.9-18-13.4-64.9-12.9-92.5
			c10.2,3,25.6,7.8,43.5,14c-5.6,2.7-10.4,6.9-13.8,12.1c-5.8,9.1-6.6,20.6-2,30.4c6.8,14.7,23.7,19.9,35,21.6
			c0.2,10.9,2.1,27.6,10.5,38.8l0.2,0.4l0.4,0.4c19.9,22,47.5,25.7,69.9,28.7c4.9,0.7,9.7,1.3,13.9,2.1c8.6,7.1,17.7,13.6,27.3,19.3
			c13.2,7.8,17.1,8.3,18.9,8.3c-0.1,4.7-0.2,9.2-0.5,13.4c0,0.9-0.1,1.9-0.2,2.8l-0.6,9c-16.4-6.7-46-19-77.5-34.2
			C360.1,453.4,333.2,429.6,324.3,416z M809.3,384.1c-13.7,11.1-32.6,20.3-54.6,31c-2.5,1.2-5,2.5-7.5,3.6
			c-42.5,20.8-191.6,93.6-222.7,108.8l0.2-4.2c0.1-2.3,0.3-4.9,0.5-7.7c0.6-8.8,0.9-17.2,1-25.4c0-0.5,0.1-0.9,0.1-1.3v-6.4
			c-0.1-29.9-3.4-54.1-9.3-66.4l-1-2.5c-1.6-4.3-5.4-10.2-14.8-18.1c-5.3-4.6-11-8.8-16.9-12.5c-3.6-2.5-7.3-4.7-10.6-6.7
			c-21.4-12.6-48.6-24.9-81.1-36.8c-26.8-10.4-49-17.6-74.1-25.5c6.1-2.3,13.8-5.5,22.4-8.9c47.5,22.9,90.8,39.5,90.8,39.5
			s2.7-1.3,7.5-3.6c26,12.6,54.6,24.3,64.5,26.5l2.2,0.5l2.2-0.5c17.6-3.5,88-29.9,109.1-37.9c52.9-20,107.3-36,149-43.9
			c6.9-1.4,13.9-2.1,21-2.1c10.8,0,18.3,1.8,21.8,2.9c1.2,0.5,2.3,0.8,3.4,1.3l4.1,2c3.6,2,6.7,4.9,9,8.4
			c-35.5,3.4-94,19.3-170.3,46.1l-1.1,0.4c-2.7,0.9-4.1,3.9-3.2,6.6c0,0,0,0,0,0.1c0.8,2.1,2.7,3.5,4.9,3.5c0.6,0,1.2-0.1,1.8-0.4
			l1-0.4c76.8-27.1,137-43.2,170.9-45.9c0.7,3,1.2,6.3,1.6,9.7l-0.7,0.4c-24.8,18.3-136,53.3-183.4,68.2c-12.5,4-21.5,6.8-25.5,8.2
			c-2.7,0.9-4.1,3.9-3.2,6.6c0,0,0,0.1,0,0.1c0.8,2.1,2.7,3.4,4.9,3.5c0.6,0,1.2-0.1,1.8-0.4c3.8-1.3,12.7-4.2,25.1-8.1
			c49.3-15.6,149.1-46.9,181.7-66.6c0.1,4.9-0.1,9.8-0.6,14.7c-0.7,0.3-1.3,0.7-1.8,1.3c-20.6,24.3-66.7,42.2-91.5,51.9
			c-5.1,2-9.6,3.7-12.8,5.1c-2.7,1.1-3.9,4.2-2.8,6.9c0.8,1.9,2.7,3.2,4.8,3.2c0.7,0,1.4-0.1,2.1-0.5c3.2-1.4,7.5-3,12.6-5
			c23.3-9,59.7-23.1,83.9-43.2C822.3,371.8,816.8,378.1,809.3,384.1L809.3,384.1z"/>
		<path class="st1" d="M653.8,431.2c-31.5,14.8-58.7,25.4-78.4,33c-16.7,6.4-28.7,11.2-36.3,15.5c-2.5,1.4-3.4,4.6-2,7.1
			c0,0,0,0,0,0.1c0.9,1.7,2.6,2.7,4.5,2.7c0.9,0,1.8-0.2,2.6-0.7c6.9-4,19.3-8.8,34.9-14.8c19.9-7.7,47.2-18.4,79.1-33.3
			c2.6-1.3,3.7-4.4,2.6-7C659.5,431.1,656.4,430,653.8,431.2z"/>
		<path class="st1" d="M453.3,134.6c0.9,0,1.8-0.2,2.6-0.7c14.6-8.3,24.3-11.9,45.7-19.6l6.1-2.2c2.7-1,4.2-4,3.2-6.8
			c-1-2.7-4-4.2-6.8-3.2l-6,2.2c-21.3,7.7-31.9,11.6-47.3,20.3c-2.5,1.4-3.4,4.6-2,7.1c0,0,0,0,0,0
			C449.6,133.5,451.4,134.5,453.3,134.6z"/>
		<path class="st1" d="M449.2,201.8c0.9,0,1.8-0.2,2.6-0.7c11.5-6.5,28.5-12.4,46.6-18.6c6.9-2.3,13.9-4.8,20.9-7.4
			c2.7-1,4.2-4,3.2-6.8s-4-4.2-6.8-3.2c-6.9,2.6-14,4.9-20.8,7.3c-18.6,6.3-36,12.4-48.4,19.4c-2.5,1.4-3.4,4.6-2,7.1c0,0,0,0,0,0
			C445.5,200.7,447.3,201.8,449.2,201.8z"/>
		<path class="st1" d="M447.2,284.7c-2.5,1.4-3.4,4.6-2,7.1c0,0,0,0,0,0c1.4,2.5,4.5,3.4,7,2.1c0,0,0.1,0,0.1-0.1
			c5-2.9,15.5-6.4,29-11c28.6-9.7,72-24.3,124-52.1c2.6-1.4,3.6-4.5,2.2-7.1c-1.4-2.6-4.5-3.6-7.1-2.2l0,0
			c-51.2,27.3-94,41.8-122.4,51.4C463.6,277.8,453.2,281.5,447.2,284.7z"/>
		<g id="TEXTO_BLANCO">
			<g id="TEXTO_BLANCO-2">
				<path d="M173.7,766.5c-0.9,0.1-1.9,0-2.7-0.5c-0.8-0.4-1.4-1.2-1.7-2c-0.4-1-0.6-2.1-0.6-3.2c0-1.3,0.3-2.6,0.8-3.8
					c0.5-1.3,1.3-2.5,2.3-3.5c1.1-1.1,2.4-2.1,3.8-2.7c1.7-0.8,3.5-1.2,5.4-1.4c1.5-0.1,2.9-0.1,4.4,0c1.3,0.2,2.7,0.3,4,0.4
					c1.4,0.2,2.7,0.2,4.1,0.1l-3,3.3l-4.6-0.6l-0.3-0.5c-1.2-0.2-2.4-0.2-3.5-0.1c-1.9,0.1-3.8,1-5.1,2.4c-1.3,1.7-2,3.7-1.9,5.8
					c0,0.9,0.1,1.8,0.4,2.6c0.2,0.9,0.5,1.7,0.9,2.5c-0.4,0.3-0.8,0.5-1.2,0.6C174.6,766.4,174.2,766.5,173.7,766.5z M174.2,788.6
					c-0.9,0.2-1.9-0.1-2.7-0.7c-0.6-0.5-1-1.2-1-2c0-0.3,0-0.6,0.1-0.9c1.1-0.1,2.2-0.5,3.2-1.1c1-0.7,1.9-1.5,2.6-2.5
					c1-1.3,1.7-2.8,2.3-4.3c0.9-2.1,1.6-4.2,2.3-6.3c0.8-2.5,1.6-5.4,2.3-8.7s1.8-7,2.8-11.2l3.3,3.6c-1.3,6.1-2.5,11.1-3.6,15.2
					c-0.9,3.4-2,6.7-3.3,9.9c-0.8,2-1.8,3.9-3,5.6c-0.7,1.1-1.7,2-2.8,2.6C175.9,788.2,175.1,788.5,174.2,788.6z M192.2,785.9
					l-3.4-28.1l-0.5-0.1l-2.4-6.9l7.6-0.7l2.9,25.3h0.1l12.8-26.5l7.3-0.6l-6.5,8l-14.5,29.3L192.2,785.9z M211.7,792.6
					c-0.7,0.1-1.3,0-1.9-0.3c-0.6-0.3-1.1-0.8-1.4-1.5c-0.4-0.9-0.7-1.9-0.9-2.9c-0.2-1.5-0.3-3-0.2-4.5c0-1.8,0.1-4.1,0.3-6.8
					s0.5-5.9,0.9-9.5s1.1-7.5,1.9-11.7l-0.3-0.3l-0.8-6.3l7.6-0.7c-0.4,2.1-0.8,4.3-1.2,6.9s-0.9,5.2-1.3,8s-0.7,5.4-1,8.1
					c-0.2,2.5-0.4,4.9-0.4,7.4c-0.1,2.4,0.1,4.9,0.6,7.3c0.2,1.6,0.9,3,1.9,4.2c-0.2,0.5-0.5,0.9-0.8,1.3c-0.4,0.4-0.8,0.7-1.3,1
					C212.8,792.5,212.3,792.6,211.7,792.6L211.7,792.6z"/>
				<path d="M229,783.7c-1.8,0.2-3.7,0-5.4-0.7c-1.5-0.6-2.7-1.8-3.4-3.2c-0.8-1.8-1.3-3.8-1.2-5.8c0-2.3,0.3-4.6,0.9-6.9
					c0.6-2.2,1.6-4.4,2.8-6.3c1.3-1.9,2.9-3.6,4.9-4.8c2.1-1.3,4.5-2.1,7-2.3c1.3-0.1,2.6,0,3.8,0.2c1.1,0.3,2,0.9,2.7,1.7
					c0.7,1,1.1,2.3,1,3.5c0,2-0.6,3.9-1.9,5.4c-1.3,1.6-3,2.8-4.9,3.7c-2.2,1-4.5,1.5-6.8,1.7l-1.6,0.1c-0.6,0-1.1,0-1.4,0
					c-0.1,0.6-0.1,1.1-0.1,1.7c-0.1,0.5-0.1,1-0.1,1.5c-0.1,1.6,0.3,3.1,1.1,4.5c0.7,1.1,2,1.4,3.9,1.3c1.5-0.1,2.9-0.6,4.2-1.5
					c1.2-0.9,2.2-2.1,2.9-3.4c0.4,0.1,0.8,0.3,1.1,0.8c0.2,0.4,0.3,0.9,0.3,1.3c0,1.2-0.4,2.3-1.1,3.2c-0.9,1.2-2,2.1-3.3,2.7
					C232.6,783.1,230.8,783.6,229,783.7z M225.9,767.4c1.2-0.1,2.5-0.3,3.7-0.7c1.2-0.3,2.3-0.8,3.3-1.5c1-0.6,1.8-1.4,2.4-2.4
					c0.6-0.9,0.9-2,0.9-3.2c0.1-0.8-0.2-1.6-0.7-2.3c-0.6-0.5-1.4-0.7-2.1-0.6c-1,0.1-2,0.5-2.8,1.2c-0.9,0.8-1.6,1.6-2.2,2.6
					c-0.6,1.1-1.2,2.2-1.6,3.3C226.4,765.1,226.1,766.3,225.9,767.4L225.9,767.4z"/>
				<path d="M244.9,782.3c-0.9,0.2-1.9-0.1-2.5-0.8c-0.5-0.7-0.8-1.6-0.7-2.5c0-1.5,0.4-2.9,1.3-4.1c0.9-1.4,2-2.6,3.2-3.7
					c1.3-1.2,2.7-2.3,4-3.3l1.3-1l-3-8.3c-0.3-0.8-0.8-1.5-1.4-2.1c-0.7-0.6-1.6-0.9-2.5-0.8c0.1-0.9,0.6-1.7,1.3-2.3
					c0.8-0.6,1.8-0.9,2.8-1c1.4-0.2,2.8,0.3,3.7,1.4c0.9,1.3,1.7,2.7,2.3,4.2l2.2,5.5c1.2-1.2,2.3-2.4,3.3-3.8
					c0.9-1.1,1.3-2.6,1.3-4c0-0.6-0.1-1.1-0.1-1.7c-0.1-0.5-0.3-1-0.5-1.5c0.5-0.4,1-0.8,1.5-1c0.6-0.3,1.3-0.5,2-0.5
					c0.9-0.2,1.8,0.1,2.5,0.8c0.6,0.7,0.9,1.6,0.8,2.5c0,1.3-0.4,2.7-1.1,3.8c-0.8,1.3-1.7,2.4-2.8,3.5c-1.2,1.1-2.5,2.2-3.8,3.2
					l-2,1.4l3.2,8.4c0.3,0.8,0.8,1.5,1.3,2.1c0.7,0.6,1.6,0.9,2.5,0.9c-0.1,0.9-0.6,1.7-1.3,2.3c-0.8,0.6-1.7,0.9-2.7,1
					c-1,0.1-2-0.1-2.8-0.6c-0.8-0.5-1.4-1.3-1.9-2.1c-0.5-0.9-1-1.9-1.3-2.9l-2.2-5.6c-1.2,1.1-2.4,2.4-3.3,3.8
					c-0.9,1.2-1.4,2.6-1.4,4.1c0,0.5,0.1,1.1,0.2,1.6c0.1,0.5,0.3,1.1,0.5,1.6C247.7,781.7,246.3,782.2,244.9,782.3z"/>
				<path d="M271.7,780c-1.7,0.3-3.3-0.8-3.6-2.5c-0.1-0.3-0.1-0.6,0-0.9c0-0.5,0.1-1,0.1-1.6c0.1-0.6,0.2-1.3,0.3-1.9
					c0.1-0.6,0.2-1.3,0.4-1.9s0.2-1.1,0.3-1.6l3.7-18.3l6.2-1.2l-4.6,22.9c-0.1,0.3-0.1,0.6-0.1,1.1c-0.1,0.4-0.1,0.8-0.1,1.2
					c0,0.4,0.1,0.9,0.4,1.2c0.3,0.3,0.8,0.4,1.2,0.5c-0.2,0.9-0.7,1.6-1.5,2.1C273.5,779.6,272.6,779.9,271.7,780z M277.2,746.2
					c-1,0.1-2-0.1-2.9-0.6c-0.8-0.5-1.2-1.5-1.1-2.4c0-1,0.4-2,1.2-2.7c0.9-0.7,1.9-1,3-1.1c1-0.1,2,0.1,2.9,0.6
					c0.8,0.5,1.2,1.5,1.1,2.4c0.1,1-0.4,2-1.2,2.7C279.3,745.8,278.3,746.1,277.2,746.2L277.2,746.2z"/>
				<path d="M291.3,778.3c-3.2,0.3-5.5-0.4-7-2s-2.3-4.3-2.3-7.8c0-2.3,0.4-4.7,1-6.9c0.6-2.3,1.6-4.4,2.9-6.3
					c1.2-1.9,2.9-3.5,4.8-4.8c2-1.3,4.3-2,6.7-2.2c1.3-0.1,2.7,0,4,0.3c1,0.3,2,0.8,2.7,1.7c0.7,0.9,1,2,1,3.1
					c0.1,1.4-0.4,2.7-1.4,3.7c-0.9,0.8-2,1.3-3.2,1.4c-0.4,0-0.8,0-1.2,0c-0.4,0-0.8-0.2-1.1-0.5c0.2-0.6,0.4-1.3,0.5-1.9
					c0.1-0.6,0.2-1.2,0.2-1.8c0.1-0.7-0.1-1.5-0.6-2c-0.5-0.5-1.2-0.7-1.9-0.5c-1.1,0.1-2.2,0.6-3,1.3c-0.9,0.9-1.7,1.9-2.3,3
					c-0.7,1.3-1.2,2.6-1.6,4c-0.4,1.4-0.8,2.8-1,4.2c-0.2,1.2-0.3,2.4-0.4,3.7c-0.1,1.5,0.3,3.1,1.1,4.4c0.7,1.2,2,1.7,3.9,1.5
					c1.6-0.1,3-0.7,4.2-1.8c1.1-1.1,1.9-2.4,2.4-3.9c0.6,0.1,1.1,0.4,1.5,0.9c0.3,0.5,0.4,1.1,0.4,1.7c0,1.3-0.5,2.6-1.3,3.5
					c-1,1.2-2.2,2.2-3.7,2.8C294.8,777.7,293.1,778.2,291.3,778.3z"/>
				<path d="M314,776.3c-3.1,0.6-6.1-1.3-7-4.4c-0.5-1.7-0.8-3.4-0.8-5.2c0-2.6,0.3-5.1,1.1-7.6c0.7-2.3,1.7-4.5,3.1-6.5
					c1.3-1.8,2.9-3.4,4.7-4.6c1.8-1.2,3.9-1.9,6-2.1c1.9-0.2,3.8,0.1,5.6,0.6l5.5-1.2l-4.4,22.9c-0.1,0.4-0.1,0.7-0.1,1.1
					c-0.1,0.4-0.1,0.8-0.1,1.1c0,0.4,0.1,0.9,0.4,1.2c0.4,0.3,0.8,0.5,1.3,0.5c-0.2,0.6-0.5,1.1-0.9,1.5c-0.4,0.4-0.9,0.7-1.4,1
					c-0.6,0.3-1.2,0.4-1.8,0.4c-0.9,0.1-1.7-0.1-2.5-0.5c-0.7-0.5-1.2-1.3-1.2-2.2c-1,1-2.1,1.9-3.3,2.5
					C316.9,775.8,315.5,776.3,314,776.3z M316.4,772.9c1.3-0.1,2.5-0.6,3.3-1.6c0.9-1,1.6-2.2,2-3.5c0.5-1.3,0.9-2.6,1.1-4l2.4-13.1
					c-0.7-0.5-1.5-0.8-2.3-1.1c-0.7-0.2-1.4-0.3-2.1-0.2c-1.1,0.1-2.1,0.5-3,1.3c-1,0.8-1.8,1.8-2.3,2.9c-0.7,1.3-1.3,2.6-1.7,4
					c-0.5,1.6-0.8,3.2-1,4.8c-0.2,1.7-0.3,3.4-0.4,5.1c-0.1,1.4,0.2,2.8,0.8,4.1C313.9,772.6,315.1,773.2,316.4,772.9L316.4,772.9z"
					/>
				<path d="M354.9,772.8c-1.7,0.4-3.3-0.7-3.7-2.3c-0.1-0.4-0.1-0.9,0-1.3c0-1,0.2-2.1,0.4-3.1c0.2-1.3,0.5-2.6,0.8-4.1
					s0.6-2.8,1-4.3s0.6-2.7,0.9-3.8c0.2-0.9,0.3-1.8,0.4-2.7c0.1-1-0.2-1.9-0.9-2.7c-0.7-0.6-1.6-0.8-2.5-0.7
					c-1.4,0.1-2.7,0.7-3.6,1.8c-1,1.1-1.8,2.4-2.4,3.8c-0.6,1.4-1.1,2.9-1.3,4.5l-3,15.2l-6.2,1.2l5.6-28.6l5.1-1.1l-0.6,4.9
					c1.8-3.4,5.2-5.7,9-6c1.8-0.3,3.6,0.2,5.1,1.2c1.2,1.2,1.9,2.9,1.8,4.6c0,1.2-0.1,2.4-0.4,3.5c-0.2,1.3-0.5,2.8-0.8,4.3
					s-0.7,3-1,4.4s-0.6,2.7-0.9,3.9c-0.2,0.9-0.3,1.8-0.4,2.8c0,0.5,0.1,0.9,0.4,1.3c0.3,0.4,0.8,0.6,1.3,0.5
					c-0.2,0.9-0.7,1.6-1.5,2.1C356.5,772.5,355.7,772.7,354.9,772.8z"/>
				<path d="M379.8,748.5c-0.9,0.1-1.9-0.1-2.7-0.6c-0.8-0.5-1.4-1.3-1.7-2.2c-0.4-1.1-0.6-2.3-0.5-3.5c0-1.7,0.5-3.4,1.3-4.9
					c0.9-1.7,2.2-3.2,3.9-4.3c1.9-1.3,4.2-2,6.5-2.1c1.9-0.2,3.7-0.2,5.6-0.1c1.8,0.1,3.5,0.3,5.1,0.5c1.6,0.2,3.2,0.2,4.9,0.1
					c1.2-0.1,2.5-0.3,3.7-0.7c1.2-0.4,2.2-1,3-1.9c0.3,0.3,0.6,0.7,0.7,1.1c0.2,0.5,0.3,1,0.3,1.5c0,0.8-0.2,1.6-0.6,2.3
					c-0.4,0.8-1,1.5-1.7,2c-0.9,0.6-2,1-3.1,1c-1.1,0.1-2.2,0-3.3-0.2c-1.2-0.2-2.3-0.5-3.4-0.9c-1.1-0.4-2.4-0.8-3.8-1.3l-0.1-0.2
					c-0.9-0.3-1.9-0.5-2.8-0.6c-1-0.1-1.9-0.1-2.9,0c-2,0.1-3.8,1-5.1,2.5c-1.3,1.7-2,3.8-1.9,5.9c-0.1,1,0,2,0.3,3
					c0.2,1,0.6,1.9,1.1,2.7c-0.4,0.2-0.9,0.4-1.3,0.6C380.7,748.4,380.3,748.5,379.8,748.5z M386.2,770.1c-0.7,0.1-1.3,0-2-0.2
					c-0.5-0.1-0.9-0.5-1.2-1c0.4-0.3,0.8-0.7,1.1-1.2c0.3-0.5,0.6-1.1,0.9-1.7c0.3-0.8,0.4-1.6,0.6-2.5l4.2-22.1
					c0.3-2.2,1.2-4.3,2.5-6c1.4-1.5,3.4-2.4,5.4-2.5l-6,31.1c-0.2,1.1-0.6,2.2-1.1,3.2c-0.4,0.8-1,1.5-1.8,1.9
					C388.1,769.8,387.1,770,386.2,770.1z"/>
				<path d="M412.6,767.8c-1.6,0.2-3.2-0.1-4.5-0.9c-1.2-0.8-2-2-2.5-3.4c-0.5-1.7-0.8-3.4-0.8-5.2c0-2.6,0.3-5.1,1.1-7.6
					c0.7-2.3,1.7-4.5,3.1-6.5c1.3-1.8,2.9-3.4,4.7-4.6c1.8-1.2,3.9-1.9,6-2.1c1.9-0.2,3.8,0.1,5.6,0.6l5.5-1.2l-4.4,22.9
					c-0.1,0.4-0.1,0.7-0.1,1.1c-0.1,0.4-0.1,0.8-0.1,1.1c0,0.5,0.1,0.9,0.4,1.2c0.4,0.3,0.8,0.5,1.3,0.5c-0.2,0.6-0.5,1.1-0.9,1.5
					c-0.4,0.4-0.9,0.7-1.4,1c-0.6,0.3-1.2,0.4-1.8,0.4c-0.9,0.1-1.7-0.1-2.5-0.6c-0.7-0.5-1.2-1.3-1.2-2.2c-1,1-2.1,1.9-3.3,2.5
					C415.5,767.3,414.1,767.7,412.6,767.8z M415,764.4c1.3-0.1,2.5-0.6,3.3-1.6c0.9-1,1.6-2.2,2-3.5c0.5-1.3,0.9-2.6,1.1-4l2.4-13.1
					c-0.7-0.5-1.5-0.8-2.3-1.1c-0.7-0.2-1.4-0.3-2.1-0.2c-1.1,0.1-2.1,0.5-3,1.2c-1,0.8-1.8,1.8-2.3,2.9c-0.7,1.3-1.3,2.6-1.7,4
					c-0.4,1.6-0.8,3.2-1,4.8c-0.2,1.7-0.3,3.4-0.4,5.1c-0.1,1.4,0.2,2.8,0.9,4.1C412.6,764,413.8,764.6,415,764.4L415,764.4z"/>
				<path d="M469,762.9c-1.7,0.4-3.3-0.7-3.7-2.3c-0.1-0.4-0.1-0.9,0-1.4c0-1,0.2-2.1,0.4-3.1c0.2-1.3,0.5-2.6,0.8-4.1
					s0.6-2.9,1-4.3s0.6-2.8,0.9-3.9c0.2-0.9,0.3-1.7,0.4-2.6c0.1-1-0.3-1.9-0.9-2.7c-0.7-0.6-1.7-0.8-2.6-0.7
					c-1.1,0.1-2.1,0.4-2.9,1.1c-0.8,0.7-1.5,1.5-2,2.4c-0.6,1-1.1,2.1-1.4,3.2c-0.4,1.1-0.6,2.2-0.9,3.4l-3,15.2l-6.2,1.2l2.8-13.9
					c0.1-0.5,0.2-1.1,0.4-1.8s0.3-1.4,0.4-2.1s0.2-1.4,0.4-2.1c0.1-0.6,0.1-1.2,0.1-1.8c0.1-1-0.2-1.9-0.9-2.7
					c-0.7-0.6-1.7-0.9-2.6-0.8c-1,0.1-2,0.4-2.8,1.1c-0.8,0.7-1.5,1.5-2,2.4c-0.5,1-0.9,2-1.3,3.1c-0.4,1.2-0.6,2.3-0.9,3.4l-3,15.2
					l-6.2,1.2l5.7-28.6l5.1-1.1l-0.6,4.9c0.8-1.7,2.1-3.2,3.7-4.3c1.6-1,3.4-1.6,5.2-1.7c1.5-0.2,3.1,0,4.4,0.8
					c1.1,0.9,1.8,2.1,2,3.5c0.9-1.7,2.2-3.1,3.9-4.1c1.6-0.9,3.3-1.4,5.1-1.6c2.3-0.2,4,0.2,5.2,1.2c1.2,1.2,1.9,2.9,1.8,4.6
					c0,1.2-0.1,2.4-0.4,3.5c-0.2,1.3-0.5,2.8-0.9,4.3s-0.6,3-1,4.4s-0.6,2.7-0.9,3.9c-0.2,0.9-0.3,1.8-0.4,2.8
					c0,0.5,0.1,0.9,0.4,1.3c0.3,0.4,0.8,0.6,1.3,0.6c-0.2,0.9-0.7,1.6-1.5,2.1C470.6,762.6,469.8,762.8,469,762.9z"/>
				<path d="M486.6,761.3c-1.6,0.2-3.2-0.1-4.5-0.9c-1.2-0.8-2-2-2.5-3.4c-0.5-1.7-0.8-3.4-0.8-5.2c0-2.6,0.3-5.1,1-7.6
					c0.7-2.3,1.7-4.5,3.1-6.5c1.3-1.8,2.9-3.4,4.7-4.6c1.8-1.2,3.9-1.9,6-2.1c1.9-0.2,3.8,0.1,5.6,0.6l5.5-1.2l-4.4,22.9
					c-0.1,0.4-0.1,0.7-0.1,1.1c-0.1,0.4-0.1,0.8-0.1,1.1c0,0.4,0.1,0.9,0.4,1.2c0.4,0.3,0.8,0.5,1.3,0.5c-0.2,0.6-0.5,1.1-0.9,1.5
					c-0.4,0.4-0.9,0.7-1.4,1c-0.6,0.3-1.2,0.4-1.8,0.4c-0.9,0.1-1.7-0.1-2.5-0.5c-0.7-0.5-1.2-1.3-1.2-2.2c-1,1-2.1,1.9-3.3,2.5
					C489.5,760.8,488.1,761.3,486.6,761.3z M489,757.9c1.3-0.1,2.5-0.6,3.3-1.6c0.9-1,1.6-2.2,2-3.5c0.5-1.3,0.9-2.6,1.1-4l2.4-13.1
					c-0.7-0.5-1.5-0.8-2.3-1.1c-0.7-0.2-1.4-0.3-2.1-0.2c-1.1,0.1-2.1,0.6-3,1.3c-1,0.8-1.8,1.8-2.3,2.9c-0.7,1.3-1.3,2.6-1.7,4
					c-0.4,1.6-0.8,3.2-1,4.8c-0.2,1.7-0.3,3.4-0.4,5.1c-0.1,1.4,0.2,2.8,0.9,4.1C486.5,757.6,487.8,758.2,489,757.9L489,757.9z"/>
				<path d="M511.1,759.2c-1,0.1-2-0.1-2.8-0.8c-0.7-0.7-1.1-1.7-1-2.6c0-0.5,0-0.9,0.1-1.4c0.1-0.6,0.1-1.2,0.3-2s0.3-1.8,0.6-3
					s0.6-2.6,0.9-4.3s0.7-3.7,1.2-6s1-4.9,1.6-7.9c0.3-2.1,0.6-4.1,0.9-6.1c0.2-1.6,0.4-3.3,0.3-4.9c0-0.4,0-0.8-0.1-1.2
					c-0.1-0.3-0.1-0.6-0.1-0.9c0.4-0.3,0.8-0.5,1.3-0.7c0.5-0.2,1-0.3,1.5-0.3c0.9-0.1,1.8,0.1,2.6,0.6c0.8,0.5,1.2,1.4,1.2,2.8
					c0,0.6-0.1,1.2-0.2,1.8c-0.1,0.8-0.3,1.9-0.6,3.1s-0.4,2.3-0.7,3.6s-0.4,2.3-0.6,3.3c-0.8,4.3-1.5,7.7-2.1,10.4s-1,4.8-1.3,6.3
					s-0.5,2.6-0.6,3.4c-0.1,0.5-0.2,1-0.2,1.6c-0.1,0.3-0.1,0.5-0.1,0.8c0,0.4,0.1,0.9,0.4,1.2c0.3,0.3,0.8,0.4,1.2,0.5
					c-0.1,0.6-0.4,1.1-0.8,1.5c-0.4,0.4-0.9,0.7-1.4,1C512.1,759.1,511.6,759.2,511.1,759.2z"/>
				<path d="M530.7,757.5c-1.8,0.2-3.7,0-5.4-0.7c-1.5-0.6-2.7-1.8-3.5-3.2c-0.9-1.8-1.3-3.8-1.2-5.8c0-2.3,0.3-4.6,0.9-6.9
					c0.6-2.2,1.6-4.4,2.8-6.3c1.3-1.9,2.9-3.6,4.9-4.8c2.1-1.3,4.5-2.1,7-2.3c1.3-0.1,2.6,0,3.8,0.2c1.1,0.3,2,0.9,2.7,1.7
					c0.7,1,1.1,2.3,1,3.5c0,2-0.6,3.9-1.9,5.4c-1.3,1.6-3,2.8-4.9,3.7c-2.2,1-4.5,1.5-6.8,1.7l-1.5,0.1c-0.6,0-1.1,0-1.4,0.1
					c-0.1,0.6-0.1,1.1-0.1,1.7c-0.1,0.5-0.1,1-0.1,1.5c-0.1,1.6,0.3,3.1,1.1,4.5c0.7,1.1,2,1.4,4,1.3c1.5-0.1,2.9-0.6,4.2-1.5
					c1.2-0.9,2.2-2.1,2.9-3.4c0.5,0.1,0.8,0.3,1.1,0.8c0.2,0.4,0.3,0.9,0.3,1.3c0,1.2-0.4,2.3-1.1,3.3c-0.9,1.2-2,2.1-3.3,2.7
					C534.3,756.9,532.5,757.4,530.7,757.5z M527.6,741.2c1.2-0.1,2.5-0.4,3.7-0.7c1.2-0.3,2.3-0.8,3.3-1.5c1-0.6,1.8-1.4,2.4-2.4
					c0.6-1,0.9-2,0.9-3.2c0.1-0.8-0.2-1.6-0.7-2.3c-0.6-0.5-1.4-0.7-2.1-0.6c-1,0.1-2,0.5-2.8,1.2c-0.9,0.8-1.6,1.6-2.2,2.6
					c-0.6,1.1-1.1,2.2-1.5,3.4C528.1,738.9,527.8,740.1,527.6,741.2z"/>
				<path d="M553.2,755.7c-1.1,0.1-2.3,0.1-3.4,0c-1-0.1-2-0.4-3-0.8c-0.8-0.3-1.6-0.9-2.1-1.6c-0.5-0.7-0.8-1.5-0.8-2.4
					c0-0.9,0.3-1.8,0.8-2.5c0.5-0.6,1.2-1.1,1.9-1.4c0.7-0.3,1.4-0.5,2.1-0.6c0.4,0,0.8,0,1.2,0c0.4,0,0.7,0.2,1,0.5
					c-0.2,0.5-0.3,1-0.5,1.4c-0.1,0.5-0.2,1-0.2,1.6c0,0.8,0.4,1.6,1.1,2.1c0.8,0.5,1.8,0.7,2.8,0.6c1.2-0.1,2.4-0.5,3.3-1.3
					c0.9-0.7,1.4-1.7,1.3-2.8c0-0.9-0.3-1.7-0.8-2.5c-0.6-0.7-1.2-1.4-2-1.9c-0.8-0.6-1.6-1.1-2.5-1.7s-1.9-1.2-2.9-1.9
					c-0.9-0.7-1.7-1.5-2.4-2.4c-0.6-1-0.9-2.2-0.9-3.4c0-1.3,0.3-2.5,1-3.6c0.7-1.1,1.6-2,2.7-2.8c1.2-0.8,2.5-1.4,3.8-1.9
					c1.3-0.5,2.7-0.7,4.2-0.8c1.3-0.1,2.6-0.1,3.8,0.2c1.1,0.2,2.2,0.7,3.1,1.4c0.8,0.8,1.3,1.9,1.2,3c0.1,1.3-0.4,2.5-1.3,3.3
					c-0.8,0.8-1.8,1.3-2.9,1.4c-0.4,0-0.8,0-1.3,0c-0.5,0-0.9-0.2-1.3-0.5c0.3-0.5,0.4-1,0.6-1.5c0.1-0.5,0.2-1,0.2-1.5
					c0-0.8-0.3-1.6-0.9-2.1c-0.8-0.5-1.8-0.7-2.7-0.5c-1.1,0.1-2.1,0.5-3,1.2c-0.8,0.7-1.3,1.7-1.2,2.7c0,0.7,0.2,1.5,0.6,2.1
					c0.4,0.6,1,1.2,1.5,1.7c0.7,0.5,1.4,1,2.1,1.5c1.1,0.7,2.3,1.3,3.3,2c1.1,0.7,2,1.5,2.8,2.6c0.8,1.1,1.2,2.4,1.1,3.8
					c0,1.7-0.6,3.4-1.6,4.7c-1.2,1.4-2.6,2.5-4.3,3.3C557.1,755,555.2,755.5,553.2,755.7z"/>
				<path d="M591.5,752c-2.1,0.2-4.2,0-6.2-0.7c-1.7-0.6-3.2-1.7-4.3-3.1c-1.1-1.5-1.6-3.3-1.6-5.1c0-2.2,0.7-4.3,2-6
					c1.5-1.9,3.6-3.4,5.8-4.3c-0.3-1-0.6-2.1-0.8-3.2c-0.2-1-0.3-1.9-0.3-2.9c0-1.7,0.3-3.4,0.8-5c0.5-1.4,1.4-2.7,2.5-3.7
					c1.1-1.1,2.5-2,4-2.5c2.8-1,5.7-1.4,8.7-1.1c0.9,0.1,1.8,0.3,2.6,0.8c0.7,0.4,1.2,0.9,1.6,1.5c0.4,0.7,0.6,1.6,0.6,2.4
					c0.1,1.3-0.3,2.5-1.1,3.5c-0.7,0.9-1.8,1.4-2.9,1.5c-0.3,0-0.6,0-0.8,0l-0.8-0.1c0.2-0.8,0.3-1.6,0.3-2.5c0-0.7-0.1-1.5-0.3-2.1
					c-0.3-0.5-0.7-1-1.3-1.3c-0.7-0.3-1.5-0.4-2.3-0.3c-1.7,0-3.2,0.8-4.3,2.1c-1,1.5-1.5,3.4-1.4,5.2c0,2.2,0.4,4.4,1.2,6.5
					c0.8,2.2,1.9,4.4,3.2,6.3c1.4,2,3,3.7,4.8,5.3c0.8-1.1,1.3-2.3,1.6-3.6c0.3-1.1,0.5-2.2,0.5-3.3c0.1-1.9-0.6-3.7-1.9-5
					c0.5-0.3,1-0.6,1.5-0.8c0.6-0.2,1.3-0.3,1.9-0.4c1.1-0.2,2.3,0.1,3.1,0.9c0.7,1,1,2.2,0.9,3.4c0,1.2-0.2,2.5-0.6,3.6
					c-0.4,1.3-1,2.5-1.7,3.7c-0.7,1.1-1.4,2.2-2.3,3.2c0.8,0.3,1.7,0.6,2.6,0.8c0.8,0.2,1.5,0.3,2.3,0.2c0.5,0,0.9-0.1,1.4-0.3
					c0.5-0.1,0.8-0.3,1.2-0.4c0.1,0.2,0.2,0.5,0.2,0.8c0.1,0.2,0.1,0.5,0.1,0.8c0,1-0.4,2-1.2,2.7c-0.9,0.7-2.1,1.2-3.3,1.2
					c-2.5,0.1-5-0.6-7.2-1.8c-1.3,0.9-2.8,1.7-4.3,2.2C594.6,751.5,593,751.9,591.5,752z M592.8,748.4c0.9-0.1,1.8-0.3,2.7-0.6
					c0.7-0.2,1.4-0.6,2-1c-1.9-1.5-3.7-3.2-5.2-5.1c-1.6-1.9-3-4-4.1-6.3c-0.9,0.7-1.7,1.6-2.3,2.6c-0.5,1.1-0.8,2.2-0.8,3.4
					c-0.1,1.4,0.3,2.7,0.9,3.9c0.7,1.1,1.6,1.9,2.7,2.5C590,748.3,591.4,748.5,592.8,748.4L592.8,748.4z"/>
				<path d="M636.3,748.4c-3.7,0.3-6.5-0.6-8.4-2.6s-3-5.3-3-9.6c0-2.3,0.2-4.6,0.7-6.8c0.5-2.3,1.2-4.6,2.3-6.8
					c1-2.2,2.2-4.2,3.7-6.1c1.4-1.8,3.2-3.3,5.2-4.4c2-1.2,4.3-1.8,6.6-2c1.5-0.2,3.1,0,4.5,0.6c1.2,0.5,2.2,1.4,2.8,2.5
					c0.7,1.2,1,2.5,1,3.9c0,1.4-0.3,2.9-0.9,4.1c-0.6,1.2-1.4,2.2-2.5,3c-0.9,0.7-2,1.2-3.2,1.3c-1,0.2-2-0.1-2.9-0.6
					c-0.7-0.4-1.1-1.2-1.1-2c0-0.3,0-0.6,0.2-0.9h0.1h0.1c1-0.1,2-0.5,2.8-1.2c0.6-0.5,1.1-1.2,1.3-2c0.2-0.5,0.3-1.1,0.3-1.6
					c0.1-1-0.3-1.9-1.1-2.5c-0.8-0.6-1.9-0.9-2.9-0.8c-1.4,0.1-2.8,0.7-3.9,1.7c-1.2,1.1-2.2,2.4-3,3.9c-0.8,1.6-1.5,3.4-2,5.2
					c-0.5,1.8-0.9,3.7-1.2,5.6c-0.3,1.7-0.4,3.4-0.4,5.1c0,1.5,0.1,2.9,0.5,4.4c0.5,2.5,2.9,4.2,5.4,3.7c0,0,0.1,0,0.1,0
					c1.1-0.1,2.2-0.4,3.2-1c0.9-0.6,1.7-1.3,2.4-2.2c0.6-0.9,1.2-1.8,1.6-2.7c0.4-0.9,0.7-1.8,0.8-2.7c0.8,0,1.6,0.5,2,1.2
					c0.5,0.8,0.8,1.7,0.8,2.6c0,1.1-0.3,2.1-0.8,3c-0.6,1.2-1.4,2.2-2.4,3.2c-1.1,1.1-2.4,1.9-3.8,2.6
					C639.6,747.9,638,748.3,636.3,748.4z"/>
				<path d="M672.6,745.2c-0.9,0.1-1.9-0.1-2.7-0.7c-0.8-0.8-1.1-1.9-1-3c0-1,0.2-2.1,0.3-3.1c0.2-1.3,0.5-2.6,0.8-4.1
					s0.6-2.9,1-4.3s0.6-2.7,0.8-3.8c0.2-0.9,0.3-1.8,0.4-2.7c0.1-1-0.2-1.9-0.9-2.7c-0.7-0.6-1.6-0.8-2.5-0.7
					c-1.4,0.1-2.7,0.7-3.6,1.8c-1,1.1-1.8,2.4-2.4,3.8c-0.6,1.4-1.1,2.9-1.3,4.5l-3,15.2l-6.2,1.2l4.9-25l5,0.4c1-1.7,2.3-3.2,4-4.3
					c1.6-1.1,3.4-1.7,5.3-1.9c1.8-0.3,3.6,0.2,5.1,1.2c1.2,1.2,1.9,2.9,1.8,4.6c0,1.2-0.1,2.4-0.3,3.5c-0.2,1.3-0.5,2.8-0.8,4.3
					s-0.7,3-1,4.4s-0.6,2.7-0.8,3.9c-0.2,0.9-0.3,1.8-0.3,2.8c0,0.5,0.1,0.9,0.3,1.3c0.3,0.4,0.8,0.6,1.3,0.5
					c-0.2,0.9-0.7,1.6-1.5,2.1C674.3,744.9,673.4,745.1,672.6,745.2z M662.2,722.8l-5.2-0.6c0.3-1.5,0.6-3.1,0.9-5s0.6-3.5,0.8-5.3
					s0.3-3.3,0.3-4.5v-1.1c0-0.3-0.1-0.6-0.1-0.9c0.4-0.3,0.8-0.5,1.3-0.7c0.5-0.2,1-0.3,1.5-0.3c0.9-0.1,1.9,0.1,2.7,0.6
					c0.9,0.7,1.3,1.8,1.2,2.9c0,0.7-0.1,1.4-0.2,2.1c-0.2,0.9-0.4,2-0.6,3.1s-0.6,2.3-0.8,3.6s-0.6,2.4-0.9,3.4
					S662.5,722.1,662.2,722.8z"/>
				<path d="M690.1,743.7c-1.6,0.2-3.2-0.1-4.5-0.9c-1.2-0.8-2-2-2.5-3.4c-0.5-1.7-0.8-3.4-0.8-5.2c0-2.6,0.3-5.1,1.1-7.6
					c0.7-2.3,1.7-4.5,3.1-6.5c1.3-1.8,2.9-3.4,4.7-4.6c1.8-1.2,3.9-1.9,6-2.1c1.9-0.2,3.8,0.1,5.6,0.6l5.5-1.2l-4.4,22.9
					c-0.1,0.3-0.1,0.7-0.1,1.1c-0.1,0.4-0.1,0.8-0.1,1.1c0,0.4,0.1,0.9,0.4,1.2c0.4,0.3,0.8,0.5,1.3,0.5c-0.2,0.6-0.5,1.1-0.9,1.5
					c-0.4,0.4-0.9,0.7-1.4,1c-0.6,0.3-1.2,0.4-1.8,0.4c-0.9,0.1-1.7-0.1-2.5-0.6c-0.7-0.5-1.2-1.3-1.2-2.2c-1,1-2.1,1.9-3.3,2.5
					C693,743.2,691.5,743.6,690.1,743.7z M692.5,740.3c1.3-0.1,2.5-0.6,3.3-1.6c0.9-1,1.6-2.2,2-3.5c0.5-1.3,0.9-2.6,1.1-4l2.4-13.1
					c-0.7-0.5-1.4-0.8-2.3-1.1c-0.7-0.2-1.4-0.3-2.1-0.2c-1.1,0.1-2.1,0.5-3,1.2c-1,0.8-1.8,1.8-2.3,2.9c-0.7,1.3-1.3,2.6-1.7,4
					c-0.4,1.6-0.8,3.2-1,4.8c-0.2,1.7-0.3,3.4-0.3,5.1c-0.1,1.4,0.2,2.8,0.8,4.1C690,739.9,691.2,740.5,692.5,740.3z"/>
				<path d="M746.5,738.8c-0.9,0.1-1.9-0.1-2.7-0.7c-0.8-0.8-1.1-1.9-1-3c0-1,0.2-2.1,0.3-3.1c0.2-1.3,0.5-2.6,0.8-4.1
					s0.6-2.9,1-4.3s0.6-2.8,0.8-3.9c0.2-0.9,0.3-1.7,0.4-2.6c0.1-1-0.3-1.9-0.9-2.7c-0.7-0.6-1.7-0.8-2.6-0.7
					c-1.1,0.1-2.1,0.4-2.9,1.1c-0.8,0.7-1.5,1.5-2,2.4c-0.6,1-1.1,2.1-1.4,3.2c-0.3,1.1-0.6,2.2-0.8,3.4l-3,15.2l-6.2,1.2l2.8-13.9
					c0.1-0.5,0.2-1.1,0.3-1.8l0.4-2.1c0.2-0.7,0.2-1.4,0.4-2.1c0.1-0.6,0.1-1.2,0.1-1.8c0.1-1-0.2-1.9-0.9-2.7
					c-0.7-0.6-1.7-0.9-2.6-0.8c-1,0.1-2,0.4-2.8,1.1c-0.8,0.7-1.5,1.5-2,2.4c-0.5,1-0.9,2-1.3,3.1c-0.4,1.2-0.6,2.3-0.8,3.4l-3,15.2
					l-6.2,1.2l5.6-28.6l5.2-1.1l-0.6,4.9c0.8-1.7,2.1-3.2,3.7-4.3c1.6-1,3.4-1.6,5.2-1.7c1.5-0.2,3.1,0,4.4,0.8
					c1.1,0.9,1.8,2.1,2,3.5c0.9-1.7,2.2-3.2,3.9-4.1c1.6-0.9,3.3-1.4,5.2-1.6c2.3-0.2,4,0.2,5.2,1.2c1.2,1.2,1.9,2.9,1.8,4.6
					c0,1.2-0.1,2.4-0.3,3.5c-0.2,1.3-0.5,2.8-0.8,4.3s-0.6,3-1,4.4s-0.6,2.7-0.8,3.9c-0.2,0.9-0.3,1.8-0.3,2.8
					c0,0.5,0.1,0.9,0.3,1.3c0.3,0.4,0.8,0.6,1.3,0.6c-0.2,0.9-0.7,1.6-1.5,2.1C748.1,738.5,747.3,738.7,746.5,738.8z"/>
				<path d="M758.8,747.4c-0.9,0.1-1.8-0.1-2.6-0.6c-0.9-0.7-1.3-1.9-1.2-3c0-0.3,0.1-0.8,0.1-1.5c0.1-0.8,0.2-1.7,0.4-2.5
					c0.1-0.9,0.3-1.9,0.6-2.9s0.4-1.9,0.6-2.8l6-0.4c-0.3,1.8-0.6,3.6-0.8,5.6c-0.2,1.7-0.4,3.3-0.3,5c0,0.3,0,0.7,0.1,1
					c0,0.3,0.1,0.7,0.1,1c-0.4,0.3-0.8,0.5-1.3,0.7C759.9,747.2,759.4,747.3,758.8,747.4z M766.7,737c-0.8,0.1-1.7,0-2.5-0.1
					c-0.6-0.2-1.5-0.4-2.6-0.6h-5.3l5.2-27.5l5.2-1.1l-0.6,4.9c0.9-1.6,2.2-3,3.7-4.2c1.5-1.1,3.2-1.8,5.1-1.9c1.5-0.2,3,0.1,4.2,1
					c1.1,0.9,2,2.1,2.4,3.4c0.5,1.7,0.8,3.4,0.8,5.2c0,2.4-0.3,4.8-0.9,7.1c-0.6,2.3-1.5,4.5-2.8,6.5c-1.2,2-2.9,3.6-4.9,4.9
					C771.6,736,769.2,736.8,766.7,737L766.7,737z M767.6,733.7c1.1-0.1,2.1-0.5,3-1.2c1-0.8,1.8-1.8,2.3-2.9c0.7-1.3,1.2-2.6,1.6-4
					c0.4-1.6,0.8-3.2,1-4.8c0.2-1.7,0.3-3.4,0.3-5.1c0.1-1.2-0.2-2.5-0.8-3.6c-0.6-0.9-1.6-1.4-2.7-1.2c-1.2,0.1-2.4,0.6-3.3,1.4
					c-1,0.9-1.7,2-2.3,3.1c-0.6,1.2-1,2.5-1.3,3.8l-2.4,13c0.6,0.5,1.3,0.9,2.1,1.1C766.1,733.7,766.9,733.8,767.6,733.7
					L767.6,733.7z"/>
				<path d="M793.5,734.7c-1.4,0.2-2.9,0-4.2-0.6c-1.1-0.6-1.9-1.5-2.3-2.6c-0.5-1.2-0.7-2.6-0.7-3.9c0-1.4,0.2-2.8,0.4-4.2
					c0.3-1.7,0.7-3.9,1.3-6.7s1.3-6.2,2.2-10.3l5.9-1.2c-0.8,3.7-1.4,6.8-1.9,9.3s-0.9,4.4-1.2,6s-0.5,2.8-0.6,3.8
					c-0.1,0.9-0.2,1.7-0.1,2.6c0,0.8,0.1,1.5,0.3,2.3c0.2,0.7,0.6,1.3,1.1,1.7c0.6,0.4,1.4,0.6,2.2,0.5c1.3-0.1,2.4-0.7,3.2-1.6
					c0.9-1,1.6-2.2,2.1-3.5c0.5-1.3,0.9-2.7,1.1-4.1l3.3-17l6.1-1.2l-4.4,22.9c-0.1,0.3-0.1,0.7-0.1,1.1c-0.1,0.4-0.1,0.8-0.1,1.1
					c0,0.5,0.1,0.9,0.4,1.2c0.3,0.3,0.8,0.4,1.2,0.5c-0.1,0.6-0.4,1.1-0.8,1.5c-0.4,0.4-0.9,0.7-1.4,1c-0.6,0.2-1.2,0.4-1.8,0.4
					c-0.9,0.1-1.7-0.1-2.5-0.5c-0.7-0.5-1.1-1.3-1.3-2.2c-0.7,1.2-1.9,2.1-3.2,2.6C796.4,734.2,794.9,734.6,793.5,734.7z"/>
				<path d="M814.6,732.5l5.4-28.6l5.2-1.1l-0.6,4.9c0.7-1.6,1.7-2.9,3.1-4c1.3-1.1,2.9-1.7,4.6-1.9c1.8-0.2,3.1,0.2,3.9,1.2
					c0.9,1.1,1.3,2.4,1.2,3.7c0,1.7-0.5,3.4-1.5,4.8c-0.9,1.3-2.3,2.2-3.9,2.3c-0.4,0-0.9,0-1.3-0.1c-0.4-0.1-0.8-0.3-1.1-0.7
					c0.5-0.7,0.9-1.5,1.1-2.3c0.3-0.8,0.4-1.6,0.4-2.4c0-0.6-0.1-1.1-0.5-1.6c-0.3-0.4-0.8-0.5-1.5-0.4c-0.9,0.1-1.7,0.5-2.3,1.1
					c-0.7,0.7-1.2,1.6-1.6,2.5c-0.4,1-0.8,2.1-1,3.1c-0.3,1.2-0.5,2.1-0.7,3.1l-2.7,15.2L814.6,732.5z"/>
				<path d="M837.2,730.5l5.4-28.6l5.1-1.1l-0.6,4.9c0.7-1.6,1.7-3,3.1-4c1.3-1.1,2.9-1.7,4.6-1.9c1.8-0.2,3.1,0.2,3.9,1.2
					c0.9,1.1,1.3,2.4,1.2,3.7c0,1.7-0.5,3.4-1.5,4.8c-0.9,1.3-2.3,2.2-3.9,2.3c-0.4,0-0.9,0-1.3-0.1c-0.4-0.1-0.7-0.3-1-0.7
					c0.5-0.7,0.9-1.5,1.1-2.3c0.3-0.8,0.4-1.6,0.4-2.4c0.1-0.6-0.1-1.1-0.5-1.6c-0.3-0.4-0.8-0.5-1.5-0.4c-0.9,0.1-1.7,0.5-2.3,1.1
					c-0.7,0.7-1.2,1.6-1.6,2.5c-0.4,1-0.8,2.1-1,3.2c-0.3,1.2-0.5,2.1-0.7,3.1l-2.7,15.2L837.2,730.5z"/>
				<path d="M867.6,728.3c-1.6,0.2-3.2-0.1-4.5-0.9c-1.2-0.8-2-2-2.5-3.4c-0.5-1.7-0.8-3.4-0.8-5.2c0-2.6,0.3-5.1,1.1-7.6
					c0.7-2.3,1.7-4.5,3.1-6.5c1.3-1.8,2.9-3.4,4.7-4.6c1.8-1.2,3.9-1.9,6-2.1c1.9-0.2,3.8,0.1,5.6,0.6l5.5-1.2l-4.3,22.9
					c-0.1,0.4-0.1,0.7-0.2,1.1c-0.1,0.4-0.1,0.8-0.1,1.1c0,0.5,0.1,0.9,0.4,1.2c0.4,0.3,0.8,0.5,1.3,0.5c-0.2,0.6-0.5,1.1-0.9,1.5
					c-0.4,0.4-0.9,0.7-1.4,1c-0.6,0.3-1.2,0.4-1.8,0.4c-0.9,0.1-1.7-0.1-2.5-0.5c-0.7-0.5-1.2-1.3-1.2-2.2c-1,1-2.1,1.9-3.3,2.5
					C870.6,727.8,869.1,728.2,867.6,728.3z M870,724.8c1.3-0.1,2.5-0.6,3.3-1.6c0.9-1,1.6-2.2,2-3.5c0.5-1.3,0.9-2.6,1.1-4l2.4-13.1
					c-0.7-0.5-1.5-0.8-2.3-1.1c-0.7-0.2-1.4-0.3-2.1-0.2c-1.1,0.1-2.1,0.5-3,1.2c-1,0.8-1.8,1.8-2.3,2.9c-0.7,1.3-1.3,2.6-1.7,4
					c-0.4,1.6-0.8,3.2-1,4.8c-0.2,1.7-0.3,3.4-0.3,5.1c-0.1,1.4,0.2,2.8,0.8,4.1C867.5,724.5,868.8,725.1,870,724.8L870,724.8z"/>
				<path d="M896.3,725.8c-3.1,0.6-6.2-1.3-7-4.4c-0.5-1.7-0.8-3.4-0.8-5.2c0-2.6,0.4-5.1,1.1-7.6c0.7-2.3,1.7-4.5,3.1-6.5
					c1.2-1.8,2.8-3.4,4.7-4.6c1.8-1.2,3.9-1.9,6-2.1c1-0.1,2-0.1,3,0c1,0.1,1.9,0.4,2.8,0.7l5.1,0.3c-0.6,3.5-1.3,7-2,10.6
					s-1.4,7.1-2.1,10.8c-0.1,0.3-0.1,0.7-0.1,1.1c-0.1,0.4-0.1,0.8-0.1,1.1c0,0.5,0.1,0.9,0.4,1.2c0.4,0.3,0.8,0.5,1.3,0.5
					c-0.2,0.6-0.5,1.1-0.9,1.5c-0.4,0.4-0.9,0.7-1.4,1c-0.6,0.3-1.2,0.4-1.8,0.4c-0.9,0.1-1.7-0.1-2.5-0.6c-0.7-0.5-1.2-1.3-1.2-2.2
					c-1,1-2.1,1.9-3.3,2.5C899.2,725.2,897.8,725.7,896.3,725.8z M898.7,722.4c1.3-0.1,2.5-0.6,3.3-1.6c0.9-1,1.6-2.2,2-3.5
					c0.5-1.3,0.9-2.6,1.1-4l2.4-13.1c-0.7-0.5-1.4-0.9-2.2-1.1c-0.7-0.2-1.4-0.3-2.1-0.2c-1.1,0.1-2.1,0.6-3,1.3
					c-1,0.8-1.8,1.8-2.3,2.9c-0.7,1.3-1.3,2.6-1.7,4c-0.4,1.6-0.8,3.2-1,4.8c-0.2,1.7-0.3,3.4-0.4,5.1c-0.1,1.4,0.2,2.8,0.8,4.1
					C896.2,722,897.4,722.6,898.7,722.4L898.7,722.4z M914.2,697.1l-6,0.1c0.4-2,0.7-4,0.9-6s0.4-3.8,0.5-5.2v-1.2
					c0-0.3-0.1-0.7-0.1-1c0.4-0.3,0.8-0.5,1.3-0.7c0.5-0.2,1.1-0.3,1.6-0.3c0.9-0.1,1.8,0.1,2.6,0.6c0.9,0.7,1.3,1.8,1.2,2.9
					c0,0.8-0.1,1.6-0.3,2.3c-0.2,1.1-0.4,2.5-0.7,4S914.5,695.6,914.2,697.1L914.2,697.1z"/>
				<path d="M927.5,723.1c-1.6,0.2-3.2,0-4.7-0.4c-1.1-0.4-2.1-1.1-2.8-2.1c-0.7-0.9-1.2-1.9-1.4-3c-0.3-1.1-0.4-2.2-0.4-3.3
					c0-2.5,0.3-4.9,0.9-7.3c0.6-2.4,1.5-4.6,2.8-6.7c1.2-2,2.8-3.7,4.8-5c2.1-1.4,4.5-2.2,7-2.3c1.6-0.2,3.2-0.1,4.7,0.4
					c1.1,0.4,2.1,1.1,2.8,2.1c0.7,0.9,1.2,1.9,1.4,3c0.3,1.1,0.4,2.2,0.3,3.3c0,2.5-0.3,4.9-0.9,7.3c-0.6,2.4-1.5,4.6-2.8,6.8
					c-1.2,2-2.8,3.7-4.8,5C932.4,722.1,930,722.9,927.5,723.1z M928.5,719.8c1.1-0.1,2.2-0.6,3-1.3c0.9-0.9,1.7-2,2.3-3.1
					c0.7-1.4,1.2-2.8,1.6-4.3c0.4-1.6,0.7-3.2,0.9-4.8c0.2-1.6,0.3-3.1,0.4-4.7c0.1-1.4-0.2-2.8-0.8-4c-0.6-1-1.6-1.4-3.2-1.3
					c-1.1,0.1-2.2,0.5-3,1.3c-1,0.9-1.8,1.9-2.3,3.1c-0.7,1.4-1.2,2.8-1.6,4.3c-0.4,1.6-0.8,3.2-0.9,4.8c-0.2,1.6-0.3,3.1-0.3,4.7
					c-0.1,1.4,0.2,2.7,0.9,3.9C926.1,719.5,927.3,720,928.5,719.8L928.5,719.8z"/>
			</g>
		</g>
		<g id="LEOS_TAMALES_TEXTO_VERTICAL">
			<path id="CAFE" class="st1" d="M940.4,548c-7.4-5.8-16.1-9.6-25.4-11c-6.7-1.1-13.5-1.3-20.3-0.7c-6.4,0.6-12.6,1.8-18.8,3.5
				c-3.5,1-7,2.3-10.3,3.7c-2.2-0.7-4.4-1.3-6.7-1.7c-6.5-1.1-13.1-1.4-19.7-0.8c-1.1,0.1-2.2,0.2-3.2,0.3
				c-3.5-8.3-9.6-15.2-17.4-19.6c-8.6-4.8-18.4-6.8-28.1-5.8c-5.3,0.5-10.5,1.6-15.5,3.3c-4.8,1.7-9.5,3.8-13.9,6.5l-4.5,2.8
				c-7.8,4.8-12.6,13.2-12.7,22.4c-4.9-0.6-9.9-0.7-14.8-0.2c-10.3,0.9-20.3,4-29.3,9c-0.2,0.1-0.5,0.2-0.7,0.3
				c-8.3-3.7-17.8-5.1-28.4-4.2c-6.9,0.6-13.7,2.2-20.1,4.8c-6.4-1.5-12.9-2-19.4-1.4c-0.9,0.1-1.7,0.2-2.7,0.3
				c-2.8-0.6-5.6-0.8-8.4-0.6c-1.1,0.1-2.1,0.3-3.2,0.5l-10.9,2.3l-5.9,1.2c-3.5-1.2-7.2-1.6-10.9-1.3c-1.1,0.1-2.1,0.3-3.2,0.5
				l-11.2,2.4l-13.8,2.9c-1.5-0.2-3.1-0.4-4.6-0.5c-0.6-3.7-1.6-7.3-2.9-10.7c-3.7-9.5-10.6-17.5-19.6-22.5l-4.8-2.7
				c-4.7-2.6-10.1-3.8-15.4-3.3c-6.4,0.5-12.3,3.3-16.8,7.9l-3.3,3.4c-0.6,0.1-1.1,0.2-1.7,0.2c-2.7,0.2-5.5,0.2-8.2-0.1
				c-5.1-0.5-10.5-1-16.2-1.4c-7.6-0.5-15.2-0.5-22.8,0.3c-14.2,1.2-26.5,5.3-36.8,12c-9.8,6.2-17.9,14.8-23.6,24.9
				c-3.1,5.6-5.5,11.5-7.1,17.7c-6-3.5-12.6-5.8-19.5-6.8c-3.5-0.6-7.1-0.9-10.7-1c-0.5-1.8-1.1-3.6-1.8-5.3
				c-4.3-10.5-12.9-18.6-23.6-22.2l-3.5-1.2c-8.1-2.7-17-1.5-24,3.3l-3,2.1l-31.7,22l-4.7,3.3c-2.7,1.9-5.1,4.3-7,7.1
				c-3.5-0.2-7.1-0.1-10.6,0.2c-10.5,0.8-20.8,3.7-30.2,8.5c-0.6,0.3-1.1,0.6-1.7,0.9c-3.5-1.5-7.1-2.5-10.8-3.2
				c-6.5-1.1-13.1-1.4-19.6-0.8c-1.3,0.1-2.6,0.2-3.9,0.4c-1.4-2.8-3.1-5.5-5.1-7.9c-6.8-8.6-16-15-26.4-18.3
				c-9-2.9-18.5-3.9-27.8-3c-14.1,1.1-27.8,5.4-40,12.8c-12.1,7.4-22,17.9-28.8,30.3c-6.5,11.6-10.5,25-12,40v0.2
				c-0.5,5.6-1.3,10.7-2.1,15.1c-0.1,0.5-0.2,1.1-0.4,1.6l-1.5,0.8c-14,7.5-23,21.7-23.9,37.5c-0.4,6.6,0.9,13.2,3.6,19.2
				c3.5,8.1,9.6,14.7,17.3,18.9l4.1,2.2c4.6,2.5,9.8,3.6,15,3.1c2.4-0.2,4.7-0.7,7-1.6c3.4,2.8,6.9,5.6,10.3,8.3
				c6.1,4.8,12.9,8.7,20.1,11.6c9.7,3.8,20.1,5.3,30.4,4.3c9.3-0.7,18.3-3.6,26.4-8.3c7.3-4.3,13.5-10.2,18.2-17.2
				c1.6-2.5,3.1-5.2,4.3-7.9c0.9-0.1,1.7-0.1,2.5-0.2c8.4-0.7,16.6-2.8,24.4-6.1c2.8-1.2,5.4-2.5,8-4c2.9,1.2,6,2.2,9.1,3
				c7.4,1.7,15,2.2,22.5,1.5c10.6-0.9,20.9-3.8,30.3-8.7c7-3.6,13.3-8.3,18.9-13.8c5.3,5.1,11.7,8.8,18.8,11
				c5.8,1.8,11.8,2.9,17.9,3.2c5,0.3,10.1,0.2,15.1-0.2h0.1h0.3h0.1c10.1-0.9,19.9-3.4,29.1-7.5c9.5-4.2,17.9-10.7,24.3-18.9
				c6.9-8.6,10.9-19.1,11.7-30.2v-0.1c0-0.2,0-0.4,0-0.5v-0.1c0.3-4.4,0-8.7-0.9-13c1.3-2.1,2.5-4.3,3.5-6.6
				c1.6,1.2,3.2,2.3,4.9,3.3c0.7,0.5,1.5,0.8,2.1,1.2c-4.6,5.3-6.8,12.3-6.3,19.3l0.4,4.8c0.5,7.7,3.4,15.1,8.1,21.2
				c4.8,6.1,11.1,10.7,18.4,13.4c8.1,3.1,16.8,4.2,25.5,3.4c11.2-1,21-4.3,29.1-9.8c4.2-2.9,7.9-6.3,11.2-10.2c2.2,2,4.5,3.7,7,5.2
				c9.4,5.7,20.4,8.1,32.7,7c5.9-0.5,11.7-1.7,17.2-3.8c4.6,1,9.4,1.3,14.1,1c2.5,0.5,5.1,0.7,7.6,0.4c0.9-0.1,1.7-0.2,2.6-0.4l11-2
				l13.6-2.6c3.7,1.4,7.7,1.9,11.7,1.6c0.9-0.1,1.7-0.2,2.6-0.4l11.2-2.1L646,696l4.7-0.8c1-0.2,2-0.4,3-0.8c6.4,2,13.2,2.6,19.9,2
				c6.6-0.6,13.1-2.3,19.2-5c6.5,1.7,13.2,2.2,19.9,1.6c5.9-0.5,11.7-1.7,17.2-3.8c5,1.1,10.2,1.4,15.3,0.9c5.5-0.5,10.9-1.8,16-3.8
				c0.4-0.1,0.6-0.3,1-0.4c5.6,1.3,11.3,1.8,17,1.2c5.6-0.5,11.2-1.8,16.5-3.8c2-0.8,3.9-1.6,5.8-2.6c8.2,2.3,16.7,3.1,25.2,2.3
				c8.4-0.7,16.6-2.7,24.4-6.1c0.8-0.4,1.5-0.6,2.2-1c5.1,1.4,10.4,2.3,15.7,2.6c5,0.3,10.1,0.2,15.1-0.2h0.1h0.4h0.1
				c10-0.9,19.8-3.4,29.1-7.5c9.5-4.2,17.9-10.7,24.3-18.9c6.9-8.6,10.9-19.1,11.7-30.2v-0.1c0-0.2,0-0.4,0-0.6V621
				c0.3-4.4,0-8.7-0.9-13c4.3-6.7,6.8-14.3,7.4-22.3v-0.1c0-0.2,0-0.4,0-0.6V585C957.3,570.8,951.4,557,940.4,548z"/>
			<g id="VERDE">
				<path class="st4" d="M930.8,559.8c-5.3-4.1-11.6-6.8-18.3-7.7c-5.5-0.9-11-1.1-16.6-0.6c-5.4,0.5-10.7,1.5-15.8,3
					c-4.9,1.4-9.6,3.3-14,5.8c-3.1-1.6-6.5-2.8-10-3.3c-5.2-0.9-10.4-1.1-15.6-0.6c-5.6,0.5-11.1,1.5-16.4,3.3
					c0.3-15.3-8.9-22.2-13-24.4c-5.9-3.2-12.7-4.6-19.3-3.9c-8,0.8-15.8,3.4-22.6,7.6l-4.5,2.8c-4.3,2.7-6.4,7.8-5.2,12.7l1.2,4.8
					c0,0.2,0,0.7,0,1.6c0,0.7-0.2,1.7-0.3,3.2l-14.4,3c-5.1-1-10.4-1.2-15.6-0.8c-8.2,0.7-16.1,3.2-23.3,7.1c-2.7,1.5-5.2,3.1-7.6,5
					c-0.8-0.6-1.6-1.2-2.4-1.7c-6.8-4.4-15.2-6.2-25.1-5.3c-6.8,0.6-13.3,2.4-19.4,5.4c-0.3,0.2-0.6,0.3-0.9,0.5
					c-6.1-2.3-12.7-3.2-19.2-2.5c-1.7,0.2-3.5,0.4-5.2,0.7c-1.8-0.8-3.8-1.2-5.8-1c-0.5,0-0.9,0.1-1.4,0.2l-10.9,2.3l-10.9,2.3
					c-2.2-1.6-5-2.3-7.7-2.1c-0.5,0-0.9,0.1-1.4,0.2l-11.2,2.4l-16.6,3.5c-5.1-1-10.4-1.2-15.6-0.8c-1.6,0.1-3.2,0.3-4.7,0.6
					c0.4-1.7,0.6-3.5,0.6-5.2c0.4-5.4-0.5-10.7-2.5-15.7c-2.4-6.3-7-11.5-12.8-14.8l-4.8-2.7c-2-1.1-4.4-1.6-6.7-1.5
					c-2.8,0.2-5.3,1.4-7.3,3.4l-3.9,3.9c-1,1.1-2.3,2-3.7,2.7c-2.2,0.8-4.6,1.3-6.9,1.5c-3.7,0.3-7.4,0.3-11.1,0
					c-4.9-0.5-10.3-0.9-15.8-1.4c-6.8-0.5-13.6-0.4-20.4,0.3c-11.6,1-21.7,4.2-29.8,9.6c-7.7,4.9-14.1,11.6-18.6,19.5
					c-4,6.9-6.4,14.6-7,22.6v0.1v0.2v0.1c-0.4,6.4,0.7,12.9,3.3,18.8c2.8,6.8,7.8,12.4,14.1,16.1c4.5,2.6,9.6,4.2,14.8,4.7l-2.3,9.6
					v0.1c0,0.1-0.1,0.2,0,0.2v0.1c-0.6,2.8-1.1,4.8-1.4,6l-1.5,0.8c-4.1,2.1-6.6,6.5-6.2,11.2l0.4,4.8c0.7,9.8,7,17.8,16.7,21.6
					c5.9,2.2,12.3,3.1,18.6,2.5c8.6-0.8,16-3.2,21.9-7.2c6-4.1,10.8-9.8,13.9-16.4c2-4.1,3.6-8.3,4.8-12.7c0.4,1.9,0.9,3.7,1.5,5.5
					c2.6,7.6,7.7,14,14.5,18.2c6.5,4,14.4,5.7,23.4,4.9c6.1-0.5,12.1-2.1,17.6-4.7c4.8,1.7,9.9,2.3,14.9,1.8l1.4-0.1
					c1.6,0.6,3.3,0.8,5,0.7c0.4,0,0.8-0.1,1.2-0.2l11-2.1L597,686c2.3,1.8,5.2,2.6,8.1,2.3c0.4,0,0.8-0.1,1.2-0.2l11.2-2.1l26.1-4.9
					l4.7-0.8c1.9-0.4,3.7-1.2,5.2-2.4c6,2.9,12.6,4.1,19.2,3.4c6.3-0.6,12.4-2.5,17.9-5.6c0.5-0.2,0.9-0.5,1.4-0.8
					c6.2,2.7,13,3.7,19.7,2.9c6.1-0.5,12.1-2.1,17.6-4.7c4.8,1.7,9.9,2.4,14.9,1.9c4.1-0.4,8.1-1.3,11.9-2.9
					c1.8-0.7,3.6-1.6,5.4-2.5c5.3,2.1,11.1,3,16.8,2.4c4.2-0.4,8.3-1.3,12.3-2.9c3.5-1.3,6.7-3.1,9.7-5.4c0.9,0.4,1.9,0.8,2.8,1.2
					c7.2,2.7,14.9,3.6,22.6,2.8c6.8-0.6,13.5-2.2,19.7-4.9c2.4-1,4.8-2.2,7-3.6c1.2,0.5,2.5,1,3.8,1.4c4.6,1.5,9.3,2.3,14,2.5
					c4.3,0.2,8.6,0.1,12.9-0.3h0.3c8.4-0.7,16.5-2.8,24.2-6.2c7.3-3.2,13.7-8.1,18.7-14.4c5-6.3,8-13.9,8.6-21.9v-0.1v-0.2v-0.1
					c0.3-5.3-0.5-10.6-2.5-15.5c5.4-5.4,8.6-12.6,9.1-20.2v-0.1c0-0.1,0-0.1,0-0.2V584C941.7,574.2,938,565.6,930.8,559.8z"/>
				<path class="st4" d="M355.5,600.8c-5.5-0.9-11.1-1.1-16.6-0.6c-1.9,0.2-3.7,0.4-5.5,0.7c0.1-0.8,0.1-1.5,0.2-2.3
					c0.3-4.6-0.5-9.1-2.3-13.3c-2.7-6.5-8-11.5-14.6-13.7l-3.5-1.2c-1.5-0.5-3.2-0.7-4.8-0.6c-2,0.2-3.9,0.9-5.6,2l-3,2.1
					l-31.7,21.9l-4.7,3.3c-3.8,2.6-5.7,7.2-4.8,11.8l-2.4-0.7c-5.8-1.4-11.9-1.8-17.8-1.2c-8.6,0.7-16.9,3-24.6,6.9
					c-2.8,1.5-5.6,3.2-8.2,5c-4.1-3-8.9-5-13.9-5.8c-5.2-0.9-10.4-1.1-15.6-0.6c-5.2,0.4-10.4,1.5-15.4,3
					c-0.9-5.9-3.2-11.5-6.9-16.3c-4.9-6.2-11.6-10.8-19.1-13.1c-7-2.2-14.4-3-21.7-2.2c-12.6,1.1-23.8,4.6-33.4,10.6
					c-9.9,6-18,14.5-23.5,24.7c-5.4,9.7-8.8,21.2-10.1,34.1v0.1c-0.6,6.1-1.4,11.7-2.3,16.6c-0.6,3.4-1.6,6.8-3.1,10
					c-2.2,0.7-4.4,1.6-6.4,2.7c-9.3,4.9-15.3,14.3-15.9,24.8c-0.2,4.2,0.6,8.4,2.3,12.3c2.1,5,5.9,9.1,10.7,11.6l4,2.2
					c3.9,2.1,8.8,1.8,12.4-0.9l2.3-1.7c0.7-0.1,1.4,0,2.1,0.3c2.5,1.2,4.8,2.8,6.9,4.6c3.6,3,7.3,6,11,8.9c5,3.9,10.5,7.1,16.4,9.5
					c7.4,2.9,15.4,4,23.4,3.2c7-0.5,13.7-2.6,19.8-6.2c5.3-3.1,9.9-7.4,13.3-12.6c3.1-4.5,5-9.7,5.7-15.1c4.2,0.6,8.4,0.6,12.6,0.3
					c6.8-0.6,13.5-2.2,19.7-4.9c4.7-2,9.1-4.6,13-7.9c4.1,2.9,8.8,4.9,13.7,6.1c5.8,1.3,11.7,1.7,17.6,1.2
					c16.9-1.3,32.6-9.3,43.6-22.2c3.5-4.1,6.4-8.6,8.9-13.4c0.6,5.7,3,11.1,6.8,15.4c4,4.4,9.1,7.6,14.7,9.3
					c4.6,1.4,9.3,2.3,14.1,2.5c4.3,0.2,8.6,0.1,12.9-0.3h0.1h0.1h0.1c9.2-1,17.4-3,24.2-6.2c7.3-3.2,13.7-8.1,18.7-14.4
					c5-6.3,8-13.9,8.6-21.9V669v-0.2v-0.1c0.3-5.3-0.5-10.6-2.5-15.5c5.4-5.4,8.6-12.6,9.1-20.2v0c0-0.1,0-0.2,0-0.3v-0.1
					c0.5-9.8-3.1-18.4-10.3-24.1C368.5,604.5,362.2,601.8,355.5,600.8z"/>
			</g>
			<g id="ROJO">
				<path class="st5" d="M265,627.5c-3.3-2.9-7.3-5-11.6-6c-4.6-1.1-9.3-1.4-14-0.9c-7.1,0.5-13.9,2.5-20.3,5.6
					c-5.5,2.8-10.4,6.6-14.6,11.1c-0.7-1.6-1.6-3-2.8-4.3c-3.2-3.5-7.4-5.8-12.1-6.5c-4.2-0.7-8.4-0.8-12.6-0.4
					c-7.7,0.6-15.2,2.7-22.1,6.3c-3.1,1.7-6.1,3.7-8.8,5.9c0.1-0.1,0.1-0.2,0.2-0.3c1.8-3.8,2.8-7.9,3.1-12.1
					c0.3-6.9-1.3-12.8-4.9-17.4c-3.5-4.4-8.3-7.6-13.6-9.3c-5.5-1.8-11.4-2.4-17.2-1.8c-10,0.7-19.7,3.7-28.3,8.9
					c-8.2,5-14.9,12.1-19.5,20.5c-4.7,8.3-7.6,18.3-8.8,29.6c-0.5,6-1.4,11.9-2.5,17.8c-0.8,4.5-2.2,8.8-4,13c-0.8,1.8-1.8,3.5-3,5
					c-2.9,0.4-5.7,1.4-8.2,2.8c-3.1,1.6-5.7,4.1-7.5,7.1c-1.4,2.5-2.3,5.4-2.5,8.3c-0.1,2.4,0.4,4.8,1.4,6.9c1.1,2.6,3,4.7,5.5,6.1
					l4,2.2l3.7-2.7c0.4-0.3,0.8-0.5,1.3-0.6c0.9-0.3,1.8-0.4,2.7-0.5c2.9-0.3,5.9,0.2,8.6,1.4c3.3,1.6,6.4,3.7,9.3,6.1
					c3.5,2.9,7.1,5.8,10.8,8.7c4.2,3.2,8.8,5.9,13.7,7.9c5.7,2.2,11.9,3.1,18,2.4c5.2-0.4,10.3-1.9,14.8-4.6
					c3.9-2.3,7.2-5.4,9.7-9.1c2.3-3.4,3.7-7.3,4-11.4c0.2-3.5-0.4-6.9-2-10c-1.8-3.5-4.7-6.2-8.3-7.7l-3.4-1.5l-3.2,1.9
					c-1.4,0.8-2.9,1.5-4.5,1.8c-1.6,0.4-3.2,0.7-4.9,0.9c-3,0.2-6-0.2-8.8-1c-4-1.1-7.9-2.4-11.7-4c-3.1-1.3-6.1-2.6-9.2-3.9
					c0.1-0.2,0.3-0.3,0.5-0.4c5.5-5.2,9.9-11.5,13-18.4c3.1-7,5.2-14.4,6.2-22c0.8-5.5,1.5-10.9,2.1-16c0.5-4.2,1.2-8.4,2.3-12.4
					c0.5-2.4,1.5-4.7,3-6.8c0.5-0.6,1.3-1.1,2.1-1.2c0.2,0.4,0.6,1.8,0.4,5.2c-0.2,2.8-0.6,5.5-1.2,8.3c-0.8,3.3-1.6,4.4-1.8,4.8
					l-3.7,4.8l4,4.5c2,2.1,4.6,3.5,7.4,4.2c2.7,0.7,5.5,0.9,8.3,0.6c4.3-0.3,8.4-1.7,12-4c-2.5,3.8-4.5,7.9-6,12.2
					c-2.1,6.1-3.4,12.4-3.7,18.8c-0.4,7.8,0.8,14.3,3.7,19.3c2.9,5.2,7.5,9.2,13.1,11.3c5.6,2,11.5,2.8,17.4,2.1
					c5.6-0.5,11-1.8,16.2-4c5-2.1,9.5-5.2,13.3-9.1c1.5-1.6,2.9-3.4,3.9-5.4c1.4,2.3,3,4.3,5,6.1c3.4,2.9,7.4,5,11.8,6
					c4.6,1,9.3,1.3,13.9,0.9c7-0.5,13.9-2.5,20.2-5.8c6-3.1,11.3-7.3,15.6-12.5c4.3-5.1,7.8-11,10.1-17.3c2.5-6.6,3.9-13.4,4.2-20.4
					c0.4-4.9-0.2-9.9-1.9-14.5C270.7,634.2,268.3,630.5,265,627.5z"/>
				<path class="st5" d="M299.4,620L299.4,620c3.2-0.9,6.3-2.1,9.4-3.5c3.4-1.5,6.5-3.8,8.9-6.7c2.8-3.3,4.3-7.4,4.4-11.7
					c0.2-2.8-0.3-5.7-1.4-8.3c-1.4-3.4-4.2-6.1-7.7-7.3l-3.5-1.2l-3,2.1l-31.8,21.9l-4.7,3.3l2.1,5.3l2.4,6l2.4,6l6.3-1.7L299.4,620
					z"/>
				<path class="st5" d="M366.5,617.6c-3.8-2.9-8.2-4.7-12.9-5.4c-4.5-0.7-9.2-0.9-13.7-0.5c-4.6,0.4-9.1,1.3-13.5,2.6
					c-4.5,1.3-8.8,3.1-12.8,5.5c-4,2.3-7.5,5.4-10.3,9.1c-2.9,3.9-4.7,8.5-5,13.3v0.1c-0.3,3.9,0.4,7.8,2.1,11.4
					c1.3,2.8,3.1,5.3,5.2,7.5c-1.8,0.4-3.5,1-5.2,1.8c-3.2,1.5-6,3.8-8,6.7c-2,3-3.2,6.5-3.5,10.1v0.2v0.1c-0.3,4.4,1.1,8.7,4,12
					c2.6,2.8,6,4.9,9.6,6.1c3.6,1.1,7.3,1.8,11.1,1.9c3.8,0.2,7.6,0.1,11.3-0.2h0.1c7.1-0.6,14-2.3,20.5-5.2
					c5.6-2.4,10.5-6.1,14.4-10.9c3.6-4.5,5.7-9.9,6.1-15.6v-0.2c0.3-4.3-0.6-8.6-2.6-12.4c-1.2-2.2-2.8-4.1-4.6-5.9
					c2.5-0.9,4.8-2.1,6.9-3.8c4.1-3.4,6.6-8.5,6.9-13.8v-0.2C372.9,624.4,369.5,620,366.5,617.6z"/>
				<path class="st5" d="M518.4,599.4c3.7-2.8,6.8-6.4,8.8-10.5c1.9-3.7,3-7.8,3.3-12c0.2-3.7-0.4-7.4-1.7-10.9
					c-1.4-3.8-4.2-7-7.7-8.9l-4.8-2.7l-3.9,3.9c-2.2,2.3-4.9,4.1-7.8,5.3c-3.3,1.2-6.7,2-10.1,2.3c-4.4,0.4-8.9,0.3-13.3-0.1
					c-4.8-0.5-10-0.9-15.5-1.3c-6.2-0.4-12.4-0.3-18.5,0.2c-9.7,0.8-18,3.5-24.5,7.8c-6.1,3.9-11.2,9.1-14.8,15.4
					c-3.1,5.5-5,11.5-5.6,17.8v0.1c-0.3,4.6,0.5,9.3,2.3,13.6c1.9,4.5,5.2,8.3,9.4,10.8c4.3,2.5,9.6,3.6,15.8,3.1
					c2.7-0.3,5.3-1,7.8-2.1c0.1-0.1,0.3-0.1,0.4-0.2l-6.2,26.2v0.2c-0.7,3.4-1.4,6.2-2,8.2c-0.3,1.2-0.8,2.3-1.5,3.3
					c-0.4,0.4-0.8,0.7-1.2,1l-4.2,2.2l0.3,4.8c0.2,3,1.7,8.7,9.4,11.6c4.3,1.6,8.9,2.2,13.5,1.7c6.6-0.6,12-2.4,16.3-5.3
					c4.3-3,7.8-7.1,10.1-11.9c2.4-5,4.2-10.3,5.3-15.8l12.2-52.8c4.5,0.7,9.1,0.9,13.7,0.5C509.4,604.2,514.4,602.4,518.4,599.4z"/>
				<path class="st5" d="M923.5,568.9c-3.8-2.8-8.2-4.7-12.8-5.3c-4.5-0.7-9.2-0.9-13.7-0.5c-4.6,0.4-9.1,1.3-13.5,2.6
					c-4.5,1.3-8.8,3.1-12.8,5.5c-1.7,1-3.3,2.1-4.8,3.3c-3.1-3.3-7.2-5.4-11.7-6.1c-4.2-0.7-8.4-0.8-12.6-0.4
					c-7.7,0.5-15.2,2.7-22.1,6.3c-4,2.1-7.7,4.8-11,7.9c0.2-0.6,0.3-1.2,0.4-1.8c0.7-2.9,1.3-5.7,1.8-8.2s0.9-4.7,1.2-6.4
					c0.3-2.1,0.5-3.8,0.7-5.1c0.5-9.4-4.2-13.5-7-15c-3.9-2.1-8.3-3-12.7-2.5c-3.1,0.3-6.2,1-9.2,2c-2.9,1-5.7,2.3-8.3,3.9l-4.5,2.8
					l1.3,5.1c0.1,0.5,0.2,1.1,0.2,1.7c0.1,1,0.1,2,0,3c-0.2,2.6-0.5,5.2-1,7.7c-0.2,1.3-0.5,2.9-0.9,4.6l-5.4,1l-18.9,4
					c-11.3-2.6-23.1-1-33.2,4.7c-5.7,3.2-10.7,7.3-14.9,12.2c-1.1-3.9-3.6-7.2-6.9-9.4c-4.6-2.9-10.6-4.1-17.8-3.5
					c-5.3,0.5-10.5,1.9-15.3,4.3c-2,1-3.9,2.2-5.7,3.6c-1.3-1-2.7-1.9-4.2-2.5c-4.6-1.8-9.5-2.4-14.4-1.9c-4,0.4-8,1.3-11.7,2.7
					l0.6-3l-10.9,2.3l-20.9,4.4l1-4l-11.2,2.4l-19,4c-11.3-2.6-23.1-1-33.2,4.7c-5.8,3.2-11,7.4-15.3,12.5
					c-4.4,5.2-8,11.2-10.5,17.5c-2.7,6.7-4.2,13.8-4.5,21c-0.4,5.5,0.3,11,2,16.3c1.7,5.1,5.1,9.4,9.6,12.2
					c4.4,2.7,9.9,3.8,16.3,3.2c4.8-0.4,9.6-1.7,13.9-3.8c1.5-0.7,2.9-1.6,4.3-2.5c0.9,0.7,1.9,1.2,3,1.6c3.6,1.5,7.5,2.1,11.4,1.7
					c2.4-0.2,4.7-0.7,6.9-1.5l-0.5,1.9l11-2l26.2-4.9l2.9-0.5l-1,4.1l11.2-2.1l26.1-4.9l4.7-0.8l1.1-4.5l2.4-10
					c0.4,4.6,2.8,8.8,6.5,11.6c4.1,3.1,9.3,4.4,15.5,3.8c4.7-0.4,9.2-1.9,13.3-4.2c2.3-1.3,4.4-3,6.2-4.9c1,0.9,2.1,1.7,3.3,2.5
					c4.4,2.7,9.9,3.8,16.3,3.2c4.8-0.4,9.6-1.7,13.9-3.8c1.5-0.7,2.9-1.6,4.3-2.5c0.9,0.7,1.9,1.2,3,1.6c3.6,1.5,7.5,2.1,11.4,1.7
					c3-0.3,6-1,8.8-2.1c3.1-1.2,5.9-2.9,8.5-5c0.2-0.2,0.3-0.3,0.5-0.5c0.3,0.3,0.6,0.6,1,0.8c4.1,3.1,9.3,4.4,15.3,3.8
					c3.1-0.3,6.2-1,9.1-2.1c3.1-1.2,5.9-2.9,8.4-5c1.5-1.3,2.8-2.8,3.9-4.5c2.4,2.4,5.3,4.2,8.5,5.4c5.6,2,11.5,2.7,17.4,2.1
					c5.6-0.5,11-1.8,16.2-4c4-1.7,7.7-4,11-6.9c2.4,2,5.1,3.4,8,4.3c3.6,1.1,7.3,1.8,11.1,1.9c3.8,0.2,7.6,0.1,11.3-0.2h0.2
					c7.1-0.6,14-2.3,20.5-5.1c5.6-2.4,10.6-6.2,14.4-10.9c3.6-4.5,5.7-9.9,6.1-15.6v-0.2c0.3-4.3-0.6-8.6-2.6-12.4
					c-1.2-2.2-2.8-4.1-4.6-5.9c2.5-0.9,4.8-2.1,6.9-3.8c4.1-3.4,6.6-8.5,6.9-13.9v-0.1C930,575.7,926.5,571.3,923.5,568.9z"/>
			</g>
			<g id="BLANCO">
				<path class="st0" d="M514.1,593.6c2.8-2.1,5.1-4.7,6.7-7.9c1.5-2.8,2.3-6,2.5-9.2c0.2-2.7-0.3-5.3-1.2-7.8
					c-0.8-2.2-2.4-4.1-4.5-5.2c-2.9,3-6.5,5.4-10.4,7c-3.9,1.5-7.9,2.4-12.1,2.7c-4.8,0.4-9.7,0.4-14.6-0.1c-4.9-0.5-10-1-15.3-1.4
					c-5.8-0.4-11.6-0.3-17.4,0.2c-8.5,0.8-15.6,3-21.1,6.6c-5.2,3.2-9.5,7.6-12.5,12.9c-2.6,4.5-4.2,9.6-4.7,14.8
					c-0.2,3.5,0.4,7.1,1.7,10.3c1.3,3.1,3.6,5.7,6.5,7.4c3,1.8,6.8,2.5,11.4,2.1c1.9-0.2,3.8-0.8,5.6-1.6c2.2-0.9,4.1-2.3,5.6-4.1
					c-1.3-2.8-2.2-5.8-2.7-8.9c-0.4-2.8-0.6-5.6-0.4-8.3c0.3-6.3,2.1-11.2,5.4-14.6c3.2-3.4,7.6-5.5,12.2-5.8
					c1.7-0.2,3.3-0.2,4.9-0.2c1.8,0.1,3.7,0.4,5.4,1l0.2,1.5c0,0,0.1,0,0.1,0.1c-0.8,0.6-1.5,1.2-2.2,1.9
					c-6.2,5.6-10.5,13.4-12.7,23.3l-11.5,48.6c-0.8,3.6-1.5,6.5-2.1,8.7c-0.5,1.9-1.3,3.7-2.4,5.3c-1,1.4-2.3,2.6-3.9,3.3
					c0.2,2.4,1.8,4.2,4.8,5.3c3.3,1.2,6.8,1.6,10.2,1.2c5.4-0.5,9.6-1.8,12.8-4c3.3-2.3,6-5.5,7.7-9.1c2.1-4.5,3.7-9.3,4.8-14.2
					l13.9-60.1c0.8,0.3,1.7,0.6,2.6,0.9c5.1,1.5,10.5,2,15.8,1.4C507,597.3,510.9,595.9,514.1,593.6z"/>
				<path class="st0" d="M789.3,639.8c-0.9-1.3-1.3-2.9-1.2-4.5c0-0.5,0.1-1.2,0.2-1.8s0.3-1.9,0.8-3.6s1-4.2,1.8-7.6
					s1.9-7.8,3.3-13.3s3.2-12.7,5.3-21.3c0.9-3.2,1.6-6.3,2.3-9.1s1.3-5.5,1.7-7.9s0.8-4.5,1.2-6.3s0.5-3.2,0.6-4.3
					c0.2-4.3-0.9-7-3.4-8.4c-2.6-1.4-5.5-1.9-8.4-1.6c-5.1,0.5-10,2.1-14.4,4.8c0.3,1,0.4,2,0.4,3c0.1,1.3,0.1,2.5,0,3.8
					c-0.2,2.9-0.6,5.8-1.1,8.6c-0.6,3.4-1.5,7.6-2.8,12.7c-0.2,1.5-0.8,3.6-1.5,6.5s-1.7,6-2.6,9.8s-2,7.5-3.1,11.5s-2,7.9-2.9,11.8
					s-1.7,7.3-2.3,10.5c-0.5,2.6-0.9,5.2-1.1,7.8c-0.3,4.5,1,7.8,3.7,9.9s6.1,2.8,10.4,2.4c2.4-0.2,4.8-0.8,7.1-1.7
					c2.3-0.9,4.4-2.2,6.3-3.8c1.8-1.6,3.2-3.6,4-5.8C791.6,641.8,790.1,641.2,789.3,639.8z"/>
				<path class="st0" d="M909.6,570.7c-4-0.6-8-0.8-12-0.4c-4.1,0.4-8.2,1.1-12.2,2.3c-3.9,1.1-7.7,2.7-11.2,4.8
					c-3.2,1.8-6,4.3-8.3,7.2c-1.1,1.4-2,3-2.6,4.7c0.1-4.2-0.7-7.4-2.7-9.6c-2.1-2.3-4.9-3.8-7.9-4.3c-3.5-0.6-7.1-0.7-10.7-0.4
					c-6.7,0.5-13.3,2.3-19.3,5.4c-5.3,2.8-10,6.6-13.7,11.3c-3.7,4.5-6.5,9.6-8.4,15.1c-1.9,5.4-3,11.1-3.3,16.8
					c-0.3,6.4,0.6,11.5,2.8,15.3c2,3.7,5.4,6.6,9.4,8.1c4.5,1.6,9.3,2.2,14.1,1.7c4.8-0.4,9.6-1.6,14-3.5c4.1-1.7,7.8-4.2,10.8-7.3
					c2.7-2.8,4.3-6.4,4.5-10.2c0.1-1.2-0.1-2.5-0.5-3.6c-0.5-1-1.4-1.9-2.4-2.4c-2,2.9-4.7,5.3-7.9,6.8c-3.2,1.7-6.6,2.7-10.1,3.1
					c-3.9,0.3-6.6-0.4-8.1-2.2s-2.2-4.6-2-8.3c0-0.9,0.1-1.7,0.3-2.6c0.1-1,0.3-2,0.4-3l3.4-0.3c1.2-0.1,2.2-0.3,3.2-0.4
					c6.4-0.8,12.7-2.5,18.7-5.1c4.4-1.8,8.3-4.8,11.3-8.5c1.3-1.8,2.4-3.8,3.1-6c0,2.3,0.5,4.6,1.5,6.7c1.1,2.3,2.6,4.4,4.5,6.2
					c2,1.9,4.2,3.6,6.5,5c2.9,1.8,5.8,3.4,8.6,5c2.5,1.4,4.9,3,7,5c1.7,1.5,2.6,3.7,2.5,6c-0.1,1.9-1.1,3.8-2.5,5
					c-1.8,1.4-4,2.3-6.3,2.4c-2,0.3-4.1-0.3-5.7-1.6c-1.4-1.4-2.1-3.3-2-5.2c0.1-1.6,0.2-3.1,0.5-4.7c0.2-1.6,0.6-3.1,1.1-4.6
					c-1.4-0.8-2.9-1.2-4.5-1.3c-1.8-0.2-3.6-0.2-5.4-0.1c-2.6,0.2-5.1,0.9-7.5,2c-4.3,1.9-7.2,6.1-7.4,10.8
					c-0.2,2.5,0.5,4.9,2.1,6.8c1.7,1.9,4,3.3,6.5,4c3,1,6.1,1.5,9.2,1.6c3.4,0.2,6.9,0.1,10.3-0.2c6.3-0.5,12.5-2,18.2-4.6
					c4.6-2,8.6-5,11.8-8.8c2.7-3.3,4.3-7.4,4.6-11.7c0.2-2.9-0.3-5.8-1.7-8.4c-1.4-2.4-3.3-4.5-5.5-6.1c-2.5-1.9-5.1-3.5-7.9-5
					c-2.7-1.4-5.2-2.9-7.6-4.4c-2.2-1.3-4.1-2.9-5.7-4.8c-1.3-1.5-2-3.6-1.9-5.6c0.1-2,1-3.9,2.6-5.2c1.5-1.2,3.2-1.9,5.1-2.1
					c2.1-0.3,4.2,0.5,5.6,2.2c1.2,1.6,1.7,3.8,1.5,6.7c-0.2,1.3-0.4,2.6-0.8,3.8c-0.3,1.2-0.7,2.4-1.1,3.5c1.5,0.7,3.1,1.2,4.7,1.4
					c1.7,0.3,3.5,0.3,5.2,0.2c3.5-0.2,6.9-1.5,9.7-3.6c2.6-2.2,4.1-5.4,4.2-8.7c0.2-3.7-0.9-6.5-3.3-8.5
					C916.2,572.5,912.9,571.2,909.6,570.7z M843.6,588.8c-0.1,2.7-0.7,5.3-1.6,7.9c-0.9,2.3-2.2,4.5-3.9,6.3
					c-1.8,1.9-3.8,3.4-6.2,4.5c-2.6,1.3-5.3,2-8.2,2.2c0.8-4.2,1.8-8.3,3.1-12.3c1-3,2.2-5.8,3.8-8.5c1.1-1.9,2.5-3.6,4.2-5
					c1.2-1.1,2.7-1.7,4.3-1.9c1.8-0.2,3,0.4,3.6,1.6C843.4,585.3,843.7,587,843.6,588.8L843.6,588.8z"/>
				<path class="st0" d="M683.5,649.1c-0.9-1.5-1.3-3.3-1.1-5c0.1-2.2,0.5-4.3,1-6.4c0.6-2.5,1.3-5.3,2.2-8.3s1.7-6,2.5-9.1
					s1.6-6,2.3-8.9c0.6-2.5,1-5,1.2-7.6c0.3-5.6-1.2-9.4-4.4-11.5s-7.7-2.9-13.3-2.4c-4.4,0.4-8.7,1.6-12.7,3.5
					c-4,2-7.4,5.1-9.8,8.9c-1-3.8-3-6.4-6.1-7.7c-3.5-1.3-7.3-1.8-11-1.4c-4.8,0.4-9.5,1.8-13.7,4.2c-4.4,2.5-7.9,6.3-10.1,10.8
					l2.7-13l-21.3,4.5l-17.2,71l26.1-4.9l9.8-40.7c0.4-1.7,1-3.7,1.7-6c0.7-2.3,1.5-4.5,2.5-6.7c0.9-2,2.2-3.9,3.7-5.5
					c1.2-1.4,3-2.3,4.9-2.5c1.9-0.2,3.1,0.4,3.6,1.7c0.5,1.3,0.7,2.7,0.7,4.2c-0.1,1.6-0.3,3.3-0.7,4.9c-0.4,2-0.8,4.1-1.3,6.3
					s-0.9,4.2-1.4,6.1s-0.9,3.4-1.2,4.4l-9.1,35.4l26.2-4.9l9.8-40.7c0.5-1.5,0.9-3.4,1.6-5.7c0.6-2.3,1.4-4.5,2.4-6.7
					c0.9-2.1,2.1-4,3.6-5.7c1.2-1.5,3-2.4,4.9-2.6c1.8-0.2,2.9,0.4,3.5,1.7c0.5,1.4,0.7,2.9,0.6,4.5c-0.2,2.5-0.5,5-1.2,7.5
					c-0.7,2.8-1.5,6-2.3,9.2s-1.8,6.6-2.7,9.8s-1.7,6.3-2.3,9.2c-0.6,2.3-1,4.7-1.1,7.2c-0.3,4.5,1,7.8,3.7,9.9s6.2,2.8,10.5,2.4
					c3.7-0.4,7.2-1.5,10.4-3.2c3.2-1.7,5.7-4.6,6.9-8C685.8,651,684.3,650.3,683.5,649.1z"/>
				<path class="st0" d="M754.8,642.9c-0.9-1.3-1.3-2.9-1.2-4.5c0.1-0.9,0.2-1.8,0.4-2.9s0.4-1.9,0.5-2.7l12-51L746,586
					c-10-2.8-20.6-1.5-29.6,3.6c-5,2.8-9.5,6.5-13.2,10.9c-3.9,4.6-7.1,9.9-9.3,15.5c-2.4,6-3.7,12.3-4,18.7
					c-0.3,4.6,0.2,9.1,1.5,13.5c1.1,3.5,3.4,6.5,6.6,8.4c3.1,1.8,7,2.6,11.8,2.2c3.9-0.3,7.8-1.3,11.4-3c3.2-1.5,6.1-3.6,8.6-6.2
					c0.7,2.4,2.5,4.3,4.8,5.2c2.5,1,5.2,1.4,7.8,1.1c2.3-0.2,4.6-0.8,6.8-1.6c2.3-0.9,4.4-2.2,6.3-3.8c1.8-1.6,3.2-3.6,4-5.8
					C757.2,644.8,755.7,644.2,754.8,642.9z M730.2,632.3c-0.5,2.5-1.2,5-2.1,7.4c-0.9,2.5-2.2,4.8-3.8,6.8c-1.4,1.8-3.5,3-5.8,3.2
					c-2.2,0.2-3.6-0.7-4.1-2.7c-0.5-2.1-0.7-4.3-0.6-6.4c0.2-3.1,0.5-6.7,1-10.7s1.3-8.2,2.2-12.4c0.9-4.1,2.1-8,3.6-11.9
					c1.2-3.2,2.9-6.3,5-9c1.6-2.1,3.9-3.5,6.5-3.8c1.1-0.1,2.1,0,3.2,0.3c1.2,0.3,2.3,0.8,3.3,1.5L730.2,632.3z"/>
				<path class="st0" d="M570.2,658.6c-0.7-1.2-1-2.7-0.9-4.1c0.1-0.9,0.2-1.8,0.4-3s0.4-1.9,0.5-2.7l12-51l-20.5,4.3
					c-10-2.7-20.6-1.4-29.6,3.7c-5,2.8-9.5,6.5-13.3,10.9c-3.9,4.6-7,9.9-9.3,15.5c-2.4,6-3.7,12.3-4,18.7
					c-0.3,4.5,0.2,9.1,1.5,13.5c1.1,3.5,3.4,6.5,6.6,8.4c3.1,1.8,7,2.6,11.8,2.2c3.9-0.3,7.8-1.3,11.4-3c3.2-1.5,6.1-3.6,8.6-6.2
					c0.7,2.4,2.5,4.3,4.8,5.2c2.5,1,5.2,1.4,7.8,1.1c2.3-0.2,4.6-0.8,6.8-1.6c1-0.4,2-0.9,2.9-1.4c0.6-0.2,6.3-4.8,8-9.2
					C572,661,571.2,659.7,570.2,658.6z M545.8,648.4c-0.5,2.5-1.2,5-2.1,7.4c-0.9,2.5-2.2,4.8-3.8,6.8c-1.4,1.8-3.5,3-5.8,3.2
					c-2.2,0.2-3.6-0.7-4.1-2.7c-0.5-2.1-0.7-4.3-0.6-6.4c0.2-3.1,0.5-6.7,1-10.7s1.3-8.2,2.2-12.4c0.9-4.1,2.1-8,3.6-11.9
					c1.2-3.2,2.9-6.3,5-9c1.6-2.1,3.9-3.5,6.5-3.8c1.1-0.1,2.1,0,3.2,0.3c1.2,0.3,2.3,0.8,3.3,1.5L545.8,648.4z"/>
				<path class="st0" d="M312,605.2c1.7-2.1,2.7-4.7,2.7-7.4c0.1-1.7-0.1-3.5-0.8-5.1c-0.6-1.5-1.9-2.7-3.4-3.2l-31.7,21.9l2.4,6
					l16.1-4.4c2.8-0.8,5.6-1.8,8.3-3.1C308.1,608.8,310.3,607.2,312,605.2z"/>
				<path class="st0" d="M139.8,634.8c1.4-3,2.2-6.2,2.4-9.5c0.3-5.2-0.8-9.4-3.4-12.6c-2.6-3.3-6.1-5.7-10.1-6.9
					c-4.6-1.4-9.5-1.9-14.3-1.5c-8.9,0.6-17.5,3.3-25.2,7.8c-7.1,4.4-12.9,10.5-16.9,17.9c-4.2,7.5-6.8,16.5-7.9,26.8
					c-0.5,6.2-1.4,12.3-2.6,18.4c-0.9,5-2.4,9.9-4.5,14.5c-1.4,3.2-3.4,6.2-5.8,8.8c-3,0.1-5.8,0.9-8.5,2.3c-1.9,1-3.5,2.5-4.7,4.3
					c-0.9,1.5-1.4,3.3-1.5,5.1c-0.1,1.3,0.2,2.5,0.7,3.7c0.4,1.1,1.2,2,2.2,2.6c1-0.7,2.1-1.3,3.3-1.7c1.4-0.4,2.9-0.7,4.4-0.8
					c4.2-0.4,8.5,0.3,12.4,2.1c3.9,1.9,7.5,4.3,10.7,7.1c3.4,2.9,7,5.7,10.6,8.6c3.6,2.8,7.6,5.1,11.9,6.9c4.7,1.8,9.7,2.5,14.7,1.9
					c4.1-0.3,8.1-1.4,11.6-3.5c2.9-1.7,5.5-4.1,7.4-6.9c1.6-2.3,2.6-5,2.8-7.8c0.1-2.2-0.3-4.4-1.3-6.4c-1.1-2-2.8-3.5-4.8-4.4
					c-2,1.1-4.1,2-6.3,2.6c-2,0.5-4,0.8-6.1,1c-3.8,0.3-7.6-0.1-11.3-1.1c-4.3-1.2-8.6-2.6-12.7-4.3l-12.9-5.5
					c-3-1.3-5.8-2.3-8.6-3.3c3.9-2,7.5-4.5,10.6-7.5c4.8-4.6,8.7-10.1,11.3-16.1c2.8-6.4,4.7-13.1,5.6-20.1
					c0.8-5.5,1.5-10.8,2.1-15.8c0.5-4.5,1.3-9,2.5-13.5c0.8-3.4,2.3-6.6,4.4-9.4c1.9-2.3,4.7-3.8,7.7-4c2.2-0.2,4.4,0.9,5.7,2.7
					c1.6,2,2.3,5.4,2.1,10.2c-0.2,3.3-0.7,6.5-1.5,9.7c-0.5,2.7-1.6,5.3-3.2,7.5c1,1,2.4,1.7,3.8,1.9c1.9,0.5,3.9,0.6,5.9,0.4
					c3.8-0.2,7.5-1.6,10.5-4C136,640.9,138.3,638.1,139.8,634.8z"/>
				<path class="st0" d="M194.8,659.4c2.5-3.3,4-7.3,4.2-11.4c0.3-4.5-0.7-7.8-2.6-10c-2.1-2.3-4.9-3.8-8-4.3
					c-3.5-0.6-7.1-0.7-10.7-0.4c-6.7,0.5-13.3,2.3-19.3,5.4c-5.3,2.8-9.9,6.6-13.7,11.2c-3.7,4.5-6.5,9.6-8.4,15.1
					c-1.9,5.4-3,11.1-3.4,16.8c-0.3,6.4,0.6,11.5,2.8,15.3c2,3.7,5.4,6.6,9.4,8.1c4.5,1.6,9.4,2.2,14.1,1.7c4.8-0.4,9.6-1.6,14-3.5
					c4.1-1.7,7.8-4.2,10.8-7.3c2.7-2.7,4.3-6.4,4.6-10.2c0.1-1.2-0.1-2.5-0.5-3.6c-0.5-1-1.4-1.9-2.4-2.4c-2,2.9-4.7,5.3-7.9,6.8
					c-3.2,1.7-6.6,2.7-10.2,3.1c-3.9,0.3-6.6-0.4-8.1-2.2s-2.1-4.6-2-8.3c0-0.7,0.2-1.5,0.3-2.6s0.3-2,0.4-3l3.4-0.3
					c1.2-0.1,2.2-0.3,3.2-0.4c6.4-0.8,12.7-2.5,18.7-5.1C187.9,666.1,191.8,663.2,194.8,659.4z M179,646.9c-0.1,2.7-0.7,5.4-1.6,7.9
					c-0.9,2.4-2.3,4.5-3.9,6.4c-1.8,1.9-3.8,3.4-6.2,4.5c-2.5,1.3-5.3,2.1-8.1,2.3c0.8-4.2,1.8-8.3,3.1-12.3c1-3,2.2-5.8,3.8-8.5
					c1.1-1.9,2.5-3.6,4.1-5c1.2-1.1,2.7-1.7,4.3-1.9c1.8-0.2,3,0.4,3.6,1.6C178.8,643.5,179.1,645.2,179,646.9z"/>
				<path class="st0" d="M260.1,632.8c-2.4-2.1-5.4-3.6-8.5-4.3c-3.8-0.9-7.7-1.1-11.6-0.7c-6.1,0.5-12.1,2.1-17.6,4.9
					c-5.1,2.6-9.7,6.2-13.4,10.6c-3.8,4.4-6.8,9.5-8.8,15c-2.2,5.8-3.5,12-3.7,18.2c-0.3,4,0.1,8,1.3,11.8c1,3.1,2.8,5.9,5.2,8.1
					c2.5,2.1,5.5,3.6,8.7,4.3c3.8,0.9,7.7,1.1,11.6,0.7c6.1-0.5,12-2.2,17.4-5c5.1-2.7,9.7-6.3,13.4-10.7c3.8-4.5,6.8-9.6,8.9-15.1
					c2.2-5.8,3.5-12,3.7-18.2c0.3-3.9-0.2-7.9-1.4-11.7C264.2,637.7,262.5,635,260.1,632.8z M242.9,644.1c-0.2,3.4-0.5,7.3-1.1,11.6
					s-1.4,8.6-2.4,13c-0.9,4.1-2.1,8.1-3.5,12c-1.1,3.2-2.6,6.3-4.6,9c-1.8,2.3-3.7,3.6-5.8,3.8c-2.2,0.2-3.8-0.5-4.5-2
					c-0.8-1.9-1.1-4-0.9-6.1c0.2-3.6,0.6-7.5,1.1-11.8s1.3-8.6,2.2-12.9c0.8-4,2-8,3.5-11.9c1.1-3.2,2.7-6.1,4.7-8.9
					c1.7-2.3,3.6-3.5,5.8-3.7s3.8,0.5,4.5,2C242.8,640,243.1,642.1,242.9,644.1z"/>
				<path class="st0" d="M352.5,619.5c-4-0.6-8-0.8-12-0.4c-4.1,0.4-8.2,1.1-12.2,2.3c-3.9,1.1-7.7,2.7-11.2,4.8
					c-3.2,1.8-6,4.3-8.3,7.2c-2.1,2.7-3.4,6-3.6,9.5c-0.2,2.7,0.3,5.5,1.4,8c1.1,2.3,2.6,4.4,4.5,6.2c2,1.9,4.2,3.6,6.5,5
					c2.9,1.8,5.8,3.4,8.6,5c2.5,1.4,4.9,3,7,5c1.7,1.5,2.6,3.7,2.5,6c-0.1,1.9-1.1,3.8-2.6,5c-1.8,1.4-4,2.3-6.3,2.4
					c-2,0.3-4.1-0.3-5.7-1.6c-1.4-1.4-2.1-3.3-2-5.2c0-1.6,0.2-3.1,0.5-4.7c0.2-1.6,0.6-3.1,1.1-4.6c-1.4-0.8-2.9-1.2-4.5-1.3
					c-1.8-0.2-3.6-0.2-5.4-0.1c-2.6,0.2-5.1,0.9-7.5,2c-4.3,1.9-7.2,6.1-7.4,10.8c-0.2,2.5,0.5,4.9,2.1,6.8c1.7,1.9,4,3.3,6.5,4
					c3,1,6.1,1.5,9.2,1.6c3.4,0.2,6.9,0.1,10.3-0.2c6.3-0.6,12.5-2.2,18.3-4.8c4.6-2,8.6-5,11.8-8.8c2.7-3.3,4.3-7.4,4.6-11.7
					c0.2-2.9-0.3-5.8-1.7-8.4c-1.4-2.4-3.3-4.5-5.5-6.1c-2.5-1.9-5.1-3.5-7.9-5c-2.7-1.4-5.2-2.9-7.6-4.4c-2.2-1.3-4.1-2.9-5.7-4.8
					c-1.4-1.5-2-3.6-1.9-5.6c0.1-2,1-3.9,2.6-5.2c1.5-1.2,3.2-1.9,5.1-2.1c2.1-0.3,4.2,0.5,5.6,2.2c1.2,1.6,1.7,3.8,1.5,6.7
					c-0.2,1.3-0.4,2.6-0.8,3.8c-0.3,1.2-0.7,2.4-1.1,3.5c1.5,0.7,3.1,1.2,4.7,1.4c1.7,0.3,3.5,0.3,5.2,0.2c3.5-0.2,6.9-1.5,9.7-3.6
					c2.6-2.2,4.1-5.4,4.2-8.7c0.2-3.7-0.9-6.5-3.3-8.5C359.1,621.1,355.8,619.9,352.5,619.5z"/>
			</g>
		</g>
	</g>
</g>
</svg>
