<svg xmlns="http://www.w3.org/2000/svg" viewBox="0 0 499.43 239.03"><defs><style>.cls-1{fill:#fff;}.cls-2{fill:gray;}.cls-3{fill:none;}</style></defs><title>Recurso 3</title><g id="Capa_2" data-name="Capa 2"><g id="Capa_8_copia" data-name="Capa 8 copia"><ellipse class="cls-1" cx="251.24" cy="146.19" rx="219.53" ry="89.79"/><path class="cls-2" d="M251.24,239c-59,0-114.56-9.42-156.39-26.53-42.68-17.46-66.19-41-66.19-66.31S52.17,97.33,94.85,79.87c41.83-17.1,97.36-26.52,156.39-26.52S365.8,62.77,407.62,79.87c42.69,17.46,66.2,41,66.2,66.32S450.31,195,407.62,212.5C365.8,229.61,310.26,239,251.24,239Zm0-179.59c-58.25,0-113,9.26-154.08,26.08-19.8,8.1-35.3,17.49-46.08,27.91s-16.32,21.49-16.32,32.76S40.25,168.48,51.08,179s26.28,19.81,46.08,27.91c41.11,16.81,95.83,26.07,154.08,26.07s113-9.26,154.08-26.07c19.8-8.1,35.3-17.49,46.08-27.91s16.32-21.5,16.32-32.76-5.49-22.29-16.32-32.76-26.28-19.81-46.08-27.91C364.21,68.7,309.49,59.44,251.24,59.44Z"/><ellipse class="cls-1" cx="249.71" cy="117.99" rx="246.67" ry="100.92"/><path class="cls-2" d="M249.71,222c-66.27,0-128.62-10.58-175.57-29.79C26.33,172.61,0,146.26,0,118S26.33,63.36,74.14,43.8C121.09,24.59,183.44,14,249.71,14S378.34,24.59,425.29,43.8C473.1,63.36,499.43,89.71,499.43,118s-26.33,54.62-74.14,74.18C378.34,211.38,316,222,249.71,222Zm0-201.85c-65.5,0-127,10.42-173.26,29.33C54.16,58.57,36.7,69.15,24.55,80.89S6.1,105.22,6.1,118s6.21,25.24,18.45,37.09,29.61,22.33,51.9,31.45c46.23,18.91,107.76,29.33,173.26,29.33s127-10.42,173.27-29.33c22.29-9.12,39.75-19.71,51.9-31.45s18.45-24.33,18.45-37.09-6.21-25.25-18.45-37.1S445.27,58.57,423,49.44C376.75,30.53,315.21,20.11,249.71,20.11Z"/><path class="cls-3" d="M78.48,159.16c-18.84-10.58-29.7-23-29.7-36.3"/><path class="cls-2" d="M78.47,161.91a2.75,2.75,0,0,1-1.34-.36C56.79,150.13,46,136.75,46,122.86a2.75,2.75,0,0,1,5.49,0c0,11.79,9.78,23.52,28.29,33.91a2.75,2.75,0,0,1-1.35,5.14Z"/><path class="cls-3" d="M419.72,163c-36.91,18-97.93,29.7-167,29.7-40.74,0-78.7-4.09-110.56-11.14"/><path class="cls-2" d="M252.76,195.43c-39.59,0-78-3.87-111.15-11.2a2.75,2.75,0,0,1,1.19-5.36c32.74,7.24,70.77,11.07,110,11.07,65.94,0,127.9-11,165.76-29.42a2.75,2.75,0,1,1,2.4,4.94C382.35,184.22,319.49,195.43,252.76,195.43Z"/><path class="cls-3" d="M446.29,100.73c6.78,7,10.45,14.4,10.45,22.13,0,6.8-2.83,13.36-8.12,19.57"/><path class="cls-2" d="M448.62,145.17a2.75,2.75,0,0,1-2.26-1.19,2.84,2.84,0,0,1,.29-3.46c4.88-5.78,7.35-11.72,7.35-17.66,0-6.77-3.21-13.52-9.53-20.06a2.87,2.87,0,0,1-.19-3.93,2.73,2.73,0,0,1,4-.05c7.46,7.64,11.24,15.73,11.24,24,0,7.33-2.95,14.51-8.78,21.35A2.71,2.71,0,0,1,448.62,145.17Z"/><path class="cls-2" d="M258.42,10.7C242,22.89,159.15,47.24,148.65,50.94"/><path class="cls-2" d="M148.65,53.69a2.75,2.75,0,0,1-.91-5.34c2.08-.73,6.78-2.2,13.28-4.25,24.8-7.79,82.85-26,95.77-35.61a2.74,2.74,0,0,1,3.26,4.41C246.4,23,189.85,40.79,162.67,49.34c-6.46,2-11.12,3.49-13.1,4.19A2.66,2.66,0,0,1,148.65,53.69Z"/><path class="cls-2" d="M185.85,61.92C145.4,83.49,114.51,90,106,94.85"/><path class="cls-2" d="M106,97.59a2.74,2.74,0,0,1-1.36-5.12c3.08-1.77,8.53-3.61,16.06-6.15,14.8-5,37.16-12.57,63.89-26.82a2.74,2.74,0,1,1,2.58,4.84C160,78.81,137.4,86.46,122.43,91.52c-7,2.35-12.48,4.21-15.1,5.71A2.69,2.69,0,0,1,106,97.59Z"/><path class="cls-2" d="M258.42,24.72C245,40.58,213.16,50.83,202.93,55.21"/><path class="cls-2" d="M202.93,58a2.74,2.74,0,0,1-1.08-5.27c1.73-.74,4.05-1.64,6.73-2.68,12.93-5,37-14.35,47.74-27.06a2.74,2.74,0,0,1,4.19,3.54c-11.65,13.78-35.62,23.08-49.94,28.63-2.64,1-4.92,1.91-6.56,2.61A2.76,2.76,0,0,1,202.93,58Z"/><path class="cls-1" d="M98.35,59.79s48.17-18.91,65.24-26.23S239.21.63,251.41,0s40.85,10.37,52.44,12.81,31.69,2.48,43.91,7.32c8.12,3.22,16,8.2,22.25,17.38S382.21,58.26,380.38,79c-1.94,22-21.95,30.49-47,42.69s-119.21,58.24-119.21,58.24L209,177.78l.6-10.36c1.83-26.84-.79-45-4.26-50.62-1.83-7.32-22-19.51-40.25-27.44C139.4,78.22,123,72.9,103.53,66.8c-2.89-.9-5.14-7-5.18-7Z"/><path class="cls-2" d="M252.43,5.49c7.5,0,22,4.44,33.64,8,6.72,2.05,12.52,3.83,16.65,4.7,4.55,1,10.14,1.55,16,2.17,9.36,1,20,2.11,27,4.88,8.71,3.45,15,8.33,19.74,15.35,5.47,8.09,11.17,18.35,9.44,37.91-.71,8.09-4.26,14.32-11.52,20.2s-17,10.59-28.46,16.14l-3.91,1.9c-22.21,10.83-100,48.85-116.25,56.78l.34-5.77c1.65-24.21-.18-44.83-4.66-53.12-1-3.18-4.17-8.13-16-15.92a188.62,188.62,0,0,0-27.13-14.4A543.49,543.49,0,0,0,107.2,62.2c14-5.51,45.48-18,58.56-23.59l4.84-2.09c10.67-4.59,28.52-12.27,45.13-18.9,25.76-10.26,33.58-12,36-12.11.23,0,.49,0,.75,0h0m0-5.49-1,0c-12.2.61-70.74,26.23-87.82,33.54S98.35,59.79,98.35,59.79s2.29,6.11,5.18,7C123,72.9,139.4,78.22,165.12,89.36c18.29,7.93,38.42,20.12,40.25,27.44,3.47,5.64,6.09,23.78,4.26,50.62l-.6,10.36,5.18,2.14s94.21-46,119.21-58.24,45-20.74,47-42.69c1.83-20.73-4.22-32.39-10.37-41.46s-14.13-14.16-22.25-17.38c-12.22-4.84-32.32-4.88-43.91-7.32C292.58,10.46,265.13,0,252.43,0Z"/><path class="cls-1" d="M98.35,59.79s98.17,27.44,111.59,53.66c9.32,18.21,4.27,66.47,4.27,66.47s-90.86-34.76-108.55-61.59C95.65,103.14,98.35,59.79,98.35,59.79Z"/><path class="cls-2" d="M103.55,67c9,2.72,26.05,8.09,43.66,14.9,43.87,17,55.07,28.6,57.84,34,6,11.68,5.44,40,4.32,56.14-8.54-3.45-24.06-9.94-40.41-17.85-40.08-19.36-54.05-31.86-58.71-38.93-6.21-9.42-7-33.87-6.7-48.28m-5.2-7.24s-2.7,43.35,7.31,58.54c17.69,26.83,108.55,61.59,108.55,61.59s5-48.26-4.27-66.47C196.52,87.23,98.35,59.79,98.35,59.79Z"/><path class="cls-1" d="M135.85,77.77C126,77.43,119.23,85.92,123,94.24c3.89,8.48,18.91,8.54,18.91,8.54s-1.22,14.63,4.27,22c11.58,12.81,29.54,12,42.07,14.63,11.59,9.76,22,14.64,22,14,0-13.16-1.21-29.88-5.48-37.81S180.36,93,135.85,77.77Z"/><path class="cls-2" d="M135.27,77.76h.58c44.51,15.25,64.64,29.88,68.91,37.81s5.48,24.65,5.48,37.81c0,0,0,.05-.09.05-1.07,0-10.92-4.86-21.86-14.08-12.53-2.59-30.49-1.82-42.07-14.63-5.49-7.32-4.27-22-4.27-22s-15-.06-18.91-8.54c-3.73-8.16,2.68-16.48,12.23-16.48m0-5.48a19,19,0,0,0-16.2,8.39,16.29,16.29,0,0,0-1,15.85c3.52,7.69,12.37,10.35,18.29,11.27.13,5.67,1.11,14.4,5.48,20.23l.16.2.17.19c10.37,11.47,24.83,13.42,36.44,15,2.58.35,5,.68,7.27,1.09a117.4,117.4,0,0,0,14.25,10.09c7.3,4.36,9.15,4.36,10,4.36a5.57,5.57,0,0,0,5.58-5.54c0-10.83-.8-30.48-6.14-40.41-3.7-6.87-13.69-13.74-21.41-18.29-12.91-7.6-29.92-15-50.55-22.11l-.77-.26-.82,0Z"/><path class="cls-1" d="M152,59.79c-.31-1.87,21.17-13.57,45.12-26.84,23-12.76,45.13-27.44,57.94-27.44,14,0,35.85,9.8,46.65,12.5,14.63,3.66,44.82,2.75,57,14.33a45.15,45.15,0,0,1,7.93,11s-9.88-4.43-26.83-1.22c-22.56,4.27-51.23,12.81-78.67,23.17s-50,18.3-56.1,19.52C197.13,83,163.59,68.32,152,59.79Z"/><path class="cls-2" d="M255.07,5.51c14,0,35.85,9.8,46.65,12.5,14.63,3.66,44.82,2.75,57,14.33a45.15,45.15,0,0,1,7.93,11s-5.33-2.38-14.86-2.38a64.47,64.47,0,0,0-12,1.16c-22.56,4.27-51.23,12.81-78.67,23.17s-50,18.3-56.1,19.52c-7.93-1.83-41.47-16.47-53.05-25-.31-1.87,21.17-13.57,45.12-26.84,23-12.76,45.13-27.44,57.94-27.44m0-5.49c-11.61,0-27.75,9.31-46.45,20.09-4.61,2.65-9.38,5.4-14.15,8l-6.07,3.37c-10.59,5.85-20.59,11.39-27.77,15.59-3.91,2.3-6.77,4.07-8.75,5.43-2.52,1.72-6,4.08-5.29,8.15l.37,2.19,1.79,1.32c12.18,9,46.68,24,55.08,25.93l1.15.27,1.16-.23c9.18-1.84,45.92-15.59,57-19.76,27.65-10.45,56-18.8,77.75-22.92a59.07,59.07,0,0,1,10.95-1.07c7.75,0,12.28,1.77,12.64,1.92L378.65,55l-7.07-14.14a50.42,50.42,0,0,0-9.07-12.51C352.7,19.05,334.85,17,319.1,15.11a140.81,140.81,0,0,1-16.05-2.42c-3.18-.8-7.71-2.36-12.49-4C279.43,4.82,265.58,0,255.07,0Z"/><path class="cls-2" d="M361.48,47.28c4.87,1.83,7.92,2.44,11.58,8.54,1,1.66-2.13-8.84-2.13-8.84l-2.75-.92-6.4-1.52Z"/><path class="cls-2" d="M361.78,44.54l-.3,2.74c4.87,1.83,7.92,2.44,11.58,8.54.07.12.13.18.16.18.39,0-2.29-9-2.29-9l-2.75-.92-6.4-1.52Z"/><path class="cls-2" d="M209.94,36.61c19.82-13.72,49.7-31.4,61.28-30.79"/><path class="cls-2" d="M209.94,39.36a2.74,2.74,0,0,1-1.56-5c4.75-3.29,46.89-32.1,63-31.28a2.74,2.74,0,1,1-.29,5.48C261,8,233.13,23.9,211.5,38.87A2.72,2.72,0,0,1,209.94,39.36Z"/><path class="cls-2" d="M217.56,47.28c-11.39,5.41-45.6,15.81-56.71,18.3"/><path class="cls-2" d="M160.85,68.32a2.74,2.74,0,0,1-.6-5.42c10.68-2.39,44.8-12.71,56.13-18.09a2.74,2.74,0,1,1,2.36,4.95c-11.86,5.64-46.13,16-57.29,18.5A3.05,3.05,0,0,1,160.85,68.32Z"/><path class="cls-2" d="M283.42,8.87C265.13,25.33,245,32.65,237.08,36.92"/><path class="cls-2" d="M237.08,39.66a2.74,2.74,0,0,1-1.3-5.16c1.73-.93,4-2,6.61-3.22,10-4.66,25.05-11.72,39.2-24.45a2.73,2.73,0,0,1,3.87.2,2.76,2.76,0,0,1-.2,3.88c-14.76,13.28-30.9,20.83-40.54,25.34-2.55,1.2-4.75,2.22-6.34,3.08A2.67,2.67,0,0,1,237.08,39.66Z"/><path class="cls-2" d="M343.18,22.89c-32.32,3.66-51.78,17.14-72,21.74"/><path class="cls-2" d="M271.19,47.37a2.74,2.74,0,0,1-.61-5.42c7.48-1.7,15.05-4.73,23.07-7.94,13.51-5.41,28.83-11.54,49.22-13.84a2.74,2.74,0,1,1,.62,5.45c-19.66,2.22-34.61,8.21-47.8,13.49-8.22,3.29-16,6.4-23.89,8.19A2.6,2.6,0,0,1,271.19,47.37Z"/><path class="cls-2" d="M249.88,93c-13.41,4.88-27.13,8.86-35.67,13.74"/><path class="cls-2" d="M214.21,109.51a2.75,2.75,0,0,1-1.36-5.13c6.44-3.68,15.57-6.82,25.25-10.14,3.55-1.22,7.22-2.48,10.84-3.8a2.75,2.75,0,1,1,1.88,5.16c-3.67,1.33-7.37,2.6-10.94,3.83-9.42,3.23-18.32,6.29-24.31,9.71A2.7,2.7,0,0,1,214.21,109.51Z"/><path class="cls-2" d="M376.11,56.43c-27.44,1.22-82.32,20.73-92.82,24.44"/><path class="cls-2" d="M283.29,83.61a2.74,2.74,0,0,1-.91-5.33l.55-.19c42.95-15.17,75.13-23.6,93.06-24.4a2.74,2.74,0,1,1,.24,5.48c-17.14.76-49.63,9.32-91.47,24.09l-.56.2A2.89,2.89,0,0,1,283.29,83.61Z"/><path class="cls-2" d="M376.11,66.8C359.65,79,276.84,103.34,266.35,107"/><path class="cls-2" d="M266.35,109.79a2.74,2.74,0,0,1-.92-5.33c2.08-.73,6.78-2.21,13.28-4.26,24.8-7.79,82.86-26,95.77-35.61A2.74,2.74,0,1,1,377.74,69c-13.65,10.12-70.2,27.89-97.38,36.44-6.45,2-11.12,3.49-13.1,4.19A2.65,2.65,0,0,1,266.35,109.79Z"/><path class="cls-2" d="M283.39,125.73c-29.88,14-51.19,20.34-59.73,25.22"/><path class="cls-2" d="M223.66,153.7a2.75,2.75,0,0,1-1.36-5.13c4-2.28,10.28-4.72,19-8.1,10.32-4,24.44-9.48,40.93-17.22a2.74,2.74,0,1,1,2.33,5c-16.66,7.83-30.89,13.35-41.27,17.38-8.18,3.17-14.63,5.67-18.26,7.74A2.7,2.7,0,0,1,223.66,153.7Z"/><path class="cls-2" d="M376.11,80.82c-13.41,15.86-45.26,26.11-55.49,30.49"/><path class="cls-2" d="M320.62,114.06a2.75,2.75,0,0,1-1.08-5.27c1.73-.74,4-1.64,6.74-2.68,12.92-5,37-14.35,47.74-27.06a2.75,2.75,0,0,1,4.19,3.55c-11.66,13.77-35.63,23.07-49.95,28.62-2.64,1-4.92,1.91-6.56,2.62A2.75,2.75,0,0,1,320.62,114.06Z"/></g></g></svg>