<svg xmlns="http://www.w3.org/2000/svg" viewBox="0 0 424.87 576.03"><defs><style>.cls-1,.cls-2{fill:none;stroke:#999;stroke-width:9px;}.cls-1{stroke-miterlimit:10;}.cls-2{stroke-linecap:round;stroke-linejoin:round;}.cls-3{fill:#999;}</style></defs><title>Recurso 6</title><g id="Capa_2" data-name="Capa 2"><g id="Capa_4" data-name="Capa 4"><ellipse class="cls-1" cx="212.43" cy="45" rx="207.93" ry="40.5"/><path class="cls-1" d="M367.49,531c0,22.37-69.42,40.5-155.06,40.5S57.37,553.4,57.37,531"/><line class="cls-2" x1="57.67" y1="531.03" x2="4.5" y2="45"/><line class="cls-2" x1="420.37" y1="45" x2="367.4" y2="531.03"/><path class="cls-3" d="M122.77,347.52q-4.23,0-4.23-4.13t4.23-4.05h11.47v-46.9l-8.84,5.64a3.84,3.84,0,0,1-3.33.61,4.1,4.1,0,0,1-2.35-1.93,4.2,4.2,0,0,1-.47-3.05,4.28,4.28,0,0,1,2.11-2.78l13-8.17a26.1,26.1,0,0,1,3.06-1.56,7.28,7.28,0,0,1,2.77-.61,4,4,0,0,1,2.68.94,3.67,3.67,0,0,1,1.08,2.92v54.89h10.53q4.32,0,4.32,4.05t-4.32,4.13Z"/><path class="cls-3" d="M176.91,347.52q-4.78,0-4.79-4.42,0-2.34,2.54-5.07l20-21.43a38.9,38.9,0,0,0,6.63-9,18.53,18.53,0,0,0,2-8.23q0-10.71-12.6-10.71a22.9,22.9,0,0,0-14.19,4.79,3.59,3.59,0,0,1-3.15.8,3.72,3.72,0,0,1-2.26-1.83,4.69,4.69,0,0,1-.56-3.06,4.26,4.26,0,0,1,1.93-2.86,29,29,0,0,1,8.93-4.52,34.33,34.33,0,0,1,10.34-1.59q10.23,0,15.74,4.7t5.5,13.44a25.24,25.24,0,0,1-2.87,11.56,52.29,52.29,0,0,1-9,12l-16.45,17.2h27.35q4.32,0,4.32,4.05t-4.32,4.13Z"/><path class="cls-3" d="M247.6,348.37a23.66,23.66,0,0,1-12-2.92,19.82,19.82,0,0,1-7.85-8.22,30.25,30.25,0,0,1,0-25.29,19.82,19.82,0,0,1,7.85-8.22,23.77,23.77,0,0,1,12-2.92,23.38,23.38,0,0,1,11.84,2.92,20.13,20.13,0,0,1,7.9,8.22,29.76,29.76,0,0,1,0,25.29,20.13,20.13,0,0,1-7.9,8.22A23.28,23.28,0,0,1,247.6,348.37Zm0-7.33a11.69,11.69,0,0,0,9.4-4.23q3.57-4.23,3.57-12.22T257,312.41a12.76,12.76,0,0,0-18.89,0q-3.59,4.18-3.58,12.18t3.58,12.22A11.79,11.79,0,0,0,247.6,341Z"/><path class="cls-3" d="M281.91,347.52a3.72,3.72,0,0,1-3.06-1.22,4.14,4.14,0,0,1-.84-3,6,6,0,0,1,1.64-3.48L303.34,309h-22q-3.68,0-3.67-3.66t3.67-3.67h28.38a4.53,4.53,0,0,1,3.48,1.22,3.76,3.76,0,0,1,1,3,6.16,6.16,0,0,1-1.55,3.43l-24,31H311.8q3.76,0,3.76,3.58t-3.76,3.66Z"/></g></g></svg>