<svg  xmlns="http://www.w3.org/2000/svg" xmlns:xlink="http://www.w3.org/1999/xlink" viewBox="0 0 148.53 149.19"><defs><style>.cls-1{fill:#b3b3b3;}.cls-2,.cls-5{fill:#fff;}.cls-3{fill:none;}.cls-4{fill:url(#Degradado_sin_nombre);}.cls-5{fill-rule:evenodd;}</style><linearGradient id="Degradado_sin_nombre" x1="73.88" y1="134.09" x2="74.5" y2="29.57" gradientTransform="matrix(1, 0, 0, -1, 0, 153.85)" gradientUnits="userSpaceOnUse"><stop offset="0" stop-color="#57d163"/><stop offset="1" stop-color="#23b33a"/></linearGradient></defs><title>Recurso 2</title><g id="Capa_2" data-name="Capa 2"><g id="Capa_1-2" data-name="Capa 1"><path class="cls-2" d="M0,148.44l10.44-38.12a73.58,73.58,0,1,1,63.75,36.84h0A73.5,73.5,0,0,1,39,138.21Z"/><path class="cls-3" d="M74.22,12.42a61.17,61.17,0,0,0-51.83,93.67l1.45,2.31L17.66,131l23.15-6.07,2.24,1.33a61.1,61.1,0,0,0,31.12,8.52h0a61.16,61.16,0,0,0,0-122.31Z"/><path class="cls-4" d="M74.22,12.42a61.17,61.17,0,0,0-51.83,93.67l1.45,2.31L17.66,131l23.15-6.07,2.24,1.33a61.1,61.1,0,0,0,31.12,8.52h0a61.16,61.16,0,0,0,0-122.32Z"/><path class="cls-5" d="M55.81,42.8c-1.38-3.06-2.83-3.12-4.14-3.17l-3.52-.05a6.77,6.77,0,0,0-4.91,2.3,20.64,20.64,0,0,0-6.43,15.33c0,9.05,6.59,17.79,7.5,19S57,96.61,75.72,104c15.53,6.12,18.69,4.9,22.06,4.6s10.88-4.45,12.41-8.74,1.53-8,1.07-8.74-1.68-1.23-3.52-2.15-10.88-5.37-12.57-6-2.91-.92-4.13.92-4.75,6-5.82,7.21-2.15,1.38-4,.46a50.07,50.07,0,0,1-14.78-9.13A56,56,0,0,1,56.22,69.71c-1.07-1.84-.11-2.84.81-3.76s1.84-2.14,2.76-3.22a12.77,12.77,0,0,0,1.84-3.06,3.39,3.39,0,0,0-.16-3.22c-.46-.92-4-10-5.66-13.65"/></g></g></svg>
