<svg class="iconos" version="1.1" id="Capa_1" xmlns="http://www.w3.org/2000/svg" xmlns:xlink="http://www.w3.org/1999/xlink" x="0px" y="0px"
                    viewBox="0 0 480 480" style="enable-background:new 0 0 480 480;" xml:space="preserve">
                    <style type="text/css">
                    .st0{fill:#AA00FF;}
                    .st1{fill:#FFFFFF;}
                    </style>
                    <path class="st0" d="M386.7,480H93.3C41.8,480,0,438.2,0,386.7V93.3C0,41.8,41.8,0,93.3,0h293.3C438.2,0,480,41.8,480,93.3v293.3
                    C480,438.2,438.2,480,386.7,480z"/>
                    <path class="st1" d="M153.3,166.7H340c7.4,0,13.3-6,13.3-13.3V120c0-7.4-6-13.3-13.3-13.3H153.3c-7.4,0-13.3,6-13.3,13.3v33.3
                    C140,160.7,146,166.7,153.3,166.7z"/>
                    <path class="st1" d="M146.7,380H340c7.4,0,13.3-6,13.3-13.3v-33.3c0-7.4-6-13.3-13.3-13.3H146.7c-7.4,0-13.3,6-13.3,13.3v33.3
                    C133.3,374,139.3,380,146.7,380z"/>
                    <path class="st1" d="M216.7,66.7v80c0,3.7,3,6.7,6.7,6.7H270c3.7,0,6.7-3,6.7-6.7v-80c0-3.7-3-6.7-6.7-6.7h-46.7
                    C219.7,60,216.7,63,216.7,66.7z"/>
                    <path class="st1" d="M216.7,346.7v80c0,3.7,3,6.7,6.7,6.7H270c3.7,0,6.7-3,6.7-6.7v-80c0-3.7-3-6.7-6.7-6.7h-46.7
                    C219.7,340,216.7,343,216.7,346.7z"/>
                    <path class="st1" d="M141,332.5h72.3l137.3-171.2c2.4-3,0.3-7.4-3.5-7.4h-73.7L137,324C134.2,327.4,136.6,332.5,141,332.5z"/>
                    </svg>